ISO-10303-21;
HEADER;
FILE_DESCRIPTION(('Open CASCADE Model'),'2;1');
FILE_NAME('Open CASCADE Shape Model','2026-07-16T16:43:30',('Author'),(
    'Open CASCADE'),'Open CASCADE STEP processor 8.0','Open CASCADE 8.0'
  ,'Unknown');
FILE_SCHEMA(('AUTOMOTIVE_DESIGN { 1 0 10303 214 1 1 1 1 }'));
ENDSEC;
DATA;
#1 = APPLICATION_PROTOCOL_DEFINITION('international standard',
  'automotive_design',2000,#2);
#2 = APPLICATION_CONTEXT(
  'core data for automotive mechanical design processes');
#3 = SHAPE_DEFINITION_REPRESENTATION(#4,#10);
#4 = PRODUCT_DEFINITION_SHAPE('','',#5);
#5 = PRODUCT_DEFINITION('design','',#6,#9);
#6 = PRODUCT_DEFINITION_FORMATION('','',#7);
#7 = PRODUCT('Open CASCADE STEP translator 8.0 1',
  'Open CASCADE STEP translator 8.0 1','',(#8));
#8 = PRODUCT_CONTEXT('',#2,'mechanical');
#9 = PRODUCT_DEFINITION_CONTEXT('part definition',#2,'design');
#10 = ADVANCED_BREP_SHAPE_REPRESENTATION('',(#11,#15),#1129);
#11 = AXIS2_PLACEMENT_3D('',#12,#13,#14);
#12 = CARTESIAN_POINT('',(0.,0.,0.));
#13 = DIRECTION('',(0.,0.,1.));
#14 = DIRECTION('',(1.,0.,-0.));
#15 = MANIFOLD_SOLID_BREP('',#16);
#16 = CLOSED_SHELL('',(#17,#369,#515,#595,#630,#926,#981,#1122));
#17 = ADVANCED_FACE('',(#18),#33,.T.);
#18 = FACE_BOUND('',#19,.F.);
#19 = EDGE_LOOP('',(#20,#51,#317,#318,#347));
#20 = ORIENTED_EDGE('',*,*,#21,.F.);
#21 = EDGE_CURVE('',#22,#24,#26,.T.);
#22 = VERTEX_POINT('',#23);
#23 = CARTESIAN_POINT('',(81.300968833216,456.42453506148,
    -119.6444436629));
#24 = VERTEX_POINT('',#25);
#25 = CARTESIAN_POINT('',(81.300968833216,566.25257482862,-15.));
#26 = SEAM_CURVE('',#27,(#32,#44),.PCURVE_S1.);
#27 = CIRCLE('',#28,120.);
#28 = AXIS2_PLACEMENT_3D('',#29,#30,#31);
#29 = CARTESIAN_POINT('',(81.300968833216,447.19376583071,0.));
#30 = DIRECTION('',(1.,1.224646799147E-16,0.));
#31 = DIRECTION('',(0.,0.,-1.));
#32 = PCURVE('',#33,#38);
#33 = SPHERICAL_SURFACE('',#34,120.);
#34 = AXIS2_PLACEMENT_3D('',#35,#36,#37);
#35 = CARTESIAN_POINT('',(81.300968833216,447.19376583071,0.));
#36 = DIRECTION('',(-1.224646799147E-16,1.,0.));
#37 = DIRECTION('',(0.,0.,-1.));
#38 = DEFINITIONAL_REPRESENTATION('',(#39),#43);
#39 = LINE('',#40,#41);
#40 = CARTESIAN_POINT('',(-0.,0.));
#41 = VECTOR('',#42,1.);
#42 = DIRECTION('',(-0.,1.));
#43 = ( GEOMETRIC_REPRESENTATION_CONTEXT(2) 
PARAMETRIC_REPRESENTATION_CONTEXT() REPRESENTATION_CONTEXT('2D SPACE',''
  ) );
#44 = PCURVE('',#33,#45);
#45 = DEFINITIONAL_REPRESENTATION('',(#46),#50);
#46 = LINE('',#47,#48);
#47 = CARTESIAN_POINT('',(-6.28318530718,0.));
#48 = VECTOR('',#49,1.);
#49 = DIRECTION('',(-0.,1.));
#50 = ( GEOMETRIC_REPRESENTATION_CONTEXT(2) 
PARAMETRIC_REPRESENTATION_CONTEXT() REPRESENTATION_CONTEXT('2D SPACE',''
  ) );
#51 = ORIENTED_EDGE('',*,*,#52,.T.);
#52 = EDGE_CURVE('',#22,#22,#53,.T.);
#53 = SURFACE_CURVE('',#54,(#105,#159),.PCURVE_S1.);
#54 = ( BOUNDED_CURVE() B_SPLINE_CURVE(9,(#55,#56,#57,#58,#59,#60,#61,
    #62,#63,#64,#65,#66,#67,#68,#69,#70,#71,#72,#73,#74,#75,#76,#77,#78,
    #79,#80,#81,#82,#83,#84,#85,#86,#87,#88,#89,#90,#91,#92,#93,#94,#95,
    #96,#97,#98,#99,#100,#101,#102,#103,#104),.UNSPECIFIED.,.T.,.F.) 
B_SPLINE_CURVE_WITH_KNOTS((10,8,8,8,8,8,10),(2.303172383753E-13,
    125.66370614359,251.32741228718,376.99111843077,502.65482457436,
628.31853071795,753.98223686154),.UNSPECIFIED.) CURVE() 
GEOMETRIC_REPRESENTATION_ITEM() RATIONAL_B_SPLINE_CURVE((1.,1.,1.,1.,1.,
    1.,1.,1.,1.,1.,1.,1.,1.,1.,1.,1.,1.,1.,1.,1.,1.,1.,1.,1.,1.,1.,1.,1.
    ,1.,1.,1.,1.,1.,1.,1.,1.,1.,1.,1.,1.,1.,1.,1.,1.,1.,1.,1.,1.,1.,1.))
 REPRESENTATION_ITEM('') );
#55 = CARTESIAN_POINT('',(81.300968833216,456.42453506148,
    -119.6444436629));
#56 = CARTESIAN_POINT('',(94.260937957104,456.42453506148,
    -119.6444436629));
#57 = CARTESIAN_POINT('',(107.21504421906,456.42412299524,
    -118.0650686115));
#58 = CARTESIAN_POINT('',(120.17293792869,456.42429330568,
    -114.9094285664));
#59 = CARTESIAN_POINT('',(132.99592286711,456.42449056791,
    -110.0640370378));
#60 = CARTESIAN_POINT('',(145.52967359928,456.42449853767,
    -103.4534880202));
#61 = CARTESIAN_POINT('',(157.45556596416,456.42453010586,
    -94.90767423351));
#62 = CARTESIAN_POINT('',(168.2412932269,456.42453177321,-84.54330640238
    ));
#63 = CARTESIAN_POINT('',(177.47949317597,456.42453506148,
    -72.70279656716));
#64 = CARTESIAN_POINT('',(192.35269975793,456.42453506148,
    -46.94164709575));
#65 = CARTESIAN_POINT('',(197.98778209445,456.42453177321,-33.020876337)
  );
#66 = CARTESIAN_POINT('',(201.570724299,456.42453010586,-18.49797861361)
  );
#67 = CARTESIAN_POINT('',(203.00866995188,456.42449853767,
    -3.896945969477));
#68 = CARTESIAN_POINT('',(202.46669796799,456.42449056791,
    10.262875078095));
#69 = CARTESIAN_POINT('',(200.25143765383,456.42429330568,23.7906015514)
  );
#70 = CARTESIAN_POINT('',(196.50535524331,456.42412299524,
    36.590286706058));
#71 = CARTESIAN_POINT('',(191.3960810289,456.42453506148,48.598559337908
    ));
#72 = CARTESIAN_POINT('',(178.43611190501,456.42453506148,
    71.045884325007));
#73 = CARTESIAN_POINT('',(170.59127985747,456.42412299524,81.47478190552
    ));
#74 = CARTESIAN_POINT('',(161.37946855834,456.42429330568,
    91.118827015021));
#75 = CARTESIAN_POINT('',(150.77174393411,456.42449056791,
    99.801161959737));
#76 = CARTESIAN_POINT('',(138.7799651858,456.42449853767,107.35043398971
    ));
#77 = CARTESIAN_POINT('',(125.41612716806,456.42453010586,
    113.40565284712));
#78 = CARTESIAN_POINT('',(111.04745770076,456.42453177321,
    117.56418273939));
#79 = CARTESIAN_POINT('',(96.174175415171,456.42453506148,
    119.64444366291));
#80 = CARTESIAN_POINT('',(66.427762251261,456.42453506148,
    119.64444366291));
#81 = CARTESIAN_POINT('',(51.554479965663,456.42453177321,
    117.56418273938));
#82 = CARTESIAN_POINT('',(37.185810498368,456.42453010586,
    113.40565284713));
#83 = CARTESIAN_POINT('',(23.821972480626,456.42449853767,
    107.35043398969));
#84 = CARTESIAN_POINT('',(11.830193732325,456.42449056791,
    99.801161959759));
#85 = CARTESIAN_POINT('',(1.222469108086,456.42429330568,91.118827015007
    ));
#86 = CARTESIAN_POINT('',(-7.989342191039,456.42412299524,
    81.474781905526));
#87 = CARTESIAN_POINT('',(-15.83417423858,456.42453506148,
    71.045884325006));
#88 = CARTESIAN_POINT('',(-28.79414336246,456.42453506148,
    48.598559337908));
#89 = CARTESIAN_POINT('',(-33.90341757689,456.42412299524,
    36.590286706056));
#90 = CARTESIAN_POINT('',(-37.64949998739,456.42429330568,
    23.790601551402));
#91 = CARTESIAN_POINT('',(-39.86476030158,456.42449056791,
    10.262875078092));
#92 = CARTESIAN_POINT('',(-40.40673228544,456.42449853767,
    -3.896945969474));
#93 = CARTESIAN_POINT('',(-38.96878663258,456.42453010586,
    -18.49797861361));
#94 = CARTESIAN_POINT('',(-35.38584442802,456.42453177321,-33.020876337)
  );
#95 = CARTESIAN_POINT('',(-29.7507620915,456.42453506148,-46.94164709575
    ));
#96 = CARTESIAN_POINT('',(-14.87755550954,456.42453506148,
    -72.70279656716));
#97 = CARTESIAN_POINT('',(-5.639355560473,456.42453177321,
    -84.54330640238));
#98 = CARTESIAN_POINT('',(5.146371702269,456.42453010586,-94.90767423351
    ));
#99 = CARTESIAN_POINT('',(17.072264067139,456.42449853767,
    -103.4534880202));
#100 = CARTESIAN_POINT('',(29.60601479932,456.42449056791,
    -110.0640370378));
#101 = CARTESIAN_POINT('',(42.428999737734,456.42429330568,
    -114.9094285664));
#102 = CARTESIAN_POINT('',(55.386893447365,456.42412299524,
    -118.0650686115));
#103 = CARTESIAN_POINT('',(68.340999709327,456.42453506148,
    -119.6444436629));
#104 = CARTESIAN_POINT('',(81.300968833216,456.42453506148,
    -119.6444436629));
#105 = PCURVE('',#33,#106);
#106 = DEFINITIONAL_REPRESENTATION('',(#107),#158);
#107 = B_SPLINE_CURVE_WITH_KNOTS('',9,(#108,#109,#110,#111,#112,#113,
    #114,#115,#116,#117,#118,#119,#120,#121,#122,#123,#124,#125,#126,
    #127,#128,#129,#130,#131,#132,#133,#134,#135,#136,#137,#138,#139,
    #140,#141,#142,#143,#144,#145,#146,#147,#148,#149,#150,#151,#152,
    #153,#154,#155,#156,#157),.UNSPECIFIED.,.F.,.F.,(10,8,8,8,8,8,10),(
    2.303172383753E-13,125.66370614359,251.32741228718,376.99111843077,
    502.65482457436,628.31853071795,753.98223686154),.UNSPECIFIED.);
#108 = CARTESIAN_POINT('',(1.110223024625E-16,7.699914065682E-02));
#109 = CARTESIAN_POINT('',(-0.108320693608,7.699914065682E-02));
#110 = CARTESIAN_POINT('',(-0.216593900617,7.699569656668E-02));
#111 = CARTESIAN_POINT('',(-0.326725848561,7.699712003894E-02));
#112 = CARTESIAN_POINT('',(-0.439441328084,7.69987687743E-02));
#113 = CARTESIAN_POINT('',(-0.555680778438,7.699883538781E-02));
#114 = CARTESIAN_POINT('',(-0.675696789626,7.699909923703E-02));
#115 = CARTESIAN_POINT('',(-0.798573963383,7.699911317317E-02));
#116 = CARTESIAN_POINT('',(-0.922885831182,7.699914065682E-02));
#117 = CARTESIAN_POINT('',(-1.171509271211,7.699914065682E-02));
#118 = CARTESIAN_POINT('',(-1.29582113901,7.699911317317E-02));
#119 = CARTESIAN_POINT('',(-1.418698312768,7.699909923704E-02));
#120 = CARTESIAN_POINT('',(-1.538714323955,7.69988353878E-02));
#121 = CARTESIAN_POINT('',(-1.654953774309,7.699876877431E-02));
#122 = CARTESIAN_POINT('',(-1.767669253832,7.699712003893E-02));
#123 = CARTESIAN_POINT('',(-1.877801201777,7.699569656668E-02));
#124 = CARTESIAN_POINT('',(-1.986074408785,7.699914065682E-02));
#125 = CARTESIAN_POINT('',(-2.202715796001,7.699914065682E-02));
#126 = CARTESIAN_POINT('',(-2.31098900301,7.699569656668E-02));
#127 = CARTESIAN_POINT('',(-2.421120950954,7.699712003893E-02));
#128 = CARTESIAN_POINT('',(-2.533836430477,7.699876877431E-02));
#129 = CARTESIAN_POINT('',(-2.650075880831,7.69988353878E-02));
#130 = CARTESIAN_POINT('',(-2.770091892019,7.699909923704E-02));
#131 = CARTESIAN_POINT('',(-2.892969065776,7.699911317317E-02));
#132 = CARTESIAN_POINT('',(-3.017280933575,7.699914065682E-02));
#133 = CARTESIAN_POINT('',(-3.265904373605,7.699914065682E-02));
#134 = CARTESIAN_POINT('',(-3.390216241403,7.699911317317E-02));
#135 = CARTESIAN_POINT('',(-3.513093415161,7.699909923704E-02));
#136 = CARTESIAN_POINT('',(-3.633109426349,7.69988353878E-02));
#137 = CARTESIAN_POINT('',(-3.749348876702,7.699876877431E-02));
#138 = CARTESIAN_POINT('',(-3.862064356226,7.699712003892E-02));
#139 = CARTESIAN_POINT('',(-3.97219630417,7.699569656668E-02));
#140 = CARTESIAN_POINT('',(-4.080469511179,7.699914065682E-02));
#141 = CARTESIAN_POINT('',(-4.297110898394,7.699914065682E-02));
#142 = CARTESIAN_POINT('',(-4.405384105403,7.699569656668E-02));
#143 = CARTESIAN_POINT('',(-4.515516053347,7.699712003894E-02));
#144 = CARTESIAN_POINT('',(-4.62823153287,7.69987687743E-02));
#145 = CARTESIAN_POINT('',(-4.744470983225,7.699883538781E-02));
#146 = CARTESIAN_POINT('',(-4.864486994412,7.699909923703E-02));
#147 = CARTESIAN_POINT('',(-4.98736416817,7.699911317317E-02));
#148 = CARTESIAN_POINT('',(-5.111676035968,7.699914065682E-02));
#149 = CARTESIAN_POINT('',(-5.360299475998,7.699914065682E-02));
#150 = CARTESIAN_POINT('',(-5.484611343797,7.699911317317E-02));
#151 = CARTESIAN_POINT('',(-5.607488517553,7.699909923704E-02));
#152 = CARTESIAN_POINT('',(-5.727504528742,7.69988353878E-02));
#153 = CARTESIAN_POINT('',(-5.843743979095,7.699876877431E-02));
#154 = CARTESIAN_POINT('',(-5.956459458619,7.699712003893E-02));
#155 = CARTESIAN_POINT('',(-6.066591406563,7.699569656668E-02));
#156 = CARTESIAN_POINT('',(-6.174864613572,7.699914065682E-02));
#157 = CARTESIAN_POINT('',(-6.28318530718,7.699914065682E-02));
#158 = ( GEOMETRIC_REPRESENTATION_CONTEXT(2) 
PARAMETRIC_REPRESENTATION_CONTEXT() REPRESENTATION_CONTEXT('2D SPACE',''
  ) );
#159 = PCURVE('',#160,#311);
#160 = ( BOUNDED_SURFACE() B_SPLINE_SURFACE(2,9,(
    (#161,#162,#163,#164,#165,#166,#167,#168,#169,#170,#171,#172,#173
      ,#174,#175,#176,#177,#178,#179,#180,#181,#182,#183,#184,#185,#186
      ,#187,#188,#189,#190,#191,#192,#193,#194,#195,#196,#197,#198,#199
      ,#200,#201,#202,#203,#204,#205,#206,#207,#208,#209,#210)
    ,(#211,#212,#213,#214,#215,#216,#217,#218,#219,#220,#221,#222,#223
      ,#224,#225,#226,#227,#228,#229,#230,#231,#232,#233,#234,#235,#236
      ,#237,#238,#239,#240,#241,#242,#243,#244,#245,#246,#247,#248,#249
      ,#250,#251,#252,#253,#254,#255,#256,#257,#258,#259,#260)
    ,(#261,#262,#263,#264,#265,#266,#267,#268,#269,#270,#271,#272,#273
      ,#274,#275,#276,#277,#278,#279,#280,#281,#282,#283,#284,#285,#286
      ,#287,#288,#289,#290,#291,#292,#293,#294,#295,#296,#297,#298,#299
      ,#300,#301,#302,#303,#304,#305,#306,#307,#308,#309,#310
)),.UNSPECIFIED.,.F.,.T.,.F.) B_SPLINE_SURFACE_WITH_KNOTS((3,3),(10,8,8,
    8,8,8,10),(0.,753.98223686154),(2.303172383753E-13,125.66370614359,
    251.32741228718,376.99111843077,502.65482457436,628.31853071795,
753.98223686154),.UNSPECIFIED.) GEOMETRIC_REPRESENTATION_ITEM() 
RATIONAL_B_SPLINE_SURFACE((
    (1.,1.,1.,1.,1.,1.,1.,1.,1.,1.,1.,1.,1.,1.,1.,1.,1.,1.,1.,1.,1.,1.
      ,1.,1.,1.,1.,1.,1.,1.,1.,1.,1.,1.,1.,1.,1.,1.,1.,1.,1.,1.,1.,1.,1.
      ,1.,1.,1.,1.,1.,1.)
    ,(0.733799385705,0.733799385705,0.733813424518,0.733807621895
      ,0.733800901829,0.733800629883,0.733799554601,0.733799497723
      ,0.733799385705,0.733799385705,0.733799497723,0.733799554601
      ,0.733800629883,0.733800901829,0.733807621895,0.733813424519
      ,0.733799385705,0.733799385705,0.733813424518,0.733807621895
      ,0.733800901829,0.733800629883,0.733799554601,0.733799497723
      ,0.733799385705,0.733799385705,0.733799497723,0.733799554601
      ,0.733800629883,0.733800901829,0.733807621895,0.733813424519
      ,0.733799385705,0.733799385705,0.733813424518,0.733807621895
      ,0.733800901829,0.733800629883,0.733799554601,0.733799497723
      ,0.733799385705,0.733799385705,0.733799497723,0.733799554601
      ,0.733800629883,0.733800901829,0.733807621895,0.733813424518
      ,0.733799385705,0.733799385705)
    ,(1.,1.,1.,1.,1.,1.,1.,1.,1.,1.,1.,1.,1.,1.,1.,1.,1.,1.,1.,1.,1.,1.
      ,1.,1.,1.,1.,1.,1.,1.,1.,1.,1.,1.,1.,1.,1.,1.,1.,1.,1.,1.,1.,1.,1.
,1.,1.,1.,1.,1.,1.))) REPRESENTATION_ITEM('') SURFACE() );
#161 = CARTESIAN_POINT('',(81.300968833216,456.42453506148,
    -119.6444436629));
#162 = CARTESIAN_POINT('',(94.260937957104,456.42453506148,
    -119.6444436629));
#163 = CARTESIAN_POINT('',(107.21504421906,456.42412299524,
    -118.0650686115));
#164 = CARTESIAN_POINT('',(120.17293792869,456.42429330568,
    -114.9094285664));
#165 = CARTESIAN_POINT('',(132.99592286711,456.42449056791,
    -110.0640370378));
#166 = CARTESIAN_POINT('',(145.52967359928,456.42449853767,
    -103.4534880202));
#167 = CARTESIAN_POINT('',(157.45556596416,456.42453010586,
    -94.90767423351));
#168 = CARTESIAN_POINT('',(168.2412932269,456.42453177321,
    -84.54330640238));
#169 = CARTESIAN_POINT('',(177.47949317597,456.42453506148,
    -72.70279656716));
#170 = CARTESIAN_POINT('',(192.35269975793,456.42453506148,
    -46.94164709575));
#171 = CARTESIAN_POINT('',(197.98778209445,456.42453177321,-33.020876337
    ));
#172 = CARTESIAN_POINT('',(201.570724299,456.42453010586,-18.49797861361
    ));
#173 = CARTESIAN_POINT('',(203.00866995188,456.42449853767,
    -3.896945969477));
#174 = CARTESIAN_POINT('',(202.46669796799,456.42449056791,
    10.262875078095));
#175 = CARTESIAN_POINT('',(200.25143765383,456.42429330568,23.7906015514
    ));
#176 = CARTESIAN_POINT('',(196.50535524331,456.42412299524,
    36.590286706058));
#177 = CARTESIAN_POINT('',(191.3960810289,456.42453506148,
    48.598559337908));
#178 = CARTESIAN_POINT('',(178.43611190501,456.42453506148,
    71.045884325007));
#179 = CARTESIAN_POINT('',(170.59127985747,456.42412299524,
    81.47478190552));
#180 = CARTESIAN_POINT('',(161.37946855834,456.42429330568,
    91.118827015021));
#181 = CARTESIAN_POINT('',(150.77174393411,456.42449056791,
    99.801161959737));
#182 = CARTESIAN_POINT('',(138.7799651858,456.42449853767,
    107.35043398971));
#183 = CARTESIAN_POINT('',(125.41612716806,456.42453010586,
    113.40565284712));
#184 = CARTESIAN_POINT('',(111.04745770076,456.42453177321,
    117.56418273939));
#185 = CARTESIAN_POINT('',(96.174175415171,456.42453506148,
    119.64444366291));
#186 = CARTESIAN_POINT('',(66.427762251261,456.42453506148,
    119.64444366291));
#187 = CARTESIAN_POINT('',(51.554479965663,456.42453177321,
    117.56418273938));
#188 = CARTESIAN_POINT('',(37.185810498368,456.42453010586,
    113.40565284713));
#189 = CARTESIAN_POINT('',(23.821972480626,456.42449853767,
    107.35043398969));
#190 = CARTESIAN_POINT('',(11.830193732325,456.42449056791,
    99.801161959759));
#191 = CARTESIAN_POINT('',(1.222469108086,456.42429330568,
    91.118827015007));
#192 = CARTESIAN_POINT('',(-7.989342191039,456.42412299524,
    81.474781905526));
#193 = CARTESIAN_POINT('',(-15.83417423858,456.42453506148,
    71.045884325006));
#194 = CARTESIAN_POINT('',(-28.79414336246,456.42453506148,
    48.598559337908));
#195 = CARTESIAN_POINT('',(-33.90341757689,456.42412299524,
    36.590286706056));
#196 = CARTESIAN_POINT('',(-37.64949998739,456.42429330568,
    23.790601551402));
#197 = CARTESIAN_POINT('',(-39.86476030158,456.42449056791,
    10.262875078092));
#198 = CARTESIAN_POINT('',(-40.40673228544,456.42449853767,
    -3.896945969474));
#199 = CARTESIAN_POINT('',(-38.96878663258,456.42453010586,
    -18.49797861361));
#200 = CARTESIAN_POINT('',(-35.38584442802,456.42453177321,-33.020876337
    ));
#201 = CARTESIAN_POINT('',(-29.7507620915,456.42453506148,
    -46.94164709575));
#202 = CARTESIAN_POINT('',(-14.87755550954,456.42453506148,
    -72.70279656716));
#203 = CARTESIAN_POINT('',(-5.639355560473,456.42453177321,
    -84.54330640238));
#204 = CARTESIAN_POINT('',(5.146371702269,456.42453010586,
    -94.90767423351));
#205 = CARTESIAN_POINT('',(17.072264067139,456.42449853767,
    -103.4534880202));
#206 = CARTESIAN_POINT('',(29.60601479932,456.42449056791,
    -110.0640370378));
#207 = CARTESIAN_POINT('',(42.428999737734,456.42429330568,
    -114.9094285664));
#208 = CARTESIAN_POINT('',(55.386893447365,456.42412299524,
    -118.0650686115));
#209 = CARTESIAN_POINT('',(68.340999709327,456.42453506148,
    -119.6444436629));
#210 = CARTESIAN_POINT('',(81.300968833216,456.42453506148,
    -119.6444436629));
#211 = CARTESIAN_POINT('',(81.300968833216,447.19376583071,
    -120.3566129704));
#212 = CARTESIAN_POINT('',(94.321852200274,447.19376583071,
    -120.3566129704));
#213 = CARTESIAN_POINT('',(107.34779268706,447.19376583071,
    -118.7717632778));
#214 = CARTESIAN_POINT('',(120.3866268813,447.19376583071,
    -115.6004802545));
#215 = CARTESIAN_POINT('',(133.29170844842,447.19376583071,
    -110.7266040629));
#216 = CARTESIAN_POINT('',(145.90555528578,447.19376583071,
    -104.0749751225));
#217 = CARTESIAN_POINT('',(157.90556926152,447.19376583071,
    -95.47606142068));
#218 = CARTESIAN_POINT('',(168.75714691079,447.19376583071,
    -85.04865624038));
#219 = CARTESIAN_POINT('',(178.05132078388,447.19376583071,
    -73.13670071213));
#220 = CARTESIAN_POINT('',(193.01438557423,447.19376583071,
    -47.21991225829));
#221 = CARTESIAN_POINT('',(198.6833547339,447.19376583071,
    -33.21494381289));
#222 = CARTESIAN_POINT('',(202.28796369096,447.19376583071,
    -18.60349930732));
#223 = CARTESIAN_POINT('',(203.73483441385,447.19376583071,
    -3.911725507648));
#224 = CARTESIAN_POINT('',(203.18839063411,447.19376583071,
    10.338000763178));
#225 = CARTESIAN_POINT('',(200.95675044734,447.19376583071,
    23.951067333967));
#226 = CARTESIAN_POINT('',(197.18374501099,447.19376583071,
    36.828670493575));
#227 = CARTESIAN_POINT('',(192.04329486259,447.19376583071,
    48.901890709629));
#228 = CARTESIAN_POINT('',(179.02241149553,447.19376583071,
    71.454722260802));
#229 = CARTESIAN_POINT('',(171.13692115715,447.19376583071,
    81.943092784243));
#230 = CARTESIAN_POINT('',(161.87109239923,447.19376583071,
    91.649412920519));
#231 = CARTESIAN_POINT('',(151.19765101894,447.19376583071,
    100.38860329981));
#232 = CARTESIAN_POINT('',(139.13024796126,447.19376583071,
    107.98670063016));
#233 = CARTESIAN_POINT('',(125.68336326267,447.19376583071,
    114.07956072803));
#234 = CARTESIAN_POINT('',(111.22717665631,447.19376583071,
    118.26360005326));
#235 = CARTESIAN_POINT('',(96.264033623569,447.19376583071,
    120.35661297043));
#236 = CARTESIAN_POINT('',(66.337904042863,447.19376583071,
    120.35661297043));
#237 = CARTESIAN_POINT('',(51.374761010112,447.19376583071,
    118.26360005327));
#238 = CARTESIAN_POINT('',(36.918574403768,447.19376583071,
    114.07956072801));
#239 = CARTESIAN_POINT('',(23.471689705149,447.19376583071,
    107.98670063019));
#240 = CARTESIAN_POINT('',(11.404286647511,447.19376583071,
    100.38860329978));
#241 = CARTESIAN_POINT('',(0.730845267183,447.19376583071,
    91.649412920538));
#242 = CARTESIAN_POINT('',(-8.534983490716,447.19376583071,
    81.943092784235));
#243 = CARTESIAN_POINT('',(-16.4204738291,447.19376583071,
    71.454722260804));
#244 = CARTESIAN_POINT('',(-29.44135719615,447.19376583071,
    48.901890709628));
#245 = CARTESIAN_POINT('',(-34.58180734457,447.19376583071,
    36.828670493578));
#246 = CARTESIAN_POINT('',(-38.3548127809,447.19376583071,
    23.951067333963));
#247 = CARTESIAN_POINT('',(-40.58645296771,447.19376583071,
    10.338000763179));
#248 = CARTESIAN_POINT('',(-41.1328967474,447.19376583071,
    -3.911725507648));
#249 = CARTESIAN_POINT('',(-39.68602602455,447.19376583071,
    -18.60349930732));
#250 = CARTESIAN_POINT('',(-36.08141706746,447.19376583071,
    -33.21494381289));
#251 = CARTESIAN_POINT('',(-30.4124479078,447.19376583071,
    -47.21991225829));
#252 = CARTESIAN_POINT('',(-15.44938311745,447.19376583071,
    -73.13670071213));
#253 = CARTESIAN_POINT('',(-6.155209244368,447.19376583071,
    -85.04865624037));
#254 = CARTESIAN_POINT('',(4.696368404907,447.19376583071,
    -95.47606142069));
#255 = CARTESIAN_POINT('',(16.696382380643,447.19376583071,
    -104.0749751225));
#256 = CARTESIAN_POINT('',(29.310229218016,447.19376583071,
    -110.7266040629));
#257 = CARTESIAN_POINT('',(42.215310785118,447.19376583071,
    -115.6004802545));
#258 = CARTESIAN_POINT('',(55.254144979368,447.19376583071,
    -118.7717632778));
#259 = CARTESIAN_POINT('',(68.280085466156,447.19376583071,
    -120.3566129704));
#260 = CARTESIAN_POINT('',(81.300968833216,447.19376583071,
    -120.3566129704));
#261 = CARTESIAN_POINT('',(81.300968833216,447.19376583071,
    -129.6148139681));
#262 = CARTESIAN_POINT('',(95.113737361497,447.19376583071,
    -129.6148139681));
#263 = CARTESIAN_POINT('',(109.08058325709,447.19376583071,
    -127.9533394628));
#264 = CARTESIAN_POINT('',(123.15516631671,447.19376583071,
    -124.5808654616));
#265 = CARTESIAN_POINT('',(137.13525882157,447.19376583071,
    -119.3429494637));
#266 = CARTESIAN_POINT('',(150.79185952775,447.19376583071,
    -112.1529872016));
#267 = CARTESIAN_POINT('',(163.75515203256,447.19376583071,-102.86567272
    ));
#268 = CARTESIAN_POINT('',(175.46325031791,447.19376583071,
    -91.61813118408));
#269 = CARTESIAN_POINT('',(185.48507968667,447.19376583071,
    -78.77745459673));
#270 = CARTESIAN_POINT('',(201.61630118619,447.19376583071,
    -50.83735937142));
#271 = CARTESIAN_POINT('',(207.72573862823,447.19376583071,-35.737862252
    ));
#272 = CARTESIAN_POINT('',(211.6123461858,447.19376583071,
    -19.97458093891));
#273 = CARTESIAN_POINT('',(213.17375020742,447.19376583071,
    -4.104383072254));
#274 = CARTESIAN_POINT('',(212.57213982556,447.19376583071,
    11.317561199688));
#275 = CARTESIAN_POINT('',(210.11826189015,447.19376583071,
    26.043634455081));
#276 = CARTESIAN_POINT('',(206.00161851908,447.19376583071,
    39.918817933031));
#277 = CARTESIAN_POINT('',(200.45707470057,447.19376583071,
    52.845198541993));
#278 = CARTESIAN_POINT('',(186.64430617229,447.19376583071,
    76.769615426164));
#279 = CARTESIAN_POINT('',(178.2220040952,447.19376583071,
    88.034521529866));
#280 = CARTESIAN_POINT('',(168.26406440665,447.19376583071,
    98.537231006522));
#281 = CARTESIAN_POINT('',(156.73784983721,447.19376583071,
    108.02538826405));
#282 = CARTESIAN_POINT('',(143.68285951288,447.19376583071,
    116.2573702739));
#283 = CARTESIAN_POINT('',(129.15816298646,447.19376583071,
    122.84025365893));
#284 = CARTESIAN_POINT('',(113.56345714353,447.19376583071,
    127.35599343609));
#285 = CARTESIAN_POINT('',(97.432190332734,447.19376583071,
    129.61481396815));
#286 = CARTESIAN_POINT('',(65.169747333697,447.19376583071,
    129.61481396815));
#287 = CARTESIAN_POINT('',(49.038480522894,447.19376583071,
    127.35599343609));
#288 = CARTESIAN_POINT('',(33.443774679974,447.19376583071,
    122.84025365894));
#289 = CARTESIAN_POINT('',(18.919078153547,447.19376583071,
    116.2573702739));
#290 = CARTESIAN_POINT('',(5.864087829227,447.19376583071,
    108.02538826406));
#291 = CARTESIAN_POINT('',(-5.662126740231,447.19376583071,
    98.537231006516));
#292 = CARTESIAN_POINT('',(-15.62006642876,447.19376583071,
    88.034521529869));
#293 = CARTESIAN_POINT('',(-24.04236850586,447.19376583071,
    76.769615426164));
#294 = CARTESIAN_POINT('',(-37.85513703414,447.19376583071,
    52.845198541993));
#295 = CARTESIAN_POINT('',(-43.39968085264,447.19376583071,
    39.918817933031));
#296 = CARTESIAN_POINT('',(-47.51632422373,447.19376583071,
    26.04363445508));
#297 = CARTESIAN_POINT('',(-49.97020215912,447.19376583071,
    11.317561199688));
#298 = CARTESIAN_POINT('',(-50.571812541,447.19376583071,-4.104383072254
    ));
#299 = CARTESIAN_POINT('',(-49.01040851936,447.19376583071,
    -19.97458093892));
#300 = CARTESIAN_POINT('',(-45.1238009618,447.19376583071,-35.737862252)
  );
#301 = CARTESIAN_POINT('',(-39.01436351976,447.19376583071,
    -50.83735937142));
#302 = CARTESIAN_POINT('',(-22.88314202024,447.19376583071,
    -78.77745459673));
#303 = CARTESIAN_POINT('',(-12.86131265148,447.19376583071,
    -91.61813118408));
#304 = CARTESIAN_POINT('',(-1.153214366132,447.19376583071,-102.86567272
    ));
#305 = CARTESIAN_POINT('',(11.810078138676,447.19376583071,
    -112.1529872016));
#306 = CARTESIAN_POINT('',(25.466678844858,447.19376583071,
    -119.3429494637));
#307 = CARTESIAN_POINT('',(39.446771349717,447.19376583071,
    -124.5808654615));
#308 = CARTESIAN_POINT('',(53.521354409335,447.19376583071,
    -127.9533394629));
#309 = CARTESIAN_POINT('',(67.488200304934,447.19376583071,
    -129.6148139681));
#310 = CARTESIAN_POINT('',(81.300968833216,447.19376583071,
    -129.6148139681));
#311 = DEFINITIONAL_REPRESENTATION('',(#312),#316);
#312 = LINE('',#313,#314);
#313 = CARTESIAN_POINT('',(0.,0.));
#314 = VECTOR('',#315,1.);
#315 = DIRECTION('',(0.,1.));
#316 = ( GEOMETRIC_REPRESENTATION_CONTEXT(2) 
PARAMETRIC_REPRESENTATION_CONTEXT() REPRESENTATION_CONTEXT('2D SPACE',''
  ) );
#317 = ORIENTED_EDGE('',*,*,#21,.T.);
#318 = ORIENTED_EDGE('',*,*,#319,.F.);
#319 = EDGE_CURVE('',#320,#24,#322,.T.);
#320 = VERTEX_POINT('',#321);
#321 = CARTESIAN_POINT('',(96.300968833216,566.25257482862,0.));
#322 = SURFACE_CURVE('',#323,(#328,#335),.PCURVE_S1.);
#323 = CIRCLE('',#324,15.);
#324 = AXIS2_PLACEMENT_3D('',#325,#326,#327);
#325 = CARTESIAN_POINT('',(81.300968833216,566.25257482862,0.));
#326 = DIRECTION('',(1.224646799147E-16,-1.,0.));
#327 = DIRECTION('',(-1.,-1.224646799147E-16,0.));
#328 = PCURVE('',#33,#329);
#329 = DEFINITIONAL_REPRESENTATION('',(#330),#334);
#330 = LINE('',#331,#332);
#331 = CARTESIAN_POINT('',(1.570796326795,1.445468495627));
#332 = VECTOR('',#333,1.);
#333 = DIRECTION('',(-1.,0.));
#334 = ( GEOMETRIC_REPRESENTATION_CONTEXT(2) 
PARAMETRIC_REPRESENTATION_CONTEXT() REPRESENTATION_CONTEXT('2D SPACE',''
  ) );
#335 = PCURVE('',#336,#341);
#336 = CYLINDRICAL_SURFACE('',#337,15.);
#337 = AXIS2_PLACEMENT_3D('',#338,#339,#340);
#338 = CARTESIAN_POINT('',(81.300968833216,447.19376583071,0.));
#339 = DIRECTION('',(1.224646799147E-16,-1.,0.));
#340 = DIRECTION('',(1.,1.224646799147E-16,0.));
#341 = DEFINITIONAL_REPRESENTATION('',(#342),#346);
#342 = LINE('',#343,#344);
#343 = CARTESIAN_POINT('',(-9.424777960769,-119.0588089979));
#344 = VECTOR('',#345,1.);
#345 = DIRECTION('',(1.,-0.));
#346 = ( GEOMETRIC_REPRESENTATION_CONTEXT(2) 
PARAMETRIC_REPRESENTATION_CONTEXT() REPRESENTATION_CONTEXT('2D SPACE',''
  ) );
#347 = ORIENTED_EDGE('',*,*,#348,.F.);
#348 = EDGE_CURVE('',#24,#320,#349,.T.);
#349 = SURFACE_CURVE('',#350,(#355,#362),.PCURVE_S1.);
#350 = CIRCLE('',#351,15.);
#351 = AXIS2_PLACEMENT_3D('',#352,#353,#354);
#352 = CARTESIAN_POINT('',(81.300968833216,566.25257482862,0.));
#353 = DIRECTION('',(1.224646799147E-16,-1.,0.));
#354 = DIRECTION('',(-1.,-1.224646799147E-16,0.));
#355 = PCURVE('',#33,#356);
#356 = DEFINITIONAL_REPRESENTATION('',(#357),#361);
#357 = LINE('',#358,#359);
#358 = CARTESIAN_POINT('',(1.570796326795,1.445468495627));
#359 = VECTOR('',#360,1.);
#360 = DIRECTION('',(-1.,0.));
#361 = ( GEOMETRIC_REPRESENTATION_CONTEXT(2) 
PARAMETRIC_REPRESENTATION_CONTEXT() REPRESENTATION_CONTEXT('2D SPACE',''
  ) );
#362 = PCURVE('',#336,#363);
#363 = DEFINITIONAL_REPRESENTATION('',(#364),#368);
#364 = LINE('',#365,#366);
#365 = CARTESIAN_POINT('',(-3.14159265359,-119.0588089979));
#366 = VECTOR('',#367,1.);
#367 = DIRECTION('',(1.,-0.));
#368 = ( GEOMETRIC_REPRESENTATION_CONTEXT(2) 
PARAMETRIC_REPRESENTATION_CONTEXT() REPRESENTATION_CONTEXT('2D SPACE',''
  ) );
#369 = ADVANCED_FACE('',(#370),#160,.F.);
#370 = FACE_BOUND('',#371,.F.);
#371 = EDGE_LOOP('',(#372,#393,#513,#514));
#372 = ORIENTED_EDGE('',*,*,#373,.T.);
#373 = EDGE_CURVE('',#22,#374,#376,.T.);
#374 = VERTEX_POINT('',#375);
#375 = CARTESIAN_POINT('',(81.300968833216,447.19376583071,
    -129.6148139681));
#376 = SEAM_CURVE('',#377,(#381,#387),.PCURVE_S1.);
#377 = ( BOUNDED_CURVE() B_SPLINE_CURVE(2,(#378,#379,#380),
.UNSPECIFIED.,.F.,.F.) B_SPLINE_CURVE_WITH_KNOTS((3,3),(0.,
753.98223686154),.PIECEWISE_BEZIER_KNOTS.) CURVE() 
GEOMETRIC_REPRESENTATION_ITEM() RATIONAL_B_SPLINE_CURVE((1.,
0.733799385705,1.)) REPRESENTATION_ITEM('') );
#378 = CARTESIAN_POINT('',(81.300968833216,456.42453506148,
    -119.6444436629));
#379 = CARTESIAN_POINT('',(81.300968833216,447.19376583071,
    -120.3566129704));
#380 = CARTESIAN_POINT('',(81.300968833216,447.19376583071,
    -129.6148139681));
#381 = PCURVE('',#160,#382);
#382 = DEFINITIONAL_REPRESENTATION('',(#383),#386);
#383 = B_SPLINE_CURVE_WITH_KNOTS('',1,(#384,#385),.UNSPECIFIED.,.F.,.F.,
  (2,2),(0.,753.98223686154),.PIECEWISE_BEZIER_KNOTS.);
#384 = CARTESIAN_POINT('',(0.,2.303172383753E-13));
#385 = CARTESIAN_POINT('',(753.98223686154,2.303172383753E-13));
#386 = ( GEOMETRIC_REPRESENTATION_CONTEXT(2) 
PARAMETRIC_REPRESENTATION_CONTEXT() REPRESENTATION_CONTEXT('2D SPACE',''
  ) );
#387 = PCURVE('',#160,#388);
#388 = DEFINITIONAL_REPRESENTATION('',(#389),#392);
#389 = B_SPLINE_CURVE_WITH_KNOTS('',1,(#390,#391),.UNSPECIFIED.,.F.,.F.,
  (2,2),(0.,753.98223686154),.PIECEWISE_BEZIER_KNOTS.);
#390 = CARTESIAN_POINT('',(0.,753.98223686154));
#391 = CARTESIAN_POINT('',(753.98223686154,753.98223686154));
#392 = ( GEOMETRIC_REPRESENTATION_CONTEXT(2) 
PARAMETRIC_REPRESENTATION_CONTEXT() REPRESENTATION_CONTEXT('2D SPACE',''
  ) );
#393 = ORIENTED_EDGE('',*,*,#394,.T.);
#394 = EDGE_CURVE('',#374,#374,#395,.T.);
#395 = SURFACE_CURVE('',#396,(#447,#454),.PCURVE_S1.);
#396 = ( BOUNDED_CURVE() B_SPLINE_CURVE(9,(#397,#398,#399,#400,#401,#402
    ,#403,#404,#405,#406,#407,#408,#409,#410,#411,#412,#413,#414,#415,
    #416,#417,#418,#419,#420,#421,#422,#423,#424,#425,#426,#427,#428,
    #429,#430,#431,#432,#433,#434,#435,#436,#437,#438,#439,#440,#441,
    #442,#443,#444,#445,#446),.UNSPECIFIED.,.T.,.F.) 
B_SPLINE_CURVE_WITH_KNOTS((10,8,8,8,8,8,10),(2.303172383753E-13,
    125.66370614359,251.32741228718,376.99111843077,502.65482457436,
628.31853071795,753.98223686154),.UNSPECIFIED.) CURVE() 
GEOMETRIC_REPRESENTATION_ITEM() RATIONAL_B_SPLINE_CURVE((1.,1.,1.,1.,1.,
    1.,1.,1.,1.,1.,1.,1.,1.,1.,1.,1.,1.,1.,1.,1.,1.,1.,1.,1.,1.,1.,1.,1.
    ,1.,1.,1.,1.,1.,1.,1.,1.,1.,1.,1.,1.,1.,1.,1.,1.,1.,1.,1.,1.,1.,1.))
 REPRESENTATION_ITEM('') );
#397 = CARTESIAN_POINT('',(81.300968833216,447.19376583071,
    -129.6148139681));
#398 = CARTESIAN_POINT('',(95.113737361497,447.19376583071,
    -129.6148139681));
#399 = CARTESIAN_POINT('',(109.08058325709,447.19376583071,
    -127.9533394628));
#400 = CARTESIAN_POINT('',(123.15516631671,447.19376583071,
    -124.5808654616));
#401 = CARTESIAN_POINT('',(137.13525882157,447.19376583071,
    -119.3429494637));
#402 = CARTESIAN_POINT('',(150.79185952775,447.19376583071,
    -112.1529872016));
#403 = CARTESIAN_POINT('',(163.75515203256,447.19376583071,-102.86567272
    ));
#404 = CARTESIAN_POINT('',(175.46325031791,447.19376583071,
    -91.61813118408));
#405 = CARTESIAN_POINT('',(185.48507968667,447.19376583071,
    -78.77745459673));
#406 = CARTESIAN_POINT('',(201.61630118619,447.19376583071,
    -50.83735937142));
#407 = CARTESIAN_POINT('',(207.72573862823,447.19376583071,-35.737862252
    ));
#408 = CARTESIAN_POINT('',(211.6123461858,447.19376583071,
    -19.97458093891));
#409 = CARTESIAN_POINT('',(213.17375020742,447.19376583071,
    -4.104383072254));
#410 = CARTESIAN_POINT('',(212.57213982556,447.19376583071,
    11.317561199688));
#411 = CARTESIAN_POINT('',(210.11826189015,447.19376583071,
    26.043634455081));
#412 = CARTESIAN_POINT('',(206.00161851908,447.19376583071,
    39.918817933031));
#413 = CARTESIAN_POINT('',(200.45707470057,447.19376583071,
    52.845198541993));
#414 = CARTESIAN_POINT('',(186.64430617229,447.19376583071,
    76.769615426164));
#415 = CARTESIAN_POINT('',(178.2220040952,447.19376583071,
    88.034521529866));
#416 = CARTESIAN_POINT('',(168.26406440665,447.19376583071,
    98.537231006522));
#417 = CARTESIAN_POINT('',(156.73784983721,447.19376583071,
    108.02538826405));
#418 = CARTESIAN_POINT('',(143.68285951288,447.19376583071,
    116.2573702739));
#419 = CARTESIAN_POINT('',(129.15816298646,447.19376583071,
    122.84025365893));
#420 = CARTESIAN_POINT('',(113.56345714353,447.19376583071,
    127.35599343609));
#421 = CARTESIAN_POINT('',(97.432190332734,447.19376583071,
    129.61481396815));
#422 = CARTESIAN_POINT('',(65.169747333697,447.19376583071,
    129.61481396815));
#423 = CARTESIAN_POINT('',(49.038480522894,447.19376583071,
    127.35599343609));
#424 = CARTESIAN_POINT('',(33.443774679974,447.19376583071,
    122.84025365894));
#425 = CARTESIAN_POINT('',(18.919078153547,447.19376583071,
    116.2573702739));
#426 = CARTESIAN_POINT('',(5.864087829227,447.19376583071,
    108.02538826406));
#427 = CARTESIAN_POINT('',(-5.662126740231,447.19376583071,
    98.537231006516));
#428 = CARTESIAN_POINT('',(-15.62006642876,447.19376583071,
    88.034521529869));
#429 = CARTESIAN_POINT('',(-24.04236850586,447.19376583071,
    76.769615426164));
#430 = CARTESIAN_POINT('',(-37.85513703414,447.19376583071,
    52.845198541993));
#431 = CARTESIAN_POINT('',(-43.39968085264,447.19376583071,
    39.918817933031));
#432 = CARTESIAN_POINT('',(-47.51632422373,447.19376583071,
    26.04363445508));
#433 = CARTESIAN_POINT('',(-49.97020215912,447.19376583071,
    11.317561199688));
#434 = CARTESIAN_POINT('',(-50.571812541,447.19376583071,-4.104383072254
    ));
#435 = CARTESIAN_POINT('',(-49.01040851936,447.19376583071,
    -19.97458093892));
#436 = CARTESIAN_POINT('',(-45.1238009618,447.19376583071,-35.737862252)
  );
#437 = CARTESIAN_POINT('',(-39.01436351976,447.19376583071,
    -50.83735937142));
#438 = CARTESIAN_POINT('',(-22.88314202024,447.19376583071,
    -78.77745459673));
#439 = CARTESIAN_POINT('',(-12.86131265148,447.19376583071,
    -91.61813118408));
#440 = CARTESIAN_POINT('',(-1.153214366132,447.19376583071,-102.86567272
    ));
#441 = CARTESIAN_POINT('',(11.810078138676,447.19376583071,
    -112.1529872016));
#442 = CARTESIAN_POINT('',(25.466678844858,447.19376583071,
    -119.3429494637));
#443 = CARTESIAN_POINT('',(39.446771349717,447.19376583071,
    -124.5808654615));
#444 = CARTESIAN_POINT('',(53.521354409335,447.19376583071,
    -127.9533394629));
#445 = CARTESIAN_POINT('',(67.488200304934,447.19376583071,
    -129.6148139681));
#446 = CARTESIAN_POINT('',(81.300968833216,447.19376583071,
    -129.6148139681));
#447 = PCURVE('',#160,#448);
#448 = DEFINITIONAL_REPRESENTATION('',(#449),#453);
#449 = LINE('',#450,#451);
#450 = CARTESIAN_POINT('',(753.98223686154,0.));
#451 = VECTOR('',#452,1.);
#452 = DIRECTION('',(0.,1.));
#453 = ( GEOMETRIC_REPRESENTATION_CONTEXT(2) 
PARAMETRIC_REPRESENTATION_CONTEXT() REPRESENTATION_CONTEXT('2D SPACE',''
  ) );
#454 = PCURVE('',#455,#460);
#455 = PLANE('',#456);
#456 = AXIS2_PLACEMENT_3D('',#457,#458,#459);
#457 = CARTESIAN_POINT('',(81.300968833216,447.19376583071,0.));
#458 = DIRECTION('',(1.224646799147E-16,-1.,0.));
#459 = DIRECTION('',(0.,0.,-1.));
#460 = DEFINITIONAL_REPRESENTATION('',(#461),#512);
#461 = B_SPLINE_CURVE_WITH_KNOTS('',9,(#462,#463,#464,#465,#466,#467,
    #468,#469,#470,#471,#472,#473,#474,#475,#476,#477,#478,#479,#480,
    #481,#482,#483,#484,#485,#486,#487,#488,#489,#490,#491,#492,#493,
    #494,#495,#496,#497,#498,#499,#500,#501,#502,#503,#504,#505,#506,
    #507,#508,#509,#510,#511),.UNSPECIFIED.,.T.,.F.,(10,8,8,8,8,8,10),(
    2.303172383753E-13,125.66370614359,251.32741228718,376.99111843077,
    502.65482457436,628.31853071795,753.98223686154),.UNSPECIFIED.);
#462 = CARTESIAN_POINT('',(129.61481396815,-1.42108547152E-14));
#463 = CARTESIAN_POINT('',(129.61481396815,13.812768528282));
#464 = CARTESIAN_POINT('',(127.95333946289,27.77961442388));
#465 = CARTESIAN_POINT('',(124.5808654616,41.854197483501));
#466 = CARTESIAN_POINT('',(119.34294946373,55.834289988355));
#467 = CARTESIAN_POINT('',(112.15298720166,69.490890694543));
#468 = CARTESIAN_POINT('',(102.86567272001,82.454183199345));
#469 = CARTESIAN_POINT('',(91.618131184086,94.162281484699));
#470 = CARTESIAN_POINT('',(78.777454596734,104.18411085345));
#471 = CARTESIAN_POINT('',(50.837359371422,120.31533235297));
#472 = CARTESIAN_POINT('',(35.737862252008,126.42476979501));
#473 = CARTESIAN_POINT('',(19.97458093892,130.3113773526));
#474 = CARTESIAN_POINT('',(4.104383072254,131.87278137419));
#475 = CARTESIAN_POINT('',(-11.31756119968,131.27117099236));
#476 = CARTESIAN_POINT('',(-26.04363445508,128.81729305693));
#477 = CARTESIAN_POINT('',(-39.91881793303,124.70064968586));
#478 = CARTESIAN_POINT('',(-52.84519854199,119.15610586735));
#479 = CARTESIAN_POINT('',(-76.76961542616,105.34333733907));
#480 = CARTESIAN_POINT('',(-88.03452152986,96.921035261983));
#481 = CARTESIAN_POINT('',(-98.53723100651,86.963095573446));
#482 = CARTESIAN_POINT('',(-108.025388264,75.43688100399));
#483 = CARTESIAN_POINT('',(-116.2573702739,62.381890679669));
#484 = CARTESIAN_POINT('',(-122.8402536589,47.857194153242));
#485 = CARTESIAN_POINT('',(-127.355993436,32.262488310322));
#486 = CARTESIAN_POINT('',(-129.6148139681,16.131221499518));
#487 = CARTESIAN_POINT('',(-129.6148139681,-16.13122149951));
#488 = CARTESIAN_POINT('',(-127.355993436,-32.26248831032));
#489 = CARTESIAN_POINT('',(-122.8402536589,-47.85719415323));
#490 = CARTESIAN_POINT('',(-116.2573702738,-62.38189067967));
#491 = CARTESIAN_POINT('',(-108.025388264,-75.43688100398));
#492 = CARTESIAN_POINT('',(-98.53723100651,-86.96309557345));
#493 = CARTESIAN_POINT('',(-88.03452152986,-96.92103526198));
#494 = CARTESIAN_POINT('',(-76.76961542616,-105.343337339));
#495 = CARTESIAN_POINT('',(-52.84519854199,-119.1561058673));
#496 = CARTESIAN_POINT('',(-39.91881793303,-124.7006496858));
#497 = CARTESIAN_POINT('',(-26.04363445508,-128.8172930569));
#498 = CARTESIAN_POINT('',(-11.31756119968,-131.2711709923));
#499 = CARTESIAN_POINT('',(4.104383072252,-131.8727813742));
#500 = CARTESIAN_POINT('',(19.974580938922,-130.3113773525));
#501 = CARTESIAN_POINT('',(35.737862252008,-126.424769795));
#502 = CARTESIAN_POINT('',(50.837359371423,-120.3153323529));
#503 = CARTESIAN_POINT('',(78.777454596734,-104.1841108534));
#504 = CARTESIAN_POINT('',(91.618131184086,-94.1622814847));
#505 = CARTESIAN_POINT('',(102.86567272001,-82.45418319934));
#506 = CARTESIAN_POINT('',(112.15298720165,-69.49089069454));
#507 = CARTESIAN_POINT('',(119.34294946373,-55.83428998835));
#508 = CARTESIAN_POINT('',(124.5808654616,-41.8541974835));
#509 = CARTESIAN_POINT('',(127.95333946289,-27.77961442388));
#510 = CARTESIAN_POINT('',(129.61481396815,-13.81276852828));
#511 = CARTESIAN_POINT('',(129.61481396815,7.105427357601E-15));
#512 = ( GEOMETRIC_REPRESENTATION_CONTEXT(2) 
PARAMETRIC_REPRESENTATION_CONTEXT() REPRESENTATION_CONTEXT('2D SPACE',''
  ) );
#513 = ORIENTED_EDGE('',*,*,#373,.F.);
#514 = ORIENTED_EDGE('',*,*,#52,.F.);
#515 = ADVANCED_FACE('',(#516),#336,.F.);
#516 = FACE_BOUND('',#517,.T.);
#517 = EDGE_LOOP('',(#518,#541,#542,#543,#544,#573));
#518 = ORIENTED_EDGE('',*,*,#519,.T.);
#519 = EDGE_CURVE('',#520,#320,#522,.T.);
#520 = VERTEX_POINT('',#521);
#521 = CARTESIAN_POINT('',(96.300968833216,546.06236549714,0.));
#522 = SEAM_CURVE('',#523,(#527,#534),.PCURVE_S1.);
#523 = LINE('',#524,#525);
#524 = CARTESIAN_POINT('',(96.300968833216,447.19376583071,0.));
#525 = VECTOR('',#526,1.);
#526 = DIRECTION('',(-1.224646799147E-16,1.,0.));
#527 = PCURVE('',#336,#528);
#528 = DEFINITIONAL_REPRESENTATION('',(#529),#533);
#529 = LINE('',#530,#531);
#530 = CARTESIAN_POINT('',(-0.,0.));
#531 = VECTOR('',#532,1.);
#532 = DIRECTION('',(-0.,-1.));
#533 = ( GEOMETRIC_REPRESENTATION_CONTEXT(2) 
PARAMETRIC_REPRESENTATION_CONTEXT() REPRESENTATION_CONTEXT('2D SPACE',''
  ) );
#534 = PCURVE('',#336,#535);
#535 = DEFINITIONAL_REPRESENTATION('',(#536),#540);
#536 = LINE('',#537,#538);
#537 = CARTESIAN_POINT('',(-6.28318530718,0.));
#538 = VECTOR('',#539,1.);
#539 = DIRECTION('',(-0.,-1.));
#540 = ( GEOMETRIC_REPRESENTATION_CONTEXT(2) 
PARAMETRIC_REPRESENTATION_CONTEXT() REPRESENTATION_CONTEXT('2D SPACE',''
  ) );
#541 = ORIENTED_EDGE('',*,*,#348,.F.);
#542 = ORIENTED_EDGE('',*,*,#319,.F.);
#543 = ORIENTED_EDGE('',*,*,#519,.F.);
#544 = ORIENTED_EDGE('',*,*,#545,.T.);
#545 = EDGE_CURVE('',#520,#546,#548,.T.);
#546 = VERTEX_POINT('',#547);
#547 = CARTESIAN_POINT('',(81.300968833216,546.06236549714,-15.));
#548 = SURFACE_CURVE('',#549,(#554,#561),.PCURVE_S1.);
#549 = CIRCLE('',#550,15.);
#550 = AXIS2_PLACEMENT_3D('',#551,#552,#553);
#551 = CARTESIAN_POINT('',(81.300968833216,546.06236549714,0.));
#552 = DIRECTION('',(1.224646799147E-16,-1.,0.));
#553 = DIRECTION('',(-1.,-1.224646799147E-16,0.));
#554 = PCURVE('',#336,#555);
#555 = DEFINITIONAL_REPRESENTATION('',(#556),#560);
#556 = LINE('',#557,#558);
#557 = CARTESIAN_POINT('',(-9.424777960769,-98.86859966642));
#558 = VECTOR('',#559,1.);
#559 = DIRECTION('',(1.,-0.));
#560 = ( GEOMETRIC_REPRESENTATION_CONTEXT(2) 
PARAMETRIC_REPRESENTATION_CONTEXT() REPRESENTATION_CONTEXT('2D SPACE',''
  ) );
#561 = PCURVE('',#562,#567);
#562 = SPHERICAL_SURFACE('',#563,100.);
#563 = AXIS2_PLACEMENT_3D('',#564,#565,#566);
#564 = CARTESIAN_POINT('',(81.300968833216,447.19376583071,0.));
#565 = DIRECTION('',(-1.224646799147E-16,1.,0.));
#566 = DIRECTION('',(0.,0.,-1.));
#567 = DEFINITIONAL_REPRESENTATION('',(#568),#572);
#568 = LINE('',#569,#570);
#569 = CARTESIAN_POINT('',(1.570796326795,1.420228054018));
#570 = VECTOR('',#571,1.);
#571 = DIRECTION('',(-1.,0.));
#572 = ( GEOMETRIC_REPRESENTATION_CONTEXT(2) 
PARAMETRIC_REPRESENTATION_CONTEXT() REPRESENTATION_CONTEXT('2D SPACE',''
  ) );
#573 = ORIENTED_EDGE('',*,*,#574,.T.);
#574 = EDGE_CURVE('',#546,#520,#575,.T.);
#575 = SURFACE_CURVE('',#576,(#581,#588),.PCURVE_S1.);
#576 = CIRCLE('',#577,15.);
#577 = AXIS2_PLACEMENT_3D('',#578,#579,#580);
#578 = CARTESIAN_POINT('',(81.300968833216,546.06236549714,0.));
#579 = DIRECTION('',(1.224646799147E-16,-1.,0.));
#580 = DIRECTION('',(-1.,-1.224646799147E-16,0.));
#581 = PCURVE('',#336,#582);
#582 = DEFINITIONAL_REPRESENTATION('',(#583),#587);
#583 = LINE('',#584,#585);
#584 = CARTESIAN_POINT('',(-3.14159265359,-98.86859966642));
#585 = VECTOR('',#586,1.);
#586 = DIRECTION('',(1.,-0.));
#587 = ( GEOMETRIC_REPRESENTATION_CONTEXT(2) 
PARAMETRIC_REPRESENTATION_CONTEXT() REPRESENTATION_CONTEXT('2D SPACE',''
  ) );
#588 = PCURVE('',#562,#589);
#589 = DEFINITIONAL_REPRESENTATION('',(#590),#594);
#590 = LINE('',#591,#592);
#591 = CARTESIAN_POINT('',(1.570796326795,1.420228054018));
#592 = VECTOR('',#593,1.);
#593 = DIRECTION('',(-1.,0.));
#594 = ( GEOMETRIC_REPRESENTATION_CONTEXT(2) 
PARAMETRIC_REPRESENTATION_CONTEXT() REPRESENTATION_CONTEXT('2D SPACE',''
  ) );
#595 = ADVANCED_FACE('',(#596,#599),#455,.F.);
#596 = FACE_BOUND('',#597,.T.);
#597 = EDGE_LOOP('',(#598));
#598 = ORIENTED_EDGE('',*,*,#394,.T.);
#599 = FACE_BOUND('',#600,.T.);
#600 = EDGE_LOOP('',(#601));
#601 = ORIENTED_EDGE('',*,*,#602,.F.);
#602 = EDGE_CURVE('',#603,#603,#605,.T.);
#603 = VERTEX_POINT('',#604);
#604 = CARTESIAN_POINT('',(81.300968833216,447.19376583071,-160.));
#605 = SURFACE_CURVE('',#606,(#611,#618),.PCURVE_S1.);
#606 = CIRCLE('',#607,160.);
#607 = AXIS2_PLACEMENT_3D('',#608,#609,#610);
#608 = CARTESIAN_POINT('',(81.300968833216,447.19376583071,0.));
#609 = DIRECTION('',(1.224646799147E-16,-1.,0.));
#610 = DIRECTION('',(0.,0.,-1.));
#611 = PCURVE('',#455,#612);
#612 = DEFINITIONAL_REPRESENTATION('',(#613),#617);
#613 = CIRCLE('',#614,160.);
#614 = AXIS2_PLACEMENT_2D('',#615,#616);
#615 = CARTESIAN_POINT('',(0.,0.));
#616 = DIRECTION('',(1.,-0.));
#617 = ( GEOMETRIC_REPRESENTATION_CONTEXT(2) 
PARAMETRIC_REPRESENTATION_CONTEXT() REPRESENTATION_CONTEXT('2D SPACE',''
  ) );
#618 = PCURVE('',#619,#624);
#619 = CYLINDRICAL_SURFACE('',#620,160.);
#620 = AXIS2_PLACEMENT_3D('',#621,#622,#623);
#621 = CARTESIAN_POINT('',(81.300968833216,403.69033641787,0.));
#622 = DIRECTION('',(-1.224646799147E-16,1.,0.));
#623 = DIRECTION('',(0.,0.,-1.));
#624 = DEFINITIONAL_REPRESENTATION('',(#625),#629);
#625 = LINE('',#626,#627);
#626 = CARTESIAN_POINT('',(-0.,43.503429412842));
#627 = VECTOR('',#628,1.);
#628 = DIRECTION('',(-1.,0.));
#629 = ( GEOMETRIC_REPRESENTATION_CONTEXT(2) 
PARAMETRIC_REPRESENTATION_CONTEXT() REPRESENTATION_CONTEXT('2D SPACE',''
  ) );
#630 = ADVANCED_FACE('',(#631),#562,.F.);
#631 = FACE_BOUND('',#632,.T.);
#632 = EDGE_LOOP('',(#633,#657,#923,#924,#925));
#633 = ORIENTED_EDGE('',*,*,#634,.F.);
#634 = EDGE_CURVE('',#635,#546,#637,.T.);
#635 = VERTEX_POINT('',#636);
#636 = CARTESIAN_POINT('',(81.300968833216,438.1028567398,
    -99.58591954639));
#637 = SEAM_CURVE('',#638,(#643,#650),.PCURVE_S1.);
#638 = CIRCLE('',#639,100.);
#639 = AXIS2_PLACEMENT_3D('',#640,#641,#642);
#640 = CARTESIAN_POINT('',(81.300968833216,447.19376583071,0.));
#641 = DIRECTION('',(1.,1.224646799147E-16,0.));
#642 = DIRECTION('',(0.,0.,-1.));
#643 = PCURVE('',#562,#644);
#644 = DEFINITIONAL_REPRESENTATION('',(#645),#649);
#645 = LINE('',#646,#647);
#646 = CARTESIAN_POINT('',(-0.,-6.28318530718));
#647 = VECTOR('',#648,1.);
#648 = DIRECTION('',(-0.,1.));
#649 = ( GEOMETRIC_REPRESENTATION_CONTEXT(2) 
PARAMETRIC_REPRESENTATION_CONTEXT() REPRESENTATION_CONTEXT('2D SPACE',''
  ) );
#650 = PCURVE('',#562,#651);
#651 = DEFINITIONAL_REPRESENTATION('',(#652),#656);
#652 = LINE('',#653,#654);
#653 = CARTESIAN_POINT('',(-6.28318530718,-6.28318530718));
#654 = VECTOR('',#655,1.);
#655 = DIRECTION('',(-0.,1.));
#656 = ( GEOMETRIC_REPRESENTATION_CONTEXT(2) 
PARAMETRIC_REPRESENTATION_CONTEXT() REPRESENTATION_CONTEXT('2D SPACE',''
  ) );
#657 = ORIENTED_EDGE('',*,*,#658,.T.);
#658 = EDGE_CURVE('',#635,#635,#659,.T.);
#659 = SURFACE_CURVE('',#660,(#711,#765),.PCURVE_S1.);
#660 = ( BOUNDED_CURVE() B_SPLINE_CURVE(9,(#661,#662,#663,#664,#665,#666
    ,#667,#668,#669,#670,#671,#672,#673,#674,#675,#676,#677,#678,#679,
    #680,#681,#682,#683,#684,#685,#686,#687,#688,#689,#690,#691,#692,
    #693,#694,#695,#696,#697,#698,#699,#700,#701,#702,#703,#704,#705,
    #706,#707,#708,#709,#710),.UNSPECIFIED.,.T.,.F.) 
B_SPLINE_CURVE_WITH_KNOTS((10,8,8,8,8,8,10),(1.90172481762E-13,
    102.60398641294,205.20797282589,307.81195923884,410.41594565179,
513.01993206474,615.62391847769),.UNSPECIFIED.) CURVE() 
GEOMETRIC_REPRESENTATION_ITEM() RATIONAL_B_SPLINE_CURVE((1.,1.,1.,1.,1.,
    1.,1.,1.,1.,1.,1.,1.,1.,1.,1.,1.,1.,1.,1.,1.,1.,1.,1.,1.,1.,1.,1.,1.
    ,1.,1.,1.,1.,1.,1.,1.,1.,1.,1.,1.,1.,1.,1.,1.,1.,1.,1.,1.,1.,1.,1.))
 REPRESENTATION_ITEM('') );
#661 = CARTESIAN_POINT('',(81.300968833216,438.1028567398,
    -99.58591954639));
#662 = CARTESIAN_POINT('',(92.044965360299,438.1028567398,
    -99.58591954639));
#663 = CARTESIAN_POINT('',(102.81459305708,438.10331716737,
    -98.28185603322));
#664 = CARTESIAN_POINT('',(113.60750623008,438.10312683176,
    -95.66358266266));
#665 = CARTESIAN_POINT('',(124.29728910259,438.1029064914,
    -91.63202217134));
#666 = CARTESIAN_POINT('',(134.74451379266,438.10289752727,
    -86.12441554141));
#667 = CARTESIAN_POINT('',(144.67932820749,438.10286228556,
    -79.00561671439));
#668 = CARTESIAN_POINT('',(153.66126509562,438.10286041237,
    -70.37515526132));
#669 = CARTESIAN_POINT('',(161.35328923197,438.1028567398,
    -60.51715289836));
#670 = CARTESIAN_POINT('',(173.73652080728,438.1028567398,
    -39.06876664803));
#671 = CARTESIAN_POINT('',(178.427789216,438.10286041237,-27.47827715794
    ));
#672 = CARTESIAN_POINT('',(181.41101963668,438.10286228556,
    -15.38446091111));
#673 = CARTESIAN_POINT('',(182.60867305788,438.10289752727,
    -3.22125983247));
#674 = CARTESIAN_POINT('',(182.15478796843,438.1029064914,8.580105463141
    ));
#675 = CARTESIAN_POINT('',(180.30133033454,438.10312683176,
    19.853509237331));
#676 = CARTESIAN_POINT('',(177.17236500101,438.10331716737,
    30.509582911272));
#677 = CARTESIAN_POINT('',(172.91690328316,438.1028567398,40.48838584257
    ));
#678 = CARTESIAN_POINT('',(162.17290675608,438.1028567398,
    59.097533703824));
#679 = CARTESIAN_POINT('',(155.65874077714,438.10331716737,
    67.772273121954));
#680 = CARTESIAN_POINT('',(147.99479293768,438.10312683176,
    75.810073425331));
#681 = CARTESIAN_POINT('',(139.15846769904,438.1029064914,
    83.051916708202));
#682 = CARTESIAN_POINT('',(129.16512809844,438.10289752727,
    89.345675373887));
#683 = CARTESIAN_POINT('',(118.03266026239,438.10286228556,
    94.390077625512));
#684 = CARTESIAN_POINT('',(106.06749295359,438.10286041237,
    97.853432419278));
#685 = CARTESIAN_POINT('',(93.684200408525,438.1028567398,
    99.585919546394));
#686 = CARTESIAN_POINT('',(68.917737257906,438.1028567398,
    99.585919546393));
#687 = CARTESIAN_POINT('',(56.534444712834,438.10286041237,
    97.85343241928));
#688 = CARTESIAN_POINT('',(44.569277404035,438.10286228556,
    94.390077625508));
#689 = CARTESIAN_POINT('',(33.436809567987,438.10289752727,
    89.345675373892));
#690 = CARTESIAN_POINT('',(23.443469967379,438.1029064914,
    83.051916708198));
#691 = CARTESIAN_POINT('',(14.607144728754,438.10312683176,
    75.810073425333));
#692 = CARTESIAN_POINT('',(6.94319688929,438.10331716737,67.772273121954
    ));
#693 = CARTESIAN_POINT('',(0.429030910347,438.1028567398,59.097533703824
    ));
#694 = CARTESIAN_POINT('',(-10.31496561673,438.1028567398,40.48838584257
    ));
#695 = CARTESIAN_POINT('',(-14.57042733458,438.10331716737,
    30.509582911271));
#696 = CARTESIAN_POINT('',(-17.6993926681,438.10312683176,
    19.853509237332));
#697 = CARTESIAN_POINT('',(-19.552850302,438.1029064914,8.580105463142)
  );
#698 = CARTESIAN_POINT('',(-20.00673539145,438.10289752727,
    -3.221259832473));
#699 = CARTESIAN_POINT('',(-18.80908197025,438.10286228556,
    -15.38446091111));
#700 = CARTESIAN_POINT('',(-15.82585154957,438.10286041237,
    -27.47827715795));
#701 = CARTESIAN_POINT('',(-11.13458314085,438.1028567398,
    -39.06876664803));
#702 = CARTESIAN_POINT('',(1.248648434461,438.1028567398,-60.51715289836
    ));
#703 = CARTESIAN_POINT('',(8.940672570807,438.10286041237,
    -70.37515526132));
#704 = CARTESIAN_POINT('',(17.92260945893,438.10286228556,-79.0056167144
    ));
#705 = CARTESIAN_POINT('',(27.857423873763,438.10289752727,
    -86.12441554141));
#706 = CARTESIAN_POINT('',(38.304648563844,438.1029064914,
    -91.63202217135));
#707 = CARTESIAN_POINT('',(48.994431436346,438.10312683176,
    -95.66358266265));
#708 = CARTESIAN_POINT('',(59.787344609349,438.10331716737,
    -98.28185603322));
#709 = CARTESIAN_POINT('',(70.556972306131,438.1028567398,
    -99.58591954639));
#710 = CARTESIAN_POINT('',(81.300968833216,438.1028567398,
    -99.58591954639));
#711 = PCURVE('',#562,#712);
#712 = DEFINITIONAL_REPRESENTATION('',(#713),#764);
#713 = B_SPLINE_CURVE_WITH_KNOTS('',9,(#714,#715,#716,#717,#718,#719,
    #720,#721,#722,#723,#724,#725,#726,#727,#728,#729,#730,#731,#732,
    #733,#734,#735,#736,#737,#738,#739,#740,#741,#742,#743,#744,#745,
    #746,#747,#748,#749,#750,#751,#752,#753,#754,#755,#756,#757,#758,
    #759,#760,#761,#762,#763),.UNSPECIFIED.,.F.,.F.,(10,8,8,8,8,8,10),(
    1.90172481762E-13,102.60398641294,205.20797282589,307.81195923884,
    410.41594565179,513.01993206474,615.62391847769),.UNSPECIFIED.);
#714 = CARTESIAN_POINT('',(-1.110223024625E-16,-9.103477803742E-02));
#715 = CARTESIAN_POINT('',(-0.10788670302,-9.103477803741E-02));
#716 = CARTESIAN_POINT('',(-0.216032257506,-9.103015461691E-02));
#717 = CARTESIAN_POINT('',(-0.326216967249,-9.103206588923E-02));
#718 = CARTESIAN_POINT('',(-0.439073345576,-9.103427845091E-02));
#719 = CARTESIAN_POINT('',(-0.555454097374,-9.103436846791E-02));
#720 = CARTESIAN_POINT('',(-0.675569136046,-9.103472234885E-02));
#721 = CARTESIAN_POINT('',(-0.798502975873,-9.103474115917E-02));
#722 = CARTESIAN_POINT('',(-0.922850337939,-9.103477803742E-02));
#723 = CARTESIAN_POINT('',(-1.171544764454,-9.103477803741E-02));
#724 = CARTESIAN_POINT('',(-1.29589212652,-9.103474115919E-02));
#725 = CARTESIAN_POINT('',(-1.418825966347,-9.103472234883E-02));
#726 = CARTESIAN_POINT('',(-1.538941005019,-9.103436846795E-02));
#727 = CARTESIAN_POINT('',(-1.655321756818,-9.103427845087E-02));
#728 = CARTESIAN_POINT('',(-1.768178135144,-9.103206588925E-02));
#729 = CARTESIAN_POINT('',(-1.878362844888,-9.103015461689E-02));
#730 = CARTESIAN_POINT('',(-1.986508399373,-9.103477803742E-02));
#731 = CARTESIAN_POINT('',(-2.202281805413,-9.103477803742E-02));
#732 = CARTESIAN_POINT('',(-2.310427359899,-9.103015461689E-02));
#733 = CARTESIAN_POINT('',(-2.420612069642,-9.103206588925E-02));
#734 = CARTESIAN_POINT('',(-2.533468447969,-9.103427845088E-02));
#735 = CARTESIAN_POINT('',(-2.649849199767,-9.103436846794E-02));
#736 = CARTESIAN_POINT('',(-2.769964238439,-9.103472234883E-02));
#737 = CARTESIAN_POINT('',(-2.892898078266,-9.103474115918E-02));
#738 = CARTESIAN_POINT('',(-3.017245440332,-9.103477803742E-02));
#739 = CARTESIAN_POINT('',(-3.265939866848,-9.103477803741E-02));
#740 = CARTESIAN_POINT('',(-3.390287228914,-9.103474115919E-02));
#741 = CARTESIAN_POINT('',(-3.51322106874,-9.103472234882E-02));
#742 = CARTESIAN_POINT('',(-3.633336107413,-9.103436846796E-02));
#743 = CARTESIAN_POINT('',(-3.74971685921,-9.103427845086E-02));
#744 = CARTESIAN_POINT('',(-3.862573237538,-9.103206588926E-02));
#745 = CARTESIAN_POINT('',(-3.97275794728,-9.103015461689E-02));
#746 = CARTESIAN_POINT('',(-4.080903501766,-9.103477803742E-02));
#747 = CARTESIAN_POINT('',(-4.296676907806,-9.103477803741E-02));
#748 = CARTESIAN_POINT('',(-4.404822462292,-9.10301546169E-02));
#749 = CARTESIAN_POINT('',(-4.515007172035,-9.103206588924E-02));
#750 = CARTESIAN_POINT('',(-4.627863550363,-9.10342784509E-02));
#751 = CARTESIAN_POINT('',(-4.744244302159,-9.103436846792E-02));
#752 = CARTESIAN_POINT('',(-4.864359340833,-9.103472234885E-02));
#753 = CARTESIAN_POINT('',(-4.987293180659,-9.103474115918E-02));
#754 = CARTESIAN_POINT('',(-5.111640542725,-9.103477803742E-02));
#755 = CARTESIAN_POINT('',(-5.360334969241,-9.103477803741E-02));
#756 = CARTESIAN_POINT('',(-5.484682331307,-9.103474115919E-02));
#757 = CARTESIAN_POINT('',(-5.607616171133,-9.103472234883E-02));
#758 = CARTESIAN_POINT('',(-5.727731209806,-9.103436846795E-02));
#759 = CARTESIAN_POINT('',(-5.844111961603,-9.103427845087E-02));
#760 = CARTESIAN_POINT('',(-5.956968339931,-9.103206588925E-02));
#761 = CARTESIAN_POINT('',(-6.067153049674,-9.103015461689E-02));
#762 = CARTESIAN_POINT('',(-6.17529860416,-9.103477803742E-02));
#763 = CARTESIAN_POINT('',(-6.28318530718,-9.103477803742E-02));
#764 = ( GEOMETRIC_REPRESENTATION_CONTEXT(2) 
PARAMETRIC_REPRESENTATION_CONTEXT() REPRESENTATION_CONTEXT('2D SPACE',''
  ) );
#765 = PCURVE('',#766,#917);
#766 = ( BOUNDED_SURFACE() B_SPLINE_SURFACE(2,9,(
    (#767,#768,#769,#770,#771,#772,#773,#774,#775,#776,#777,#778,#779
      ,#780,#781,#782,#783,#784,#785,#786,#787,#788,#789,#790,#791,#792
      ,#793,#794,#795,#796,#797,#798,#799,#800,#801,#802,#803,#804,#805
      ,#806,#807,#808,#809,#810,#811,#812,#813,#814,#815,#816)
    ,(#817,#818,#819,#820,#821,#822,#823,#824,#825,#826,#827,#828,#829
      ,#830,#831,#832,#833,#834,#835,#836,#837,#838,#839,#840,#841,#842
      ,#843,#844,#845,#846,#847,#848,#849,#850,#851,#852,#853,#854,#855
      ,#856,#857,#858,#859,#860,#861,#862,#863,#864,#865,#866)
    ,(#867,#868,#869,#870,#871,#872,#873,#874,#875,#876,#877,#878,#879
      ,#880,#881,#882,#883,#884,#885,#886,#887,#888,#889,#890,#891,#892
      ,#893,#894,#895,#896,#897,#898,#899,#900,#901,#902,#903,#904,#905
      ,#906,#907,#908,#909,#910,#911,#912,#913,#914,#915,#916
)),.UNSPECIFIED.,.F.,.T.,.F.) B_SPLINE_SURFACE_WITH_KNOTS((3,3),(10,8,8,
    8,8,8,10),(0.,615.62391847769),(1.90172481762E-13,102.60398641294,
    205.20797282589,307.81195923884,410.41594565179,513.01993206474,
615.62391847769),.UNSPECIFIED.) GEOMETRIC_REPRESENTATION_ITEM() 
RATIONAL_B_SPLINE_SURFACE((
    (1.,1.,1.,1.,1.,1.,1.,1.,1.,1.,1.,1.,1.,1.,1.,1.,1.,1.,1.,1.,1.,1.
      ,1.,1.,1.,1.,1.,1.,1.,1.,1.,1.,1.,1.,1.,1.,1.,1.,1.,1.,1.,1.,1.,1.
      ,1.,1.,1.,1.,1.,1.)
    ,(0.674199862463,0.674199862463,0.674182789388,0.674189846781
      ,0.674198018044,0.674198349763,0.67419965692,0.674199726263
      ,0.674199862463,0.674199862463,0.674199726263,0.67419965692
      ,0.674198349764,0.674198018044,0.674189846781,0.674182789388
      ,0.674199862463,0.674199862463,0.674182789388,0.674189846781
      ,0.674198018044,0.674198349763,0.67419965692,0.674199726263
      ,0.674199862463,0.674199862463,0.674199726263,0.67419965692
      ,0.674198349764,0.674198018044,0.674189846781,0.674182789388
      ,0.674199862463,0.674199862463,0.674182789388,0.674189846781
      ,0.674198018044,0.674198349763,0.67419965692,0.674199726263
      ,0.674199862463,0.674199862463,0.674199726263,0.67419965692
      ,0.674198349764,0.674198018044,0.674189846781,0.674182789388
      ,0.674199862463,0.674199862463)
    ,(1.,1.,1.,1.,1.,1.,1.,1.,1.,1.,1.,1.,1.,1.,1.,1.,1.,1.,1.,1.,1.,1.
      ,1.,1.,1.,1.,1.,1.,1.,1.,1.,1.,1.,1.,1.,1.,1.,1.,1.,1.,1.,1.,1.,1.
,1.,1.,1.,1.,1.,1.))) REPRESENTATION_ITEM('') SURFACE() );
#767 = CARTESIAN_POINT('',(81.300968833216,438.1028567398,
    -99.58591954639));
#768 = CARTESIAN_POINT('',(92.044965360299,438.1028567398,
    -99.58591954639));
#769 = CARTESIAN_POINT('',(102.81459305708,438.10331716737,
    -98.28185603322));
#770 = CARTESIAN_POINT('',(113.60750623008,438.10312683176,
    -95.66358266266));
#771 = CARTESIAN_POINT('',(124.29728910259,438.1029064914,
    -91.63202217134));
#772 = CARTESIAN_POINT('',(134.74451379266,438.10289752727,
    -86.12441554141));
#773 = CARTESIAN_POINT('',(144.67932820749,438.10286228556,
    -79.00561671439));
#774 = CARTESIAN_POINT('',(153.66126509562,438.10286041237,
    -70.37515526132));
#775 = CARTESIAN_POINT('',(161.35328923197,438.1028567398,
    -60.51715289836));
#776 = CARTESIAN_POINT('',(173.73652080728,438.1028567398,
    -39.06876664803));
#777 = CARTESIAN_POINT('',(178.427789216,438.10286041237,-27.47827715794
    ));
#778 = CARTESIAN_POINT('',(181.41101963668,438.10286228556,
    -15.38446091111));
#779 = CARTESIAN_POINT('',(182.60867305788,438.10289752727,
    -3.22125983247));
#780 = CARTESIAN_POINT('',(182.15478796843,438.1029064914,8.580105463141
    ));
#781 = CARTESIAN_POINT('',(180.30133033454,438.10312683176,
    19.853509237331));
#782 = CARTESIAN_POINT('',(177.17236500101,438.10331716737,
    30.509582911272));
#783 = CARTESIAN_POINT('',(172.91690328316,438.1028567398,40.48838584257
    ));
#784 = CARTESIAN_POINT('',(162.17290675608,438.1028567398,
    59.097533703824));
#785 = CARTESIAN_POINT('',(155.65874077714,438.10331716737,
    67.772273121954));
#786 = CARTESIAN_POINT('',(147.99479293768,438.10312683176,
    75.810073425331));
#787 = CARTESIAN_POINT('',(139.15846769904,438.1029064914,
    83.051916708202));
#788 = CARTESIAN_POINT('',(129.16512809844,438.10289752727,
    89.345675373887));
#789 = CARTESIAN_POINT('',(118.03266026239,438.10286228556,
    94.390077625512));
#790 = CARTESIAN_POINT('',(106.06749295359,438.10286041237,
    97.853432419278));
#791 = CARTESIAN_POINT('',(93.684200408525,438.1028567398,
    99.585919546394));
#792 = CARTESIAN_POINT('',(68.917737257906,438.1028567398,
    99.585919546393));
#793 = CARTESIAN_POINT('',(56.534444712834,438.10286041237,
    97.85343241928));
#794 = CARTESIAN_POINT('',(44.569277404035,438.10286228556,
    94.390077625508));
#795 = CARTESIAN_POINT('',(33.436809567987,438.10289752727,
    89.345675373892));
#796 = CARTESIAN_POINT('',(23.443469967379,438.1029064914,
    83.051916708198));
#797 = CARTESIAN_POINT('',(14.607144728754,438.10312683176,
    75.810073425333));
#798 = CARTESIAN_POINT('',(6.94319688929,438.10331716737,67.772273121954
    ));
#799 = CARTESIAN_POINT('',(0.429030910347,438.1028567398,59.097533703824
    ));
#800 = CARTESIAN_POINT('',(-10.31496561673,438.1028567398,40.48838584257
    ));
#801 = CARTESIAN_POINT('',(-14.57042733458,438.10331716737,
    30.509582911271));
#802 = CARTESIAN_POINT('',(-17.6993926681,438.10312683176,
    19.853509237332));
#803 = CARTESIAN_POINT('',(-19.552850302,438.1029064914,8.580105463142)
  );
#804 = CARTESIAN_POINT('',(-20.00673539145,438.10289752727,
    -3.221259832473));
#805 = CARTESIAN_POINT('',(-18.80908197025,438.10286228556,
    -15.38446091111));
#806 = CARTESIAN_POINT('',(-15.82585154957,438.10286041237,
    -27.47827715795));
#807 = CARTESIAN_POINT('',(-11.13458314085,438.1028567398,
    -39.06876664803));
#808 = CARTESIAN_POINT('',(1.248648434461,438.1028567398,-60.51715289836
    ));
#809 = CARTESIAN_POINT('',(8.940672570807,438.10286041237,
    -70.37515526132));
#810 = CARTESIAN_POINT('',(17.92260945893,438.10286228556,-79.0056167144
    ));
#811 = CARTESIAN_POINT('',(27.857423873763,438.10289752727,
    -86.12441554141));
#812 = CARTESIAN_POINT('',(38.304648563844,438.1029064914,
    -91.63202217135));
#813 = CARTESIAN_POINT('',(48.994431436346,438.10312683176,
    -95.66358266265));
#814 = CARTESIAN_POINT('',(59.787344609349,438.10331716737,
    -98.28185603322));
#815 = CARTESIAN_POINT('',(70.556972306131,438.1028567398,
    -99.58591954639));
#816 = CARTESIAN_POINT('',(81.300968833216,438.1028567398,
    -99.58591954639));
#817 = CARTESIAN_POINT('',(81.300968833216,427.19376583071,
    -98.59006035093));
#818 = CARTESIAN_POINT('',(91.959786164065,427.19376583071,
    -98.59006035093));
#819 = CARTESIAN_POINT('',(102.62880722546,427.19376583071,
    -97.29360501212));
#820 = CARTESIAN_POINT('',(113.30884468586,427.19376583071,
    -94.69722700168));
#821 = CARTESIAN_POINT('',(123.88369222691,427.19376583071,
    -90.70545648864));
#822 = CARTESIAN_POINT('',(134.21890279955,427.19376583071,
    -85.25537412631));
#823 = CARTESIAN_POINT('',(144.05007260444,427.19376583071,
    -78.21080268861));
#824 = CARTESIAN_POINT('',(152.93992260106,427.19376583071,
    -69.66850181324));
#825 = CARTESIAN_POINT('',(160.55367630911,427.19376583071,
    -59.91040471621));
#826 = CARTESIAN_POINT('',(172.81125500641,427.19376583071,
    -38.67965563471));
#827 = CARTESIAN_POINT('',(177.455138131,427.19376583071,-27.20690295686
    ));
#828 = CARTESIAN_POINT('',(180.40806269754,427.19376583071,
    -15.23691658628));
#829 = CARTESIAN_POINT('',(181.59325561892,427.19376583071,
    -3.200588067479));
#830 = CARTESIAN_POINT('',(181.1455601111,427.19376583071,8.475008023057
    ));
#831 = CARTESIAN_POINT('',(179.31511101093,427.19376583071,
    19.62897989127));
#832 = CARTESIAN_POINT('',(176.22362159561,427.19376583071,
    30.176352650569));
#833 = CARTESIAN_POINT('',(172.01187432318,427.19376583071,
    40.06422359265));
#834 = CARTESIAN_POINT('',(161.35305699233,427.19376583071,
    58.525836758279));
#835 = CARTESIAN_POINT('',(154.89578320336,427.19376583071,
    67.11725236156));
#836 = CARTESIAN_POINT('',(147.30723515828,427.19376583071,
    75.068247110411));
#837 = CARTESIAN_POINT('',(138.5628367174,427.19376583071,
    82.230448465595));
#838 = CARTESIAN_POINT('',(128.67532165258,427.19376583071,
    88.455962193795));
#839 = CARTESIAN_POINT('',(117.65895892631,427.19376583071,
    93.447719274903));
#840 = CARTESIAN_POINT('',(105.81618436316,427.19376583071,
    96.875404770111));
#841 = CARTESIAN_POINT('',(93.558547530515,427.19376583071,
    98.59006035093));
#842 = CARTESIAN_POINT('',(69.043390135917,427.19376583071,
    98.590060350929));
#843 = CARTESIAN_POINT('',(56.785753303263,427.19376583071,
    96.875404770115));
#844 = CARTESIAN_POINT('',(44.942978740123,427.19376583071,
    93.447719274895));
#845 = CARTESIAN_POINT('',(33.92661601384,427.19376583071,
    88.455962193808));
#846 = CARTESIAN_POINT('',(24.039100949037,427.19376583071,
    82.230448465581));
#847 = CARTESIAN_POINT('',(15.294702508137,427.19376583071,
    75.068247110421));
#848 = CARTESIAN_POINT('',(7.706154463069,427.19376583071,
    67.117252361555));
#849 = CARTESIAN_POINT('',(1.248880674095,427.19376583071,58.52583675828
    ));
#850 = CARTESIAN_POINT('',(-9.409936656756,427.19376583071,
    40.06422359265));
#851 = CARTESIAN_POINT('',(-13.62168392918,427.19376583071,
    30.176352650569));
#852 = CARTESIAN_POINT('',(-16.7131733445,427.19376583071,
    19.628979891269));
#853 = CARTESIAN_POINT('',(-18.54362244466,427.19376583071,
    8.475008023059));
#854 = CARTESIAN_POINT('',(-18.99131795249,427.19376583071,
    -3.200588067483));
#855 = CARTESIAN_POINT('',(-17.80612503111,427.19376583071,
    -15.23691658628));
#856 = CARTESIAN_POINT('',(-14.85320046457,427.19376583071,
    -27.20690295687));
#857 = CARTESIAN_POINT('',(-10.20931733998,427.19376583071,
    -38.67965563471));
#858 = CARTESIAN_POINT('',(2.048261357319,427.19376583071,
    -59.91040471621));
#859 = CARTESIAN_POINT('',(9.662015065372,427.19376583071,
    -69.66850181324));
#860 = CARTESIAN_POINT('',(18.551865061986,427.19376583071,
    -78.21080268861));
#861 = CARTESIAN_POINT('',(28.383034866872,427.19376583071,
    -85.25537412632));
#862 = CARTESIAN_POINT('',(38.718245439522,427.19376583071,
    -90.70545648864));
#863 = CARTESIAN_POINT('',(49.293092980565,427.19376583071,
    -94.69722700168));
#864 = CARTESIAN_POINT('',(59.97313044097,427.19376583071,
    -97.29360501212));
#865 = CARTESIAN_POINT('',(70.642151502364,427.19376583071,
    -98.59006035092));
#866 = CARTESIAN_POINT('',(81.300968833216,427.19376583071,
    -98.59006035093));
#867 = CARTESIAN_POINT('',(81.300968833216,427.19376583071,
    -109.544511501));
#868 = CARTESIAN_POINT('',(92.896757322634,427.19376583071,
    -109.544511501));
#869 = CARTESIAN_POINT('',(104.67792833177,427.19376583071,
    -108.1584352427));
#870 = CARTESIAN_POINT('',(116.58620784931,427.19376583071,
    -105.3235883003));
#871 = CARTESIAN_POINT('',(128.43173371501,427.19376583071,
    -100.8999730319));
#872 = CARTESIAN_POINT('',(140.00048318778,427.19376583071,
    -94.81363666986));
#873 = CARTESIAN_POINT('',(150.97147202244,427.19376583071,
    -86.95421419517));
#874 = CARTESIAN_POINT('',(160.87469061009,427.19376583071,
    -77.44162223613));
#875 = CARTESIAN_POINT('',(169.34941846055,427.19376583071,
    -66.58463471984));
#876 = CARTESIAN_POINT('',(182.98917881597,427.19376583071,
    -42.95987678119));
#877 = CARTESIAN_POINT('',(188.15424188842,427.19376583071,
    -30.19205341438));
#878 = CARTESIAN_POINT('',(191.44077888696,427.19376583071,
    -16.85931855873));
#879 = CARTESIAN_POINT('',(192.76174399179,427.19376583071,
    -3.428452285931));
#880 = CARTESIAN_POINT('',(192.24829116091,427.19376583071,
    9.633546828538));
#881 = CARTESIAN_POINT('',(190.15649142707,427.19376583071,
    22.103880783598));
#882 = CARTESIAN_POINT('',(186.65740113632,427.19376583071,
    33.834176832407));
#883 = CARTESIAN_POINT('',(181.96719288297,427.19376583071,
    44.730008341768));
#884 = CARTESIAN_POINT('',(170.37140439355,427.19376583071,
    64.814503159265));
#885 = CARTESIAN_POINT('',(163.28044163777,427.19376583071,
    74.324258410389));
#886 = CARTESIAN_POINT('',(154.87125241096,427.19376583071,83.2197075167
    ));
#887 = CARTESIAN_POINT('',(145.11752627912,427.19376583071,
    91.266426203391));
#888 = CARTESIAN_POINT('',(134.06222963722,427.19376583071,
    98.242088955788));
#889 = CARTESIAN_POINT('',(121.77027569773,427.19376583071,
    103.81353275391));
#890 = CARTESIAN_POINT('',(108.58052011154,427.19376583071,
    107.63367565051));
#891 = CARTESIAN_POINT('',(94.940729188632,427.19376583071,
    109.54451150103));
#892 = CARTESIAN_POINT('',(67.661208477799,427.19376583071,
    109.54451150103));
#893 = CARTESIAN_POINT('',(54.02141755488,427.19376583071,
    107.63367565051));
#894 = CARTESIAN_POINT('',(40.8316619687,427.19376583071,103.8135327539)
  );
#895 = CARTESIAN_POINT('',(28.539708029202,427.19376583071,98.2420889558
    ));
#896 = CARTESIAN_POINT('',(17.484411387307,427.19376583071,
    91.266426203379));
#897 = CARTESIAN_POINT('',(7.73068525547,427.19376583071,83.219707516708
    ));
#898 = CARTESIAN_POINT('',(-0.678503971339,427.19376583071,
    74.324258410385));
#899 = CARTESIAN_POINT('',(-7.769466727126,427.19376583071,
    64.814503159266));
#900 = CARTESIAN_POINT('',(-19.36525521654,427.19376583071,
    44.730008341768));
#901 = CARTESIAN_POINT('',(-24.05546346989,427.19376583071,
    33.834176832407));
#902 = CARTESIAN_POINT('',(-27.55455376063,427.19376583071,
    22.103880783598));
#903 = CARTESIAN_POINT('',(-29.64635349448,427.19376583071,
    9.633546828541));
#904 = CARTESIAN_POINT('',(-30.15980632536,427.19376583071,
    -3.428452285936));
#905 = CARTESIAN_POINT('',(-28.83884122053,427.19376583071,
    -16.85931855872));
#906 = CARTESIAN_POINT('',(-25.55230422199,427.19376583071,
    -30.19205341438));
#907 = CARTESIAN_POINT('',(-20.38724114954,427.19376583071,
    -42.95987678119));
#908 = CARTESIAN_POINT('',(-6.747480794127,427.19376583071,
    -66.58463471984));
#909 = CARTESIAN_POINT('',(1.727247056339,427.19376583071,
    -77.44162223613));
#910 = CARTESIAN_POINT('',(11.630465643987,427.19376583071,
    -86.95421419517));
#911 = CARTESIAN_POINT('',(22.601454478646,427.19376583071,
    -94.81363666986));
#912 = CARTESIAN_POINT('',(34.170203951428,427.19376583071,
    -100.8999730319));
#913 = CARTESIAN_POINT('',(46.015729817108,427.19376583071,
    -105.3235883003));
#914 = CARTESIAN_POINT('',(57.924009334659,427.19376583071,
    -108.1584352427));
#915 = CARTESIAN_POINT('',(69.705180343796,427.19376583071,
    -109.544511501));
#916 = CARTESIAN_POINT('',(81.300968833216,427.19376583071,
    -109.544511501));
#917 = DEFINITIONAL_REPRESENTATION('',(#918),#922);
#918 = LINE('',#919,#920);
#919 = CARTESIAN_POINT('',(0.,0.));
#920 = VECTOR('',#921,1.);
#921 = DIRECTION('',(0.,1.));
#922 = ( GEOMETRIC_REPRESENTATION_CONTEXT(2) 
PARAMETRIC_REPRESENTATION_CONTEXT() REPRESENTATION_CONTEXT('2D SPACE',''
  ) );
#923 = ORIENTED_EDGE('',*,*,#634,.T.);
#924 = ORIENTED_EDGE('',*,*,#545,.F.);
#925 = ORIENTED_EDGE('',*,*,#574,.F.);
#926 = ADVANCED_FACE('',(#927),#619,.T.);
#927 = FACE_BOUND('',#928,.F.);
#928 = EDGE_LOOP('',(#929,#958,#979,#980));
#929 = ORIENTED_EDGE('',*,*,#930,.T.);
#930 = EDGE_CURVE('',#931,#931,#933,.T.);
#931 = VERTEX_POINT('',#932);
#932 = CARTESIAN_POINT('',(81.300968833216,427.19376583071,-160.));
#933 = SURFACE_CURVE('',#934,(#939,#946),.PCURVE_S1.);
#934 = CIRCLE('',#935,160.);
#935 = AXIS2_PLACEMENT_3D('',#936,#937,#938);
#936 = CARTESIAN_POINT('',(81.300968833216,427.19376583071,0.));
#937 = DIRECTION('',(1.224646799147E-16,-1.,0.));
#938 = DIRECTION('',(0.,0.,-1.));
#939 = PCURVE('',#619,#940);
#940 = DEFINITIONAL_REPRESENTATION('',(#941),#945);
#941 = LINE('',#942,#943);
#942 = CARTESIAN_POINT('',(-0.,23.503429412842));
#943 = VECTOR('',#944,1.);
#944 = DIRECTION('',(-1.,0.));
#945 = ( GEOMETRIC_REPRESENTATION_CONTEXT(2) 
PARAMETRIC_REPRESENTATION_CONTEXT() REPRESENTATION_CONTEXT('2D SPACE',''
  ) );
#946 = PCURVE('',#947,#952);
#947 = PLANE('',#948);
#948 = AXIS2_PLACEMENT_3D('',#949,#950,#951);
#949 = CARTESIAN_POINT('',(81.300968833216,427.19376583071,0.));
#950 = DIRECTION('',(1.224646799147E-16,-1.,0.));
#951 = DIRECTION('',(0.,0.,-1.));
#952 = DEFINITIONAL_REPRESENTATION('',(#953),#957);
#953 = CIRCLE('',#954,160.);
#954 = AXIS2_PLACEMENT_2D('',#955,#956);
#955 = CARTESIAN_POINT('',(0.,0.));
#956 = DIRECTION('',(1.,-0.));
#957 = ( GEOMETRIC_REPRESENTATION_CONTEXT(2) 
PARAMETRIC_REPRESENTATION_CONTEXT() REPRESENTATION_CONTEXT('2D SPACE',''
  ) );
#958 = ORIENTED_EDGE('',*,*,#959,.T.);
#959 = EDGE_CURVE('',#931,#603,#960,.T.);
#960 = SEAM_CURVE('',#961,(#965,#972),.PCURVE_S1.);
#961 = LINE('',#962,#963);
#962 = CARTESIAN_POINT('',(81.300968833216,403.69033641787,-160.));
#963 = VECTOR('',#964,1.);
#964 = DIRECTION('',(-1.224646799147E-16,1.,0.));
#965 = PCURVE('',#619,#966);
#966 = DEFINITIONAL_REPRESENTATION('',(#967),#971);
#967 = LINE('',#968,#969);
#968 = CARTESIAN_POINT('',(-0.,0.));
#969 = VECTOR('',#970,1.);
#970 = DIRECTION('',(-0.,1.));
#971 = ( GEOMETRIC_REPRESENTATION_CONTEXT(2) 
PARAMETRIC_REPRESENTATION_CONTEXT() REPRESENTATION_CONTEXT('2D SPACE',''
  ) );
#972 = PCURVE('',#619,#973);
#973 = DEFINITIONAL_REPRESENTATION('',(#974),#978);
#974 = LINE('',#975,#976);
#975 = CARTESIAN_POINT('',(-6.28318530718,0.));
#976 = VECTOR('',#977,1.);
#977 = DIRECTION('',(-0.,1.));
#978 = ( GEOMETRIC_REPRESENTATION_CONTEXT(2) 
PARAMETRIC_REPRESENTATION_CONTEXT() REPRESENTATION_CONTEXT('2D SPACE',''
  ) );
#979 = ORIENTED_EDGE('',*,*,#602,.F.);
#980 = ORIENTED_EDGE('',*,*,#959,.F.);
#981 = ADVANCED_FACE('',(#982),#766,.T.);
#982 = FACE_BOUND('',#983,.T.);
#983 = EDGE_LOOP('',(#984,#1005,#1120,#1121));
#984 = ORIENTED_EDGE('',*,*,#985,.T.);
#985 = EDGE_CURVE('',#635,#986,#988,.T.);
#986 = VERTEX_POINT('',#987);
#987 = CARTESIAN_POINT('',(81.300968833216,427.19376583071,
    -109.544511501));
#988 = SEAM_CURVE('',#989,(#993,#999),.PCURVE_S1.);
#989 = ( BOUNDED_CURVE() B_SPLINE_CURVE(2,(#990,#991,#992),
.UNSPECIFIED.,.F.,.F.) B_SPLINE_CURVE_WITH_KNOTS((3,3),(0.,
615.62391847769),.PIECEWISE_BEZIER_KNOTS.) CURVE() 
GEOMETRIC_REPRESENTATION_ITEM() RATIONAL_B_SPLINE_CURVE((1.,
0.674199862463,1.)) REPRESENTATION_ITEM('') );
#990 = CARTESIAN_POINT('',(81.300968833216,438.1028567398,
    -99.58591954639));
#991 = CARTESIAN_POINT('',(81.300968833216,427.19376583071,
    -98.59006035093));
#992 = CARTESIAN_POINT('',(81.300968833216,427.19376583071,
    -109.544511501));
#993 = PCURVE('',#766,#994);
#994 = DEFINITIONAL_REPRESENTATION('',(#995),#998);
#995 = B_SPLINE_CURVE_WITH_KNOTS('',1,(#996,#997),.UNSPECIFIED.,.F.,.F.,
  (2,2),(0.,615.62391847769),.PIECEWISE_BEZIER_KNOTS.);
#996 = CARTESIAN_POINT('',(0.,1.90172481762E-13));
#997 = CARTESIAN_POINT('',(615.62391847769,1.90172481762E-13));
#998 = ( GEOMETRIC_REPRESENTATION_CONTEXT(2) 
PARAMETRIC_REPRESENTATION_CONTEXT() REPRESENTATION_CONTEXT('2D SPACE',''
  ) );
#999 = PCURVE('',#766,#1000);
#1000 = DEFINITIONAL_REPRESENTATION('',(#1001),#1004);
#1001 = B_SPLINE_CURVE_WITH_KNOTS('',1,(#1002,#1003),.UNSPECIFIED.,.F.,
  .F.,(2,2),(0.,615.62391847769),.PIECEWISE_BEZIER_KNOTS.);
#1002 = CARTESIAN_POINT('',(0.,615.62391847769));
#1003 = CARTESIAN_POINT('',(615.62391847769,615.62391847769));
#1004 = ( GEOMETRIC_REPRESENTATION_CONTEXT(2) 
PARAMETRIC_REPRESENTATION_CONTEXT() REPRESENTATION_CONTEXT('2D SPACE',''
  ) );
#1005 = ORIENTED_EDGE('',*,*,#1006,.T.);
#1006 = EDGE_CURVE('',#986,#986,#1007,.T.);
#1007 = SURFACE_CURVE('',#1008,(#1059,#1066),.PCURVE_S1.);
#1008 = ( BOUNDED_CURVE() B_SPLINE_CURVE(9,(#1009,#1010,#1011,#1012,
    #1013,#1014,#1015,#1016,#1017,#1018,#1019,#1020,#1021,#1022,#1023,
    #1024,#1025,#1026,#1027,#1028,#1029,#1030,#1031,#1032,#1033,#1034,
    #1035,#1036,#1037,#1038,#1039,#1040,#1041,#1042,#1043,#1044,#1045,
    #1046,#1047,#1048,#1049,#1050,#1051,#1052,#1053,#1054,#1055,#1056,
#1057,#1058),.UNSPECIFIED.,.T.,.F.) B_SPLINE_CURVE_WITH_KNOTS((10,8,8,8,
    8,8,10),(1.90172481762E-13,102.60398641294,205.20797282589,
    307.81195923884,410.41594565179,513.01993206474,615.62391847769),
.UNSPECIFIED.) CURVE() GEOMETRIC_REPRESENTATION_ITEM() 
RATIONAL_B_SPLINE_CURVE((1.,1.,1.,1.,1.,1.,1.,1.,1.,1.,1.,1.,1.,1.,1.,1.
    ,1.,1.,1.,1.,1.,1.,1.,1.,1.,1.,1.,1.,1.,1.,1.,1.,1.,1.,1.,1.,1.,1.,
1.,1.,1.,1.,1.,1.,1.,1.,1.,1.,1.,1.)) REPRESENTATION_ITEM('') );
#1009 = CARTESIAN_POINT('',(81.300968833216,427.19376583071,
    -109.544511501));
#1010 = CARTESIAN_POINT('',(92.896757322634,427.19376583071,
    -109.544511501));
#1011 = CARTESIAN_POINT('',(104.67792833177,427.19376583071,
    -108.1584352427));
#1012 = CARTESIAN_POINT('',(116.58620784931,427.19376583071,
    -105.3235883003));
#1013 = CARTESIAN_POINT('',(128.43173371501,427.19376583071,
    -100.8999730319));
#1014 = CARTESIAN_POINT('',(140.00048318778,427.19376583071,
    -94.81363666986));
#1015 = CARTESIAN_POINT('',(150.97147202244,427.19376583071,
    -86.95421419517));
#1016 = CARTESIAN_POINT('',(160.87469061009,427.19376583071,
    -77.44162223613));
#1017 = CARTESIAN_POINT('',(169.34941846055,427.19376583071,
    -66.58463471984));
#1018 = CARTESIAN_POINT('',(182.98917881597,427.19376583071,
    -42.95987678119));
#1019 = CARTESIAN_POINT('',(188.15424188842,427.19376583071,
    -30.19205341438));
#1020 = CARTESIAN_POINT('',(191.44077888696,427.19376583071,
    -16.85931855873));
#1021 = CARTESIAN_POINT('',(192.76174399179,427.19376583071,
    -3.428452285931));
#1022 = CARTESIAN_POINT('',(192.24829116091,427.19376583071,
    9.633546828538));
#1023 = CARTESIAN_POINT('',(190.15649142707,427.19376583071,
    22.103880783598));
#1024 = CARTESIAN_POINT('',(186.65740113632,427.19376583071,
    33.834176832407));
#1025 = CARTESIAN_POINT('',(181.96719288297,427.19376583071,
    44.730008341768));
#1026 = CARTESIAN_POINT('',(170.37140439355,427.19376583071,
    64.814503159265));
#1027 = CARTESIAN_POINT('',(163.28044163777,427.19376583071,
    74.324258410389));
#1028 = CARTESIAN_POINT('',(154.87125241096,427.19376583071,
    83.2197075167));
#1029 = CARTESIAN_POINT('',(145.11752627912,427.19376583071,
    91.266426203391));
#1030 = CARTESIAN_POINT('',(134.06222963722,427.19376583071,
    98.242088955788));
#1031 = CARTESIAN_POINT('',(121.77027569773,427.19376583071,
    103.81353275391));
#1032 = CARTESIAN_POINT('',(108.58052011154,427.19376583071,
    107.63367565051));
#1033 = CARTESIAN_POINT('',(94.940729188632,427.19376583071,
    109.54451150103));
#1034 = CARTESIAN_POINT('',(67.661208477799,427.19376583071,
    109.54451150103));
#1035 = CARTESIAN_POINT('',(54.02141755488,427.19376583071,
    107.63367565051));
#1036 = CARTESIAN_POINT('',(40.8316619687,427.19376583071,103.8135327539
    ));
#1037 = CARTESIAN_POINT('',(28.539708029202,427.19376583071,
    98.2420889558));
#1038 = CARTESIAN_POINT('',(17.484411387307,427.19376583071,
    91.266426203379));
#1039 = CARTESIAN_POINT('',(7.73068525547,427.19376583071,
    83.219707516708));
#1040 = CARTESIAN_POINT('',(-0.678503971339,427.19376583071,
    74.324258410385));
#1041 = CARTESIAN_POINT('',(-7.769466727126,427.19376583071,
    64.814503159266));
#1042 = CARTESIAN_POINT('',(-19.36525521654,427.19376583071,
    44.730008341768));
#1043 = CARTESIAN_POINT('',(-24.05546346989,427.19376583071,
    33.834176832407));
#1044 = CARTESIAN_POINT('',(-27.55455376063,427.19376583071,
    22.103880783598));
#1045 = CARTESIAN_POINT('',(-29.64635349448,427.19376583071,
    9.633546828541));
#1046 = CARTESIAN_POINT('',(-30.15980632536,427.19376583071,
    -3.428452285936));
#1047 = CARTESIAN_POINT('',(-28.83884122053,427.19376583071,
    -16.85931855872));
#1048 = CARTESIAN_POINT('',(-25.55230422199,427.19376583071,
    -30.19205341438));
#1049 = CARTESIAN_POINT('',(-20.38724114954,427.19376583071,
    -42.95987678119));
#1050 = CARTESIAN_POINT('',(-6.747480794127,427.19376583071,
    -66.58463471984));
#1051 = CARTESIAN_POINT('',(1.727247056339,427.19376583071,
    -77.44162223613));
#1052 = CARTESIAN_POINT('',(11.630465643987,427.19376583071,
    -86.95421419517));
#1053 = CARTESIAN_POINT('',(22.601454478646,427.19376583071,
    -94.81363666986));
#1054 = CARTESIAN_POINT('',(34.170203951428,427.19376583071,
    -100.8999730319));
#1055 = CARTESIAN_POINT('',(46.015729817108,427.19376583071,
    -105.3235883003));
#1056 = CARTESIAN_POINT('',(57.924009334659,427.19376583071,
    -108.1584352427));
#1057 = CARTESIAN_POINT('',(69.705180343796,427.19376583071,
    -109.544511501));
#1058 = CARTESIAN_POINT('',(81.300968833216,427.19376583071,
    -109.544511501));
#1059 = PCURVE('',#766,#1060);
#1060 = DEFINITIONAL_REPRESENTATION('',(#1061),#1065);
#1061 = LINE('',#1062,#1063);
#1062 = CARTESIAN_POINT('',(615.62391847769,0.));
#1063 = VECTOR('',#1064,1.);
#1064 = DIRECTION('',(0.,1.));
#1065 = ( GEOMETRIC_REPRESENTATION_CONTEXT(2) 
PARAMETRIC_REPRESENTATION_CONTEXT() REPRESENTATION_CONTEXT('2D SPACE',''
  ) );
#1066 = PCURVE('',#947,#1067);
#1067 = DEFINITIONAL_REPRESENTATION('',(#1068),#1119);
#1068 = B_SPLINE_CURVE_WITH_KNOTS('',9,(#1069,#1070,#1071,#1072,#1073,
    #1074,#1075,#1076,#1077,#1078,#1079,#1080,#1081,#1082,#1083,#1084,
    #1085,#1086,#1087,#1088,#1089,#1090,#1091,#1092,#1093,#1094,#1095,
    #1096,#1097,#1098,#1099,#1100,#1101,#1102,#1103,#1104,#1105,#1106,
    #1107,#1108,#1109,#1110,#1111,#1112,#1113,#1114,#1115,#1116,#1117,
    #1118),.UNSPECIFIED.,.T.,.F.,(10,8,8,8,8,8,10),(1.90172481762E-13,
    102.60398641294,205.20797282589,307.81195923884,410.41594565179,
    513.01993206474,615.62391847769),.UNSPECIFIED.);
#1069 = CARTESIAN_POINT('',(109.54451150103,2.84217094304E-14));
#1070 = CARTESIAN_POINT('',(109.54451150102,11.595788489418));
#1071 = CARTESIAN_POINT('',(108.1584352428,23.376959498563));
#1072 = CARTESIAN_POINT('',(105.32358830027,35.285239016093));
#1073 = CARTESIAN_POINT('',(100.89997303195,47.130764881807));
#1074 = CARTESIAN_POINT('',(94.813636669837,58.699514354552));
#1075 = CARTESIAN_POINT('',(86.954214195195,69.67050318924));
#1076 = CARTESIAN_POINT('',(77.441622236127,79.573721776873));
#1077 = CARTESIAN_POINT('',(66.584634719841,88.048449627344));
#1078 = CARTESIAN_POINT('',(42.959876781193,101.68820998276));
#1079 = CARTESIAN_POINT('',(30.192053414383,106.85327305521));
#1080 = CARTESIAN_POINT('',(16.859318558731,110.13981005374));
#1081 = CARTESIAN_POINT('',(3.428452285928,111.46077515857));
#1082 = CARTESIAN_POINT('',(-9.633546828534,110.9473223277));
#1083 = CARTESIAN_POINT('',(-22.1038807836,108.85552259385));
#1084 = CARTESIAN_POINT('',(-33.8341768324,105.35643230311));
#1085 = CARTESIAN_POINT('',(-44.73000834176,100.66622404976));
#1086 = CARTESIAN_POINT('',(-64.81450315926,89.070435560342));
#1087 = CARTESIAN_POINT('',(-74.32425841038,81.979472804555));
#1088 = CARTESIAN_POINT('',(-83.2197075167,73.570283577743));
#1089 = CARTESIAN_POINT('',(-91.26642620338,63.816557445913));
#1090 = CARTESIAN_POINT('',(-98.24208895579,52.761260804007));
#1091 = CARTESIAN_POINT('',(-103.8135327539,40.469306864522));
#1092 = CARTESIAN_POINT('',(-107.6336756505,27.279551278332));
#1093 = CARTESIAN_POINT('',(-109.544511501,13.639760355417));
#1094 = CARTESIAN_POINT('',(-109.544511501,-13.63976035541));
#1095 = CARTESIAN_POINT('',(-107.6336756505,-27.27955127833));
#1096 = CARTESIAN_POINT('',(-103.8135327538,-40.46930686451));
#1097 = CARTESIAN_POINT('',(-98.24208895582,-52.76126080401));
#1098 = CARTESIAN_POINT('',(-91.26642620336,-63.8165574459));
#1099 = CARTESIAN_POINT('',(-83.21970751671,-73.57028357775));
#1100 = CARTESIAN_POINT('',(-74.32425841038,-81.97947280455));
#1101 = CARTESIAN_POINT('',(-64.81450315926,-89.07043556034));
#1102 = CARTESIAN_POINT('',(-44.73000834176,-100.6662240497));
#1103 = CARTESIAN_POINT('',(-33.8341768324,-105.3564323031));
#1104 = CARTESIAN_POINT('',(-22.10388078359,-108.8555225938));
#1105 = CARTESIAN_POINT('',(-9.633546828541,-110.9473223277));
#1106 = CARTESIAN_POINT('',(3.428452285934,-111.4607751585));
#1107 = CARTESIAN_POINT('',(16.859318558729,-110.1398100537));
#1108 = CARTESIAN_POINT('',(30.192053414383,-106.8532730552));
#1109 = CARTESIAN_POINT('',(42.959876781194,-101.6882099827));
#1110 = CARTESIAN_POINT('',(66.584634719839,-88.04844962734));
#1111 = CARTESIAN_POINT('',(77.441622236139,-79.57372177688));
#1112 = CARTESIAN_POINT('',(86.954214195169,-69.67050318922));
#1113 = CARTESIAN_POINT('',(94.813636669876,-58.69951435458));
#1114 = CARTESIAN_POINT('',(100.89997303191,-47.13076488177));
#1115 = CARTESIAN_POINT('',(105.32358830031,-35.28523901611));
#1116 = CARTESIAN_POINT('',(108.15843524279,-23.37695949855));
#1117 = CARTESIAN_POINT('',(109.54451150103,-11.59578848942));
#1118 = CARTESIAN_POINT('',(109.54451150103,7.323263818113E-14));
#1119 = ( GEOMETRIC_REPRESENTATION_CONTEXT(2) 
PARAMETRIC_REPRESENTATION_CONTEXT() REPRESENTATION_CONTEXT('2D SPACE',''
  ) );
#1120 = ORIENTED_EDGE('',*,*,#985,.F.);
#1121 = ORIENTED_EDGE('',*,*,#658,.F.);
#1122 = ADVANCED_FACE('',(#1123,#1126),#947,.T.);
#1123 = FACE_BOUND('',#1124,.F.);
#1124 = EDGE_LOOP('',(#1125));
#1125 = ORIENTED_EDGE('',*,*,#1006,.T.);
#1126 = FACE_BOUND('',#1127,.F.);
#1127 = EDGE_LOOP('',(#1128));
#1128 = ORIENTED_EDGE('',*,*,#930,.F.);
#1129 = ( GEOMETRIC_REPRESENTATION_CONTEXT(3) 
GLOBAL_UNCERTAINTY_ASSIGNED_CONTEXT((#1133)) 
GLOBAL_UNIT_ASSIGNED_CONTEXT((#1130,#1131,#1132)) REPRESENTATION_CONTEXT
('Context #1','3D Context with UNIT and UNCERTAINTY') );
#1130 = ( LENGTH_UNIT() NAMED_UNIT(*) SI_UNIT(.MILLI.,.METRE.) );
#1131 = ( NAMED_UNIT(*) PLANE_ANGLE_UNIT() SI_UNIT($,.RADIAN.) );
#1132 = ( NAMED_UNIT(*) SI_UNIT($,.STERADIAN.) SOLID_ANGLE_UNIT() );
#1133 = UNCERTAINTY_MEASURE_WITH_UNIT(LENGTH_MEASURE(1.E-05),#1130,
  'distance_accuracy_value','confusion accuracy');
#1134 = PRODUCT_RELATED_PRODUCT_CATEGORY('part',$,(#7));
ENDSEC;
END-ISO-10303-21;
