ISO-10303-21;
HEADER;
FILE_DESCRIPTION((''),'2;1');
FILE_NAME('','',(''),(''),'','','');
FILE_SCHEMA(('AUTOMOTIVE_DESIGN'));
ENDSEC;
DATA;
#1=CARTESIAN_POINT('',(-2.,-2.,-2.));
#2=DIRECTION('',(0.,0.,-1.));
#3=DIRECTION('',(0.,1.,0.));
#4=AXIS2_PLACEMENT_3D('',#1,#2,#3);
#5=PLANE('',#4);
#6=CARTESIAN_POINT('',(-2.,2.,-2.));
#7=CARTESIAN_POINT('',(-2.,-2.,-2.));
#8=B_SPLINE_CURVE_WITH_KNOTS('',1,(#6,#7),.UNSPECIFIED.,.F.,.U.,(2,2),(0.,4.),.UNSPECIFIED.);
#9=CARTESIAN_POINT('',(4.,0.));
#10=CARTESIAN_POINT('',(3.91666666666667,0.));
#11=CARTESIAN_POINT('',(3.83333333333333,0.));
#12=CARTESIAN_POINT('',(3.75,0.));
#13=CARTESIAN_POINT('',(3.66666666666667,0.));
#14=CARTESIAN_POINT('',(3.58333333333333,0.));
#15=CARTESIAN_POINT('',(3.5,0.));
#16=CARTESIAN_POINT('',(3.41666666666667,0.));
#17=CARTESIAN_POINT('',(3.33333333333333,0.));
#18=CARTESIAN_POINT('',(3.25,0.));
#19=CARTESIAN_POINT('',(3.16666666666667,0.));
#20=CARTESIAN_POINT('',(3.08333333333333,0.));
#21=CARTESIAN_POINT('',(3.,0.));
#22=CARTESIAN_POINT('',(2.91666666666667,0.));
#23=CARTESIAN_POINT('',(2.83333333333333,0.));
#24=CARTESIAN_POINT('',(2.75,0.));
#25=CARTESIAN_POINT('',(2.66666666666667,0.));
#26=CARTESIAN_POINT('',(2.58333333333333,0.));
#27=CARTESIAN_POINT('',(2.5,0.));
#28=CARTESIAN_POINT('',(2.41666666666667,0.));
#29=CARTESIAN_POINT('',(2.33333333333333,0.));
#30=CARTESIAN_POINT('',(2.25,0.));
#31=CARTESIAN_POINT('',(2.16666666666667,0.));
#32=CARTESIAN_POINT('',(2.08333333333333,0.));
#33=CARTESIAN_POINT('',(2.,0.));
#34=CARTESIAN_POINT('',(1.91666666666667,0.));
#35=CARTESIAN_POINT('',(1.83333333333333,0.));
#36=CARTESIAN_POINT('',(1.75,0.));
#37=CARTESIAN_POINT('',(1.66666666666667,0.));
#38=CARTESIAN_POINT('',(1.58333333333333,0.));
#39=CARTESIAN_POINT('',(1.5,0.));
#40=CARTESIAN_POINT('',(1.41666666666667,0.));
#41=CARTESIAN_POINT('',(1.33333333333333,0.));
#42=CARTESIAN_POINT('',(1.25,0.));
#43=CARTESIAN_POINT('',(1.16666666666667,0.));
#44=CARTESIAN_POINT('',(1.08333333333333,0.));
#45=CARTESIAN_POINT('',(1.,0.));
#46=CARTESIAN_POINT('',(0.916666666666667,0.));
#47=CARTESIAN_POINT('',(0.833333333333333,0.));
#48=CARTESIAN_POINT('',(0.75,0.));
#49=CARTESIAN_POINT('',(0.666666666666667,0.));
#50=CARTESIAN_POINT('',(0.583333333333333,0.));
#51=CARTESIAN_POINT('',(0.5,0.));
#52=CARTESIAN_POINT('',(0.416666666666667,0.));
#53=CARTESIAN_POINT('',(0.333333333333333,0.));
#54=CARTESIAN_POINT('',(0.25,0.));
#55=CARTESIAN_POINT('',(0.166666666666667,0.));
#56=CARTESIAN_POINT('',(0.0833333333333335,0.));
#57=CARTESIAN_POINT('',(0.,0.));
#58=B_SPLINE_CURVE_WITH_KNOTS('',1,(#9,#10,#11,#12,#13,#14,#15,#16,#17,#18,#19,#20,#21,#22,#23,#24,#25,#26,#27,#28,#29,#30,#31,#32,#33,#34,#35,#36,#37,#38,#39,#40,#41,#42,#43,#44,#45,#46,#47,#48,#49,#50,#51,#52,#53,#54,#55,#56,#57),.UNSPECIFIED.,.F.,.U.,(2,1,1,1,1,1,1,1,1,1,1,1,1,1,1,1,1,1,1,1,1,1,1,1,1,1,1,1,1,1,1,1,1,1,1,1,1,1,1,1,1,1,1,1,1,1,1,1,2),(0.,0.0833333333333335,0.166666666666667,0.25,0.333333333333333,0.416666666666667,0.5,0.583333333333333,0.666666666666667,0.75,0.833333333333333,0.916666666666667,1.,1.08333333333333,1.16666666666667,1.25,1.33333333333333,1.41666666666667,1.5,1.58333333333333,1.66666666666667,1.75,1.83333333333333,1.91666666666667,2.,2.08333333333333,2.16666666666667,2.25,2.33333333333333,2.41666666666667,2.5,2.58333333333333,2.66666666666667,2.75,2.83333333333333,2.91666666666667,3.,3.08333333333333,3.16666666666667,3.25,3.33333333333333,3.41666666666667,3.5,3.58333333333333,3.66666666666667,3.75,3.83333333333333,3.91666666666667,4.),.UNSPECIFIED.);
#59=(GEOMETRIC_REPRESENTATION_CONTEXT(2)PARAMETRIC_REPRESENTATION_CONTEXT()REPRESENTATION_CONTEXT('2D SPACE',''));
#60=DEFINITIONAL_REPRESENTATION('',(#58),#59);
#61=PCURVE('',#5,#60);
#62=CARTESIAN_POINT('',(-2.,2.,-2.));
#63=DIRECTION('',(-1.,0.,0.));
#64=DIRECTION('',(0.,-1.,0.));
#65=AXIS2_PLACEMENT_3D('',#62,#63,#64);
#66=PLANE('',#65);
#67=CARTESIAN_POINT('',(0.,0.));
#68=CARTESIAN_POINT('',(0.0833333333333335,0.));
#69=CARTESIAN_POINT('',(0.166666666666667,0.));
#70=CARTESIAN_POINT('',(0.25,0.));
#71=CARTESIAN_POINT('',(0.333333333333333,0.));
#72=CARTESIAN_POINT('',(0.416666666666667,0.));
#73=CARTESIAN_POINT('',(0.5,0.));
#74=CARTESIAN_POINT('',(0.583333333333333,0.));
#75=CARTESIAN_POINT('',(0.666666666666667,0.));
#76=CARTESIAN_POINT('',(0.75,0.));
#77=CARTESIAN_POINT('',(0.833333333333333,0.));
#78=CARTESIAN_POINT('',(0.916666666666667,0.));
#79=CARTESIAN_POINT('',(1.,0.));
#80=CARTESIAN_POINT('',(1.08333333333333,0.));
#81=CARTESIAN_POINT('',(1.16666666666667,0.));
#82=CARTESIAN_POINT('',(1.25,0.));
#83=CARTESIAN_POINT('',(1.33333333333333,0.));
#84=CARTESIAN_POINT('',(1.41666666666667,0.));
#85=CARTESIAN_POINT('',(1.5,0.));
#86=CARTESIAN_POINT('',(1.58333333333333,0.));
#87=CARTESIAN_POINT('',(1.66666666666667,0.));
#88=CARTESIAN_POINT('',(1.75,0.));
#89=CARTESIAN_POINT('',(1.83333333333333,0.));
#90=CARTESIAN_POINT('',(1.91666666666667,0.));
#91=CARTESIAN_POINT('',(2.,0.));
#92=CARTESIAN_POINT('',(2.08333333333333,0.));
#93=CARTESIAN_POINT('',(2.16666666666667,0.));
#94=CARTESIAN_POINT('',(2.25,0.));
#95=CARTESIAN_POINT('',(2.33333333333333,0.));
#96=CARTESIAN_POINT('',(2.41666666666667,0.));
#97=CARTESIAN_POINT('',(2.5,0.));
#98=CARTESIAN_POINT('',(2.58333333333333,0.));
#99=CARTESIAN_POINT('',(2.66666666666667,0.));
#100=CARTESIAN_POINT('',(2.75,0.));
#101=CARTESIAN_POINT('',(2.83333333333333,0.));
#102=CARTESIAN_POINT('',(2.91666666666667,0.));
#103=CARTESIAN_POINT('',(3.,0.));
#104=CARTESIAN_POINT('',(3.08333333333333,0.));
#105=CARTESIAN_POINT('',(3.16666666666667,0.));
#106=CARTESIAN_POINT('',(3.25,0.));
#107=CARTESIAN_POINT('',(3.33333333333333,0.));
#108=CARTESIAN_POINT('',(3.41666666666667,0.));
#109=CARTESIAN_POINT('',(3.5,0.));
#110=CARTESIAN_POINT('',(3.58333333333333,0.));
#111=CARTESIAN_POINT('',(3.66666666666667,0.));
#112=CARTESIAN_POINT('',(3.75,0.));
#113=CARTESIAN_POINT('',(3.83333333333333,0.));
#114=CARTESIAN_POINT('',(3.91666666666667,0.));
#115=CARTESIAN_POINT('',(4.,0.));
#116=B_SPLINE_CURVE_WITH_KNOTS('',1,(#67,#68,#69,#70,#71,#72,#73,#74,#75,#76,#77,#78,#79,#80,#81,#82,#83,#84,#85,#86,#87,#88,#89,#90,#91,#92,#93,#94,#95,#96,#97,#98,#99,#100,#101,#102,#103,#104,#105,#106,#107,#108,#109,#110,#111,#112,#113,#114,#115),.UNSPECIFIED.,.F.,.U.,(2,1,1,1,1,1,1,1,1,1,1,1,1,1,1,1,1,1,1,1,1,1,1,1,1,1,1,1,1,1,1,1,1,1,1,1,1,1,1,1,1,1,1,1,1,1,1,1,2),(0.,0.0833333333333333,0.166666666666667,0.25,0.333333333333333,0.416666666666667,0.5,0.583333333333333,0.666666666666667,0.75,0.833333333333333,0.916666666666667,1.,1.08333333333333,1.16666666666667,1.25,1.33333333333333,1.41666666666667,1.5,1.58333333333333,1.66666666666667,1.75,1.83333333333333,1.91666666666667,2.,2.08333333333333,2.16666666666667,2.25,2.33333333333333,2.41666666666667,2.5,2.58333333333333,2.66666666666667,2.75,2.83333333333333,2.91666666666667,3.,3.08333333333333,3.16666666666667,3.25,3.33333333333333,3.41666666666667,3.5,3.58333333333333,3.66666666666667,3.75,3.83333333333333,3.91666666666667,4.),.UNSPECIFIED.);
#117=DEFINITIONAL_REPRESENTATION('',(#116),#59);
#118=PCURVE('',#66,#117);
#119=SURFACE_CURVE('',#8,(#61,#118),.PCURVE_S1.);
#120=CARTESIAN_POINT('',(-2.,2.,-2.));
#121=VERTEX_POINT('',#120);
#122=CARTESIAN_POINT('',(-2.,-2.,-2.));
#123=VERTEX_POINT('',#122);
#124=EDGE_CURVE('',#121,#123,#119,.T.);
#125=ORIENTED_EDGE('',*,*,#124,.F.);
#126=CARTESIAN_POINT('',(2.,2.,-2.));
#127=CARTESIAN_POINT('',(-2.,2.,-2.));
#128=B_SPLINE_CURVE_WITH_KNOTS('',1,(#126,#127),.UNSPECIFIED.,.F.,.U.,(2,2),(0.,4.),.UNSPECIFIED.);
#129=CARTESIAN_POINT('',(4.,4.));
#130=CARTESIAN_POINT('',(4.,3.91666666666667));
#131=CARTESIAN_POINT('',(4.,3.83333333333333));
#132=CARTESIAN_POINT('',(4.,3.75));
#133=CARTESIAN_POINT('',(4.,3.66666666666667));
#134=CARTESIAN_POINT('',(4.,3.58333333333333));
#135=CARTESIAN_POINT('',(4.,3.5));
#136=CARTESIAN_POINT('',(4.,3.41666666666667));
#137=CARTESIAN_POINT('',(4.,3.33333333333333));
#138=CARTESIAN_POINT('',(4.,3.25));
#139=CARTESIAN_POINT('',(4.,3.16666666666667));
#140=CARTESIAN_POINT('',(4.,3.08333333333333));
#141=CARTESIAN_POINT('',(4.,3.));
#142=CARTESIAN_POINT('',(4.,2.91666666666667));
#143=CARTESIAN_POINT('',(4.,2.83333333333333));
#144=CARTESIAN_POINT('',(4.,2.75));
#145=CARTESIAN_POINT('',(4.,2.66666666666667));
#146=CARTESIAN_POINT('',(4.,2.58333333333333));
#147=CARTESIAN_POINT('',(4.,2.5));
#148=CARTESIAN_POINT('',(4.,2.41666666666667));
#149=CARTESIAN_POINT('',(4.,2.33333333333333));
#150=CARTESIAN_POINT('',(4.,2.25));
#151=CARTESIAN_POINT('',(4.,2.16666666666667));
#152=CARTESIAN_POINT('',(4.,2.08333333333333));
#153=CARTESIAN_POINT('',(4.,2.));
#154=CARTESIAN_POINT('',(4.,1.91666666666667));
#155=CARTESIAN_POINT('',(4.,1.83333333333333));
#156=CARTESIAN_POINT('',(4.,1.75));
#157=CARTESIAN_POINT('',(4.,1.66666666666667));
#158=CARTESIAN_POINT('',(4.,1.58333333333333));
#159=CARTESIAN_POINT('',(4.,1.5));
#160=CARTESIAN_POINT('',(4.,1.41666666666667));
#161=CARTESIAN_POINT('',(4.,1.33333333333333));
#162=CARTESIAN_POINT('',(4.,1.25));
#163=CARTESIAN_POINT('',(4.,1.16666666666667));
#164=CARTESIAN_POINT('',(4.,1.08333333333333));
#165=CARTESIAN_POINT('',(4.,1.));
#166=CARTESIAN_POINT('',(4.,0.916666666666667));
#167=CARTESIAN_POINT('',(4.,0.833333333333333));
#168=CARTESIAN_POINT('',(4.,0.75));
#169=CARTESIAN_POINT('',(4.,0.666666666666667));
#170=CARTESIAN_POINT('',(4.,0.583333333333333));
#171=CARTESIAN_POINT('',(4.,0.5));
#172=CARTESIAN_POINT('',(4.,0.416666666666667));
#173=CARTESIAN_POINT('',(4.,0.333333333333333));
#174=CARTESIAN_POINT('',(4.,0.25));
#175=CARTESIAN_POINT('',(4.,0.166666666666667));
#176=CARTESIAN_POINT('',(4.,0.0833333333333335));
#177=CARTESIAN_POINT('',(4.,0.));
#178=B_SPLINE_CURVE_WITH_KNOTS('',1,(#129,#130,#131,#132,#133,#134,#135,#136,#137,#138,#139,#140,#141,#142,#143,#144,#145,#146,#147,#148,#149,#150,#151,#152,#153,#154,#155,#156,#157,#158,#159,#160,#161,#162,#163,#164,#165,#166,#167,#168,#169,#170,#171,#172,#173,#174,#175,#176,#177),.UNSPECIFIED.,.F.,.U.,(2,1,1,1,1,1,1,1,1,1,1,1,1,1,1,1,1,1,1,1,1,1,1,1,1,1,1,1,1,1,1,1,1,1,1,1,1,1,1,1,1,1,1,1,1,1,1,1,2),(0.,0.0833333333333335,0.166666666666667,0.25,0.333333333333333,0.416666666666667,0.5,0.583333333333333,0.666666666666667,0.75,0.833333333333333,0.916666666666667,1.,1.08333333333333,1.16666666666667,1.25,1.33333333333333,1.41666666666667,1.5,1.58333333333333,1.66666666666667,1.75,1.83333333333333,1.91666666666667,2.,2.08333333333333,2.16666666666667,2.25,2.33333333333333,2.41666666666667,2.5,2.58333333333333,2.66666666666667,2.75,2.83333333333333,2.91666666666667,3.,3.08333333333333,3.16666666666667,3.25,3.33333333333333,3.41666666666667,3.5,3.58333333333333,3.66666666666667,3.75,3.83333333333333,3.91666666666667,4.),.UNSPECIFIED.);
#179=DEFINITIONAL_REPRESENTATION('',(#178),#59);
#180=PCURVE('',#5,#179);
#181=CARTESIAN_POINT('',(2.,2.,-2.));
#182=DIRECTION('',(0.,1.,-0.));
#183=DIRECTION('',(-1.,0.,0.));
#184=AXIS2_PLACEMENT_3D('',#181,#182,#183);
#185=PLANE('',#184);
#186=CARTESIAN_POINT('',(0.,0.));
#187=CARTESIAN_POINT('',(0.0833333333333335,0.));
#188=CARTESIAN_POINT('',(0.166666666666667,0.));
#189=CARTESIAN_POINT('',(0.25,0.));
#190=CARTESIAN_POINT('',(0.333333333333333,0.));
#191=CARTESIAN_POINT('',(0.416666666666667,0.));
#192=CARTESIAN_POINT('',(0.5,0.));
#193=CARTESIAN_POINT('',(0.583333333333333,0.));
#194=CARTESIAN_POINT('',(0.666666666666667,0.));
#195=CARTESIAN_POINT('',(0.75,0.));
#196=CARTESIAN_POINT('',(0.833333333333333,0.));
#197=CARTESIAN_POINT('',(0.916666666666667,0.));
#198=CARTESIAN_POINT('',(1.,0.));
#199=CARTESIAN_POINT('',(1.08333333333333,0.));
#200=CARTESIAN_POINT('',(1.16666666666667,0.));
#201=CARTESIAN_POINT('',(1.25,0.));
#202=CARTESIAN_POINT('',(1.33333333333333,0.));
#203=CARTESIAN_POINT('',(1.41666666666667,0.));
#204=CARTESIAN_POINT('',(1.5,0.));
#205=CARTESIAN_POINT('',(1.58333333333333,0.));
#206=CARTESIAN_POINT('',(1.66666666666667,0.));
#207=CARTESIAN_POINT('',(1.75,0.));
#208=CARTESIAN_POINT('',(1.83333333333333,0.));
#209=CARTESIAN_POINT('',(1.91666666666667,0.));
#210=CARTESIAN_POINT('',(2.,0.));
#211=CARTESIAN_POINT('',(2.08333333333333,0.));
#212=CARTESIAN_POINT('',(2.16666666666667,0.));
#213=CARTESIAN_POINT('',(2.25,0.));
#214=CARTESIAN_POINT('',(2.33333333333333,0.));
#215=CARTESIAN_POINT('',(2.41666666666667,0.));
#216=CARTESIAN_POINT('',(2.5,0.));
#217=CARTESIAN_POINT('',(2.58333333333333,0.));
#218=CARTESIAN_POINT('',(2.66666666666667,0.));
#219=CARTESIAN_POINT('',(2.75,0.));
#220=CARTESIAN_POINT('',(2.83333333333333,0.));
#221=CARTESIAN_POINT('',(2.91666666666667,0.));
#222=CARTESIAN_POINT('',(3.,0.));
#223=CARTESIAN_POINT('',(3.08333333333333,0.));
#224=CARTESIAN_POINT('',(3.16666666666667,0.));
#225=CARTESIAN_POINT('',(3.25,0.));
#226=CARTESIAN_POINT('',(3.33333333333333,0.));
#227=CARTESIAN_POINT('',(3.41666666666667,0.));
#228=CARTESIAN_POINT('',(3.5,0.));
#229=CARTESIAN_POINT('',(3.58333333333333,0.));
#230=CARTESIAN_POINT('',(3.66666666666667,0.));
#231=CARTESIAN_POINT('',(3.75,0.));
#232=CARTESIAN_POINT('',(3.83333333333333,0.));
#233=CARTESIAN_POINT('',(3.91666666666667,0.));
#234=CARTESIAN_POINT('',(4.,0.));
#235=B_SPLINE_CURVE_WITH_KNOTS('',1,(#186,#187,#188,#189,#190,#191,#192,#193,#194,#195,#196,#197,#198,#199,#200,#201,#202,#203,#204,#205,#206,#207,#208,#209,#210,#211,#212,#213,#214,#215,#216,#217,#218,#219,#220,#221,#222,#223,#224,#225,#226,#227,#228,#229,#230,#231,#232,#233,#234),.UNSPECIFIED.,.F.,.U.,(2,1,1,1,1,1,1,1,1,1,1,1,1,1,1,1,1,1,1,1,1,1,1,1,1,1,1,1,1,1,1,1,1,1,1,1,1,1,1,1,1,1,1,1,1,1,1,1,2),(0.,0.0833333333333333,0.166666666666667,0.25,0.333333333333333,0.416666666666667,0.5,0.583333333333333,0.666666666666667,0.75,0.833333333333333,0.916666666666667,1.,1.08333333333333,1.16666666666667,1.25,1.33333333333333,1.41666666666667,1.5,1.58333333333333,1.66666666666667,1.75,1.83333333333333,1.91666666666667,2.,2.08333333333333,2.16666666666667,2.25,2.33333333333333,2.41666666666667,2.5,2.58333333333333,2.66666666666667,2.75,2.83333333333333,2.91666666666667,3.,3.08333333333333,3.16666666666667,3.25,3.33333333333333,3.41666666666667,3.5,3.58333333333333,3.66666666666667,3.75,3.83333333333333,3.91666666666667,4.),.UNSPECIFIED.);
#236=DEFINITIONAL_REPRESENTATION('',(#235),#59);
#237=PCURVE('',#185,#236);
#238=SURFACE_CURVE('',#128,(#180,#237),.PCURVE_S1.);
#239=CARTESIAN_POINT('',(2.,2.,-2.));
#240=VERTEX_POINT('',#239);
#241=EDGE_CURVE('',#240,#121,#238,.T.);
#242=ORIENTED_EDGE('',*,*,#241,.F.);
#243=CARTESIAN_POINT('',(2.,-2.,-2.));
#244=CARTESIAN_POINT('',(2.,2.,-2.));
#245=B_SPLINE_CURVE_WITH_KNOTS('',1,(#243,#244),.UNSPECIFIED.,.F.,.U.,(2,2),(0.,4.),.UNSPECIFIED.);
#246=CARTESIAN_POINT('',(0.,4.));
#247=CARTESIAN_POINT('',(0.0833333333333335,4.));
#248=CARTESIAN_POINT('',(0.166666666666667,4.));
#249=CARTESIAN_POINT('',(0.25,4.));
#250=CARTESIAN_POINT('',(0.333333333333333,4.));
#251=CARTESIAN_POINT('',(0.416666666666667,4.));
#252=CARTESIAN_POINT('',(0.5,4.));
#253=CARTESIAN_POINT('',(0.583333333333333,4.));
#254=CARTESIAN_POINT('',(0.666666666666667,4.));
#255=CARTESIAN_POINT('',(0.75,4.));
#256=CARTESIAN_POINT('',(0.833333333333333,4.));
#257=CARTESIAN_POINT('',(0.916666666666667,4.));
#258=CARTESIAN_POINT('',(1.,4.));
#259=CARTESIAN_POINT('',(1.08333333333333,4.));
#260=CARTESIAN_POINT('',(1.16666666666667,4.));
#261=CARTESIAN_POINT('',(1.25,4.));
#262=CARTESIAN_POINT('',(1.33333333333333,4.));
#263=CARTESIAN_POINT('',(1.41666666666667,4.));
#264=CARTESIAN_POINT('',(1.5,4.));
#265=CARTESIAN_POINT('',(1.58333333333333,4.));
#266=CARTESIAN_POINT('',(1.66666666666667,4.));
#267=CARTESIAN_POINT('',(1.75,4.));
#268=CARTESIAN_POINT('',(1.83333333333333,4.));
#269=CARTESIAN_POINT('',(1.91666666666667,4.));
#270=CARTESIAN_POINT('',(2.,4.));
#271=CARTESIAN_POINT('',(2.08333333333333,4.));
#272=CARTESIAN_POINT('',(2.16666666666667,4.));
#273=CARTESIAN_POINT('',(2.25,4.));
#274=CARTESIAN_POINT('',(2.33333333333333,4.));
#275=CARTESIAN_POINT('',(2.41666666666667,4.));
#276=CARTESIAN_POINT('',(2.5,4.));
#277=CARTESIAN_POINT('',(2.58333333333333,4.));
#278=CARTESIAN_POINT('',(2.66666666666667,4.));
#279=CARTESIAN_POINT('',(2.75,4.));
#280=CARTESIAN_POINT('',(2.83333333333333,4.));
#281=CARTESIAN_POINT('',(2.91666666666667,4.));
#282=CARTESIAN_POINT('',(3.,4.));
#283=CARTESIAN_POINT('',(3.08333333333333,4.));
#284=CARTESIAN_POINT('',(3.16666666666667,4.));
#285=CARTESIAN_POINT('',(3.25,4.));
#286=CARTESIAN_POINT('',(3.33333333333333,4.));
#287=CARTESIAN_POINT('',(3.41666666666667,4.));
#288=CARTESIAN_POINT('',(3.5,4.));
#289=CARTESIAN_POINT('',(3.58333333333333,4.));
#290=CARTESIAN_POINT('',(3.66666666666667,4.));
#291=CARTESIAN_POINT('',(3.75,4.));
#292=CARTESIAN_POINT('',(3.83333333333333,4.));
#293=CARTESIAN_POINT('',(3.91666666666667,4.));
#294=CARTESIAN_POINT('',(4.,4.));
#295=B_SPLINE_CURVE_WITH_KNOTS('',1,(#246,#247,#248,#249,#250,#251,#252,#253,#254,#255,#256,#257,#258,#259,#260,#261,#262,#263,#264,#265,#266,#267,#268,#269,#270,#271,#272,#273,#274,#275,#276,#277,#278,#279,#280,#281,#282,#283,#284,#285,#286,#287,#288,#289,#290,#291,#292,#293,#294),.UNSPECIFIED.,.F.,.U.,(2,1,1,1,1,1,1,1,1,1,1,1,1,1,1,1,1,1,1,1,1,1,1,1,1,1,1,1,1,1,1,1,1,1,1,1,1,1,1,1,1,1,1,1,1,1,1,1,2),(0.,0.0833333333333335,0.166666666666667,0.25,0.333333333333333,0.416666666666667,0.5,0.583333333333333,0.666666666666667,0.75,0.833333333333333,0.916666666666667,1.,1.08333333333333,1.16666666666667,1.25,1.33333333333333,1.41666666666667,1.5,1.58333333333333,1.66666666666667,1.75,1.83333333333333,1.91666666666667,2.,2.08333333333333,2.16666666666667,2.25,2.33333333333333,2.41666666666667,2.5,2.58333333333333,2.66666666666667,2.75,2.83333333333333,2.91666666666667,3.,3.08333333333333,3.16666666666667,3.25,3.33333333333333,3.41666666666667,3.5,3.58333333333333,3.66666666666667,3.75,3.83333333333333,3.91666666666667,4.),.UNSPECIFIED.);
#296=DEFINITIONAL_REPRESENTATION('',(#295),#59);
#297=PCURVE('',#5,#296);
#298=CARTESIAN_POINT('',(2.,-2.,-2.));
#299=DIRECTION('',(1.,0.,0.));
#300=DIRECTION('',(0.,1.,0.));
#301=AXIS2_PLACEMENT_3D('',#298,#299,#300);
#302=PLANE('',#301);
#303=CARTESIAN_POINT('',(0.,0.));
#304=CARTESIAN_POINT('',(0.0833333333333335,0.));
#305=CARTESIAN_POINT('',(0.166666666666667,0.));
#306=CARTESIAN_POINT('',(0.25,0.));
#307=CARTESIAN_POINT('',(0.333333333333333,0.));
#308=CARTESIAN_POINT('',(0.416666666666667,0.));
#309=CARTESIAN_POINT('',(0.5,0.));
#310=CARTESIAN_POINT('',(0.583333333333333,0.));
#311=CARTESIAN_POINT('',(0.666666666666667,0.));
#312=CARTESIAN_POINT('',(0.75,0.));
#313=CARTESIAN_POINT('',(0.833333333333333,0.));
#314=CARTESIAN_POINT('',(0.916666666666667,0.));
#315=CARTESIAN_POINT('',(1.,0.));
#316=CARTESIAN_POINT('',(1.08333333333333,0.));
#317=CARTESIAN_POINT('',(1.16666666666667,0.));
#318=CARTESIAN_POINT('',(1.25,0.));
#319=CARTESIAN_POINT('',(1.33333333333333,0.));
#320=CARTESIAN_POINT('',(1.41666666666667,0.));
#321=CARTESIAN_POINT('',(1.5,0.));
#322=CARTESIAN_POINT('',(1.58333333333333,0.));
#323=CARTESIAN_POINT('',(1.66666666666667,0.));
#324=CARTESIAN_POINT('',(1.75,0.));
#325=CARTESIAN_POINT('',(1.83333333333333,0.));
#326=CARTESIAN_POINT('',(1.91666666666667,0.));
#327=CARTESIAN_POINT('',(2.,0.));
#328=CARTESIAN_POINT('',(2.08333333333333,0.));
#329=CARTESIAN_POINT('',(2.16666666666667,0.));
#330=CARTESIAN_POINT('',(2.25,0.));
#331=CARTESIAN_POINT('',(2.33333333333333,0.));
#332=CARTESIAN_POINT('',(2.41666666666667,0.));
#333=CARTESIAN_POINT('',(2.5,0.));
#334=CARTESIAN_POINT('',(2.58333333333333,0.));
#335=CARTESIAN_POINT('',(2.66666666666667,0.));
#336=CARTESIAN_POINT('',(2.75,0.));
#337=CARTESIAN_POINT('',(2.83333333333333,0.));
#338=CARTESIAN_POINT('',(2.91666666666667,0.));
#339=CARTESIAN_POINT('',(3.,0.));
#340=CARTESIAN_POINT('',(3.08333333333333,0.));
#341=CARTESIAN_POINT('',(3.16666666666667,0.));
#342=CARTESIAN_POINT('',(3.25,0.));
#343=CARTESIAN_POINT('',(3.33333333333333,0.));
#344=CARTESIAN_POINT('',(3.41666666666667,0.));
#345=CARTESIAN_POINT('',(3.5,0.));
#346=CARTESIAN_POINT('',(3.58333333333333,0.));
#347=CARTESIAN_POINT('',(3.66666666666667,0.));
#348=CARTESIAN_POINT('',(3.75,0.));
#349=CARTESIAN_POINT('',(3.83333333333333,0.));
#350=CARTESIAN_POINT('',(3.91666666666667,0.));
#351=CARTESIAN_POINT('',(4.,0.));
#352=B_SPLINE_CURVE_WITH_KNOTS('',1,(#303,#304,#305,#306,#307,#308,#309,#310,#311,#312,#313,#314,#315,#316,#317,#318,#319,#320,#321,#322,#323,#324,#325,#326,#327,#328,#329,#330,#331,#332,#333,#334,#335,#336,#337,#338,#339,#340,#341,#342,#343,#344,#345,#346,#347,#348,#349,#350,#351),.UNSPECIFIED.,.F.,.U.,(2,1,1,1,1,1,1,1,1,1,1,1,1,1,1,1,1,1,1,1,1,1,1,1,1,1,1,1,1,1,1,1,1,1,1,1,1,1,1,1,1,1,1,1,1,1,1,1,2),(0.,0.0833333333333333,0.166666666666667,0.25,0.333333333333333,0.416666666666667,0.5,0.583333333333333,0.666666666666667,0.75,0.833333333333333,0.916666666666667,1.,1.08333333333333,1.16666666666667,1.25,1.33333333333333,1.41666666666667,1.5,1.58333333333333,1.66666666666667,1.75,1.83333333333333,1.91666666666667,2.,2.08333333333333,2.16666666666667,2.25,2.33333333333333,2.41666666666667,2.5,2.58333333333333,2.66666666666667,2.75,2.83333333333333,2.91666666666667,3.,3.08333333333333,3.16666666666667,3.25,3.33333333333333,3.41666666666667,3.5,3.58333333333333,3.66666666666667,3.75,3.83333333333333,3.91666666666667,4.),.UNSPECIFIED.);
#353=DEFINITIONAL_REPRESENTATION('',(#352),#59);
#354=PCURVE('',#302,#353);
#355=SURFACE_CURVE('',#245,(#297,#354),.PCURVE_S1.);
#356=CARTESIAN_POINT('',(2.,-2.,-2.));
#357=VERTEX_POINT('',#356);
#358=EDGE_CURVE('',#357,#240,#355,.T.);
#359=ORIENTED_EDGE('',*,*,#358,.F.);
#360=CARTESIAN_POINT('',(-2.,-2.,-2.));
#361=CARTESIAN_POINT('',(2.,-2.,-2.));
#362=B_SPLINE_CURVE_WITH_KNOTS('',1,(#360,#361),.UNSPECIFIED.,.F.,.U.,(2,2),(0.,4.),.UNSPECIFIED.);
#363=CARTESIAN_POINT('',(0.,0.));
#364=CARTESIAN_POINT('',(0.,0.0833333333333335));
#365=CARTESIAN_POINT('',(0.,0.166666666666667));
#366=CARTESIAN_POINT('',(0.,0.25));
#367=CARTESIAN_POINT('',(0.,0.333333333333333));
#368=CARTESIAN_POINT('',(0.,0.416666666666667));
#369=CARTESIAN_POINT('',(0.,0.5));
#370=CARTESIAN_POINT('',(0.,0.583333333333333));
#371=CARTESIAN_POINT('',(0.,0.666666666666667));
#372=CARTESIAN_POINT('',(0.,0.75));
#373=CARTESIAN_POINT('',(0.,0.833333333333333));
#374=CARTESIAN_POINT('',(0.,0.916666666666667));
#375=CARTESIAN_POINT('',(0.,1.));
#376=CARTESIAN_POINT('',(0.,1.08333333333333));
#377=CARTESIAN_POINT('',(0.,1.16666666666667));
#378=CARTESIAN_POINT('',(0.,1.25));
#379=CARTESIAN_POINT('',(0.,1.33333333333333));
#380=CARTESIAN_POINT('',(0.,1.41666666666667));
#381=CARTESIAN_POINT('',(0.,1.5));
#382=CARTESIAN_POINT('',(0.,1.58333333333333));
#383=CARTESIAN_POINT('',(0.,1.66666666666667));
#384=CARTESIAN_POINT('',(0.,1.75));
#385=CARTESIAN_POINT('',(0.,1.83333333333333));
#386=CARTESIAN_POINT('',(0.,1.91666666666667));
#387=CARTESIAN_POINT('',(0.,2.));
#388=CARTESIAN_POINT('',(0.,2.08333333333333));
#389=CARTESIAN_POINT('',(0.,2.16666666666667));
#390=CARTESIAN_POINT('',(0.,2.25));
#391=CARTESIAN_POINT('',(0.,2.33333333333333));
#392=CARTESIAN_POINT('',(0.,2.41666666666667));
#393=CARTESIAN_POINT('',(0.,2.5));
#394=CARTESIAN_POINT('',(0.,2.58333333333333));
#395=CARTESIAN_POINT('',(0.,2.66666666666667));
#396=CARTESIAN_POINT('',(0.,2.75));
#397=CARTESIAN_POINT('',(0.,2.83333333333333));
#398=CARTESIAN_POINT('',(0.,2.91666666666667));
#399=CARTESIAN_POINT('',(0.,3.));
#400=CARTESIAN_POINT('',(0.,3.08333333333333));
#401=CARTESIAN_POINT('',(0.,3.16666666666667));
#402=CARTESIAN_POINT('',(0.,3.25));
#403=CARTESIAN_POINT('',(0.,3.33333333333333));
#404=CARTESIAN_POINT('',(0.,3.41666666666667));
#405=CARTESIAN_POINT('',(0.,3.5));
#406=CARTESIAN_POINT('',(0.,3.58333333333333));
#407=CARTESIAN_POINT('',(0.,3.66666666666667));
#408=CARTESIAN_POINT('',(0.,3.75));
#409=CARTESIAN_POINT('',(0.,3.83333333333333));
#410=CARTESIAN_POINT('',(0.,3.91666666666667));
#411=CARTESIAN_POINT('',(0.,4.));
#412=B_SPLINE_CURVE_WITH_KNOTS('',1,(#363,#364,#365,#366,#367,#368,#369,#370,#371,#372,#373,#374,#375,#376,#377,#378,#379,#380,#381,#382,#383,#384,#385,#386,#387,#388,#389,#390,#391,#392,#393,#394,#395,#396,#397,#398,#399,#400,#401,#402,#403,#404,#405,#406,#407,#408,#409,#410,#411),.UNSPECIFIED.,.F.,.U.,(2,1,1,1,1,1,1,1,1,1,1,1,1,1,1,1,1,1,1,1,1,1,1,1,1,1,1,1,1,1,1,1,1,1,1,1,1,1,1,1,1,1,1,1,1,1,1,1,2),(0.,0.0833333333333335,0.166666666666667,0.25,0.333333333333333,0.416666666666667,0.5,0.583333333333333,0.666666666666667,0.75,0.833333333333333,0.916666666666667,1.,1.08333333333333,1.16666666666667,1.25,1.33333333333333,1.41666666666667,1.5,1.58333333333333,1.66666666666667,1.75,1.83333333333333,1.91666666666667,2.,2.08333333333333,2.16666666666667,2.25,2.33333333333333,2.41666666666667,2.5,2.58333333333333,2.66666666666667,2.75,2.83333333333333,2.91666666666667,3.,3.08333333333333,3.16666666666667,3.25,3.33333333333333,3.41666666666667,3.5,3.58333333333333,3.66666666666667,3.75,3.83333333333333,3.91666666666667,4.),.UNSPECIFIED.);
#413=DEFINITIONAL_REPRESENTATION('',(#412),#59);
#414=PCURVE('',#5,#413);
#415=CARTESIAN_POINT('',(-2.,-2.,-2.));
#416=DIRECTION('',(0.,-1.,0.));
#417=DIRECTION('',(1.,0.,0.));
#418=AXIS2_PLACEMENT_3D('',#415,#416,#417);
#419=PLANE('',#418);
#420=CARTESIAN_POINT('',(0.,0.));
#421=CARTESIAN_POINT('',(0.0833333333333335,0.));
#422=CARTESIAN_POINT('',(0.166666666666667,0.));
#423=CARTESIAN_POINT('',(0.25,0.));
#424=CARTESIAN_POINT('',(0.333333333333333,0.));
#425=CARTESIAN_POINT('',(0.416666666666667,0.));
#426=CARTESIAN_POINT('',(0.5,0.));
#427=CARTESIAN_POINT('',(0.583333333333333,0.));
#428=CARTESIAN_POINT('',(0.666666666666667,0.));
#429=CARTESIAN_POINT('',(0.75,0.));
#430=CARTESIAN_POINT('',(0.833333333333333,0.));
#431=CARTESIAN_POINT('',(0.916666666666667,0.));
#432=CARTESIAN_POINT('',(1.,0.));
#433=CARTESIAN_POINT('',(1.08333333333333,0.));
#434=CARTESIAN_POINT('',(1.16666666666667,0.));
#435=CARTESIAN_POINT('',(1.25,0.));
#436=CARTESIAN_POINT('',(1.33333333333333,0.));
#437=CARTESIAN_POINT('',(1.41666666666667,0.));
#438=CARTESIAN_POINT('',(1.5,0.));
#439=CARTESIAN_POINT('',(1.58333333333333,0.));
#440=CARTESIAN_POINT('',(1.66666666666667,0.));
#441=CARTESIAN_POINT('',(1.75,0.));
#442=CARTESIAN_POINT('',(1.83333333333333,0.));
#443=CARTESIAN_POINT('',(1.91666666666667,0.));
#444=CARTESIAN_POINT('',(2.,0.));
#445=CARTESIAN_POINT('',(2.08333333333333,0.));
#446=CARTESIAN_POINT('',(2.16666666666667,0.));
#447=CARTESIAN_POINT('',(2.25,0.));
#448=CARTESIAN_POINT('',(2.33333333333333,0.));
#449=CARTESIAN_POINT('',(2.41666666666667,0.));
#450=CARTESIAN_POINT('',(2.5,0.));
#451=CARTESIAN_POINT('',(2.58333333333333,0.));
#452=CARTESIAN_POINT('',(2.66666666666667,0.));
#453=CARTESIAN_POINT('',(2.75,0.));
#454=CARTESIAN_POINT('',(2.83333333333333,0.));
#455=CARTESIAN_POINT('',(2.91666666666667,0.));
#456=CARTESIAN_POINT('',(3.,0.));
#457=CARTESIAN_POINT('',(3.08333333333333,0.));
#458=CARTESIAN_POINT('',(3.16666666666667,0.));
#459=CARTESIAN_POINT('',(3.25,0.));
#460=CARTESIAN_POINT('',(3.33333333333333,0.));
#461=CARTESIAN_POINT('',(3.41666666666667,0.));
#462=CARTESIAN_POINT('',(3.5,0.));
#463=CARTESIAN_POINT('',(3.58333333333333,0.));
#464=CARTESIAN_POINT('',(3.66666666666667,0.));
#465=CARTESIAN_POINT('',(3.75,0.));
#466=CARTESIAN_POINT('',(3.83333333333333,0.));
#467=CARTESIAN_POINT('',(3.91666666666667,0.));
#468=CARTESIAN_POINT('',(4.,0.));
#469=B_SPLINE_CURVE_WITH_KNOTS('',1,(#420,#421,#422,#423,#424,#425,#426,#427,#428,#429,#430,#431,#432,#433,#434,#435,#436,#437,#438,#439,#440,#441,#442,#443,#444,#445,#446,#447,#448,#449,#450,#451,#452,#453,#454,#455,#456,#457,#458,#459,#460,#461,#462,#463,#464,#465,#466,#467,#468),.UNSPECIFIED.,.F.,.U.,(2,1,1,1,1,1,1,1,1,1,1,1,1,1,1,1,1,1,1,1,1,1,1,1,1,1,1,1,1,1,1,1,1,1,1,1,1,1,1,1,1,1,1,1,1,1,1,1,2),(0.,0.0833333333333333,0.166666666666667,0.25,0.333333333333333,0.416666666666667,0.5,0.583333333333333,0.666666666666667,0.75,0.833333333333333,0.916666666666667,1.,1.08333333333333,1.16666666666667,1.25,1.33333333333333,1.41666666666667,1.5,1.58333333333333,1.66666666666667,1.75,1.83333333333333,1.91666666666667,2.,2.08333333333333,2.16666666666667,2.25,2.33333333333333,2.41666666666667,2.5,2.58333333333333,2.66666666666667,2.75,2.83333333333333,2.91666666666667,3.,3.08333333333333,3.16666666666667,3.25,3.33333333333333,3.41666666666667,3.5,3.58333333333333,3.66666666666667,3.75,3.83333333333333,3.91666666666667,4.),.UNSPECIFIED.);
#470=DEFINITIONAL_REPRESENTATION('',(#469),#59);
#471=PCURVE('',#419,#470);
#472=SURFACE_CURVE('',#362,(#414,#471),.PCURVE_S1.);
#473=EDGE_CURVE('',#123,#357,#472,.T.);
#474=ORIENTED_EDGE('',*,*,#473,.F.);
#475=EDGE_LOOP('',(#125,#242,#359,#474));
#476=FACE_OUTER_BOUND('',#475,.T.);
#477=ADVANCED_FACE('',(#476),#5,.T.);
#478=CARTESIAN_POINT('',(-2.,-2.,2.));
#479=DIRECTION('',(0.,0.,1.));
#480=DIRECTION('',(1.,0.,0.));
#481=AXIS2_PLACEMENT_3D('',#478,#479,#480);
#482=PLANE('',#481);
#483=CARTESIAN_POINT('',(-2.,-2.,2.));
#484=CARTESIAN_POINT('',(2.,-2.,2.));
#485=B_SPLINE_CURVE_WITH_KNOTS('',1,(#483,#484),.UNSPECIFIED.,.F.,.U.,(2,2),(0.,4.),.UNSPECIFIED.);
#486=CARTESIAN_POINT('',(0.,0.));
#487=CARTESIAN_POINT('',(0.0833333333333335,0.));
#488=CARTESIAN_POINT('',(0.166666666666667,0.));
#489=CARTESIAN_POINT('',(0.25,0.));
#490=CARTESIAN_POINT('',(0.333333333333333,0.));
#491=CARTESIAN_POINT('',(0.416666666666667,0.));
#492=CARTESIAN_POINT('',(0.5,0.));
#493=CARTESIAN_POINT('',(0.583333333333333,0.));
#494=CARTESIAN_POINT('',(0.666666666666667,0.));
#495=CARTESIAN_POINT('',(0.75,0.));
#496=CARTESIAN_POINT('',(0.833333333333333,0.));
#497=CARTESIAN_POINT('',(0.916666666666667,0.));
#498=CARTESIAN_POINT('',(1.,0.));
#499=CARTESIAN_POINT('',(1.08333333333333,0.));
#500=CARTESIAN_POINT('',(1.16666666666667,0.));
#501=CARTESIAN_POINT('',(1.25,0.));
#502=CARTESIAN_POINT('',(1.33333333333333,0.));
#503=CARTESIAN_POINT('',(1.41666666666667,0.));
#504=CARTESIAN_POINT('',(1.5,0.));
#505=CARTESIAN_POINT('',(1.58333333333333,0.));
#506=CARTESIAN_POINT('',(1.66666666666667,0.));
#507=CARTESIAN_POINT('',(1.75,0.));
#508=CARTESIAN_POINT('',(1.83333333333333,0.));
#509=CARTESIAN_POINT('',(1.91666666666667,0.));
#510=CARTESIAN_POINT('',(2.,0.));
#511=CARTESIAN_POINT('',(2.08333333333333,0.));
#512=CARTESIAN_POINT('',(2.16666666666667,0.));
#513=CARTESIAN_POINT('',(2.25,0.));
#514=CARTESIAN_POINT('',(2.33333333333333,0.));
#515=CARTESIAN_POINT('',(2.41666666666667,0.));
#516=CARTESIAN_POINT('',(2.5,0.));
#517=CARTESIAN_POINT('',(2.58333333333333,0.));
#518=CARTESIAN_POINT('',(2.66666666666667,0.));
#519=CARTESIAN_POINT('',(2.75,0.));
#520=CARTESIAN_POINT('',(2.83333333333333,0.));
#521=CARTESIAN_POINT('',(2.91666666666667,0.));
#522=CARTESIAN_POINT('',(3.,0.));
#523=CARTESIAN_POINT('',(3.08333333333333,0.));
#524=CARTESIAN_POINT('',(3.16666666666667,0.));
#525=CARTESIAN_POINT('',(3.25,0.));
#526=CARTESIAN_POINT('',(3.33333333333333,0.));
#527=CARTESIAN_POINT('',(3.41666666666667,0.));
#528=CARTESIAN_POINT('',(3.5,0.));
#529=CARTESIAN_POINT('',(3.58333333333333,0.));
#530=CARTESIAN_POINT('',(3.66666666666667,0.));
#531=CARTESIAN_POINT('',(3.75,0.));
#532=CARTESIAN_POINT('',(3.83333333333333,0.));
#533=CARTESIAN_POINT('',(3.91666666666667,0.));
#534=CARTESIAN_POINT('',(4.,0.));
#535=B_SPLINE_CURVE_WITH_KNOTS('',1,(#486,#487,#488,#489,#490,#491,#492,#493,#494,#495,#496,#497,#498,#499,#500,#501,#502,#503,#504,#505,#506,#507,#508,#509,#510,#511,#512,#513,#514,#515,#516,#517,#518,#519,#520,#521,#522,#523,#524,#525,#526,#527,#528,#529,#530,#531,#532,#533,#534),.UNSPECIFIED.,.F.,.U.,(2,1,1,1,1,1,1,1,1,1,1,1,1,1,1,1,1,1,1,1,1,1,1,1,1,1,1,1,1,1,1,1,1,1,1,1,1,1,1,1,1,1,1,1,1,1,1,1,2),(0.,0.0833333333333333,0.166666666666667,0.25,0.333333333333333,0.416666666666667,0.5,0.583333333333333,0.666666666666667,0.75,0.833333333333333,0.916666666666667,1.,1.08333333333333,1.16666666666667,1.25,1.33333333333333,1.41666666666667,1.5,1.58333333333333,1.66666666666667,1.75,1.83333333333333,1.91666666666667,2.,2.08333333333333,2.16666666666667,2.25,2.33333333333333,2.41666666666667,2.5,2.58333333333333,2.66666666666667,2.75,2.83333333333333,2.91666666666667,3.,3.08333333333333,3.16666666666667,3.25,3.33333333333333,3.41666666666667,3.5,3.58333333333333,3.66666666666667,3.75,3.83333333333333,3.91666666666667,4.),.UNSPECIFIED.);
#536=DEFINITIONAL_REPRESENTATION('',(#535),#59);
#537=PCURVE('',#482,#536);
#538=CARTESIAN_POINT('',(0.,4.));
#539=CARTESIAN_POINT('',(0.0833333333333335,4.));
#540=CARTESIAN_POINT('',(0.166666666666667,4.));
#541=CARTESIAN_POINT('',(0.25,4.));
#542=CARTESIAN_POINT('',(0.333333333333333,4.));
#543=CARTESIAN_POINT('',(0.416666666666667,4.));
#544=CARTESIAN_POINT('',(0.5,4.));
#545=CARTESIAN_POINT('',(0.583333333333333,4.));
#546=CARTESIAN_POINT('',(0.666666666666667,4.));
#547=CARTESIAN_POINT('',(0.75,4.));
#548=CARTESIAN_POINT('',(0.833333333333333,4.));
#549=CARTESIAN_POINT('',(0.916666666666667,4.));
#550=CARTESIAN_POINT('',(1.,4.));
#551=CARTESIAN_POINT('',(1.08333333333333,4.));
#552=CARTESIAN_POINT('',(1.16666666666667,4.));
#553=CARTESIAN_POINT('',(1.25,4.));
#554=CARTESIAN_POINT('',(1.33333333333333,4.));
#555=CARTESIAN_POINT('',(1.41666666666667,4.));
#556=CARTESIAN_POINT('',(1.5,4.));
#557=CARTESIAN_POINT('',(1.58333333333333,4.));
#558=CARTESIAN_POINT('',(1.66666666666667,4.));
#559=CARTESIAN_POINT('',(1.75,4.));
#560=CARTESIAN_POINT('',(1.83333333333333,4.));
#561=CARTESIAN_POINT('',(1.91666666666667,4.));
#562=CARTESIAN_POINT('',(2.,4.));
#563=CARTESIAN_POINT('',(2.08333333333333,4.));
#564=CARTESIAN_POINT('',(2.16666666666667,4.));
#565=CARTESIAN_POINT('',(2.25,4.));
#566=CARTESIAN_POINT('',(2.33333333333333,4.));
#567=CARTESIAN_POINT('',(2.41666666666667,4.));
#568=CARTESIAN_POINT('',(2.5,4.));
#569=CARTESIAN_POINT('',(2.58333333333333,4.));
#570=CARTESIAN_POINT('',(2.66666666666667,4.));
#571=CARTESIAN_POINT('',(2.75,4.));
#572=CARTESIAN_POINT('',(2.83333333333333,4.));
#573=CARTESIAN_POINT('',(2.91666666666667,4.));
#574=CARTESIAN_POINT('',(3.,4.));
#575=CARTESIAN_POINT('',(3.08333333333333,4.));
#576=CARTESIAN_POINT('',(3.16666666666667,4.));
#577=CARTESIAN_POINT('',(3.25,4.));
#578=CARTESIAN_POINT('',(3.33333333333333,4.));
#579=CARTESIAN_POINT('',(3.41666666666667,4.));
#580=CARTESIAN_POINT('',(3.5,4.));
#581=CARTESIAN_POINT('',(3.58333333333333,4.));
#582=CARTESIAN_POINT('',(3.66666666666667,4.));
#583=CARTESIAN_POINT('',(3.75,4.));
#584=CARTESIAN_POINT('',(3.83333333333333,4.));
#585=CARTESIAN_POINT('',(3.91666666666667,4.));
#586=CARTESIAN_POINT('',(4.,4.));
#587=B_SPLINE_CURVE_WITH_KNOTS('',1,(#538,#539,#540,#541,#542,#543,#544,#545,#546,#547,#548,#549,#550,#551,#552,#553,#554,#555,#556,#557,#558,#559,#560,#561,#562,#563,#564,#565,#566,#567,#568,#569,#570,#571,#572,#573,#574,#575,#576,#577,#578,#579,#580,#581,#582,#583,#584,#585,#586),.UNSPECIFIED.,.F.,.U.,(2,1,1,1,1,1,1,1,1,1,1,1,1,1,1,1,1,1,1,1,1,1,1,1,1,1,1,1,1,1,1,1,1,1,1,1,1,1,1,1,1,1,1,1,1,1,1,1,2),(0.,0.0833333333333335,0.166666666666667,0.25,0.333333333333333,0.416666666666667,0.5,0.583333333333333,0.666666666666667,0.75,0.833333333333333,0.916666666666667,1.,1.08333333333333,1.16666666666667,1.25,1.33333333333333,1.41666666666667,1.5,1.58333333333333,1.66666666666667,1.75,1.83333333333333,1.91666666666667,2.,2.08333333333333,2.16666666666667,2.25,2.33333333333333,2.41666666666667,2.5,2.58333333333333,2.66666666666667,2.75,2.83333333333333,2.91666666666667,3.,3.08333333333333,3.16666666666667,3.25,3.33333333333333,3.41666666666667,3.5,3.58333333333333,3.66666666666667,3.75,3.83333333333333,3.91666666666667,4.),.UNSPECIFIED.);
#588=DEFINITIONAL_REPRESENTATION('',(#587),#59);
#589=PCURVE('',#419,#588);
#590=SURFACE_CURVE('',#485,(#537,#589),.PCURVE_S1.);
#591=CARTESIAN_POINT('',(-2.,-2.,2.));
#592=VERTEX_POINT('',#591);
#593=CARTESIAN_POINT('',(2.,-2.,2.));
#594=VERTEX_POINT('',#593);
#595=EDGE_CURVE('',#592,#594,#590,.T.);
#596=ORIENTED_EDGE('',*,*,#595,.T.);
#597=CARTESIAN_POINT('',(2.,-2.,2.));
#598=CARTESIAN_POINT('',(2.,2.,2.));
#599=B_SPLINE_CURVE_WITH_KNOTS('',1,(#597,#598),.UNSPECIFIED.,.F.,.U.,(2,2),(0.,4.),.UNSPECIFIED.);
#600=CARTESIAN_POINT('',(4.,0.));
#601=CARTESIAN_POINT('',(4.,0.0833333333333335));
#602=CARTESIAN_POINT('',(4.,0.166666666666667));
#603=CARTESIAN_POINT('',(4.,0.25));
#604=CARTESIAN_POINT('',(4.,0.333333333333333));
#605=CARTESIAN_POINT('',(4.,0.416666666666667));
#606=CARTESIAN_POINT('',(4.,0.5));
#607=CARTESIAN_POINT('',(4.,0.583333333333333));
#608=CARTESIAN_POINT('',(4.,0.666666666666667));
#609=CARTESIAN_POINT('',(4.,0.75));
#610=CARTESIAN_POINT('',(4.,0.833333333333333));
#611=CARTESIAN_POINT('',(4.,0.916666666666667));
#612=CARTESIAN_POINT('',(4.,1.));
#613=CARTESIAN_POINT('',(4.,1.08333333333333));
#614=CARTESIAN_POINT('',(4.,1.16666666666667));
#615=CARTESIAN_POINT('',(4.,1.25));
#616=CARTESIAN_POINT('',(4.,1.33333333333333));
#617=CARTESIAN_POINT('',(4.,1.41666666666667));
#618=CARTESIAN_POINT('',(4.,1.5));
#619=CARTESIAN_POINT('',(4.,1.58333333333333));
#620=CARTESIAN_POINT('',(4.,1.66666666666667));
#621=CARTESIAN_POINT('',(4.,1.75));
#622=CARTESIAN_POINT('',(4.,1.83333333333333));
#623=CARTESIAN_POINT('',(4.,1.91666666666667));
#624=CARTESIAN_POINT('',(4.,2.));
#625=CARTESIAN_POINT('',(4.,2.08333333333333));
#626=CARTESIAN_POINT('',(4.,2.16666666666667));
#627=CARTESIAN_POINT('',(4.,2.25));
#628=CARTESIAN_POINT('',(4.,2.33333333333333));
#629=CARTESIAN_POINT('',(4.,2.41666666666667));
#630=CARTESIAN_POINT('',(4.,2.5));
#631=CARTESIAN_POINT('',(4.,2.58333333333333));
#632=CARTESIAN_POINT('',(4.,2.66666666666667));
#633=CARTESIAN_POINT('',(4.,2.75));
#634=CARTESIAN_POINT('',(4.,2.83333333333333));
#635=CARTESIAN_POINT('',(4.,2.91666666666667));
#636=CARTESIAN_POINT('',(4.,3.));
#637=CARTESIAN_POINT('',(4.,3.08333333333333));
#638=CARTESIAN_POINT('',(4.,3.16666666666667));
#639=CARTESIAN_POINT('',(4.,3.25));
#640=CARTESIAN_POINT('',(4.,3.33333333333333));
#641=CARTESIAN_POINT('',(4.,3.41666666666667));
#642=CARTESIAN_POINT('',(4.,3.5));
#643=CARTESIAN_POINT('',(4.,3.58333333333333));
#644=CARTESIAN_POINT('',(4.,3.66666666666667));
#645=CARTESIAN_POINT('',(4.,3.75));
#646=CARTESIAN_POINT('',(4.,3.83333333333333));
#647=CARTESIAN_POINT('',(4.,3.91666666666667));
#648=CARTESIAN_POINT('',(4.,4.));
#649=B_SPLINE_CURVE_WITH_KNOTS('',1,(#600,#601,#602,#603,#604,#605,#606,#607,#608,#609,#610,#611,#612,#613,#614,#615,#616,#617,#618,#619,#620,#621,#622,#623,#624,#625,#626,#627,#628,#629,#630,#631,#632,#633,#634,#635,#636,#637,#638,#639,#640,#641,#642,#643,#644,#645,#646,#647,#648),.UNSPECIFIED.,.F.,.U.,(2,1,1,1,1,1,1,1,1,1,1,1,1,1,1,1,1,1,1,1,1,1,1,1,1,1,1,1,1,1,1,1,1,1,1,1,1,1,1,1,1,1,1,1,1,1,1,1,2),(0.,0.0833333333333333,0.166666666666667,0.25,0.333333333333333,0.416666666666667,0.5,0.583333333333333,0.666666666666667,0.75,0.833333333333333,0.916666666666667,1.,1.08333333333333,1.16666666666667,1.25,1.33333333333333,1.41666666666667,1.5,1.58333333333333,1.66666666666667,1.75,1.83333333333333,1.91666666666667,2.,2.08333333333333,2.16666666666667,2.25,2.33333333333333,2.41666666666667,2.5,2.58333333333333,2.66666666666667,2.75,2.83333333333333,2.91666666666667,3.,3.08333333333333,3.16666666666667,3.25,3.33333333333333,3.41666666666667,3.5,3.58333333333333,3.66666666666667,3.75,3.83333333333333,3.91666666666667,4.),.UNSPECIFIED.);
#650=DEFINITIONAL_REPRESENTATION('',(#649),#59);
#651=PCURVE('',#482,#650);
#652=CARTESIAN_POINT('',(0.,4.));
#653=CARTESIAN_POINT('',(0.0833333333333335,4.));
#654=CARTESIAN_POINT('',(0.166666666666667,4.));
#655=CARTESIAN_POINT('',(0.25,4.));
#656=CARTESIAN_POINT('',(0.333333333333333,4.));
#657=CARTESIAN_POINT('',(0.416666666666667,4.));
#658=CARTESIAN_POINT('',(0.5,4.));
#659=CARTESIAN_POINT('',(0.583333333333333,4.));
#660=CARTESIAN_POINT('',(0.666666666666667,4.));
#661=CARTESIAN_POINT('',(0.75,4.));
#662=CARTESIAN_POINT('',(0.833333333333333,4.));
#663=CARTESIAN_POINT('',(0.916666666666667,4.));
#664=CARTESIAN_POINT('',(1.,4.));
#665=CARTESIAN_POINT('',(1.08333333333333,4.));
#666=CARTESIAN_POINT('',(1.16666666666667,4.));
#667=CARTESIAN_POINT('',(1.25,4.));
#668=CARTESIAN_POINT('',(1.33333333333333,4.));
#669=CARTESIAN_POINT('',(1.41666666666667,4.));
#670=CARTESIAN_POINT('',(1.5,4.));
#671=CARTESIAN_POINT('',(1.58333333333333,4.));
#672=CARTESIAN_POINT('',(1.66666666666667,4.));
#673=CARTESIAN_POINT('',(1.75,4.));
#674=CARTESIAN_POINT('',(1.83333333333333,4.));
#675=CARTESIAN_POINT('',(1.91666666666667,4.));
#676=CARTESIAN_POINT('',(2.,4.));
#677=CARTESIAN_POINT('',(2.08333333333333,4.));
#678=CARTESIAN_POINT('',(2.16666666666667,4.));
#679=CARTESIAN_POINT('',(2.25,4.));
#680=CARTESIAN_POINT('',(2.33333333333333,4.));
#681=CARTESIAN_POINT('',(2.41666666666667,4.));
#682=CARTESIAN_POINT('',(2.5,4.));
#683=CARTESIAN_POINT('',(2.58333333333333,4.));
#684=CARTESIAN_POINT('',(2.66666666666667,4.));
#685=CARTESIAN_POINT('',(2.75,4.));
#686=CARTESIAN_POINT('',(2.83333333333333,4.));
#687=CARTESIAN_POINT('',(2.91666666666667,4.));
#688=CARTESIAN_POINT('',(3.,4.));
#689=CARTESIAN_POINT('',(3.08333333333333,4.));
#690=CARTESIAN_POINT('',(3.16666666666667,4.));
#691=CARTESIAN_POINT('',(3.25,4.));
#692=CARTESIAN_POINT('',(3.33333333333333,4.));
#693=CARTESIAN_POINT('',(3.41666666666667,4.));
#694=CARTESIAN_POINT('',(3.5,4.));
#695=CARTESIAN_POINT('',(3.58333333333333,4.));
#696=CARTESIAN_POINT('',(3.66666666666667,4.));
#697=CARTESIAN_POINT('',(3.75,4.));
#698=CARTESIAN_POINT('',(3.83333333333333,4.));
#699=CARTESIAN_POINT('',(3.91666666666667,4.));
#700=CARTESIAN_POINT('',(4.,4.));
#701=B_SPLINE_CURVE_WITH_KNOTS('',1,(#652,#653,#654,#655,#656,#657,#658,#659,#660,#661,#662,#663,#664,#665,#666,#667,#668,#669,#670,#671,#672,#673,#674,#675,#676,#677,#678,#679,#680,#681,#682,#683,#684,#685,#686,#687,#688,#689,#690,#691,#692,#693,#694,#695,#696,#697,#698,#699,#700),.UNSPECIFIED.,.F.,.U.,(2,1,1,1,1,1,1,1,1,1,1,1,1,1,1,1,1,1,1,1,1,1,1,1,1,1,1,1,1,1,1,1,1,1,1,1,1,1,1,1,1,1,1,1,1,1,1,1,2),(0.,0.0833333333333335,0.166666666666667,0.25,0.333333333333333,0.416666666666667,0.5,0.583333333333333,0.666666666666667,0.75,0.833333333333333,0.916666666666667,1.,1.08333333333333,1.16666666666667,1.25,1.33333333333333,1.41666666666667,1.5,1.58333333333333,1.66666666666667,1.75,1.83333333333333,1.91666666666667,2.,2.08333333333333,2.16666666666667,2.25,2.33333333333333,2.41666666666667,2.5,2.58333333333333,2.66666666666667,2.75,2.83333333333333,2.91666666666667,3.,3.08333333333333,3.16666666666667,3.25,3.33333333333333,3.41666666666667,3.5,3.58333333333333,3.66666666666667,3.75,3.83333333333333,3.91666666666667,4.),.UNSPECIFIED.);
#702=DEFINITIONAL_REPRESENTATION('',(#701),#59);
#703=PCURVE('',#302,#702);
#704=SURFACE_CURVE('',#599,(#651,#703),.PCURVE_S1.);
#705=CARTESIAN_POINT('',(2.,2.,2.));
#706=VERTEX_POINT('',#705);
#707=EDGE_CURVE('',#594,#706,#704,.T.);
#708=ORIENTED_EDGE('',*,*,#707,.T.);
#709=CARTESIAN_POINT('',(2.,2.,2.));
#710=CARTESIAN_POINT('',(-2.,2.,2.));
#711=B_SPLINE_CURVE_WITH_KNOTS('',1,(#709,#710),.UNSPECIFIED.,.F.,.U.,(2,2),(0.,4.),.UNSPECIFIED.);
#712=CARTESIAN_POINT('',(4.,4.));
#713=CARTESIAN_POINT('',(3.91666666666667,4.));
#714=CARTESIAN_POINT('',(3.83333333333333,4.));
#715=CARTESIAN_POINT('',(3.75,4.));
#716=CARTESIAN_POINT('',(3.66666666666667,4.));
#717=CARTESIAN_POINT('',(3.58333333333333,4.));
#718=CARTESIAN_POINT('',(3.5,4.));
#719=CARTESIAN_POINT('',(3.41666666666667,4.));
#720=CARTESIAN_POINT('',(3.33333333333333,4.));
#721=CARTESIAN_POINT('',(3.25,4.));
#722=CARTESIAN_POINT('',(3.16666666666667,4.));
#723=CARTESIAN_POINT('',(3.08333333333333,4.));
#724=CARTESIAN_POINT('',(3.,4.));
#725=CARTESIAN_POINT('',(2.91666666666667,4.));
#726=CARTESIAN_POINT('',(2.83333333333333,4.));
#727=CARTESIAN_POINT('',(2.75,4.));
#728=CARTESIAN_POINT('',(2.66666666666667,4.));
#729=CARTESIAN_POINT('',(2.58333333333333,4.));
#730=CARTESIAN_POINT('',(2.5,4.));
#731=CARTESIAN_POINT('',(2.41666666666667,4.));
#732=CARTESIAN_POINT('',(2.33333333333333,4.));
#733=CARTESIAN_POINT('',(2.25,4.));
#734=CARTESIAN_POINT('',(2.16666666666667,4.));
#735=CARTESIAN_POINT('',(2.08333333333333,4.));
#736=CARTESIAN_POINT('',(2.,4.));
#737=CARTESIAN_POINT('',(1.91666666666667,4.));
#738=CARTESIAN_POINT('',(1.83333333333333,4.));
#739=CARTESIAN_POINT('',(1.75,4.));
#740=CARTESIAN_POINT('',(1.66666666666667,4.));
#741=CARTESIAN_POINT('',(1.58333333333333,4.));
#742=CARTESIAN_POINT('',(1.5,4.));
#743=CARTESIAN_POINT('',(1.41666666666667,4.));
#744=CARTESIAN_POINT('',(1.33333333333333,4.));
#745=CARTESIAN_POINT('',(1.25,4.));
#746=CARTESIAN_POINT('',(1.16666666666667,4.));
#747=CARTESIAN_POINT('',(1.08333333333333,4.));
#748=CARTESIAN_POINT('',(1.,4.));
#749=CARTESIAN_POINT('',(0.916666666666667,4.));
#750=CARTESIAN_POINT('',(0.833333333333333,4.));
#751=CARTESIAN_POINT('',(0.75,4.));
#752=CARTESIAN_POINT('',(0.666666666666667,4.));
#753=CARTESIAN_POINT('',(0.583333333333333,4.));
#754=CARTESIAN_POINT('',(0.5,4.));
#755=CARTESIAN_POINT('',(0.416666666666667,4.));
#756=CARTESIAN_POINT('',(0.333333333333333,4.));
#757=CARTESIAN_POINT('',(0.25,4.));
#758=CARTESIAN_POINT('',(0.166666666666667,4.));
#759=CARTESIAN_POINT('',(0.0833333333333335,4.));
#760=CARTESIAN_POINT('',(0.,4.));
#761=B_SPLINE_CURVE_WITH_KNOTS('',1,(#712,#713,#714,#715,#716,#717,#718,#719,#720,#721,#722,#723,#724,#725,#726,#727,#728,#729,#730,#731,#732,#733,#734,#735,#736,#737,#738,#739,#740,#741,#742,#743,#744,#745,#746,#747,#748,#749,#750,#751,#752,#753,#754,#755,#756,#757,#758,#759,#760),.UNSPECIFIED.,.F.,.U.,(2,1,1,1,1,1,1,1,1,1,1,1,1,1,1,1,1,1,1,1,1,1,1,1,1,1,1,1,1,1,1,1,1,1,1,1,1,1,1,1,1,1,1,1,1,1,1,1,2),(0.,0.0833333333333333,0.166666666666667,0.25,0.333333333333333,0.416666666666667,0.5,0.583333333333333,0.666666666666667,0.75,0.833333333333333,0.916666666666667,1.,1.08333333333333,1.16666666666667,1.25,1.33333333333333,1.41666666666667,1.5,1.58333333333333,1.66666666666667,1.75,1.83333333333333,1.91666666666667,2.,2.08333333333333,2.16666666666667,2.25,2.33333333333333,2.41666666666667,2.5,2.58333333333333,2.66666666666667,2.75,2.83333333333333,2.91666666666667,3.,3.08333333333333,3.16666666666667,3.25,3.33333333333333,3.41666666666667,3.5,3.58333333333333,3.66666666666667,3.75,3.83333333333333,3.91666666666667,4.),.UNSPECIFIED.);
#762=DEFINITIONAL_REPRESENTATION('',(#761),#59);
#763=PCURVE('',#482,#762);
#764=CARTESIAN_POINT('',(0.,4.));
#765=CARTESIAN_POINT('',(0.0833333333333335,4.));
#766=CARTESIAN_POINT('',(0.166666666666667,4.));
#767=CARTESIAN_POINT('',(0.25,4.));
#768=CARTESIAN_POINT('',(0.333333333333333,4.));
#769=CARTESIAN_POINT('',(0.416666666666667,4.));
#770=CARTESIAN_POINT('',(0.5,4.));
#771=CARTESIAN_POINT('',(0.583333333333333,4.));
#772=CARTESIAN_POINT('',(0.666666666666667,4.));
#773=CARTESIAN_POINT('',(0.75,4.));
#774=CARTESIAN_POINT('',(0.833333333333333,4.));
#775=CARTESIAN_POINT('',(0.916666666666667,4.));
#776=CARTESIAN_POINT('',(1.,4.));
#777=CARTESIAN_POINT('',(1.08333333333333,4.));
#778=CARTESIAN_POINT('',(1.16666666666667,4.));
#779=CARTESIAN_POINT('',(1.25,4.));
#780=CARTESIAN_POINT('',(1.33333333333333,4.));
#781=CARTESIAN_POINT('',(1.41666666666667,4.));
#782=CARTESIAN_POINT('',(1.5,4.));
#783=CARTESIAN_POINT('',(1.58333333333333,4.));
#784=CARTESIAN_POINT('',(1.66666666666667,4.));
#785=CARTESIAN_POINT('',(1.75,4.));
#786=CARTESIAN_POINT('',(1.83333333333333,4.));
#787=CARTESIAN_POINT('',(1.91666666666667,4.));
#788=CARTESIAN_POINT('',(2.,4.));
#789=CARTESIAN_POINT('',(2.08333333333333,4.));
#790=CARTESIAN_POINT('',(2.16666666666667,4.));
#791=CARTESIAN_POINT('',(2.25,4.));
#792=CARTESIAN_POINT('',(2.33333333333333,4.));
#793=CARTESIAN_POINT('',(2.41666666666667,4.));
#794=CARTESIAN_POINT('',(2.5,4.));
#795=CARTESIAN_POINT('',(2.58333333333333,4.));
#796=CARTESIAN_POINT('',(2.66666666666667,4.));
#797=CARTESIAN_POINT('',(2.75,4.));
#798=CARTESIAN_POINT('',(2.83333333333333,4.));
#799=CARTESIAN_POINT('',(2.91666666666667,4.));
#800=CARTESIAN_POINT('',(3.,4.));
#801=CARTESIAN_POINT('',(3.08333333333333,4.));
#802=CARTESIAN_POINT('',(3.16666666666667,4.));
#803=CARTESIAN_POINT('',(3.25,4.));
#804=CARTESIAN_POINT('',(3.33333333333333,4.));
#805=CARTESIAN_POINT('',(3.41666666666667,4.));
#806=CARTESIAN_POINT('',(3.5,4.));
#807=CARTESIAN_POINT('',(3.58333333333333,4.));
#808=CARTESIAN_POINT('',(3.66666666666667,4.));
#809=CARTESIAN_POINT('',(3.75,4.));
#810=CARTESIAN_POINT('',(3.83333333333333,4.));
#811=CARTESIAN_POINT('',(3.91666666666667,4.));
#812=CARTESIAN_POINT('',(4.,4.));
#813=B_SPLINE_CURVE_WITH_KNOTS('',1,(#764,#765,#766,#767,#768,#769,#770,#771,#772,#773,#774,#775,#776,#777,#778,#779,#780,#781,#782,#783,#784,#785,#786,#787,#788,#789,#790,#791,#792,#793,#794,#795,#796,#797,#798,#799,#800,#801,#802,#803,#804,#805,#806,#807,#808,#809,#810,#811,#812),.UNSPECIFIED.,.F.,.U.,(2,1,1,1,1,1,1,1,1,1,1,1,1,1,1,1,1,1,1,1,1,1,1,1,1,1,1,1,1,1,1,1,1,1,1,1,1,1,1,1,1,1,1,1,1,1,1,1,2),(0.,0.0833333333333335,0.166666666666667,0.25,0.333333333333333,0.416666666666667,0.5,0.583333333333333,0.666666666666667,0.75,0.833333333333333,0.916666666666667,1.,1.08333333333333,1.16666666666667,1.25,1.33333333333333,1.41666666666667,1.5,1.58333333333333,1.66666666666667,1.75,1.83333333333333,1.91666666666667,2.,2.08333333333333,2.16666666666667,2.25,2.33333333333333,2.41666666666667,2.5,2.58333333333333,2.66666666666667,2.75,2.83333333333333,2.91666666666667,3.,3.08333333333333,3.16666666666667,3.25,3.33333333333333,3.41666666666667,3.5,3.58333333333333,3.66666666666667,3.75,3.83333333333333,3.91666666666667,4.),.UNSPECIFIED.);
#814=DEFINITIONAL_REPRESENTATION('',(#813),#59);
#815=PCURVE('',#185,#814);
#816=SURFACE_CURVE('',#711,(#763,#815),.PCURVE_S1.);
#817=CARTESIAN_POINT('',(-2.,2.,2.));
#818=VERTEX_POINT('',#817);
#819=EDGE_CURVE('',#706,#818,#816,.T.);
#820=ORIENTED_EDGE('',*,*,#819,.T.);
#821=CARTESIAN_POINT('',(-2.,2.,2.));
#822=CARTESIAN_POINT('',(-2.,-2.,2.));
#823=B_SPLINE_CURVE_WITH_KNOTS('',1,(#821,#822),.UNSPECIFIED.,.F.,.U.,(2,2),(0.,4.),.UNSPECIFIED.);
#824=CARTESIAN_POINT('',(0.,4.));
#825=CARTESIAN_POINT('',(0.,3.91666666666667));
#826=CARTESIAN_POINT('',(0.,3.83333333333333));
#827=CARTESIAN_POINT('',(0.,3.75));
#828=CARTESIAN_POINT('',(0.,3.66666666666667));
#829=CARTESIAN_POINT('',(0.,3.58333333333333));
#830=CARTESIAN_POINT('',(0.,3.5));
#831=CARTESIAN_POINT('',(0.,3.41666666666667));
#832=CARTESIAN_POINT('',(0.,3.33333333333333));
#833=CARTESIAN_POINT('',(0.,3.25));
#834=CARTESIAN_POINT('',(0.,3.16666666666667));
#835=CARTESIAN_POINT('',(0.,3.08333333333333));
#836=CARTESIAN_POINT('',(0.,3.));
#837=CARTESIAN_POINT('',(0.,2.91666666666667));
#838=CARTESIAN_POINT('',(0.,2.83333333333333));
#839=CARTESIAN_POINT('',(0.,2.75));
#840=CARTESIAN_POINT('',(0.,2.66666666666667));
#841=CARTESIAN_POINT('',(0.,2.58333333333333));
#842=CARTESIAN_POINT('',(0.,2.5));
#843=CARTESIAN_POINT('',(0.,2.41666666666667));
#844=CARTESIAN_POINT('',(0.,2.33333333333333));
#845=CARTESIAN_POINT('',(0.,2.25));
#846=CARTESIAN_POINT('',(0.,2.16666666666667));
#847=CARTESIAN_POINT('',(0.,2.08333333333333));
#848=CARTESIAN_POINT('',(0.,2.));
#849=CARTESIAN_POINT('',(0.,1.91666666666667));
#850=CARTESIAN_POINT('',(0.,1.83333333333333));
#851=CARTESIAN_POINT('',(0.,1.75));
#852=CARTESIAN_POINT('',(0.,1.66666666666667));
#853=CARTESIAN_POINT('',(0.,1.58333333333333));
#854=CARTESIAN_POINT('',(0.,1.5));
#855=CARTESIAN_POINT('',(0.,1.41666666666667));
#856=CARTESIAN_POINT('',(0.,1.33333333333333));
#857=CARTESIAN_POINT('',(0.,1.25));
#858=CARTESIAN_POINT('',(0.,1.16666666666667));
#859=CARTESIAN_POINT('',(0.,1.08333333333333));
#860=CARTESIAN_POINT('',(0.,1.));
#861=CARTESIAN_POINT('',(0.,0.916666666666667));
#862=CARTESIAN_POINT('',(0.,0.833333333333333));
#863=CARTESIAN_POINT('',(0.,0.75));
#864=CARTESIAN_POINT('',(0.,0.666666666666667));
#865=CARTESIAN_POINT('',(0.,0.583333333333333));
#866=CARTESIAN_POINT('',(0.,0.5));
#867=CARTESIAN_POINT('',(0.,0.416666666666667));
#868=CARTESIAN_POINT('',(0.,0.333333333333333));
#869=CARTESIAN_POINT('',(0.,0.25));
#870=CARTESIAN_POINT('',(0.,0.166666666666667));
#871=CARTESIAN_POINT('',(0.,0.0833333333333335));
#872=CARTESIAN_POINT('',(0.,0.));
#873=B_SPLINE_CURVE_WITH_KNOTS('',1,(#824,#825,#826,#827,#828,#829,#830,#831,#832,#833,#834,#835,#836,#837,#838,#839,#840,#841,#842,#843,#844,#845,#846,#847,#848,#849,#850,#851,#852,#853,#854,#855,#856,#857,#858,#859,#860,#861,#862,#863,#864,#865,#866,#867,#868,#869,#870,#871,#872),.UNSPECIFIED.,.F.,.U.,(2,1,1,1,1,1,1,1,1,1,1,1,1,1,1,1,1,1,1,1,1,1,1,1,1,1,1,1,1,1,1,1,1,1,1,1,1,1,1,1,1,1,1,1,1,1,1,1,2),(0.,0.0833333333333333,0.166666666666667,0.25,0.333333333333333,0.416666666666667,0.5,0.583333333333333,0.666666666666667,0.75,0.833333333333333,0.916666666666667,1.,1.08333333333333,1.16666666666667,1.25,1.33333333333333,1.41666666666667,1.5,1.58333333333333,1.66666666666667,1.75,1.83333333333333,1.91666666666667,2.,2.08333333333333,2.16666666666667,2.25,2.33333333333333,2.41666666666667,2.5,2.58333333333333,2.66666666666667,2.75,2.83333333333333,2.91666666666667,3.,3.08333333333333,3.16666666666667,3.25,3.33333333333333,3.41666666666667,3.5,3.58333333333333,3.66666666666667,3.75,3.83333333333333,3.91666666666667,4.),.UNSPECIFIED.);
#874=DEFINITIONAL_REPRESENTATION('',(#873),#59);
#875=PCURVE('',#482,#874);
#876=CARTESIAN_POINT('',(0.,4.));
#877=CARTESIAN_POINT('',(0.0833333333333335,4.));
#878=CARTESIAN_POINT('',(0.166666666666667,4.));
#879=CARTESIAN_POINT('',(0.25,4.));
#880=CARTESIAN_POINT('',(0.333333333333333,4.));
#881=CARTESIAN_POINT('',(0.416666666666667,4.));
#882=CARTESIAN_POINT('',(0.5,4.));
#883=CARTESIAN_POINT('',(0.583333333333333,4.));
#884=CARTESIAN_POINT('',(0.666666666666667,4.));
#885=CARTESIAN_POINT('',(0.75,4.));
#886=CARTESIAN_POINT('',(0.833333333333333,4.));
#887=CARTESIAN_POINT('',(0.916666666666667,4.));
#888=CARTESIAN_POINT('',(1.,4.));
#889=CARTESIAN_POINT('',(1.08333333333333,4.));
#890=CARTESIAN_POINT('',(1.16666666666667,4.));
#891=CARTESIAN_POINT('',(1.25,4.));
#892=CARTESIAN_POINT('',(1.33333333333333,4.));
#893=CARTESIAN_POINT('',(1.41666666666667,4.));
#894=CARTESIAN_POINT('',(1.5,4.));
#895=CARTESIAN_POINT('',(1.58333333333333,4.));
#896=CARTESIAN_POINT('',(1.66666666666667,4.));
#897=CARTESIAN_POINT('',(1.75,4.));
#898=CARTESIAN_POINT('',(1.83333333333333,4.));
#899=CARTESIAN_POINT('',(1.91666666666667,4.));
#900=CARTESIAN_POINT('',(2.,4.));
#901=CARTESIAN_POINT('',(2.08333333333333,4.));
#902=CARTESIAN_POINT('',(2.16666666666667,4.));
#903=CARTESIAN_POINT('',(2.25,4.));
#904=CARTESIAN_POINT('',(2.33333333333333,4.));
#905=CARTESIAN_POINT('',(2.41666666666667,4.));
#906=CARTESIAN_POINT('',(2.5,4.));
#907=CARTESIAN_POINT('',(2.58333333333333,4.));
#908=CARTESIAN_POINT('',(2.66666666666667,4.));
#909=CARTESIAN_POINT('',(2.75,4.));
#910=CARTESIAN_POINT('',(2.83333333333333,4.));
#911=CARTESIAN_POINT('',(2.91666666666667,4.));
#912=CARTESIAN_POINT('',(3.,4.));
#913=CARTESIAN_POINT('',(3.08333333333333,4.));
#914=CARTESIAN_POINT('',(3.16666666666667,4.));
#915=CARTESIAN_POINT('',(3.25,4.));
#916=CARTESIAN_POINT('',(3.33333333333333,4.));
#917=CARTESIAN_POINT('',(3.41666666666667,4.));
#918=CARTESIAN_POINT('',(3.5,4.));
#919=CARTESIAN_POINT('',(3.58333333333333,4.));
#920=CARTESIAN_POINT('',(3.66666666666667,4.));
#921=CARTESIAN_POINT('',(3.75,4.));
#922=CARTESIAN_POINT('',(3.83333333333333,4.));
#923=CARTESIAN_POINT('',(3.91666666666667,4.));
#924=CARTESIAN_POINT('',(4.,4.));
#925=B_SPLINE_CURVE_WITH_KNOTS('',1,(#876,#877,#878,#879,#880,#881,#882,#883,#884,#885,#886,#887,#888,#889,#890,#891,#892,#893,#894,#895,#896,#897,#898,#899,#900,#901,#902,#903,#904,#905,#906,#907,#908,#909,#910,#911,#912,#913,#914,#915,#916,#917,#918,#919,#920,#921,#922,#923,#924),.UNSPECIFIED.,.F.,.U.,(2,1,1,1,1,1,1,1,1,1,1,1,1,1,1,1,1,1,1,1,1,1,1,1,1,1,1,1,1,1,1,1,1,1,1,1,1,1,1,1,1,1,1,1,1,1,1,1,2),(0.,0.0833333333333335,0.166666666666667,0.25,0.333333333333333,0.416666666666667,0.5,0.583333333333333,0.666666666666667,0.75,0.833333333333333,0.916666666666667,1.,1.08333333333333,1.16666666666667,1.25,1.33333333333333,1.41666666666667,1.5,1.58333333333333,1.66666666666667,1.75,1.83333333333333,1.91666666666667,2.,2.08333333333333,2.16666666666667,2.25,2.33333333333333,2.41666666666667,2.5,2.58333333333333,2.66666666666667,2.75,2.83333333333333,2.91666666666667,3.,3.08333333333333,3.16666666666667,3.25,3.33333333333333,3.41666666666667,3.5,3.58333333333333,3.66666666666667,3.75,3.83333333333333,3.91666666666667,4.),.UNSPECIFIED.);
#926=DEFINITIONAL_REPRESENTATION('',(#925),#59);
#927=PCURVE('',#66,#926);
#928=SURFACE_CURVE('',#823,(#875,#927),.PCURVE_S1.);
#929=EDGE_CURVE('',#818,#592,#928,.T.);
#930=ORIENTED_EDGE('',*,*,#929,.T.);
#931=EDGE_LOOP('',(#596,#708,#820,#930));
#932=FACE_OUTER_BOUND('',#931,.T.);
#933=ADVANCED_FACE('',(#932),#482,.T.);
#934=ORIENTED_EDGE('',*,*,#473,.T.);
#935=CARTESIAN_POINT('',(2.,-2.,-2.));
#936=CARTESIAN_POINT('',(2.,-2.,2.));
#937=B_SPLINE_CURVE_WITH_KNOTS('',1,(#935,#936),.UNSPECIFIED.,.F.,.U.,(2,2),(0.,4.),.UNSPECIFIED.);
#938=CARTESIAN_POINT('',(4.,0.));
#939=CARTESIAN_POINT('',(4.,0.0833333333333335));
#940=CARTESIAN_POINT('',(4.,0.166666666666667));
#941=CARTESIAN_POINT('',(4.,0.25));
#942=CARTESIAN_POINT('',(4.,0.333333333333333));
#943=CARTESIAN_POINT('',(4.,0.416666666666667));
#944=CARTESIAN_POINT('',(4.,0.5));
#945=CARTESIAN_POINT('',(4.,0.583333333333333));
#946=CARTESIAN_POINT('',(4.,0.666666666666667));
#947=CARTESIAN_POINT('',(4.,0.75));
#948=CARTESIAN_POINT('',(4.,0.833333333333333));
#949=CARTESIAN_POINT('',(4.,0.916666666666667));
#950=CARTESIAN_POINT('',(4.,1.));
#951=CARTESIAN_POINT('',(4.,1.08333333333333));
#952=CARTESIAN_POINT('',(4.,1.16666666666667));
#953=CARTESIAN_POINT('',(4.,1.25));
#954=CARTESIAN_POINT('',(4.,1.33333333333333));
#955=CARTESIAN_POINT('',(4.,1.41666666666667));
#956=CARTESIAN_POINT('',(4.,1.5));
#957=CARTESIAN_POINT('',(4.,1.58333333333333));
#958=CARTESIAN_POINT('',(4.,1.66666666666667));
#959=CARTESIAN_POINT('',(4.,1.75));
#960=CARTESIAN_POINT('',(4.,1.83333333333333));
#961=CARTESIAN_POINT('',(4.,1.91666666666667));
#962=CARTESIAN_POINT('',(4.,2.));
#963=CARTESIAN_POINT('',(4.,2.08333333333333));
#964=CARTESIAN_POINT('',(4.,2.16666666666667));
#965=CARTESIAN_POINT('',(4.,2.25));
#966=CARTESIAN_POINT('',(4.,2.33333333333333));
#967=CARTESIAN_POINT('',(4.,2.41666666666667));
#968=CARTESIAN_POINT('',(4.,2.5));
#969=CARTESIAN_POINT('',(4.,2.58333333333333));
#970=CARTESIAN_POINT('',(4.,2.66666666666667));
#971=CARTESIAN_POINT('',(4.,2.75));
#972=CARTESIAN_POINT('',(4.,2.83333333333333));
#973=CARTESIAN_POINT('',(4.,2.91666666666667));
#974=CARTESIAN_POINT('',(4.,3.));
#975=CARTESIAN_POINT('',(4.,3.08333333333333));
#976=CARTESIAN_POINT('',(4.,3.16666666666667));
#977=CARTESIAN_POINT('',(4.,3.25));
#978=CARTESIAN_POINT('',(4.,3.33333333333333));
#979=CARTESIAN_POINT('',(4.,3.41666666666667));
#980=CARTESIAN_POINT('',(4.,3.5));
#981=CARTESIAN_POINT('',(4.,3.58333333333333));
#982=CARTESIAN_POINT('',(4.,3.66666666666667));
#983=CARTESIAN_POINT('',(4.,3.75));
#984=CARTESIAN_POINT('',(4.,3.83333333333333));
#985=CARTESIAN_POINT('',(4.,3.91666666666667));
#986=CARTESIAN_POINT('',(4.,4.));
#987=B_SPLINE_CURVE_WITH_KNOTS('',1,(#938,#939,#940,#941,#942,#943,#944,#945,#946,#947,#948,#949,#950,#951,#952,#953,#954,#955,#956,#957,#958,#959,#960,#961,#962,#963,#964,#965,#966,#967,#968,#969,#970,#971,#972,#973,#974,#975,#976,#977,#978,#979,#980,#981,#982,#983,#984,#985,#986),.UNSPECIFIED.,.F.,.U.,(2,1,1,1,1,1,1,1,1,1,1,1,1,1,1,1,1,1,1,1,1,1,1,1,1,1,1,1,1,1,1,1,1,1,1,1,1,1,1,1,1,1,1,1,1,1,1,1,2),(0.,0.0833333333333333,0.166666666666667,0.25,0.333333333333333,0.416666666666667,0.5,0.583333333333333,0.666666666666667,0.75,0.833333333333333,0.916666666666667,1.,1.08333333333333,1.16666666666667,1.25,1.33333333333333,1.41666666666667,1.5,1.58333333333333,1.66666666666667,1.75,1.83333333333333,1.91666666666667,2.,2.08333333333333,2.16666666666667,2.25,2.33333333333333,2.41666666666667,2.5,2.58333333333333,2.66666666666667,2.75,2.83333333333333,2.91666666666667,3.,3.08333333333333,3.16666666666667,3.25,3.33333333333333,3.41666666666667,3.5,3.58333333333333,3.66666666666667,3.75,3.83333333333333,3.91666666666667,4.),.UNSPECIFIED.);
#988=DEFINITIONAL_REPRESENTATION('',(#987),#59);
#989=PCURVE('',#419,#988);
#990=CARTESIAN_POINT('',(0.,0.));
#991=CARTESIAN_POINT('',(0.,0.0833333333333335));
#992=CARTESIAN_POINT('',(0.,0.166666666666667));
#993=CARTESIAN_POINT('',(0.,0.25));
#994=CARTESIAN_POINT('',(0.,0.333333333333333));
#995=CARTESIAN_POINT('',(0.,0.416666666666667));
#996=CARTESIAN_POINT('',(0.,0.5));
#997=CARTESIAN_POINT('',(0.,0.583333333333333));
#998=CARTESIAN_POINT('',(0.,0.666666666666667));
#999=CARTESIAN_POINT('',(0.,0.75));
#1000=CARTESIAN_POINT('',(0.,0.833333333333333));
#1001=CARTESIAN_POINT('',(0.,0.916666666666667));
#1002=CARTESIAN_POINT('',(0.,1.));
#1003=CARTESIAN_POINT('',(0.,1.08333333333333));
#1004=CARTESIAN_POINT('',(0.,1.16666666666667));
#1005=CARTESIAN_POINT('',(0.,1.25));
#1006=CARTESIAN_POINT('',(0.,1.33333333333333));
#1007=CARTESIAN_POINT('',(0.,1.41666666666667));
#1008=CARTESIAN_POINT('',(0.,1.5));
#1009=CARTESIAN_POINT('',(0.,1.58333333333333));
#1010=CARTESIAN_POINT('',(0.,1.66666666666667));
#1011=CARTESIAN_POINT('',(0.,1.75));
#1012=CARTESIAN_POINT('',(0.,1.83333333333333));
#1013=CARTESIAN_POINT('',(0.,1.91666666666667));
#1014=CARTESIAN_POINT('',(0.,2.));
#1015=CARTESIAN_POINT('',(0.,2.08333333333333));
#1016=CARTESIAN_POINT('',(0.,2.16666666666667));
#1017=CARTESIAN_POINT('',(0.,2.25));
#1018=CARTESIAN_POINT('',(0.,2.33333333333333));
#1019=CARTESIAN_POINT('',(0.,2.41666666666667));
#1020=CARTESIAN_POINT('',(0.,2.5));
#1021=CARTESIAN_POINT('',(0.,2.58333333333333));
#1022=CARTESIAN_POINT('',(0.,2.66666666666667));
#1023=CARTESIAN_POINT('',(0.,2.75));
#1024=CARTESIAN_POINT('',(0.,2.83333333333333));
#1025=CARTESIAN_POINT('',(0.,2.91666666666667));
#1026=CARTESIAN_POINT('',(0.,3.));
#1027=CARTESIAN_POINT('',(0.,3.08333333333333));
#1028=CARTESIAN_POINT('',(0.,3.16666666666667));
#1029=CARTESIAN_POINT('',(0.,3.25));
#1030=CARTESIAN_POINT('',(0.,3.33333333333333));
#1031=CARTESIAN_POINT('',(0.,3.41666666666667));
#1032=CARTESIAN_POINT('',(0.,3.5));
#1033=CARTESIAN_POINT('',(0.,3.58333333333333));
#1034=CARTESIAN_POINT('',(0.,3.66666666666667));
#1035=CARTESIAN_POINT('',(0.,3.75));
#1036=CARTESIAN_POINT('',(0.,3.83333333333333));
#1037=CARTESIAN_POINT('',(0.,3.91666666666667));
#1038=CARTESIAN_POINT('',(0.,4.));
#1039=B_SPLINE_CURVE_WITH_KNOTS('',1,(#990,#991,#992,#993,#994,#995,#996,#997,#998,#999,#1000,#1001,#1002,#1003,#1004,#1005,#1006,#1007,#1008,#1009,#1010,#1011,#1012,#1013,#1014,#1015,#1016,#1017,#1018,#1019,#1020,#1021,#1022,#1023,#1024,#1025,#1026,#1027,#1028,#1029,#1030,#1031,#1032,#1033,#1034,#1035,#1036,#1037,#1038),.UNSPECIFIED.,.F.,.U.,(2,1,1,1,1,1,1,1,1,1,1,1,1,1,1,1,1,1,1,1,1,1,1,1,1,1,1,1,1,1,1,1,1,1,1,1,1,1,1,1,1,1,1,1,1,1,1,1,2),(0.,0.0833333333333335,0.166666666666667,0.25,0.333333333333333,0.416666666666667,0.5,0.583333333333333,0.666666666666667,0.75,0.833333333333333,0.916666666666667,1.,1.08333333333333,1.16666666666667,1.25,1.33333333333333,1.41666666666667,1.5,1.58333333333333,1.66666666666667,1.75,1.83333333333333,1.91666666666667,2.,2.08333333333333,2.16666666666667,2.25,2.33333333333333,2.41666666666667,2.5,2.58333333333333,2.66666666666667,2.75,2.83333333333333,2.91666666666667,3.,3.08333333333333,3.16666666666667,3.25,3.33333333333333,3.41666666666667,3.5,3.58333333333333,3.66666666666667,3.75,3.83333333333333,3.91666666666667,4.),.UNSPECIFIED.);
#1040=DEFINITIONAL_REPRESENTATION('',(#1039),#59);
#1041=PCURVE('',#302,#1040);
#1042=SURFACE_CURVE('',#937,(#989,#1041),.PCURVE_S1.);
#1043=EDGE_CURVE('',#357,#594,#1042,.T.);
#1044=ORIENTED_EDGE('',*,*,#1043,.T.);
#1045=ORIENTED_EDGE('',*,*,#595,.F.);
#1046=CARTESIAN_POINT('',(-2.,-2.,-2.));
#1047=CARTESIAN_POINT('',(-2.,-2.,2.));
#1048=B_SPLINE_CURVE_WITH_KNOTS('',1,(#1046,#1047),.UNSPECIFIED.,.F.,.U.,(2,2),(0.,4.),.UNSPECIFIED.);
#1049=CARTESIAN_POINT('',(0.,0.));
#1050=CARTESIAN_POINT('',(0.,0.0833333333333335));
#1051=CARTESIAN_POINT('',(0.,0.166666666666667));
#1052=CARTESIAN_POINT('',(0.,0.25));
#1053=CARTESIAN_POINT('',(0.,0.333333333333333));
#1054=CARTESIAN_POINT('',(0.,0.416666666666667));
#1055=CARTESIAN_POINT('',(0.,0.5));
#1056=CARTESIAN_POINT('',(0.,0.583333333333333));
#1057=CARTESIAN_POINT('',(0.,0.666666666666667));
#1058=CARTESIAN_POINT('',(0.,0.75));
#1059=CARTESIAN_POINT('',(0.,0.833333333333333));
#1060=CARTESIAN_POINT('',(0.,0.916666666666667));
#1061=CARTESIAN_POINT('',(0.,1.));
#1062=CARTESIAN_POINT('',(0.,1.08333333333333));
#1063=CARTESIAN_POINT('',(0.,1.16666666666667));
#1064=CARTESIAN_POINT('',(0.,1.25));
#1065=CARTESIAN_POINT('',(0.,1.33333333333333));
#1066=CARTESIAN_POINT('',(0.,1.41666666666667));
#1067=CARTESIAN_POINT('',(0.,1.5));
#1068=CARTESIAN_POINT('',(0.,1.58333333333333));
#1069=CARTESIAN_POINT('',(0.,1.66666666666667));
#1070=CARTESIAN_POINT('',(0.,1.75));
#1071=CARTESIAN_POINT('',(0.,1.83333333333333));
#1072=CARTESIAN_POINT('',(0.,1.91666666666667));
#1073=CARTESIAN_POINT('',(0.,2.));
#1074=CARTESIAN_POINT('',(0.,2.08333333333333));
#1075=CARTESIAN_POINT('',(0.,2.16666666666667));
#1076=CARTESIAN_POINT('',(0.,2.25));
#1077=CARTESIAN_POINT('',(0.,2.33333333333333));
#1078=CARTESIAN_POINT('',(0.,2.41666666666667));
#1079=CARTESIAN_POINT('',(0.,2.5));
#1080=CARTESIAN_POINT('',(0.,2.58333333333333));
#1081=CARTESIAN_POINT('',(0.,2.66666666666667));
#1082=CARTESIAN_POINT('',(0.,2.75));
#1083=CARTESIAN_POINT('',(0.,2.83333333333333));
#1084=CARTESIAN_POINT('',(0.,2.91666666666667));
#1085=CARTESIAN_POINT('',(0.,3.));
#1086=CARTESIAN_POINT('',(0.,3.08333333333333));
#1087=CARTESIAN_POINT('',(0.,3.16666666666667));
#1088=CARTESIAN_POINT('',(0.,3.25));
#1089=CARTESIAN_POINT('',(0.,3.33333333333333));
#1090=CARTESIAN_POINT('',(0.,3.41666666666667));
#1091=CARTESIAN_POINT('',(0.,3.5));
#1092=CARTESIAN_POINT('',(0.,3.58333333333333));
#1093=CARTESIAN_POINT('',(0.,3.66666666666667));
#1094=CARTESIAN_POINT('',(0.,3.75));
#1095=CARTESIAN_POINT('',(0.,3.83333333333333));
#1096=CARTESIAN_POINT('',(0.,3.91666666666667));
#1097=CARTESIAN_POINT('',(0.,4.));
#1098=B_SPLINE_CURVE_WITH_KNOTS('',1,(#1049,#1050,#1051,#1052,#1053,#1054,#1055,#1056,#1057,#1058,#1059,#1060,#1061,#1062,#1063,#1064,#1065,#1066,#1067,#1068,#1069,#1070,#1071,#1072,#1073,#1074,#1075,#1076,#1077,#1078,#1079,#1080,#1081,#1082,#1083,#1084,#1085,#1086,#1087,#1088,#1089,#1090,#1091,#1092,#1093,#1094,#1095,#1096,#1097),.UNSPECIFIED.,.F.,.U.,(2,1,1,1,1,1,1,1,1,1,1,1,1,1,1,1,1,1,1,1,1,1,1,1,1,1,1,1,1,1,1,1,1,1,1,1,1,1,1,1,1,1,1,1,1,1,1,1,2),(0.,0.0833333333333335,0.166666666666667,0.25,0.333333333333333,0.416666666666667,0.5,0.583333333333333,0.666666666666667,0.75,0.833333333333333,0.916666666666667,1.,1.08333333333333,1.16666666666667,1.25,1.33333333333333,1.41666666666667,1.5,1.58333333333333,1.66666666666667,1.75,1.83333333333333,1.91666666666667,2.,2.08333333333333,2.16666666666667,2.25,2.33333333333333,2.41666666666667,2.5,2.58333333333333,2.66666666666667,2.75,2.83333333333333,2.91666666666667,3.,3.08333333333333,3.16666666666667,3.25,3.33333333333333,3.41666666666667,3.5,3.58333333333333,3.66666666666667,3.75,3.83333333333333,3.91666666666667,4.),.UNSPECIFIED.);
#1099=DEFINITIONAL_REPRESENTATION('',(#1098),#59);
#1100=PCURVE('',#419,#1099);
#1101=CARTESIAN_POINT('',(4.,0.));
#1102=CARTESIAN_POINT('',(4.,0.0833333333333335));
#1103=CARTESIAN_POINT('',(4.,0.166666666666667));
#1104=CARTESIAN_POINT('',(4.,0.25));
#1105=CARTESIAN_POINT('',(4.,0.333333333333333));
#1106=CARTESIAN_POINT('',(4.,0.416666666666667));
#1107=CARTESIAN_POINT('',(4.,0.5));
#1108=CARTESIAN_POINT('',(4.,0.583333333333333));
#1109=CARTESIAN_POINT('',(4.,0.666666666666667));
#1110=CARTESIAN_POINT('',(4.,0.75));
#1111=CARTESIAN_POINT('',(4.,0.833333333333333));
#1112=CARTESIAN_POINT('',(4.,0.916666666666667));
#1113=CARTESIAN_POINT('',(4.,1.));
#1114=CARTESIAN_POINT('',(4.,1.08333333333333));
#1115=CARTESIAN_POINT('',(4.,1.16666666666667));
#1116=CARTESIAN_POINT('',(4.,1.25));
#1117=CARTESIAN_POINT('',(4.,1.33333333333333));
#1118=CARTESIAN_POINT('',(4.,1.41666666666667));
#1119=CARTESIAN_POINT('',(4.,1.5));
#1120=CARTESIAN_POINT('',(4.,1.58333333333333));
#1121=CARTESIAN_POINT('',(4.,1.66666666666667));
#1122=CARTESIAN_POINT('',(4.,1.75));
#1123=CARTESIAN_POINT('',(4.,1.83333333333333));
#1124=CARTESIAN_POINT('',(4.,1.91666666666667));
#1125=CARTESIAN_POINT('',(4.,2.));
#1126=CARTESIAN_POINT('',(4.,2.08333333333333));
#1127=CARTESIAN_POINT('',(4.,2.16666666666667));
#1128=CARTESIAN_POINT('',(4.,2.25));
#1129=CARTESIAN_POINT('',(4.,2.33333333333333));
#1130=CARTESIAN_POINT('',(4.,2.41666666666667));
#1131=CARTESIAN_POINT('',(4.,2.5));
#1132=CARTESIAN_POINT('',(4.,2.58333333333333));
#1133=CARTESIAN_POINT('',(4.,2.66666666666667));
#1134=CARTESIAN_POINT('',(4.,2.75));
#1135=CARTESIAN_POINT('',(4.,2.83333333333333));
#1136=CARTESIAN_POINT('',(4.,2.91666666666667));
#1137=CARTESIAN_POINT('',(4.,3.));
#1138=CARTESIAN_POINT('',(4.,3.08333333333333));
#1139=CARTESIAN_POINT('',(4.,3.16666666666667));
#1140=CARTESIAN_POINT('',(4.,3.25));
#1141=CARTESIAN_POINT('',(4.,3.33333333333333));
#1142=CARTESIAN_POINT('',(4.,3.41666666666667));
#1143=CARTESIAN_POINT('',(4.,3.5));
#1144=CARTESIAN_POINT('',(4.,3.58333333333333));
#1145=CARTESIAN_POINT('',(4.,3.66666666666667));
#1146=CARTESIAN_POINT('',(4.,3.75));
#1147=CARTESIAN_POINT('',(4.,3.83333333333333));
#1148=CARTESIAN_POINT('',(4.,3.91666666666667));
#1149=CARTESIAN_POINT('',(4.,4.));
#1150=B_SPLINE_CURVE_WITH_KNOTS('',1,(#1101,#1102,#1103,#1104,#1105,#1106,#1107,#1108,#1109,#1110,#1111,#1112,#1113,#1114,#1115,#1116,#1117,#1118,#1119,#1120,#1121,#1122,#1123,#1124,#1125,#1126,#1127,#1128,#1129,#1130,#1131,#1132,#1133,#1134,#1135,#1136,#1137,#1138,#1139,#1140,#1141,#1142,#1143,#1144,#1145,#1146,#1147,#1148,#1149),.UNSPECIFIED.,.F.,.U.,(2,1,1,1,1,1,1,1,1,1,1,1,1,1,1,1,1,1,1,1,1,1,1,1,1,1,1,1,1,1,1,1,1,1,1,1,1,1,1,1,1,1,1,1,1,1,1,1,2),(0.,0.0833333333333333,0.166666666666667,0.25,0.333333333333333,0.416666666666667,0.5,0.583333333333333,0.666666666666667,0.75,0.833333333333333,0.916666666666667,1.,1.08333333333333,1.16666666666667,1.25,1.33333333333333,1.41666666666667,1.5,1.58333333333333,1.66666666666667,1.75,1.83333333333333,1.91666666666667,2.,2.08333333333333,2.16666666666667,2.25,2.33333333333333,2.41666666666667,2.5,2.58333333333333,2.66666666666667,2.75,2.83333333333333,2.91666666666667,3.,3.08333333333333,3.16666666666667,3.25,3.33333333333333,3.41666666666667,3.5,3.58333333333333,3.66666666666667,3.75,3.83333333333333,3.91666666666667,4.),.UNSPECIFIED.);
#1151=DEFINITIONAL_REPRESENTATION('',(#1150),#59);
#1152=PCURVE('',#66,#1151);
#1153=SURFACE_CURVE('',#1048,(#1100,#1152),.PCURVE_S1.);
#1154=EDGE_CURVE('',#123,#592,#1153,.T.);
#1155=ORIENTED_EDGE('',*,*,#1154,.F.);
#1156=EDGE_LOOP('',(#934,#1044,#1045,#1155));
#1157=FACE_OUTER_BOUND('',#1156,.T.);
#1158=ADVANCED_FACE('',(#1157),#419,.T.);
#1159=ORIENTED_EDGE('',*,*,#358,.T.);
#1160=CARTESIAN_POINT('',(2.,2.,-2.));
#1161=CARTESIAN_POINT('',(2.,2.,2.));
#1162=B_SPLINE_CURVE_WITH_KNOTS('',1,(#1160,#1161),.UNSPECIFIED.,.F.,.U.,(2,2),(0.,4.),.UNSPECIFIED.);
#1163=CARTESIAN_POINT('',(4.,0.));
#1164=CARTESIAN_POINT('',(4.,0.0833333333333335));
#1165=CARTESIAN_POINT('',(4.,0.166666666666667));
#1166=CARTESIAN_POINT('',(4.,0.25));
#1167=CARTESIAN_POINT('',(4.,0.333333333333333));
#1168=CARTESIAN_POINT('',(4.,0.416666666666667));
#1169=CARTESIAN_POINT('',(4.,0.5));
#1170=CARTESIAN_POINT('',(4.,0.583333333333333));
#1171=CARTESIAN_POINT('',(4.,0.666666666666667));
#1172=CARTESIAN_POINT('',(4.,0.75));
#1173=CARTESIAN_POINT('',(4.,0.833333333333333));
#1174=CARTESIAN_POINT('',(4.,0.916666666666667));
#1175=CARTESIAN_POINT('',(4.,1.));
#1176=CARTESIAN_POINT('',(4.,1.08333333333333));
#1177=CARTESIAN_POINT('',(4.,1.16666666666667));
#1178=CARTESIAN_POINT('',(4.,1.25));
#1179=CARTESIAN_POINT('',(4.,1.33333333333333));
#1180=CARTESIAN_POINT('',(4.,1.41666666666667));
#1181=CARTESIAN_POINT('',(4.,1.5));
#1182=CARTESIAN_POINT('',(4.,1.58333333333333));
#1183=CARTESIAN_POINT('',(4.,1.66666666666667));
#1184=CARTESIAN_POINT('',(4.,1.75));
#1185=CARTESIAN_POINT('',(4.,1.83333333333333));
#1186=CARTESIAN_POINT('',(4.,1.91666666666667));
#1187=CARTESIAN_POINT('',(4.,2.));
#1188=CARTESIAN_POINT('',(4.,2.08333333333333));
#1189=CARTESIAN_POINT('',(4.,2.16666666666667));
#1190=CARTESIAN_POINT('',(4.,2.25));
#1191=CARTESIAN_POINT('',(4.,2.33333333333333));
#1192=CARTESIAN_POINT('',(4.,2.41666666666667));
#1193=CARTESIAN_POINT('',(4.,2.5));
#1194=CARTESIAN_POINT('',(4.,2.58333333333333));
#1195=CARTESIAN_POINT('',(4.,2.66666666666667));
#1196=CARTESIAN_POINT('',(4.,2.75));
#1197=CARTESIAN_POINT('',(4.,2.83333333333333));
#1198=CARTESIAN_POINT('',(4.,2.91666666666667));
#1199=CARTESIAN_POINT('',(4.,3.));
#1200=CARTESIAN_POINT('',(4.,3.08333333333333));
#1201=CARTESIAN_POINT('',(4.,3.16666666666667));
#1202=CARTESIAN_POINT('',(4.,3.25));
#1203=CARTESIAN_POINT('',(4.,3.33333333333333));
#1204=CARTESIAN_POINT('',(4.,3.41666666666667));
#1205=CARTESIAN_POINT('',(4.,3.5));
#1206=CARTESIAN_POINT('',(4.,3.58333333333333));
#1207=CARTESIAN_POINT('',(4.,3.66666666666667));
#1208=CARTESIAN_POINT('',(4.,3.75));
#1209=CARTESIAN_POINT('',(4.,3.83333333333333));
#1210=CARTESIAN_POINT('',(4.,3.91666666666667));
#1211=CARTESIAN_POINT('',(4.,4.));
#1212=B_SPLINE_CURVE_WITH_KNOTS('',1,(#1163,#1164,#1165,#1166,#1167,#1168,#1169,#1170,#1171,#1172,#1173,#1174,#1175,#1176,#1177,#1178,#1179,#1180,#1181,#1182,#1183,#1184,#1185,#1186,#1187,#1188,#1189,#1190,#1191,#1192,#1193,#1194,#1195,#1196,#1197,#1198,#1199,#1200,#1201,#1202,#1203,#1204,#1205,#1206,#1207,#1208,#1209,#1210,#1211),.UNSPECIFIED.,.F.,.U.,(2,1,1,1,1,1,1,1,1,1,1,1,1,1,1,1,1,1,1,1,1,1,1,1,1,1,1,1,1,1,1,1,1,1,1,1,1,1,1,1,1,1,1,1,1,1,1,1,2),(0.,0.0833333333333333,0.166666666666667,0.25,0.333333333333333,0.416666666666667,0.5,0.583333333333333,0.666666666666667,0.75,0.833333333333333,0.916666666666667,1.,1.08333333333333,1.16666666666667,1.25,1.33333333333333,1.41666666666667,1.5,1.58333333333333,1.66666666666667,1.75,1.83333333333333,1.91666666666667,2.,2.08333333333333,2.16666666666667,2.25,2.33333333333333,2.41666666666667,2.5,2.58333333333333,2.66666666666667,2.75,2.83333333333333,2.91666666666667,3.,3.08333333333333,3.16666666666667,3.25,3.33333333333333,3.41666666666667,3.5,3.58333333333333,3.66666666666667,3.75,3.83333333333333,3.91666666666667,4.),.UNSPECIFIED.);
#1213=DEFINITIONAL_REPRESENTATION('',(#1212),#59);
#1214=PCURVE('',#302,#1213);
#1215=CARTESIAN_POINT('',(0.,0.));
#1216=CARTESIAN_POINT('',(0.,0.0833333333333335));
#1217=CARTESIAN_POINT('',(0.,0.166666666666667));
#1218=CARTESIAN_POINT('',(0.,0.25));
#1219=CARTESIAN_POINT('',(0.,0.333333333333333));
#1220=CARTESIAN_POINT('',(0.,0.416666666666667));
#1221=CARTESIAN_POINT('',(0.,0.5));
#1222=CARTESIAN_POINT('',(0.,0.583333333333333));
#1223=CARTESIAN_POINT('',(0.,0.666666666666667));
#1224=CARTESIAN_POINT('',(0.,0.75));
#1225=CARTESIAN_POINT('',(0.,0.833333333333333));
#1226=CARTESIAN_POINT('',(0.,0.916666666666667));
#1227=CARTESIAN_POINT('',(0.,1.));
#1228=CARTESIAN_POINT('',(0.,1.08333333333333));
#1229=CARTESIAN_POINT('',(0.,1.16666666666667));
#1230=CARTESIAN_POINT('',(0.,1.25));
#1231=CARTESIAN_POINT('',(0.,1.33333333333333));
#1232=CARTESIAN_POINT('',(0.,1.41666666666667));
#1233=CARTESIAN_POINT('',(0.,1.5));
#1234=CARTESIAN_POINT('',(0.,1.58333333333333));
#1235=CARTESIAN_POINT('',(0.,1.66666666666667));
#1236=CARTESIAN_POINT('',(0.,1.75));
#1237=CARTESIAN_POINT('',(0.,1.83333333333333));
#1238=CARTESIAN_POINT('',(0.,1.91666666666667));
#1239=CARTESIAN_POINT('',(0.,2.));
#1240=CARTESIAN_POINT('',(0.,2.08333333333333));
#1241=CARTESIAN_POINT('',(0.,2.16666666666667));
#1242=CARTESIAN_POINT('',(0.,2.25));
#1243=CARTESIAN_POINT('',(0.,2.33333333333333));
#1244=CARTESIAN_POINT('',(0.,2.41666666666667));
#1245=CARTESIAN_POINT('',(0.,2.5));
#1246=CARTESIAN_POINT('',(0.,2.58333333333333));
#1247=CARTESIAN_POINT('',(0.,2.66666666666667));
#1248=CARTESIAN_POINT('',(0.,2.75));
#1249=CARTESIAN_POINT('',(0.,2.83333333333333));
#1250=CARTESIAN_POINT('',(0.,2.91666666666667));
#1251=CARTESIAN_POINT('',(0.,3.));
#1252=CARTESIAN_POINT('',(0.,3.08333333333333));
#1253=CARTESIAN_POINT('',(0.,3.16666666666667));
#1254=CARTESIAN_POINT('',(0.,3.25));
#1255=CARTESIAN_POINT('',(0.,3.33333333333333));
#1256=CARTESIAN_POINT('',(0.,3.41666666666667));
#1257=CARTESIAN_POINT('',(0.,3.5));
#1258=CARTESIAN_POINT('',(0.,3.58333333333333));
#1259=CARTESIAN_POINT('',(0.,3.66666666666667));
#1260=CARTESIAN_POINT('',(0.,3.75));
#1261=CARTESIAN_POINT('',(0.,3.83333333333333));
#1262=CARTESIAN_POINT('',(0.,3.91666666666667));
#1263=CARTESIAN_POINT('',(0.,4.));
#1264=B_SPLINE_CURVE_WITH_KNOTS('',1,(#1215,#1216,#1217,#1218,#1219,#1220,#1221,#1222,#1223,#1224,#1225,#1226,#1227,#1228,#1229,#1230,#1231,#1232,#1233,#1234,#1235,#1236,#1237,#1238,#1239,#1240,#1241,#1242,#1243,#1244,#1245,#1246,#1247,#1248,#1249,#1250,#1251,#1252,#1253,#1254,#1255,#1256,#1257,#1258,#1259,#1260,#1261,#1262,#1263),.UNSPECIFIED.,.F.,.U.,(2,1,1,1,1,1,1,1,1,1,1,1,1,1,1,1,1,1,1,1,1,1,1,1,1,1,1,1,1,1,1,1,1,1,1,1,1,1,1,1,1,1,1,1,1,1,1,1,2),(0.,0.0833333333333335,0.166666666666667,0.25,0.333333333333333,0.416666666666667,0.5,0.583333333333333,0.666666666666667,0.75,0.833333333333333,0.916666666666667,1.,1.08333333333333,1.16666666666667,1.25,1.33333333333333,1.41666666666667,1.5,1.58333333333333,1.66666666666667,1.75,1.83333333333333,1.91666666666667,2.,2.08333333333333,2.16666666666667,2.25,2.33333333333333,2.41666666666667,2.5,2.58333333333333,2.66666666666667,2.75,2.83333333333333,2.91666666666667,3.,3.08333333333333,3.16666666666667,3.25,3.33333333333333,3.41666666666667,3.5,3.58333333333333,3.66666666666667,3.75,3.83333333333333,3.91666666666667,4.),.UNSPECIFIED.);
#1265=DEFINITIONAL_REPRESENTATION('',(#1264),#59);
#1266=PCURVE('',#185,#1265);
#1267=SURFACE_CURVE('',#1162,(#1214,#1266),.PCURVE_S1.);
#1268=EDGE_CURVE('',#240,#706,#1267,.T.);
#1269=ORIENTED_EDGE('',*,*,#1268,.T.);
#1270=ORIENTED_EDGE('',*,*,#707,.F.);
#1271=ORIENTED_EDGE('',*,*,#1043,.F.);
#1272=EDGE_LOOP('',(#1159,#1269,#1270,#1271));
#1273=FACE_OUTER_BOUND('',#1272,.T.);
#1274=ADVANCED_FACE('',(#1273),#302,.T.);
#1275=ORIENTED_EDGE('',*,*,#241,.T.);
#1276=CARTESIAN_POINT('',(-2.,2.,-2.));
#1277=CARTESIAN_POINT('',(-2.,2.,2.));
#1278=B_SPLINE_CURVE_WITH_KNOTS('',1,(#1276,#1277),.UNSPECIFIED.,.F.,.U.,(2,2),(0.,4.),.UNSPECIFIED.);
#1279=CARTESIAN_POINT('',(4.,0.));
#1280=CARTESIAN_POINT('',(4.,0.0833333333333335));
#1281=CARTESIAN_POINT('',(4.,0.166666666666667));
#1282=CARTESIAN_POINT('',(4.,0.25));
#1283=CARTESIAN_POINT('',(4.,0.333333333333333));
#1284=CARTESIAN_POINT('',(4.,0.416666666666667));
#1285=CARTESIAN_POINT('',(4.,0.5));
#1286=CARTESIAN_POINT('',(4.,0.583333333333333));
#1287=CARTESIAN_POINT('',(4.,0.666666666666667));
#1288=CARTESIAN_POINT('',(4.,0.75));
#1289=CARTESIAN_POINT('',(4.,0.833333333333333));
#1290=CARTESIAN_POINT('',(4.,0.916666666666667));
#1291=CARTESIAN_POINT('',(4.,1.));
#1292=CARTESIAN_POINT('',(4.,1.08333333333333));
#1293=CARTESIAN_POINT('',(4.,1.16666666666667));
#1294=CARTESIAN_POINT('',(4.,1.25));
#1295=CARTESIAN_POINT('',(4.,1.33333333333333));
#1296=CARTESIAN_POINT('',(4.,1.41666666666667));
#1297=CARTESIAN_POINT('',(4.,1.5));
#1298=CARTESIAN_POINT('',(4.,1.58333333333333));
#1299=CARTESIAN_POINT('',(4.,1.66666666666667));
#1300=CARTESIAN_POINT('',(4.,1.75));
#1301=CARTESIAN_POINT('',(4.,1.83333333333333));
#1302=CARTESIAN_POINT('',(4.,1.91666666666667));
#1303=CARTESIAN_POINT('',(4.,2.));
#1304=CARTESIAN_POINT('',(4.,2.08333333333333));
#1305=CARTESIAN_POINT('',(4.,2.16666666666667));
#1306=CARTESIAN_POINT('',(4.,2.25));
#1307=CARTESIAN_POINT('',(4.,2.33333333333333));
#1308=CARTESIAN_POINT('',(4.,2.41666666666667));
#1309=CARTESIAN_POINT('',(4.,2.5));
#1310=CARTESIAN_POINT('',(4.,2.58333333333333));
#1311=CARTESIAN_POINT('',(4.,2.66666666666667));
#1312=CARTESIAN_POINT('',(4.,2.75));
#1313=CARTESIAN_POINT('',(4.,2.83333333333333));
#1314=CARTESIAN_POINT('',(4.,2.91666666666667));
#1315=CARTESIAN_POINT('',(4.,3.));
#1316=CARTESIAN_POINT('',(4.,3.08333333333333));
#1317=CARTESIAN_POINT('',(4.,3.16666666666667));
#1318=CARTESIAN_POINT('',(4.,3.25));
#1319=CARTESIAN_POINT('',(4.,3.33333333333333));
#1320=CARTESIAN_POINT('',(4.,3.41666666666667));
#1321=CARTESIAN_POINT('',(4.,3.5));
#1322=CARTESIAN_POINT('',(4.,3.58333333333333));
#1323=CARTESIAN_POINT('',(4.,3.66666666666667));
#1324=CARTESIAN_POINT('',(4.,3.75));
#1325=CARTESIAN_POINT('',(4.,3.83333333333333));
#1326=CARTESIAN_POINT('',(4.,3.91666666666667));
#1327=CARTESIAN_POINT('',(4.,4.));
#1328=B_SPLINE_CURVE_WITH_KNOTS('',1,(#1279,#1280,#1281,#1282,#1283,#1284,#1285,#1286,#1287,#1288,#1289,#1290,#1291,#1292,#1293,#1294,#1295,#1296,#1297,#1298,#1299,#1300,#1301,#1302,#1303,#1304,#1305,#1306,#1307,#1308,#1309,#1310,#1311,#1312,#1313,#1314,#1315,#1316,#1317,#1318,#1319,#1320,#1321,#1322,#1323,#1324,#1325,#1326,#1327),.UNSPECIFIED.,.F.,.U.,(2,1,1,1,1,1,1,1,1,1,1,1,1,1,1,1,1,1,1,1,1,1,1,1,1,1,1,1,1,1,1,1,1,1,1,1,1,1,1,1,1,1,1,1,1,1,1,1,2),(0.,0.0833333333333333,0.166666666666667,0.25,0.333333333333333,0.416666666666667,0.5,0.583333333333333,0.666666666666667,0.75,0.833333333333333,0.916666666666667,1.,1.08333333333333,1.16666666666667,1.25,1.33333333333333,1.41666666666667,1.5,1.58333333333333,1.66666666666667,1.75,1.83333333333333,1.91666666666667,2.,2.08333333333333,2.16666666666667,2.25,2.33333333333333,2.41666666666667,2.5,2.58333333333333,2.66666666666667,2.75,2.83333333333333,2.91666666666667,3.,3.08333333333333,3.16666666666667,3.25,3.33333333333333,3.41666666666667,3.5,3.58333333333333,3.66666666666667,3.75,3.83333333333333,3.91666666666667,4.),.UNSPECIFIED.);
#1329=DEFINITIONAL_REPRESENTATION('',(#1328),#59);
#1330=PCURVE('',#185,#1329);
#1331=CARTESIAN_POINT('',(0.,0.));
#1332=CARTESIAN_POINT('',(0.,0.0833333333333335));
#1333=CARTESIAN_POINT('',(0.,0.166666666666667));
#1334=CARTESIAN_POINT('',(0.,0.25));
#1335=CARTESIAN_POINT('',(0.,0.333333333333333));
#1336=CARTESIAN_POINT('',(0.,0.416666666666667));
#1337=CARTESIAN_POINT('',(0.,0.5));
#1338=CARTESIAN_POINT('',(0.,0.583333333333333));
#1339=CARTESIAN_POINT('',(0.,0.666666666666667));
#1340=CARTESIAN_POINT('',(0.,0.75));
#1341=CARTESIAN_POINT('',(0.,0.833333333333333));
#1342=CARTESIAN_POINT('',(0.,0.916666666666667));
#1343=CARTESIAN_POINT('',(0.,1.));
#1344=CARTESIAN_POINT('',(0.,1.08333333333333));
#1345=CARTESIAN_POINT('',(0.,1.16666666666667));
#1346=CARTESIAN_POINT('',(0.,1.25));
#1347=CARTESIAN_POINT('',(0.,1.33333333333333));
#1348=CARTESIAN_POINT('',(0.,1.41666666666667));
#1349=CARTESIAN_POINT('',(0.,1.5));
#1350=CARTESIAN_POINT('',(0.,1.58333333333333));
#1351=CARTESIAN_POINT('',(0.,1.66666666666667));
#1352=CARTESIAN_POINT('',(0.,1.75));
#1353=CARTESIAN_POINT('',(0.,1.83333333333333));
#1354=CARTESIAN_POINT('',(0.,1.91666666666667));
#1355=CARTESIAN_POINT('',(0.,2.));
#1356=CARTESIAN_POINT('',(0.,2.08333333333333));
#1357=CARTESIAN_POINT('',(0.,2.16666666666667));
#1358=CARTESIAN_POINT('',(0.,2.25));
#1359=CARTESIAN_POINT('',(0.,2.33333333333333));
#1360=CARTESIAN_POINT('',(0.,2.41666666666667));
#1361=CARTESIAN_POINT('',(0.,2.5));
#1362=CARTESIAN_POINT('',(0.,2.58333333333333));
#1363=CARTESIAN_POINT('',(0.,2.66666666666667));
#1364=CARTESIAN_POINT('',(0.,2.75));
#1365=CARTESIAN_POINT('',(0.,2.83333333333333));
#1366=CARTESIAN_POINT('',(0.,2.91666666666667));
#1367=CARTESIAN_POINT('',(0.,3.));
#1368=CARTESIAN_POINT('',(0.,3.08333333333333));
#1369=CARTESIAN_POINT('',(0.,3.16666666666667));
#1370=CARTESIAN_POINT('',(0.,3.25));
#1371=CARTESIAN_POINT('',(0.,3.33333333333333));
#1372=CARTESIAN_POINT('',(0.,3.41666666666667));
#1373=CARTESIAN_POINT('',(0.,3.5));
#1374=CARTESIAN_POINT('',(0.,3.58333333333333));
#1375=CARTESIAN_POINT('',(0.,3.66666666666667));
#1376=CARTESIAN_POINT('',(0.,3.75));
#1377=CARTESIAN_POINT('',(0.,3.83333333333333));
#1378=CARTESIAN_POINT('',(0.,3.91666666666667));
#1379=CARTESIAN_POINT('',(0.,4.));
#1380=B_SPLINE_CURVE_WITH_KNOTS('',1,(#1331,#1332,#1333,#1334,#1335,#1336,#1337,#1338,#1339,#1340,#1341,#1342,#1343,#1344,#1345,#1346,#1347,#1348,#1349,#1350,#1351,#1352,#1353,#1354,#1355,#1356,#1357,#1358,#1359,#1360,#1361,#1362,#1363,#1364,#1365,#1366,#1367,#1368,#1369,#1370,#1371,#1372,#1373,#1374,#1375,#1376,#1377,#1378,#1379),.UNSPECIFIED.,.F.,.U.,(2,1,1,1,1,1,1,1,1,1,1,1,1,1,1,1,1,1,1,1,1,1,1,1,1,1,1,1,1,1,1,1,1,1,1,1,1,1,1,1,1,1,1,1,1,1,1,1,2),(0.,0.0833333333333335,0.166666666666667,0.25,0.333333333333333,0.416666666666667,0.5,0.583333333333333,0.666666666666667,0.75,0.833333333333333,0.916666666666667,1.,1.08333333333333,1.16666666666667,1.25,1.33333333333333,1.41666666666667,1.5,1.58333333333333,1.66666666666667,1.75,1.83333333333333,1.91666666666667,2.,2.08333333333333,2.16666666666667,2.25,2.33333333333333,2.41666666666667,2.5,2.58333333333333,2.66666666666667,2.75,2.83333333333333,2.91666666666667,3.,3.08333333333333,3.16666666666667,3.25,3.33333333333333,3.41666666666667,3.5,3.58333333333333,3.66666666666667,3.75,3.83333333333333,3.91666666666667,4.),.UNSPECIFIED.);
#1381=DEFINITIONAL_REPRESENTATION('',(#1380),#59);
#1382=PCURVE('',#66,#1381);
#1383=SURFACE_CURVE('',#1278,(#1330,#1382),.PCURVE_S1.);
#1384=EDGE_CURVE('',#121,#818,#1383,.T.);
#1385=ORIENTED_EDGE('',*,*,#1384,.T.);
#1386=ORIENTED_EDGE('',*,*,#819,.F.);
#1387=ORIENTED_EDGE('',*,*,#1268,.F.);
#1388=EDGE_LOOP('',(#1275,#1385,#1386,#1387));
#1389=FACE_OUTER_BOUND('',#1388,.T.);
#1390=ADVANCED_FACE('',(#1389),#185,.T.);
#1391=ORIENTED_EDGE('',*,*,#124,.T.);
#1392=ORIENTED_EDGE('',*,*,#1154,.T.);
#1393=ORIENTED_EDGE('',*,*,#929,.F.);
#1394=ORIENTED_EDGE('',*,*,#1384,.F.);
#1395=EDGE_LOOP('',(#1391,#1392,#1393,#1394));
#1396=FACE_OUTER_BOUND('',#1395,.T.);
#1397=ADVANCED_FACE('',(#1396),#66,.T.);
#1398=CLOSED_SHELL('',(#477,#933,#1158,#1274,#1390,#1397));
#1399=MANIFOLD_SOLID_BREP('',#1398);
#1400=CARTESIAN_POINT('',(0.,0.,0.));
#1401=DIRECTION('',(0.,0.,1.));
#1402=DIRECTION('',(1.,0.,0.));
#1403=AXIS2_PLACEMENT_3D('',#1400,#1401,#1402);
#1404=(LENGTH_UNIT()NAMED_UNIT(*)SI_UNIT(.MILLI.,.METRE.));
#1405=(NAMED_UNIT(*)PLANE_ANGLE_UNIT()SI_UNIT($,.RADIAN.));
#1406=(NAMED_UNIT(*)SI_UNIT($,.STERADIAN.)SOLID_ANGLE_UNIT());
#1407=UNCERTAINTY_MEASURE_WITH_UNIT(LENGTH_MEASURE(0.0346410161513775),#1404,'distance_accuracy_value','');
#1408=(GEOMETRIC_REPRESENTATION_CONTEXT(3)GLOBAL_UNCERTAINTY_ASSIGNED_CONTEXT((#1407))GLOBAL_UNIT_ASSIGNED_CONTEXT((#1404,#1405,#1406))REPRESENTATION_CONTEXT('',''));
#1409=APPLICATION_CONTEXT('core data for automotive mechanical design processes');
#1410=APPLICATION_PROTOCOL_DEFINITION('international standard','automotive_design',2000,#1409);
#1411=PRODUCT_CONTEXT('',#1409,'mechanical');
#1412=PRODUCT('box','box','',(#1411));
#1413=PRODUCT_DEFINITION_FORMATION('','',#1412);
#1414=PRODUCT_DEFINITION_CONTEXT('part definition',#1409,'design');
#1415=PRODUCT_DEFINITION('design','',#1413,#1414);
#1416=PRODUCT_DEFINITION_SHAPE('','',#1415);
#1417=ADVANCED_BREP_SHAPE_REPRESENTATION('box',(#1403,#1399),#1408);
#1418=SHAPE_DEFINITION_REPRESENTATION(#1416,#1417);
ENDSEC;
END-ISO-10303-21;
