ISO-10303-21;
HEADER;
FILE_DESCRIPTION((''),'2;1');
FILE_NAME('','',(''),(''),'','','');
FILE_SCHEMA(('AUTOMOTIVE_DESIGN'));
ENDSEC;
DATA;
#1=CARTESIAN_POINT('',(0.,0.,0.));
#2=DIRECTION('',(0.,0.,1.));
#3=DIRECTION('',(1.,0.,0.));
#4=AXIS2_PLACEMENT_3D('',#1,#2,#3);
#5=TOROIDAL_SURFACE('',#4,2.,0.8);
#6=CARTESIAN_POINT('',(2.8,0.,0.));
#7=CARTESIAN_POINT('',(2.78867374411606,0.251592426113573,0.));
#8=CARTESIAN_POINT('',(2.75325503156641,0.509496546754005,0.));
#9=CARTESIAN_POINT('',(2.69191708292369,0.770443001567034,0.));
#10=CARTESIAN_POINT('',(2.6034072429748,1.03066518677324,0.));
#11=CARTESIAN_POINT('',(2.48719521912331,1.28602486055681,0.));
#12=CARTESIAN_POINT('',(2.34358743141222,1.5321873094784,0.));
#13=CARTESIAN_POINT('',(2.17378892520956,1.76483475391785,0.));
#14=CARTESIAN_POINT('',(1.97989898732233,1.97989898732233,0.));
#15=CARTESIAN_POINT('',(1.76483475391785,2.17378892520956,0.));
#16=CARTESIAN_POINT('',(1.5321873094784,2.34358743141222,0.));
#17=CARTESIAN_POINT('',(1.28602486055681,2.48719521912331,0.));
#18=CARTESIAN_POINT('',(1.03066518677324,2.6034072429748,0.));
#19=CARTESIAN_POINT('',(0.770443001567034,2.69191708292369,0.));
#20=CARTESIAN_POINT('',(0.509496546754005,2.75325503156641,0.));
#21=CARTESIAN_POINT('',(0.251592426113573,2.78867374411606,0.));
#22=CARTESIAN_POINT('',(0.,2.8,0.));
#23=CARTESIAN_POINT('',(-0.251592426113573,2.78867374411606,0.));
#24=CARTESIAN_POINT('',(-0.509496546754005,2.75325503156641,0.));
#25=CARTESIAN_POINT('',(-0.770443001567034,2.69191708292369,0.));
#26=CARTESIAN_POINT('',(-1.03066518677324,2.6034072429748,0.));
#27=CARTESIAN_POINT('',(-1.28602486055681,2.48719521912331,0.));
#28=CARTESIAN_POINT('',(-1.5321873094784,2.34358743141222,0.));
#29=CARTESIAN_POINT('',(-1.76483475391785,2.17378892520956,0.));
#30=CARTESIAN_POINT('',(-1.97989898732233,1.97989898732233,0.));
#31=CARTESIAN_POINT('',(-2.17378892520956,1.76483475391785,0.));
#32=CARTESIAN_POINT('',(-2.34358743141222,1.5321873094784,0.));
#33=CARTESIAN_POINT('',(-2.48719521912331,1.28602486055681,0.));
#34=CARTESIAN_POINT('',(-2.6034072429748,1.03066518677324,0.));
#35=CARTESIAN_POINT('',(-2.69191708292369,0.770443001567034,0.));
#36=CARTESIAN_POINT('',(-2.75325503156641,0.509496546754005,0.));
#37=CARTESIAN_POINT('',(-2.78867374411606,0.251592426113573,0.));
#38=CARTESIAN_POINT('',(-2.8,0.,0.));
#39=CARTESIAN_POINT('',(-2.78867374411606,-0.251592426113573,0.));
#40=CARTESIAN_POINT('',(-2.75325503156641,-0.509496546754005,0.));
#41=CARTESIAN_POINT('',(-2.69191708292369,-0.770443001567034,0.));
#42=CARTESIAN_POINT('',(-2.6034072429748,-1.03066518677324,0.));
#43=CARTESIAN_POINT('',(-2.48719521912331,-1.28602486055681,0.));
#44=CARTESIAN_POINT('',(-2.34358743141222,-1.5321873094784,0.));
#45=CARTESIAN_POINT('',(-2.17378892520956,-1.76483475391785,0.));
#46=CARTESIAN_POINT('',(-1.97989898732233,-1.97989898732233,0.));
#47=CARTESIAN_POINT('',(-1.76483475391785,-2.17378892520956,0.));
#48=CARTESIAN_POINT('',(-1.5321873094784,-2.34358743141222,0.));
#49=CARTESIAN_POINT('',(-1.28602486055681,-2.48719521912331,0.));
#50=CARTESIAN_POINT('',(-1.03066518677324,-2.6034072429748,0.));
#51=CARTESIAN_POINT('',(-0.770443001567034,-2.69191708292369,0.));
#52=CARTESIAN_POINT('',(-0.509496546754005,-2.75325503156641,0.));
#53=CARTESIAN_POINT('',(-0.251592426113573,-2.78867374411606,0.));
#54=CARTESIAN_POINT('',(0.,-2.8,0.));
#55=CARTESIAN_POINT('',(0.251592426113573,-2.78867374411606,0.));
#56=CARTESIAN_POINT('',(0.509496546754005,-2.75325503156641,0.));
#57=CARTESIAN_POINT('',(0.770443001567034,-2.69191708292369,0.));
#58=CARTESIAN_POINT('',(1.03066518677324,-2.6034072429748,0.));
#59=CARTESIAN_POINT('',(1.28602486055681,-2.48719521912331,0.));
#60=CARTESIAN_POINT('',(1.5321873094784,-2.34358743141222,0.));
#61=CARTESIAN_POINT('',(1.76483475391785,-2.17378892520956,0.));
#62=CARTESIAN_POINT('',(1.97989898732233,-1.97989898732233,0.));
#63=CARTESIAN_POINT('',(2.17378892520956,-1.76483475391785,0.));
#64=CARTESIAN_POINT('',(2.34358743141222,-1.5321873094784,0.));
#65=CARTESIAN_POINT('',(2.48719521912331,-1.28602486055681,0.));
#66=CARTESIAN_POINT('',(2.6034072429748,-1.03066518677324,0.));
#67=CARTESIAN_POINT('',(2.69191708292369,-0.770443001567034,0.));
#68=CARTESIAN_POINT('',(2.75325503156641,-0.509496546754005,0.));
#69=CARTESIAN_POINT('',(2.78867374411606,-0.251592426113573,0.));
#70=CARTESIAN_POINT('',(2.8,0.,0.));
#71=B_SPLINE_CURVE_WITH_KNOTS('',3,(#6,#7,#8,#9,#10,#11,#12,#13,#14,#15,#16,#17,#18,#19,#20,#21,#22,#23,#24,#25,#26,#27,#28,#29,#30,#31,#32,#33,#34,#35,#36,#37,#38,#39,#40,#41,#42,#43,#44,#45,#46,#47,#48,#49,#50,#51,#52,#53,#54,#55,#56,#57,#58,#59,#60,#61,#62,#63,#64,#65,#66,#67,#68,#69,#70),.UNSPECIFIED.,.F.,.U.,(4,1,1,1,1,1,1,1,1,1,1,1,1,1,1,1,1,1,1,1,1,1,1,1,1,1,1,1,1,1,1,1,1,1,1,1,1,1,1,1,1,1,1,1,1,1,1,1,1,1,1,1,1,1,1,1,1,1,1,1,1,1,4),(0.,0.283297490095526,0.566594980191053,0.849892470286579,1.13318996038211,1.41648745047763,1.69978494057316,1.98308243066868,2.26637992076421,2.54967741085974,2.83297490095526,3.11627239105079,3.39956988114632,3.68286737124184,3.96616486133737,4.24946235143289,4.53275984152842,4.81605733162395,5.09935482171947,5.382652311815,5.66594980191053,5.94924729200605,6.23254478210158,6.5158422721971,6.79913976229263,7.08243725238816,7.36573474248368,7.64903223257921,7.93232972267474,8.21562721277026,8.49892470286579,8.78222219296132,9.06551968305684,9.34881717315237,9.63211466324789,9.91541215334342,10.1987096434389,10.4820071335345,10.76530462363,11.0486021137255,11.3318996038211,11.6151970939166,11.8984945840121,12.1817920741076,12.4650895642032,12.7483870542987,13.0316845443942,13.3149820344897,13.5982795245853,13.8815770146808,14.1648745047763,14.4481719948718,14.7314694849674,15.0147669750629,15.2980644651584,15.5813619552539,15.8646594453495,16.147956935445,16.4312544255405,16.7145519156361,16.9978494057316,17.2811468958271,17.5644443859226),.UNSPECIFIED.);
#72=CARTESIAN_POINT('',(0.,0.));
#73=CARTESIAN_POINT('',(0.120653001309692,0.));
#74=CARTESIAN_POINT('',(0.246542248853104,0.));
#75=CARTESIAN_POINT('',(0.37695902154121,0.));
#76=CARTESIAN_POINT('',(0.510990747297044,0.));
#77=CARTESIAN_POINT('',(0.64754569593762,0.));
#78=CARTESIAN_POINT('',(0.785398163397448,0.));
#79=CARTESIAN_POINT('',(0.923250630857277,0.));
#80=CARTESIAN_POINT('',(1.05980557949785,0.));
#81=CARTESIAN_POINT('',(1.19383730525369,0.));
#82=CARTESIAN_POINT('',(1.32425407794179,0.));
#83=CARTESIAN_POINT('',(1.4501433254852,0.));
#84=CARTESIAN_POINT('',(1.5707963267949,0.));
#85=CARTESIAN_POINT('',(1.69144932810459,0.));
#86=CARTESIAN_POINT('',(1.817338575648,0.));
#87=CARTESIAN_POINT('',(1.94775534833611,0.));
#88=CARTESIAN_POINT('',(2.08178707409194,0.));
#89=CARTESIAN_POINT('',(2.21834202273252,0.));
#90=CARTESIAN_POINT('',(2.35619449019234,0.));
#91=CARTESIAN_POINT('',(2.49404695765217,0.));
#92=CARTESIAN_POINT('',(2.63060190629275,0.));
#93=CARTESIAN_POINT('',(2.76463363204858,0.));
#94=CARTESIAN_POINT('',(2.89505040473669,0.));
#95=CARTESIAN_POINT('',(3.0209396522801,0.));
#96=CARTESIAN_POINT('',(3.14159265358979,0.));
#97=CARTESIAN_POINT('',(3.26224565489949,0.));
#98=CARTESIAN_POINT('',(3.3881349024429,0.));
#99=CARTESIAN_POINT('',(3.518551675131,0.));
#100=CARTESIAN_POINT('',(3.65258340088684,0.));
#101=CARTESIAN_POINT('',(3.78913834952741,0.));
#102=CARTESIAN_POINT('',(3.92699081698724,0.));
#103=CARTESIAN_POINT('',(4.06484328444707,0.));
#104=CARTESIAN_POINT('',(4.20139823308765,0.));
#105=CARTESIAN_POINT('',(4.33542995884348,0.));
#106=CARTESIAN_POINT('',(4.46584673153159,0.));
#107=CARTESIAN_POINT('',(4.591735979075,0.));
#108=CARTESIAN_POINT('',(4.71238898038469,0.));
#109=CARTESIAN_POINT('',(4.83304198169438,0.));
#110=CARTESIAN_POINT('',(4.95893122923779,0.));
#111=CARTESIAN_POINT('',(5.0893480019259,0.));
#112=CARTESIAN_POINT('',(5.22337972768173,0.));
#113=CARTESIAN_POINT('',(5.35993467632231,0.));
#114=CARTESIAN_POINT('',(5.49778714378214,0.));
#115=CARTESIAN_POINT('',(5.63563961124197,0.));
#116=CARTESIAN_POINT('',(5.77219455988254,0.));
#117=CARTESIAN_POINT('',(5.90622628563838,0.));
#118=CARTESIAN_POINT('',(6.03664305832648,0.));
#119=CARTESIAN_POINT('',(6.16253230586989,0.));
#120=CARTESIAN_POINT('',(6.28318530717959,0.));
#121=B_SPLINE_CURVE_WITH_KNOTS('',1,(#72,#73,#74,#75,#76,#77,#78,#79,#80,#81,#82,#83,#84,#85,#86,#87,#88,#89,#90,#91,#92,#93,#94,#95,#96,#97,#98,#99,#100,#101,#102,#103,#104,#105,#106,#107,#108,#109,#110,#111,#112,#113,#114,#115,#116,#117,#118,#119,#120),.UNSPECIFIED.,.F.,.U.,(2,1,1,1,1,1,1,1,1,1,1,1,1,1,1,1,1,1,1,1,1,1,1,1,1,1,1,1,1,1,1,1,1,1,1,1,1,1,1,1,1,1,1,1,1,1,1,1,2),(0.,0.130899693899575,0.261799387799149,0.392699081698724,0.523598775598299,0.654498469497873,0.785398163397448,0.916297857297023,1.0471975511966,1.17809724509617,1.30899693899575,1.43989663289532,1.5707963267949,1.70169602069447,1.83259571459405,1.96349540849362,2.0943951023932,2.22529479629277,2.35619449019234,2.48709418409192,2.61799387799149,2.74889357189107,2.87979326579064,3.01069295969022,3.14159265358979,3.27249234748937,3.40339204138894,3.53429173528852,3.66519142918809,3.79609112308767,3.92699081698724,4.05789051088682,4.18879020478639,4.31968989868597,4.45058959258554,4.58148928648511,4.71238898038469,4.84328867428426,4.97418836818384,5.10508806208341,5.23598775598299,5.36688744988256,5.49778714378214,5.62868683768171,5.75958653158129,5.89048622548086,6.02138591938044,6.15228561328001,6.28318530717959),.UNSPECIFIED.);
#122=(GEOMETRIC_REPRESENTATION_CONTEXT(2)PARAMETRIC_REPRESENTATION_CONTEXT()REPRESENTATION_CONTEXT('2D SPACE',''));
#123=DEFINITIONAL_REPRESENTATION('',(#121),#122);
#124=PCURVE('',#5,#123);
#125=CARTESIAN_POINT('',(0.,6.28318530717959));
#126=CARTESIAN_POINT('',(0.120653001309692,6.28318530717959));
#127=CARTESIAN_POINT('',(0.246542248853104,6.28318530717959));
#128=CARTESIAN_POINT('',(0.376959021541211,6.28318530717959));
#129=CARTESIAN_POINT('',(0.510990747297043,6.28318530717959));
#130=CARTESIAN_POINT('',(0.64754569593762,6.28318530717959));
#131=CARTESIAN_POINT('',(0.785398163397448,6.28318530717959));
#132=CARTESIAN_POINT('',(0.923250630857277,6.28318530717959));
#133=CARTESIAN_POINT('',(1.05980557949785,6.28318530717959));
#134=CARTESIAN_POINT('',(1.19383730525369,6.28318530717959));
#135=CARTESIAN_POINT('',(1.32425407794179,6.28318530717959));
#136=CARTESIAN_POINT('',(1.4501433254852,6.28318530717959));
#137=CARTESIAN_POINT('',(1.5707963267949,6.28318530717959));
#138=CARTESIAN_POINT('',(1.69144932810459,6.28318530717959));
#139=CARTESIAN_POINT('',(1.817338575648,6.28318530717959));
#140=CARTESIAN_POINT('',(1.94775534833611,6.28318530717959));
#141=CARTESIAN_POINT('',(2.08178707409194,6.28318530717959));
#142=CARTESIAN_POINT('',(2.21834202273252,6.28318530717959));
#143=CARTESIAN_POINT('',(2.35619449019234,6.28318530717959));
#144=CARTESIAN_POINT('',(2.49404695765217,6.28318530717959));
#145=CARTESIAN_POINT('',(2.63060190629275,6.28318530717959));
#146=CARTESIAN_POINT('',(2.76463363204858,6.28318530717959));
#147=CARTESIAN_POINT('',(2.89505040473669,6.28318530717959));
#148=CARTESIAN_POINT('',(3.0209396522801,6.28318530717959));
#149=CARTESIAN_POINT('',(3.14159265358979,6.28318530717959));
#150=CARTESIAN_POINT('',(3.26224565489948,6.28318530717959));
#151=CARTESIAN_POINT('',(3.3881349024429,6.28318530717959));
#152=CARTESIAN_POINT('',(3.518551675131,6.28318530717959));
#153=CARTESIAN_POINT('',(3.65258340088684,6.28318530717959));
#154=CARTESIAN_POINT('',(3.78913834952741,6.28318530717959));
#155=CARTESIAN_POINT('',(3.92699081698724,6.28318530717959));
#156=CARTESIAN_POINT('',(4.06484328444707,6.28318530717959));
#157=CARTESIAN_POINT('',(4.20139823308765,6.28318530717959));
#158=CARTESIAN_POINT('',(4.33542995884348,6.28318530717959));
#159=CARTESIAN_POINT('',(4.46584673153158,6.28318530717959));
#160=CARTESIAN_POINT('',(4.591735979075,6.28318530717959));
#161=CARTESIAN_POINT('',(4.71238898038469,6.28318530717959));
#162=CARTESIAN_POINT('',(4.83304198169438,6.28318530717959));
#163=CARTESIAN_POINT('',(4.95893122923779,6.28318530717959));
#164=CARTESIAN_POINT('',(5.0893480019259,6.28318530717959));
#165=CARTESIAN_POINT('',(5.22337972768173,6.28318530717959));
#166=CARTESIAN_POINT('',(5.35993467632231,6.28318530717959));
#167=CARTESIAN_POINT('',(5.49778714378214,6.28318530717959));
#168=CARTESIAN_POINT('',(5.63563961124197,6.28318530717959));
#169=CARTESIAN_POINT('',(5.77219455988254,6.28318530717959));
#170=CARTESIAN_POINT('',(5.90622628563838,6.28318530717959));
#171=CARTESIAN_POINT('',(6.03664305832648,6.28318530717959));
#172=CARTESIAN_POINT('',(6.16253230586989,6.28318530717959));
#173=CARTESIAN_POINT('',(6.28318530717959,6.28318530717959));
#174=B_SPLINE_CURVE_WITH_KNOTS('',1,(#125,#126,#127,#128,#129,#130,#131,#132,#133,#134,#135,#136,#137,#138,#139,#140,#141,#142,#143,#144,#145,#146,#147,#148,#149,#150,#151,#152,#153,#154,#155,#156,#157,#158,#159,#160,#161,#162,#163,#164,#165,#166,#167,#168,#169,#170,#171,#172,#173),.UNSPECIFIED.,.F.,.U.,(2,1,1,1,1,1,1,1,1,1,1,1,1,1,1,1,1,1,1,1,1,1,1,1,1,1,1,1,1,1,1,1,1,1,1,1,1,1,1,1,1,1,1,1,1,1,1,1,2),(0.,0.130899693899575,0.26179938779915,0.392699081698725,0.523598775598299,0.654498469497874,0.785398163397448,0.916297857297024,1.0471975511966,1.17809724509617,1.30899693899575,1.43989663289532,1.5707963267949,1.70169602069447,1.83259571459405,1.96349540849362,2.0943951023932,2.22529479629277,2.35619449019235,2.48709418409192,2.61799387799149,2.74889357189107,2.87979326579064,3.01069295969022,3.14159265358979,3.27249234748937,3.40339204138894,3.53429173528852,3.66519142918809,3.79609112308767,3.92699081698724,4.05789051088682,4.18879020478639,4.31968989868597,4.45058959258554,4.58148928648512,4.71238898038469,4.84328867428426,4.97418836818384,5.10508806208341,5.23598775598299,5.36688744988256,5.49778714378214,5.62868683768171,5.75958653158129,5.89048622548086,6.02138591938044,6.15228561328001,6.28318530717959),.UNSPECIFIED.);
#175=DEFINITIONAL_REPRESENTATION('',(#174),#122);
#176=PCURVE('',#5,#175);
#177=SEAM_CURVE('',#71,(#124,#176),.PCURVE_S1.);
#178=CARTESIAN_POINT('',(2.8,0.,0.));
#179=VERTEX_POINT('',#178);
#180=EDGE_CURVE('',#179,#179,#177,.T.);
#181=ORIENTED_EDGE('',*,*,#180,.T.);
#182=CARTESIAN_POINT('',(2.8,0.,0.));
#183=CARTESIAN_POINT('',(2.7967639268903,0.,0.0718835503181637));
#184=CARTESIAN_POINT('',(2.78664429473326,0.,0.145570441929716));
#185=CARTESIAN_POINT('',(2.76911916654963,0.,0.220126571876296));
#186=CARTESIAN_POINT('',(2.74383064084994,0.,0.294475767649498));
#187=CARTESIAN_POINT('',(2.7106272054638,0.,0.367435674444803));
#188=CARTESIAN_POINT('',(2.66959640897492,0.,0.437767802708114));
#189=CARTESIAN_POINT('',(2.62108255005987,0.,0.504238501119385));
#190=CARTESIAN_POINT('',(2.56568542494924,0.,0.565685424949238));
#191=CARTESIAN_POINT('',(2.50423850111938,0.,0.621082550059875));
#192=CARTESIAN_POINT('',(2.43776780270811,0.,0.669596408974921));
#193=CARTESIAN_POINT('',(2.3674356744448,0.,0.710627205463802));
#194=CARTESIAN_POINT('',(2.2944757676495,0.,0.743830640849944));
#195=CARTESIAN_POINT('',(2.2201265718763,0.,0.769119166549625));
#196=CARTESIAN_POINT('',(2.14557044192972,0.,0.786644294733259));
#197=CARTESIAN_POINT('',(2.07188355031816,0.,0.796763926890303));
#198=CARTESIAN_POINT('',(2.,0.,0.8));
#199=CARTESIAN_POINT('',(1.92811644968184,0.,0.796763926890303));
#200=CARTESIAN_POINT('',(1.85442955807028,0.,0.786644294733259));
#201=CARTESIAN_POINT('',(1.7798734281237,0.,0.769119166549625));
#202=CARTESIAN_POINT('',(1.7055242323505,0.,0.743830640849944));
#203=CARTESIAN_POINT('',(1.6325643255552,0.,0.710627205463802));
#204=CARTESIAN_POINT('',(1.56223219729189,0.,0.669596408974921));
#205=CARTESIAN_POINT('',(1.49576149888062,0.,0.621082550059875));
#206=CARTESIAN_POINT('',(1.43431457505076,0.,0.565685424949238));
#207=CARTESIAN_POINT('',(1.37891744994013,0.,0.504238501119385));
#208=CARTESIAN_POINT('',(1.33040359102508,0.,0.437767802708114));
#209=CARTESIAN_POINT('',(1.2893727945362,0.,0.367435674444803));
#210=CARTESIAN_POINT('',(1.25616935915006,0.,0.294475767649498));
#211=CARTESIAN_POINT('',(1.23088083345037,0.,0.220126571876296));
#212=CARTESIAN_POINT('',(1.21335570526674,0.,0.145570441929716));
#213=CARTESIAN_POINT('',(1.2032360731097,0.,0.0718835503181637));
#214=CARTESIAN_POINT('',(1.2,0.,0.));
#215=CARTESIAN_POINT('',(1.2032360731097,0.,-0.0718835503181637));
#216=CARTESIAN_POINT('',(1.21335570526674,0.,-0.145570441929716));
#217=CARTESIAN_POINT('',(1.23088083345037,0.,-0.220126571876296));
#218=CARTESIAN_POINT('',(1.25616935915006,0.,-0.294475767649498));
#219=CARTESIAN_POINT('',(1.2893727945362,0.,-0.367435674444803));
#220=CARTESIAN_POINT('',(1.33040359102508,0.,-0.437767802708114));
#221=CARTESIAN_POINT('',(1.37891744994013,0.,-0.504238501119385));
#222=CARTESIAN_POINT('',(1.43431457505076,0.,-0.565685424949238));
#223=CARTESIAN_POINT('',(1.49576149888062,0.,-0.621082550059875));
#224=CARTESIAN_POINT('',(1.56223219729189,0.,-0.669596408974921));
#225=CARTESIAN_POINT('',(1.6325643255552,0.,-0.710627205463802));
#226=CARTESIAN_POINT('',(1.7055242323505,0.,-0.743830640849944));
#227=CARTESIAN_POINT('',(1.7798734281237,0.,-0.769119166549625));
#228=CARTESIAN_POINT('',(1.85442955807028,0.,-0.786644294733259));
#229=CARTESIAN_POINT('',(1.92811644968184,0.,-0.796763926890303));
#230=CARTESIAN_POINT('',(2.,0.,-0.8));
#231=CARTESIAN_POINT('',(2.07188355031816,0.,-0.796763926890303));
#232=CARTESIAN_POINT('',(2.14557044192972,0.,-0.786644294733259));
#233=CARTESIAN_POINT('',(2.2201265718763,0.,-0.769119166549625));
#234=CARTESIAN_POINT('',(2.2944757676495,0.,-0.743830640849944));
#235=CARTESIAN_POINT('',(2.3674356744448,0.,-0.710627205463802));
#236=CARTESIAN_POINT('',(2.43776780270811,0.,-0.669596408974921));
#237=CARTESIAN_POINT('',(2.50423850111938,0.,-0.621082550059875));
#238=CARTESIAN_POINT('',(2.56568542494924,0.,-0.565685424949238));
#239=CARTESIAN_POINT('',(2.62108255005987,0.,-0.504238501119385));
#240=CARTESIAN_POINT('',(2.66959640897492,0.,-0.437767802708114));
#241=CARTESIAN_POINT('',(2.7106272054638,0.,-0.367435674444803));
#242=CARTESIAN_POINT('',(2.74383064084994,0.,-0.294475767649498));
#243=CARTESIAN_POINT('',(2.76911916654963,0.,-0.220126571876296));
#244=CARTESIAN_POINT('',(2.78664429473326,0.,-0.145570441929716));
#245=CARTESIAN_POINT('',(2.7967639268903,0.,-0.0718835503181637));
#246=CARTESIAN_POINT('',(2.8,0.,0.));
#247=B_SPLINE_CURVE_WITH_KNOTS('',3,(#182,#183,#184,#185,#186,#187,#188,#189,#190,#191,#192,#193,#194,#195,#196,#197,#198,#199,#200,#201,#202,#203,#204,#205,#206,#207,#208,#209,#210,#211,#212,#213,#214,#215,#216,#217,#218,#219,#220,#221,#222,#223,#224,#225,#226,#227,#228,#229,#230,#231,#232,#233,#234,#235,#236,#237,#238,#239,#240,#241,#242,#243,#244,#245,#246),.UNSPECIFIED.,.F.,.U.,(4,1,1,1,1,1,1,1,1,1,1,1,1,1,1,1,1,1,1,1,1,1,1,1,1,1,1,1,1,1,1,1,1,1,1,1,1,1,1,1,1,1,1,1,1,1,1,1,1,1,1,1,1,1,1,1,1,1,1,1,1,1,4),(0.,0.0809421400272932,0.161884280054586,0.24282642008188,0.323768560109173,0.404710700136466,0.485652840163759,0.566594980191052,0.647537120218346,0.728479260245639,0.809421400272932,0.890363540300225,0.971305680327518,1.05224782035481,1.1331899603821,1.2141321004094,1.29507424043669,1.37601638046398,1.45695852049128,1.53790066051857,1.61884280054586,1.69978494057316,1.78072708060045,1.86166922062774,1.94261136065504,2.02355350068233,2.10449564070962,2.18543778073692,2.26637992076421,2.3473220607915,2.4282642008188,2.50920634084609,2.59014848087338,2.67109062090068,2.75203276092797,2.83297490095526,2.91391704098256,2.99485918100985,3.07580132103714,3.15674346106444,3.23768560109173,3.31862774111902,3.39956988114631,3.48051202117361,3.5614541612009,3.64239630122819,3.72333844125549,3.80428058128278,3.88522272131007,3.96616486133737,4.04710700136466,4.12804914139195,4.20899128141925,4.28993342144654,4.37087556147383,4.45181770150113,4.53275984152842,4.61370198155571,4.69464412158301,4.7755862616103,4.85652840163759,4.93747054166489,5.01841268169218),.UNSPECIFIED.);
#248=CARTESIAN_POINT('',(6.28318530717959,0.));
#249=CARTESIAN_POINT('',(6.28318530717959,0.120653001309692));
#250=CARTESIAN_POINT('',(6.28318530717959,0.246542248853104));
#251=CARTESIAN_POINT('',(6.28318530717959,0.37695902154121));
#252=CARTESIAN_POINT('',(6.28318530717959,0.510990747297044));
#253=CARTESIAN_POINT('',(6.28318530717959,0.64754569593762));
#254=CARTESIAN_POINT('',(6.28318530717959,0.785398163397448));
#255=CARTESIAN_POINT('',(6.28318530717959,0.923250630857277));
#256=CARTESIAN_POINT('',(6.28318530717959,1.05980557949785));
#257=CARTESIAN_POINT('',(6.28318530717959,1.19383730525369));
#258=CARTESIAN_POINT('',(6.28318530717959,1.32425407794179));
#259=CARTESIAN_POINT('',(6.28318530717959,1.4501433254852));
#260=CARTESIAN_POINT('',(6.28318530717959,1.5707963267949));
#261=CARTESIAN_POINT('',(6.28318530717959,1.69144932810459));
#262=CARTESIAN_POINT('',(6.28318530717959,1.817338575648));
#263=CARTESIAN_POINT('',(6.28318530717959,1.94775534833611));
#264=CARTESIAN_POINT('',(6.28318530717959,2.08178707409194));
#265=CARTESIAN_POINT('',(6.28318530717959,2.21834202273252));
#266=CARTESIAN_POINT('',(6.28318530717959,2.35619449019234));
#267=CARTESIAN_POINT('',(6.28318530717959,2.49404695765217));
#268=CARTESIAN_POINT('',(6.28318530717959,2.63060190629275));
#269=CARTESIAN_POINT('',(6.28318530717959,2.76463363204858));
#270=CARTESIAN_POINT('',(6.28318530717959,2.89505040473669));
#271=CARTESIAN_POINT('',(6.28318530717959,3.0209396522801));
#272=CARTESIAN_POINT('',(6.28318530717959,3.14159265358979));
#273=CARTESIAN_POINT('',(6.28318530717959,3.26224565489949));
#274=CARTESIAN_POINT('',(6.28318530717959,3.3881349024429));
#275=CARTESIAN_POINT('',(6.28318530717959,3.518551675131));
#276=CARTESIAN_POINT('',(6.28318530717959,3.65258340088684));
#277=CARTESIAN_POINT('',(6.28318530717959,3.78913834952741));
#278=CARTESIAN_POINT('',(6.28318530717959,3.92699081698724));
#279=CARTESIAN_POINT('',(6.28318530717959,4.06484328444707));
#280=CARTESIAN_POINT('',(6.28318530717959,4.20139823308765));
#281=CARTESIAN_POINT('',(6.28318530717959,4.33542995884348));
#282=CARTESIAN_POINT('',(6.28318530717959,4.46584673153159));
#283=CARTESIAN_POINT('',(6.28318530717959,4.591735979075));
#284=CARTESIAN_POINT('',(6.28318530717959,4.71238898038469));
#285=CARTESIAN_POINT('',(6.28318530717959,4.83304198169438));
#286=CARTESIAN_POINT('',(6.28318530717959,4.95893122923779));
#287=CARTESIAN_POINT('',(6.28318530717959,5.0893480019259));
#288=CARTESIAN_POINT('',(6.28318530717959,5.22337972768173));
#289=CARTESIAN_POINT('',(6.28318530717959,5.35993467632231));
#290=CARTESIAN_POINT('',(6.28318530717959,5.49778714378214));
#291=CARTESIAN_POINT('',(6.28318530717959,5.63563961124197));
#292=CARTESIAN_POINT('',(6.28318530717959,5.77219455988254));
#293=CARTESIAN_POINT('',(6.28318530717959,5.90622628563838));
#294=CARTESIAN_POINT('',(6.28318530717959,6.03664305832648));
#295=CARTESIAN_POINT('',(6.28318530717959,6.16253230586989));
#296=CARTESIAN_POINT('',(6.28318530717959,6.28318530717959));
#297=B_SPLINE_CURVE_WITH_KNOTS('',1,(#248,#249,#250,#251,#252,#253,#254,#255,#256,#257,#258,#259,#260,#261,#262,#263,#264,#265,#266,#267,#268,#269,#270,#271,#272,#273,#274,#275,#276,#277,#278,#279,#280,#281,#282,#283,#284,#285,#286,#287,#288,#289,#290,#291,#292,#293,#294,#295,#296),.UNSPECIFIED.,.F.,.U.,(2,1,1,1,1,1,1,1,1,1,1,1,1,1,1,1,1,1,1,1,1,1,1,1,1,1,1,1,1,1,1,1,1,1,1,1,1,1,1,1,1,1,1,1,1,1,1,1,2),(0.,0.130899693899575,0.261799387799149,0.392699081698724,0.523598775598299,0.654498469497873,0.785398163397448,0.916297857297023,1.0471975511966,1.17809724509617,1.30899693899575,1.43989663289532,1.5707963267949,1.70169602069447,1.83259571459405,1.96349540849362,2.0943951023932,2.22529479629277,2.35619449019234,2.48709418409192,2.61799387799149,2.74889357189107,2.87979326579064,3.01069295969022,3.14159265358979,3.27249234748937,3.40339204138894,3.53429173528852,3.66519142918809,3.79609112308767,3.92699081698724,4.05789051088682,4.18879020478639,4.31968989868597,4.45058959258554,4.58148928648511,4.71238898038469,4.84328867428426,4.97418836818384,5.10508806208341,5.23598775598299,5.36688744988256,5.49778714378214,5.62868683768171,5.75958653158129,5.89048622548086,6.02138591938044,6.15228561328001,6.28318530717959),.UNSPECIFIED.);
#298=DEFINITIONAL_REPRESENTATION('',(#297),#122);
#299=PCURVE('',#5,#298);
#300=CARTESIAN_POINT('',(0.,0.));
#301=CARTESIAN_POINT('',(0.,0.120653001309693));
#302=CARTESIAN_POINT('',(0.,0.246542248853104));
#303=CARTESIAN_POINT('',(0.,0.376959021541211));
#304=CARTESIAN_POINT('',(0.,0.510990747297043));
#305=CARTESIAN_POINT('',(0.,0.64754569593762));
#306=CARTESIAN_POINT('',(0.,0.785398163397448));
#307=CARTESIAN_POINT('',(0.,0.923250630857277));
#308=CARTESIAN_POINT('',(0.,1.05980557949785));
#309=CARTESIAN_POINT('',(0.,1.19383730525369));
#310=CARTESIAN_POINT('',(0.,1.32425407794179));
#311=CARTESIAN_POINT('',(0.,1.4501433254852));
#312=CARTESIAN_POINT('',(0.,1.5707963267949));
#313=CARTESIAN_POINT('',(0.,1.69144932810459));
#314=CARTESIAN_POINT('',(0.,1.817338575648));
#315=CARTESIAN_POINT('',(0.,1.94775534833611));
#316=CARTESIAN_POINT('',(0.,2.08178707409194));
#317=CARTESIAN_POINT('',(0.,2.21834202273252));
#318=CARTESIAN_POINT('',(0.,2.35619449019234));
#319=CARTESIAN_POINT('',(0.,2.49404695765217));
#320=CARTESIAN_POINT('',(0.,2.63060190629275));
#321=CARTESIAN_POINT('',(0.,2.76463363204858));
#322=CARTESIAN_POINT('',(0.,2.89505040473669));
#323=CARTESIAN_POINT('',(0.,3.0209396522801));
#324=CARTESIAN_POINT('',(0.,3.14159265358979));
#325=CARTESIAN_POINT('',(0.,3.26224565489948));
#326=CARTESIAN_POINT('',(0.,3.3881349024429));
#327=CARTESIAN_POINT('',(0.,3.518551675131));
#328=CARTESIAN_POINT('',(0.,3.65258340088684));
#329=CARTESIAN_POINT('',(0.,3.78913834952741));
#330=CARTESIAN_POINT('',(0.,3.92699081698724));
#331=CARTESIAN_POINT('',(0.,4.06484328444707));
#332=CARTESIAN_POINT('',(0.,4.20139823308765));
#333=CARTESIAN_POINT('',(0.,4.33542995884348));
#334=CARTESIAN_POINT('',(0.,4.46584673153158));
#335=CARTESIAN_POINT('',(0.,4.591735979075));
#336=CARTESIAN_POINT('',(0.,4.71238898038469));
#337=CARTESIAN_POINT('',(0.,4.83304198169438));
#338=CARTESIAN_POINT('',(0.,4.95893122923779));
#339=CARTESIAN_POINT('',(0.,5.0893480019259));
#340=CARTESIAN_POINT('',(0.,5.22337972768173));
#341=CARTESIAN_POINT('',(0.,5.35993467632231));
#342=CARTESIAN_POINT('',(0.,5.49778714378214));
#343=CARTESIAN_POINT('',(0.,5.63563961124197));
#344=CARTESIAN_POINT('',(0.,5.77219455988254));
#345=CARTESIAN_POINT('',(0.,5.90622628563838));
#346=CARTESIAN_POINT('',(0.,6.03664305832648));
#347=CARTESIAN_POINT('',(0.,6.16253230586989));
#348=CARTESIAN_POINT('',(0.,6.28318530717959));
#349=B_SPLINE_CURVE_WITH_KNOTS('',1,(#300,#301,#302,#303,#304,#305,#306,#307,#308,#309,#310,#311,#312,#313,#314,#315,#316,#317,#318,#319,#320,#321,#322,#323,#324,#325,#326,#327,#328,#329,#330,#331,#332,#333,#334,#335,#336,#337,#338,#339,#340,#341,#342,#343,#344,#345,#346,#347,#348),.UNSPECIFIED.,.F.,.U.,(2,1,1,1,1,1,1,1,1,1,1,1,1,1,1,1,1,1,1,1,1,1,1,1,1,1,1,1,1,1,1,1,1,1,1,1,1,1,1,1,1,1,1,1,1,1,1,1,2),(0.,0.130899693899575,0.26179938779915,0.392699081698725,0.523598775598299,0.654498469497874,0.785398163397448,0.916297857297024,1.0471975511966,1.17809724509617,1.30899693899575,1.43989663289532,1.5707963267949,1.70169602069447,1.83259571459405,1.96349540849362,2.0943951023932,2.22529479629277,2.35619449019235,2.48709418409192,2.61799387799149,2.74889357189107,2.87979326579064,3.01069295969022,3.14159265358979,3.27249234748937,3.40339204138894,3.53429173528852,3.66519142918809,3.79609112308767,3.92699081698724,4.05789051088682,4.18879020478639,4.31968989868597,4.45058959258554,4.58148928648512,4.71238898038469,4.84328867428426,4.97418836818384,5.10508806208341,5.23598775598299,5.36688744988256,5.49778714378214,5.62868683768171,5.75958653158129,5.89048622548086,6.02138591938044,6.15228561328001,6.28318530717959),.UNSPECIFIED.);
#350=DEFINITIONAL_REPRESENTATION('',(#349),#122);
#351=PCURVE('',#5,#350);
#352=SEAM_CURVE('',#247,(#299,#351),.PCURVE_S1.);
#353=EDGE_CURVE('',#179,#179,#352,.T.);
#354=ORIENTED_EDGE('',*,*,#353,.T.);
#355=ORIENTED_EDGE('',*,*,#180,.F.);
#356=ORIENTED_EDGE('',*,*,#353,.F.);
#357=EDGE_LOOP('',(#181,#354,#355,#356));
#358=FACE_OUTER_BOUND('',#357,.T.);
#359=ADVANCED_FACE('',(#358),#5,.T.);
#360=CLOSED_SHELL('',(#359));
#361=MANIFOLD_SOLID_BREP('',#360);
#362=CARTESIAN_POINT('',(0.,0.,0.));
#363=DIRECTION('',(0.,0.,1.));
#364=DIRECTION('',(1.,0.,0.));
#365=AXIS2_PLACEMENT_3D('',#362,#363,#364);
#366=(LENGTH_UNIT()NAMED_UNIT(*)SI_UNIT(.MILLI.,.METRE.));
#367=(NAMED_UNIT(*)PLANE_ANGLE_UNIT()SI_UNIT($,.RADIAN.));
#368=(NAMED_UNIT(*)SI_UNIT($,.STERADIAN.)SOLID_ANGLE_UNIT());
#369=UNCERTAINTY_MEASURE_WITH_UNIT(LENGTH_MEASURE(0.005),#366,'distance_accuracy_value','');
#370=(GEOMETRIC_REPRESENTATION_CONTEXT(3)GLOBAL_UNCERTAINTY_ASSIGNED_CONTEXT((#369))GLOBAL_UNIT_ASSIGNED_CONTEXT((#366,#367,#368))REPRESENTATION_CONTEXT('',''));
#371=APPLICATION_CONTEXT('core data for automotive mechanical design processes');
#372=APPLICATION_PROTOCOL_DEFINITION('international standard','automotive_design',2000,#371);
#373=PRODUCT_CONTEXT('',#371,'mechanical');
#374=PRODUCT('torus','torus','',(#373));
#375=PRODUCT_DEFINITION_FORMATION('','',#374);
#376=PRODUCT_DEFINITION_CONTEXT('part definition',#371,'design');
#377=PRODUCT_DEFINITION('design','',#375,#376);
#378=PRODUCT_DEFINITION_SHAPE('','',#377);
#379=ADVANCED_BREP_SHAPE_REPRESENTATION('torus',(#365,#361),#370);
#380=SHAPE_DEFINITION_REPRESENTATION(#378,#379);
ENDSEC;
END-ISO-10303-21;
