ISO-10303-21;
HEADER;
FILE_DESCRIPTION((''),'2;1');
FILE_NAME('','',(''),(''),'','','');
FILE_SCHEMA(('AUTOMOTIVE_DESIGN'));
ENDSEC;
DATA;
#1=CARTESIAN_POINT('',(0.,0.,4.));
#2=DIRECTION('',(0.,0.,-1.));
#3=DIRECTION('',(1.,0.,0.));
#4=AXIS2_PLACEMENT_3D('',#1,#2,#3);
#5=CONICAL_SURFACE('',#4,0.,0.463647609000806);
#6=CARTESIAN_POINT('',(2.,0.,0.));
#7=CARTESIAN_POINT('',(2.,2.,0.));
#8=CARTESIAN_POINT('',(0.,2.,0.));
#9=CARTESIAN_POINT('',(-2.,2.,0.));
#10=CARTESIAN_POINT('',(-2.,0.,0.));
#11=CARTESIAN_POINT('',(-2.,-2.,0.));
#12=CARTESIAN_POINT('',(0.,-2.,0.));
#13=CARTESIAN_POINT('',(2.,-2.,0.));
#14=CARTESIAN_POINT('',(2.,0.,0.));
#15=(BOUNDED_CURVE()B_SPLINE_CURVE(2,(#6,#7,#8,#9,#10,#11,#12,#13,#14),.UNSPECIFIED.,.F.,.U.)B_SPLINE_CURVE_WITH_KNOTS((3,2,2,2,3),(0.,1.,2.,3.,4.),.UNSPECIFIED.)CURVE()GEOMETRIC_REPRESENTATION_ITEM()RATIONAL_B_SPLINE_CURVE((1.,0.707106781186548,1.,0.707106781186548,1.,0.707106781186548,1.,0.707106781186548,1.))REPRESENTATION_ITEM(''));
#16=CARTESIAN_POINT('',(0.,4.47213595499958));
#17=CARTESIAN_POINT('',(-0.120653001309692,4.47213595499958));
#18=CARTESIAN_POINT('',(-0.246542248853104,4.47213595499958));
#19=CARTESIAN_POINT('',(-0.37695902154121,4.47213595499958));
#20=CARTESIAN_POINT('',(-0.510990747297044,4.47213595499958));
#21=CARTESIAN_POINT('',(-0.64754569593762,4.47213595499958));
#22=CARTESIAN_POINT('',(-0.785398163397448,4.47213595499958));
#23=CARTESIAN_POINT('',(-0.923250630857277,4.47213595499958));
#24=CARTESIAN_POINT('',(-1.05980557949785,4.47213595499958));
#25=CARTESIAN_POINT('',(-1.19383730525369,4.47213595499958));
#26=CARTESIAN_POINT('',(-1.32425407794179,4.47213595499958));
#27=CARTESIAN_POINT('',(-1.4501433254852,4.47213595499958));
#28=CARTESIAN_POINT('',(-1.5707963267949,4.47213595499958));
#29=CARTESIAN_POINT('',(-1.69144932810459,4.47213595499958));
#30=CARTESIAN_POINT('',(-1.817338575648,4.47213595499958));
#31=CARTESIAN_POINT('',(-1.94775534833611,4.47213595499958));
#32=CARTESIAN_POINT('',(-2.08178707409194,4.47213595499958));
#33=CARTESIAN_POINT('',(-2.21834202273252,4.47213595499958));
#34=CARTESIAN_POINT('',(-2.35619449019234,4.47213595499958));
#35=CARTESIAN_POINT('',(-2.49404695765217,4.47213595499958));
#36=CARTESIAN_POINT('',(-2.63060190629275,4.47213595499958));
#37=CARTESIAN_POINT('',(-2.76463363204858,4.47213595499958));
#38=CARTESIAN_POINT('',(-2.89505040473669,4.47213595499958));
#39=CARTESIAN_POINT('',(-3.0209396522801,4.47213595499958));
#40=CARTESIAN_POINT('',(-3.14159265358979,4.47213595499958));
#41=CARTESIAN_POINT('',(-3.26224565489949,4.47213595499958));
#42=CARTESIAN_POINT('',(-3.3881349024429,4.47213595499958));
#43=CARTESIAN_POINT('',(-3.518551675131,4.47213595499958));
#44=CARTESIAN_POINT('',(-3.65258340088684,4.47213595499958));
#45=CARTESIAN_POINT('',(-3.78913834952741,4.47213595499958));
#46=CARTESIAN_POINT('',(-3.92699081698724,4.47213595499958));
#47=CARTESIAN_POINT('',(-4.06484328444707,4.47213595499958));
#48=CARTESIAN_POINT('',(-4.20139823308765,4.47213595499958));
#49=CARTESIAN_POINT('',(-4.33542995884348,4.47213595499958));
#50=CARTESIAN_POINT('',(-4.46584673153159,4.47213595499958));
#51=CARTESIAN_POINT('',(-4.591735979075,4.47213595499958));
#52=CARTESIAN_POINT('',(-4.71238898038469,4.47213595499958));
#53=CARTESIAN_POINT('',(-4.83304198169438,4.47213595499958));
#54=CARTESIAN_POINT('',(-4.95893122923779,4.47213595499958));
#55=CARTESIAN_POINT('',(-5.0893480019259,4.47213595499958));
#56=CARTESIAN_POINT('',(-5.22337972768173,4.47213595499958));
#57=CARTESIAN_POINT('',(-5.35993467632231,4.47213595499958));
#58=CARTESIAN_POINT('',(-5.49778714378214,4.47213595499958));
#59=CARTESIAN_POINT('',(-5.63563961124197,4.47213595499958));
#60=CARTESIAN_POINT('',(-5.77219455988254,4.47213595499958));
#61=CARTESIAN_POINT('',(-5.90622628563838,4.47213595499958));
#62=CARTESIAN_POINT('',(-6.03664305832648,4.47213595499958));
#63=CARTESIAN_POINT('',(-6.16253230586989,4.47213595499958));
#64=CARTESIAN_POINT('',(-6.28318530717959,4.47213595499958));
#65=B_SPLINE_CURVE_WITH_KNOTS('',1,(#16,#17,#18,#19,#20,#21,#22,#23,#24,#25,#26,#27,#28,#29,#30,#31,#32,#33,#34,#35,#36,#37,#38,#39,#40,#41,#42,#43,#44,#45,#46,#47,#48,#49,#50,#51,#52,#53,#54,#55,#56,#57,#58,#59,#60,#61,#62,#63,#64),.UNSPECIFIED.,.F.,.U.,(2,1,1,1,1,1,1,1,1,1,1,1,1,1,1,1,1,1,1,1,1,1,1,1,1,1,1,1,1,1,1,1,1,1,1,1,1,1,1,1,1,1,1,1,1,1,1,1,2),(0.,0.130899693899575,0.261799387799149,0.392699081698724,0.523598775598299,0.654498469497873,0.785398163397448,0.916297857297023,1.0471975511966,1.17809724509617,1.30899693899575,1.43989663289532,1.5707963267949,1.70169602069447,1.83259571459405,1.96349540849362,2.0943951023932,2.22529479629277,2.35619449019234,2.48709418409192,2.61799387799149,2.74889357189107,2.87979326579064,3.01069295969022,3.14159265358979,3.27249234748937,3.40339204138894,3.53429173528852,3.66519142918809,3.79609112308767,3.92699081698724,4.05789051088682,4.18879020478639,4.31968989868597,4.45058959258554,4.58148928648511,4.71238898038469,4.84328867428426,4.97418836818384,5.10508806208341,5.23598775598299,5.36688744988256,5.49778714378214,5.62868683768171,5.75958653158129,5.89048622548086,6.02138591938044,6.15228561328001,6.28318530717959),.UNSPECIFIED.);
#66=(GEOMETRIC_REPRESENTATION_CONTEXT(2)PARAMETRIC_REPRESENTATION_CONTEXT()REPRESENTATION_CONTEXT('2D SPACE',''));
#67=DEFINITIONAL_REPRESENTATION('',(#65),#66);
#68=PCURVE('',#5,#67);
#69=CARTESIAN_POINT('',(-2.,-2.,0.));
#70=DIRECTION('',(0.,0.,1.));
#71=DIRECTION('',(1.,0.,0.));
#72=AXIS2_PLACEMENT_3D('',#69,#70,#71);
#73=PLANE('',#72);
#74=CARTESIAN_POINT('',(4.,2.));
#75=CARTESIAN_POINT('',(3.98546050391833,2.2407209741181));
#76=CARTESIAN_POINT('',(3.93952417831267,2.48810445781673));
#77=CARTESIAN_POINT('',(3.85957660212486,2.73618941912375));
#78=CARTESIAN_POINT('',(3.74452083820543,2.97808335282174));
#79=CARTESIAN_POINT('',(3.59513342172932,3.20646150658946));
#80=CARTESIAN_POINT('',(3.41421356237309,3.41421356237309));
#81=CARTESIAN_POINT('',(3.20646150658946,3.59513342172932));
#82=CARTESIAN_POINT('',(2.97808335282174,3.74452083820543));
#83=CARTESIAN_POINT('',(2.73618941912375,3.85957660212486));
#84=CARTESIAN_POINT('',(2.48810445781673,3.93952417831267));
#85=CARTESIAN_POINT('',(2.2407209741181,3.98546050391833));
#86=CARTESIAN_POINT('',(2.,4.));
#87=CARTESIAN_POINT('',(1.7592790258819,3.98546050391833));
#88=CARTESIAN_POINT('',(1.51189554218327,3.93952417831267));
#89=CARTESIAN_POINT('',(1.26381058087625,3.85957660212486));
#90=CARTESIAN_POINT('',(1.02191664717826,3.74452083820543));
#91=CARTESIAN_POINT('',(0.793538493410537,3.59513342172932));
#92=CARTESIAN_POINT('',(0.585786437626905,3.41421356237309));
#93=CARTESIAN_POINT('',(0.404866578270682,3.20646150658946));
#94=CARTESIAN_POINT('',(0.255479161794566,2.97808335282174));
#95=CARTESIAN_POINT('',(0.140423397875139,2.73618941912375));
#96=CARTESIAN_POINT('',(0.0604758216873307,2.48810445781673));
#97=CARTESIAN_POINT('',(0.0145394960816683,2.2407209741181));
#98=CARTESIAN_POINT('',(0.,2.));
#99=CARTESIAN_POINT('',(0.0145394960816683,1.7592790258819));
#100=CARTESIAN_POINT('',(0.0604758216873302,1.51189554218327));
#101=CARTESIAN_POINT('',(0.140423397875139,1.26381058087625));
#102=CARTESIAN_POINT('',(0.255479161794566,1.02191664717826));
#103=CARTESIAN_POINT('',(0.404866578270682,0.793538493410537));
#104=CARTESIAN_POINT('',(0.585786437626905,0.585786437626905));
#105=CARTESIAN_POINT('',(0.793538493410537,0.404866578270682));
#106=CARTESIAN_POINT('',(1.02191664717826,0.255479161794566));
#107=CARTESIAN_POINT('',(1.26381058087625,0.140423397875139));
#108=CARTESIAN_POINT('',(1.51189554218327,0.0604758216873305));
#109=CARTESIAN_POINT('',(1.7592790258819,0.0145394960816683));
#110=CARTESIAN_POINT('',(2.,0.));
#111=CARTESIAN_POINT('',(2.2407209741181,0.0145394960816685));
#112=CARTESIAN_POINT('',(2.48810445781673,0.0604758216873307));
#113=CARTESIAN_POINT('',(2.73618941912375,0.140423397875139));
#114=CARTESIAN_POINT('',(2.97808335282174,0.255479161794566));
#115=CARTESIAN_POINT('',(3.20646150658946,0.404866578270682));
#116=CARTESIAN_POINT('',(3.41421356237309,0.585786437626905));
#117=CARTESIAN_POINT('',(3.59513342172932,0.793538493410537));
#118=CARTESIAN_POINT('',(3.74452083820543,1.02191664717826));
#119=CARTESIAN_POINT('',(3.85957660212486,1.26381058087625));
#120=CARTESIAN_POINT('',(3.93952417831267,1.51189554218327));
#121=CARTESIAN_POINT('',(3.98546050391833,1.7592790258819));
#122=CARTESIAN_POINT('',(4.,2.));
#123=B_SPLINE_CURVE_WITH_KNOTS('',1,(#74,#75,#76,#77,#78,#79,#80,#81,#82,#83,#84,#85,#86,#87,#88,#89,#90,#91,#92,#93,#94,#95,#96,#97,#98,#99,#100,#101,#102,#103,#104,#105,#106,#107,#108,#109,#110,#111,#112,#113,#114,#115,#116,#117,#118,#119,#120,#121,#122),.UNSPECIFIED.,.F.,.U.,(2,1,1,1,1,1,1,1,1,1,1,1,1,1,1,1,1,1,1,1,1,1,1,1,1,1,1,1,1,1,1,1,1,1,1,1,1,1,1,1,1,1,1,1,1,1,1,1,2),(0.,0.261611324394675,0.523222648789351,0.784833973184026,1.0464452975787,1.30805662197338,1.56966794636805,1.83127927076273,2.0928905951574,2.35450191955208,2.61611324394675,2.87772456834143,3.1393358927361,3.40094721713078,3.66255854152546,3.92416986592013,4.18578119031481,4.44739251470948,4.70900383910416,4.97061516349883,5.23222648789351,5.49383781228818,5.75544913668286,6.01706046107753,6.27867178547221,6.54028310986688,6.80189443426156,7.06350575865624,7.32511708305091,7.58672840744559,7.84833973184026,8.10995105623494,8.37156238062961,8.63317370502429,8.89478502941896,9.15639635381364,9.41800767820831,9.67961900260299,9.94123032699767,10.2028416513923,10.464452975787,10.7260643001817,10.9876756245764,11.249286948971,11.5108982733657,11.7725095977604,12.0341209221551,12.2957322465497,12.5573435709444),.UNSPECIFIED.);
#124=DEFINITIONAL_REPRESENTATION('',(#123),#66);
#125=PCURVE('',#73,#124);
#126=SURFACE_CURVE('',#15,(#68,#125),.PCURVE_S1.);
#127=CARTESIAN_POINT('',(2.,0.,0.));
#128=VERTEX_POINT('',#127);
#129=EDGE_CURVE('',#128,#128,#126,.T.);
#130=ORIENTED_EDGE('',*,*,#129,.T.);
#131=CARTESIAN_POINT('',(2.,0.,0.));
#132=CARTESIAN_POINT('',(0.,0.,4.));
#133=B_SPLINE_CURVE_WITH_KNOTS('',1,(#131,#132),.UNSPECIFIED.,.F.,.U.,(2,2),(0.,4.47213595499958),.UNSPECIFIED.);
#134=CARTESIAN_POINT('',(-6.28318530717959,4.47213595499958));
#135=CARTESIAN_POINT('',(-6.28318530717959,4.37896645593709));
#136=CARTESIAN_POINT('',(-6.28318530717959,4.2857969568746));
#137=CARTESIAN_POINT('',(-6.28318530717959,4.19262745781211));
#138=CARTESIAN_POINT('',(-6.28318530717959,4.09945795874961));
#139=CARTESIAN_POINT('',(-6.28318530717959,4.00628845968712));
#140=CARTESIAN_POINT('',(-6.28318530717959,3.91311896062463));
#141=CARTESIAN_POINT('',(-6.28318530717959,3.81994946156214));
#142=CARTESIAN_POINT('',(-6.28318530717959,3.72677996249965));
#143=CARTESIAN_POINT('',(-6.28318530717959,3.63361046343716));
#144=CARTESIAN_POINT('',(-6.28318530717959,3.54044096437467));
#145=CARTESIAN_POINT('',(-6.28318530717959,3.44727146531218));
#146=CARTESIAN_POINT('',(-6.28318530717959,3.35410196624968));
#147=CARTESIAN_POINT('',(-6.28318530717959,3.26093246718719));
#148=CARTESIAN_POINT('',(-6.28318530717959,3.1677629681247));
#149=CARTESIAN_POINT('',(-6.28318530717959,3.07459346906221));
#150=CARTESIAN_POINT('',(-6.28318530717959,2.98142396999972));
#151=CARTESIAN_POINT('',(-6.28318530717959,2.88825447093723));
#152=CARTESIAN_POINT('',(-6.28318530717959,2.79508497187474));
#153=CARTESIAN_POINT('',(-6.28318530717959,2.70191547281225));
#154=CARTESIAN_POINT('',(-6.28318530717959,2.60874597374975));
#155=CARTESIAN_POINT('',(-6.28318530717959,2.51557647468726));
#156=CARTESIAN_POINT('',(-6.28318530717959,2.42240697562477));
#157=CARTESIAN_POINT('',(-6.28318530717959,2.32923747656228));
#158=CARTESIAN_POINT('',(-6.28318530717959,2.23606797749979));
#159=CARTESIAN_POINT('',(-6.28318530717959,2.1428984784373));
#160=CARTESIAN_POINT('',(-6.28318530717959,2.04972897937481));
#161=CARTESIAN_POINT('',(-6.28318530717959,1.95655948031232));
#162=CARTESIAN_POINT('',(-6.28318530717959,1.86338998124982));
#163=CARTESIAN_POINT('',(-6.28318530717959,1.77022048218733));
#164=CARTESIAN_POINT('',(-6.28318530717959,1.67705098312484));
#165=CARTESIAN_POINT('',(-6.28318530717959,1.58388148406235));
#166=CARTESIAN_POINT('',(-6.28318530717959,1.49071198499986));
#167=CARTESIAN_POINT('',(-6.28318530717959,1.39754248593737));
#168=CARTESIAN_POINT('',(-6.28318530717959,1.30437298687488));
#169=CARTESIAN_POINT('',(-6.28318530717959,1.21120348781239));
#170=CARTESIAN_POINT('',(-6.28318530717959,1.11803398874989));
#171=CARTESIAN_POINT('',(-6.28318530717959,1.0248644896874));
#172=CARTESIAN_POINT('',(-6.28318530717959,0.931694990624913));
#173=CARTESIAN_POINT('',(-6.28318530717959,0.838525491562421));
#174=CARTESIAN_POINT('',(-6.28318530717959,0.74535599249993));
#175=CARTESIAN_POINT('',(-6.28318530717959,0.652186493437439));
#176=CARTESIAN_POINT('',(-6.28318530717959,0.559016994374947));
#177=CARTESIAN_POINT('',(-6.28318530717959,0.465847495312456));
#178=CARTESIAN_POINT('',(-6.28318530717959,0.372677996249965));
#179=CARTESIAN_POINT('',(-6.28318530717959,0.279508497187474));
#180=CARTESIAN_POINT('',(-6.28318530717959,0.186338998124982));
#181=CARTESIAN_POINT('',(-6.28318530717959,0.0931694990624914));
#182=CARTESIAN_POINT('',(-6.28318530717959,0.));
#183=B_SPLINE_CURVE_WITH_KNOTS('',1,(#134,#135,#136,#137,#138,#139,#140,#141,#142,#143,#144,#145,#146,#147,#148,#149,#150,#151,#152,#153,#154,#155,#156,#157,#158,#159,#160,#161,#162,#163,#164,#165,#166,#167,#168,#169,#170,#171,#172,#173,#174,#175,#176,#177,#178,#179,#180,#181,#182),.UNSPECIFIED.,.F.,.U.,(2,1,1,1,1,1,1,1,1,1,1,1,1,1,1,1,1,1,1,1,1,1,1,1,1,1,1,1,1,1,1,1,1,1,1,1,1,1,1,1,1,1,1,1,1,1,1,1,2),(0.,0.0931694990624912,0.186338998124982,0.279508497187474,0.372677996249965,0.465847495312456,0.559016994374947,0.652186493437439,0.74535599249993,0.838525491562421,0.931694990624912,1.0248644896874,1.11803398874989,1.21120348781239,1.30437298687488,1.39754248593737,1.49071198499986,1.58388148406235,1.67705098312484,1.77022048218733,1.86338998124982,1.95655948031232,2.04972897937481,2.1428984784373,2.23606797749979,2.32923747656228,2.42240697562477,2.51557647468726,2.60874597374975,2.70191547281225,2.79508497187474,2.88825447093723,2.98142396999972,3.07459346906221,3.1677629681247,3.26093246718719,3.35410196624968,3.44727146531218,3.54044096437467,3.63361046343716,3.72677996249965,3.81994946156214,3.91311896062463,4.00628845968712,4.09945795874961,4.19262745781211,4.2857969568746,4.37896645593709,4.47213595499958),.UNSPECIFIED.);
#184=DEFINITIONAL_REPRESENTATION('',(#183),#66);
#185=PCURVE('',#5,#184);
#186=CARTESIAN_POINT('',(0.,4.47213595499958));
#187=CARTESIAN_POINT('',(0.,4.37896645593709));
#188=CARTESIAN_POINT('',(0.,4.2857969568746));
#189=CARTESIAN_POINT('',(0.,4.19262745781211));
#190=CARTESIAN_POINT('',(0.,4.09945795874961));
#191=CARTESIAN_POINT('',(0.,4.00628845968712));
#192=CARTESIAN_POINT('',(0.,3.91311896062463));
#193=CARTESIAN_POINT('',(0.,3.81994946156214));
#194=CARTESIAN_POINT('',(0.,3.72677996249965));
#195=CARTESIAN_POINT('',(0.,3.63361046343716));
#196=CARTESIAN_POINT('',(0.,3.54044096437467));
#197=CARTESIAN_POINT('',(0.,3.44727146531218));
#198=CARTESIAN_POINT('',(0.,3.35410196624968));
#199=CARTESIAN_POINT('',(0.,3.26093246718719));
#200=CARTESIAN_POINT('',(0.,3.1677629681247));
#201=CARTESIAN_POINT('',(0.,3.07459346906221));
#202=CARTESIAN_POINT('',(0.,2.98142396999972));
#203=CARTESIAN_POINT('',(0.,2.88825447093723));
#204=CARTESIAN_POINT('',(0.,2.79508497187474));
#205=CARTESIAN_POINT('',(0.,2.70191547281225));
#206=CARTESIAN_POINT('',(0.,2.60874597374975));
#207=CARTESIAN_POINT('',(0.,2.51557647468726));
#208=CARTESIAN_POINT('',(0.,2.42240697562477));
#209=CARTESIAN_POINT('',(0.,2.32923747656228));
#210=CARTESIAN_POINT('',(0.,2.23606797749979));
#211=CARTESIAN_POINT('',(0.,2.1428984784373));
#212=CARTESIAN_POINT('',(0.,2.04972897937481));
#213=CARTESIAN_POINT('',(0.,1.95655948031232));
#214=CARTESIAN_POINT('',(0.,1.86338998124983));
#215=CARTESIAN_POINT('',(0.,1.77022048218733));
#216=CARTESIAN_POINT('',(0.,1.67705098312484));
#217=CARTESIAN_POINT('',(0.,1.58388148406235));
#218=CARTESIAN_POINT('',(0.,1.49071198499986));
#219=CARTESIAN_POINT('',(0.,1.39754248593737));
#220=CARTESIAN_POINT('',(0.,1.30437298687488));
#221=CARTESIAN_POINT('',(0.,1.21120348781239));
#222=CARTESIAN_POINT('',(0.,1.11803398874989));
#223=CARTESIAN_POINT('',(0.,1.0248644896874));
#224=CARTESIAN_POINT('',(0.,0.931694990624913));
#225=CARTESIAN_POINT('',(0.,0.838525491562421));
#226=CARTESIAN_POINT('',(0.,0.74535599249993));
#227=CARTESIAN_POINT('',(0.,0.652186493437439));
#228=CARTESIAN_POINT('',(0.,0.559016994374947));
#229=CARTESIAN_POINT('',(0.,0.465847495312456));
#230=CARTESIAN_POINT('',(0.,0.372677996249965));
#231=CARTESIAN_POINT('',(0.,0.279508497187474));
#232=CARTESIAN_POINT('',(0.,0.186338998124982));
#233=CARTESIAN_POINT('',(0.,0.0931694990624914));
#234=CARTESIAN_POINT('',(0.,0.));
#235=B_SPLINE_CURVE_WITH_KNOTS('',1,(#186,#187,#188,#189,#190,#191,#192,#193,#194,#195,#196,#197,#198,#199,#200,#201,#202,#203,#204,#205,#206,#207,#208,#209,#210,#211,#212,#213,#214,#215,#216,#217,#218,#219,#220,#221,#222,#223,#224,#225,#226,#227,#228,#229,#230,#231,#232,#233,#234),.UNSPECIFIED.,.F.,.U.,(2,1,1,1,1,1,1,1,1,1,1,1,1,1,1,1,1,1,1,1,1,1,1,1,1,1,1,1,1,1,1,1,1,1,1,1,1,1,1,1,1,1,1,1,1,1,1,1,2),(0.,0.0931694990624914,0.186338998124983,0.279508497187474,0.372677996249966,0.465847495312456,0.559016994374947,0.652186493437439,0.74535599249993,0.838525491562421,0.931694990624913,1.0248644896874,1.11803398874989,1.21120348781239,1.30437298687488,1.39754248593737,1.49071198499986,1.58388148406235,1.67705098312484,1.77022048218733,1.86338998124983,1.95655948031232,2.04972897937481,2.1428984784373,2.23606797749979,2.32923747656228,2.42240697562477,2.51557647468726,2.60874597374975,2.70191547281225,2.79508497187474,2.88825447093723,2.98142396999972,3.07459346906221,3.1677629681247,3.26093246718719,3.35410196624968,3.44727146531218,3.54044096437467,3.63361046343716,3.72677996249965,3.81994946156214,3.91311896062463,4.00628845968712,4.09945795874961,4.19262745781211,4.2857969568746,4.37896645593709,4.47213595499958),.UNSPECIFIED.);
#236=DEFINITIONAL_REPRESENTATION('',(#235),#66);
#237=PCURVE('',#5,#236);
#238=SEAM_CURVE('',#133,(#185,#237),.PCURVE_S1.);
#239=CARTESIAN_POINT('',(0.,0.,4.));
#240=VERTEX_POINT('',#239);
#241=EDGE_CURVE('',#128,#240,#238,.T.);
#242=ORIENTED_EDGE('',*,*,#241,.T.);
#243=ORIENTED_EDGE('',*,*,#241,.F.);
#244=EDGE_LOOP('',(#130,#242,#243));
#245=FACE_OUTER_BOUND('',#244,.T.);
#246=ADVANCED_FACE('',(#245),#5,.T.);
#247=ORIENTED_EDGE('',*,*,#129,.T.);
#248=EDGE_LOOP('',(#247));
#249=FACE_OUTER_BOUND('',#248,.T.);
#250=ADVANCED_FACE('',(#249),#73,.F.);
#251=CLOSED_SHELL('',(#246,#250));
#252=MANIFOLD_SOLID_BREP('',#251);
#253=CARTESIAN_POINT('',(0.,0.,0.));
#254=DIRECTION('',(0.,0.,1.));
#255=DIRECTION('',(1.,0.,0.));
#256=AXIS2_PLACEMENT_3D('',#253,#254,#255);
#257=(LENGTH_UNIT()NAMED_UNIT(*)SI_UNIT(.MILLI.,.METRE.));
#258=(NAMED_UNIT(*)PLANE_ANGLE_UNIT()SI_UNIT($,.RADIAN.));
#259=(NAMED_UNIT(*)SI_UNIT($,.STERADIAN.)SOLID_ANGLE_UNIT());
#260=UNCERTAINTY_MEASURE_WITH_UNIT(LENGTH_MEASURE(0.0223606797749979),#257,'distance_accuracy_value','');
#261=(GEOMETRIC_REPRESENTATION_CONTEXT(3)GLOBAL_UNCERTAINTY_ASSIGNED_CONTEXT((#260))GLOBAL_UNIT_ASSIGNED_CONTEXT((#257,#258,#259))REPRESENTATION_CONTEXT('',''));
#262=APPLICATION_CONTEXT('core data for automotive mechanical design processes');
#263=APPLICATION_PROTOCOL_DEFINITION('international standard','automotive_design',2000,#262);
#264=PRODUCT_CONTEXT('',#262,'mechanical');
#265=PRODUCT('cone','cone','',(#264));
#266=PRODUCT_DEFINITION_FORMATION('','',#265);
#267=PRODUCT_DEFINITION_CONTEXT('part definition',#262,'design');
#268=PRODUCT_DEFINITION('design','',#266,#267);
#269=PRODUCT_DEFINITION_SHAPE('','',#268);
#270=ADVANCED_BREP_SHAPE_REPRESENTATION('cone',(#256,#252),#261);
#271=SHAPE_DEFINITION_REPRESENTATION(#269,#270);
ENDSEC;
END-ISO-10303-21;
