ISO-10303-21;
HEADER;
FILE_DESCRIPTION((''),'2;1');
FILE_NAME('','',(''),(''),'','','');
FILE_SCHEMA(('AUTOMOTIVE_DESIGN'));
ENDSEC;
DATA;
#1=CARTESIAN_POINT('',(0.,0.,0.));
#2=DIRECTION('',(0.,0.,1.));
#3=DIRECTION('',(1.,0.,0.));
#4=AXIS2_PLACEMENT_3D('',#1,#2,#3);
#5=SPHERICAL_SURFACE('',#4,2.5);
#6=CARTESIAN_POINT('',(0.,0.,-2.5));
#7=CARTESIAN_POINT('',(0.111450610371645,0.,-2.49751451676417));
#8=CARTESIAN_POINT('',(0.224636094744262,0.,-2.4898872715322));
#9=CARTESIAN_POINT('',(0.339238479442465,0.,-2.47687651167061));
#10=CARTESIAN_POINT('',(0.454907631030362,0.,-2.45826342104144));
#11=CARTESIAN_POINT('',(0.571262906016115,0.,-2.43385675260686));
#12=CARTESIAN_POINT('',(0.687895537113423,0.,-2.40349739546758));
#13=CARTESIAN_POINT('',(0.804371774288198,0.,-2.36706274710419));
#14=CARTESIAN_POINT('',(0.920236773904682,0.,-2.32447075265608));
#15=CARTESIAN_POINT('',(1.03501920133712,0.,-2.27568346939188));
#16=CARTESIAN_POINT('',(1.14823648264001,0.,-2.22071001707438));
#17=CARTESIAN_POINT('',(1.25940061079788,0.,-2.15960878436858));
#18=CARTESIAN_POINT('',(1.36802438346286,0.,-2.09248877804663));
#19=CARTESIAN_POINT('',(1.473627923807,0.,-2.01951002527253));
#20=CARTESIAN_POINT('',(1.57574531599808,0.,-1.94088296893711));
#21=CARTESIAN_POINT('',(1.67393117348048,0.,-1.85686683056439));
#22=CARTESIAN_POINT('',(1.76776695296637,0.,-1.76776695296637));
#23=CARTESIAN_POINT('',(1.85686683056439,0.,-1.67393117348048));
#24=CARTESIAN_POINT('',(1.94088296893711,0.,-1.57574531599808));
#25=CARTESIAN_POINT('',(2.01951002527253,0.,-1.473627923807));
#26=CARTESIAN_POINT('',(2.09248877804663,0.,-1.36802438346286));
#27=CARTESIAN_POINT('',(2.15960878436858,0.,-1.25940061079788));
#28=CARTESIAN_POINT('',(2.22071001707438,0.,-1.14823648264001));
#29=CARTESIAN_POINT('',(2.27568346939188,0.,-1.03501920133712));
#30=CARTESIAN_POINT('',(2.32447075265608,0.,-0.920236773904682));
#31=CARTESIAN_POINT('',(2.36706274710419,0.,-0.804371774288198));
#32=CARTESIAN_POINT('',(2.40349739546758,0.,-0.687895537113423));
#33=CARTESIAN_POINT('',(2.43385675260686,0.,-0.571262906016115));
#34=CARTESIAN_POINT('',(2.45826342104144,0.,-0.454907631030362));
#35=CARTESIAN_POINT('',(2.47687651167061,0.,-0.339238479442464));
#36=CARTESIAN_POINT('',(2.4898872715322,0.,-0.224636094744262));
#37=CARTESIAN_POINT('',(2.49751451676417,0.,-0.111450610371645));
#38=CARTESIAN_POINT('',(2.5,0.,0.));
#39=CARTESIAN_POINT('',(2.49751451676417,0.,0.111450610371645));
#40=CARTESIAN_POINT('',(2.4898872715322,0.,0.224636094744262));
#41=CARTESIAN_POINT('',(2.47687651167061,0.,0.339238479442465));
#42=CARTESIAN_POINT('',(2.45826342104144,0.,0.454907631030362));
#43=CARTESIAN_POINT('',(2.43385675260686,0.,0.571262906016115));
#44=CARTESIAN_POINT('',(2.40349739546758,0.,0.687895537113423));
#45=CARTESIAN_POINT('',(2.36706274710419,0.,0.804371774288198));
#46=CARTESIAN_POINT('',(2.32447075265608,0.,0.920236773904682));
#47=CARTESIAN_POINT('',(2.27568346939188,0.,1.03501920133712));
#48=CARTESIAN_POINT('',(2.22071001707438,0.,1.14823648264001));
#49=CARTESIAN_POINT('',(2.15960878436858,0.,1.25940061079788));
#50=CARTESIAN_POINT('',(2.09248877804663,0.,1.36802438346286));
#51=CARTESIAN_POINT('',(2.01951002527253,0.,1.473627923807));
#52=CARTESIAN_POINT('',(1.94088296893711,0.,1.57574531599808));
#53=CARTESIAN_POINT('',(1.85686683056439,0.,1.67393117348048));
#54=CARTESIAN_POINT('',(1.76776695296637,0.,1.76776695296637));
#55=CARTESIAN_POINT('',(1.67393117348048,0.,1.85686683056439));
#56=CARTESIAN_POINT('',(1.57574531599808,0.,1.94088296893711));
#57=CARTESIAN_POINT('',(1.473627923807,0.,2.01951002527253));
#58=CARTESIAN_POINT('',(1.36802438346286,0.,2.09248877804663));
#59=CARTESIAN_POINT('',(1.25940061079788,0.,2.15960878436858));
#60=CARTESIAN_POINT('',(1.14823648264001,0.,2.22071001707438));
#61=CARTESIAN_POINT('',(1.03501920133712,0.,2.27568346939188));
#62=CARTESIAN_POINT('',(0.920236773904682,0.,2.32447075265608));
#63=CARTESIAN_POINT('',(0.804371774288198,0.,2.36706274710419));
#64=CARTESIAN_POINT('',(0.687895537113423,0.,2.40349739546758));
#65=CARTESIAN_POINT('',(0.571262906016115,0.,2.43385675260686));
#66=CARTESIAN_POINT('',(0.454907631030362,0.,2.45826342104144));
#67=CARTESIAN_POINT('',(0.339238479442464,0.,2.47687651167061));
#68=CARTESIAN_POINT('',(0.224636094744262,0.,2.4898872715322));
#69=CARTESIAN_POINT('',(0.111450610371645,0.,2.49751451676417));
#70=CARTESIAN_POINT('',(0.,0.,2.5));
#71=B_SPLINE_CURVE_WITH_KNOTS('',3,(#6,#7,#8,#9,#10,#11,#12,#13,#14,#15,#16,#17,#18,#19,#20,#21,#22,#23,#24,#25,#26,#27,#28,#29,#30,#31,#32,#33,#34,#35,#36,#37,#38,#39,#40,#41,#42,#43,#44,#45,#46,#47,#48,#49,#50,#51,#52,#53,#54,#55,#56,#57,#58,#59,#60,#61,#62,#63,#64,#65,#66,#67,#68,#69,#70),.UNSPECIFIED.,.F.,.U.,(4,1,1,1,1,1,1,1,1,1,1,1,1,1,1,1,1,1,1,1,1,1,1,1,1,1,1,1,1,1,1,1,1,1,1,1,1,1,1,1,1,1,1,1,1,1,1,1,1,1,1,1,1,1,1,1,1,1,1,1,1,1,4),(0.,0.126625851847771,0.253251703695542,0.379877555543312,0.506503407391083,0.633129259238854,0.759755111086625,0.886380962934395,1.01300681478217,1.13963266662994,1.26625851847771,1.39288437032548,1.51951022217325,1.64613607402102,1.77276192586879,1.89938777771656,2.02601362956433,2.1526394814121,2.27926533325987,2.40589118510764,2.53251703695542,2.65914288880319,2.78576874065096,2.91239459249873,3.0390204443465,3.16564629619427,3.29227214804204,3.41889799988981,3.54552385173758,3.67214970358535,3.79877555543312,3.92540140728089,4.05202725912867,4.17865311097644,4.30527896282421,4.43190481467198,4.55853066651975,4.68515651836752,4.81178237021529,4.93840822206306,5.06503407391083,5.1916599257586,5.31828577760637,5.44491162945414,5.57153748130191,5.69816333314968,5.82478918499746,5.95141503684523,6.078040888693,6.20466674054077,6.33129259238854,6.45791844423631,6.58454429608408,6.71117014793185,6.83779599977962,6.96442185162739,7.09104770347516,7.21767355532293,7.34429940717071,7.47092525901848,7.59755111086625,7.72417696271402,7.85080281456179),.UNSPECIFIED.);
#72=CARTESIAN_POINT('',(6.28318530717959,-1.5707963267949));
#73=CARTESIAN_POINT('',(6.28318530717959,-1.51116043700962));
#74=CARTESIAN_POINT('',(6.28318530717959,-1.4501433254852));
#75=CARTESIAN_POINT('',(6.28318530717959,-1.38781386159212));
#76=CARTESIAN_POINT('',(6.28318530717959,-1.32425407794179));
#77=CARTESIAN_POINT('',(6.28318530717959,-1.25955918775968));
#78=CARTESIAN_POINT('',(6.28318530717959,-1.19383730525369));
#79=CARTESIAN_POINT('',(6.28318530717959,-1.12720884383473));
#80=CARTESIAN_POINT('',(6.28318530717959,-1.05980557949785));
#81=CARTESIAN_POINT('',(6.28318530717959,-0.99176938170765));
#82=CARTESIAN_POINT('',(6.28318530717959,-0.923250630857277));
#83=CARTESIAN_POINT('',(6.28318530717959,-0.854406358573207));
#84=CARTESIAN_POINT('',(6.28318530717959,-0.785398163397448));
#85=CARTESIAN_POINT('',(6.28318530717959,-0.71638996822169));
#86=CARTESIAN_POINT('',(6.28318530717959,-0.64754569593762));
#87=CARTESIAN_POINT('',(6.28318530717959,-0.579026945087246));
#88=CARTESIAN_POINT('',(6.28318530717959,-0.510990747297044));
#89=CARTESIAN_POINT('',(6.28318530717959,-0.443587482960162));
#90=CARTESIAN_POINT('',(6.28318530717959,-0.37695902154121));
#91=CARTESIAN_POINT('',(6.28318530717959,-0.31123713903522));
#92=CARTESIAN_POINT('',(6.28318530717959,-0.246542248853104));
#93=CARTESIAN_POINT('',(6.28318530717959,-0.182982465202773));
#94=CARTESIAN_POINT('',(6.28318530717959,-0.120653001309692));
#95=CARTESIAN_POINT('',(6.28318530717959,-0.0596358897852724));
#96=CARTESIAN_POINT('',(6.28318530717959,0.));
#97=CARTESIAN_POINT('',(6.28318530717959,0.0596358897852726));
#98=CARTESIAN_POINT('',(6.28318530717959,0.120653001309692));
#99=CARTESIAN_POINT('',(6.28318530717959,0.182982465202773));
#100=CARTESIAN_POINT('',(6.28318530717959,0.246542248853104));
#101=CARTESIAN_POINT('',(6.28318530717959,0.31123713903522));
#102=CARTESIAN_POINT('',(6.28318530717959,0.37695902154121));
#103=CARTESIAN_POINT('',(6.28318530717959,0.443587482960162));
#104=CARTESIAN_POINT('',(6.28318530717959,0.510990747297044));
#105=CARTESIAN_POINT('',(6.28318530717959,0.579026945087246));
#106=CARTESIAN_POINT('',(6.28318530717959,0.64754569593762));
#107=CARTESIAN_POINT('',(6.28318530717959,0.716389968221689));
#108=CARTESIAN_POINT('',(6.28318530717959,0.785398163397448));
#109=CARTESIAN_POINT('',(6.28318530717959,0.854406358573207));
#110=CARTESIAN_POINT('',(6.28318530717959,0.923250630857277));
#111=CARTESIAN_POINT('',(6.28318530717959,0.99176938170765));
#112=CARTESIAN_POINT('',(6.28318530717959,1.05980557949785));
#113=CARTESIAN_POINT('',(6.28318530717959,1.12720884383473));
#114=CARTESIAN_POINT('',(6.28318530717959,1.19383730525369));
#115=CARTESIAN_POINT('',(6.28318530717959,1.25955918775968));
#116=CARTESIAN_POINT('',(6.28318530717959,1.32425407794179));
#117=CARTESIAN_POINT('',(6.28318530717959,1.38781386159212));
#118=CARTESIAN_POINT('',(6.28318530717959,1.4501433254852));
#119=CARTESIAN_POINT('',(6.28318530717959,1.51116043700962));
#120=CARTESIAN_POINT('',(6.28318530717959,1.5707963267949));
#121=B_SPLINE_CURVE_WITH_KNOTS('',1,(#72,#73,#74,#75,#76,#77,#78,#79,#80,#81,#82,#83,#84,#85,#86,#87,#88,#89,#90,#91,#92,#93,#94,#95,#96,#97,#98,#99,#100,#101,#102,#103,#104,#105,#106,#107,#108,#109,#110,#111,#112,#113,#114,#115,#116,#117,#118,#119,#120),.UNSPECIFIED.,.F.,.U.,(2,1,1,1,1,1,1,1,1,1,1,1,1,1,1,1,1,1,1,1,1,1,1,1,1,1,1,1,1,1,1,1,1,1,1,1,1,1,1,1,1,1,1,1,1,1,1,1,2),(0.,0.0654498469497874,0.130899693899575,0.196349540849362,0.26179938779915,0.327249234748937,0.392699081698724,0.458148928648512,0.523598775598299,0.589048622548086,0.654498469497874,0.719948316447661,0.785398163397449,0.850848010347236,0.916297857297023,0.981747704246811,1.0471975511966,1.11264739814639,1.17809724509617,1.24354709204596,1.30899693899575,1.37444678594553,1.43989663289532,1.50534647984511,1.5707963267949,1.63624617374468,1.70169602069447,1.76714586764426,1.83259571459405,1.89804556154383,1.96349540849362,2.02894525544341,2.0943951023932,2.15984494934298,2.22529479629277,2.29074464324256,2.35619449019235,2.42164433714213,2.48709418409192,2.55254403104171,2.6179938779915,2.68344372494128,2.74889357189107,2.81434341884086,2.87979326579064,2.94524311274043,3.01069295969022,3.07614280664001,3.14159265358979),.UNSPECIFIED.);
#122=(GEOMETRIC_REPRESENTATION_CONTEXT(2)PARAMETRIC_REPRESENTATION_CONTEXT()REPRESENTATION_CONTEXT('2D SPACE',''));
#123=DEFINITIONAL_REPRESENTATION('',(#121),#122);
#124=PCURVE('',#5,#123);
#125=CARTESIAN_POINT('',(0.,-1.5707963267949));
#126=CARTESIAN_POINT('',(0.,-1.51116043700962));
#127=CARTESIAN_POINT('',(0.,-1.4501433254852));
#128=CARTESIAN_POINT('',(0.,-1.38781386159212));
#129=CARTESIAN_POINT('',(0.,-1.32425407794179));
#130=CARTESIAN_POINT('',(0.,-1.25955918775968));
#131=CARTESIAN_POINT('',(0.,-1.19383730525369));
#132=CARTESIAN_POINT('',(0.,-1.12720884383473));
#133=CARTESIAN_POINT('',(0.,-1.05980557949785));
#134=CARTESIAN_POINT('',(0.,-0.99176938170765));
#135=CARTESIAN_POINT('',(0.,-0.923250630857277));
#136=CARTESIAN_POINT('',(0.,-0.854406358573207));
#137=CARTESIAN_POINT('',(0.,-0.785398163397448));
#138=CARTESIAN_POINT('',(0.,-0.716389968221689));
#139=CARTESIAN_POINT('',(0.,-0.64754569593762));
#140=CARTESIAN_POINT('',(0.,-0.579026945087246));
#141=CARTESIAN_POINT('',(0.,-0.510990747297043));
#142=CARTESIAN_POINT('',(0.,-0.443587482960162));
#143=CARTESIAN_POINT('',(0.,-0.37695902154121));
#144=CARTESIAN_POINT('',(0.,-0.31123713903522));
#145=CARTESIAN_POINT('',(0.,-0.246542248853104));
#146=CARTESIAN_POINT('',(0.,-0.182982465202773));
#147=CARTESIAN_POINT('',(0.,-0.120653001309692));
#148=CARTESIAN_POINT('',(0.,-0.0596358897852726));
#149=CARTESIAN_POINT('',(0.,0.));
#150=CARTESIAN_POINT('',(0.,0.0596358897852723));
#151=CARTESIAN_POINT('',(0.,0.120653001309692));
#152=CARTESIAN_POINT('',(0.,0.182982465202773));
#153=CARTESIAN_POINT('',(0.,0.246542248853104));
#154=CARTESIAN_POINT('',(0.,0.31123713903522));
#155=CARTESIAN_POINT('',(0.,0.37695902154121));
#156=CARTESIAN_POINT('',(0.,0.443587482960162));
#157=CARTESIAN_POINT('',(0.,0.510990747297044));
#158=CARTESIAN_POINT('',(0.,0.579026945087246));
#159=CARTESIAN_POINT('',(0.,0.64754569593762));
#160=CARTESIAN_POINT('',(0.,0.71638996822169));
#161=CARTESIAN_POINT('',(0.,0.785398163397448));
#162=CARTESIAN_POINT('',(0.,0.854406358573207));
#163=CARTESIAN_POINT('',(0.,0.923250630857277));
#164=CARTESIAN_POINT('',(0.,0.99176938170765));
#165=CARTESIAN_POINT('',(0.,1.05980557949785));
#166=CARTESIAN_POINT('',(0.,1.12720884383473));
#167=CARTESIAN_POINT('',(0.,1.19383730525369));
#168=CARTESIAN_POINT('',(0.,1.25955918775968));
#169=CARTESIAN_POINT('',(0.,1.32425407794179));
#170=CARTESIAN_POINT('',(0.,1.38781386159212));
#171=CARTESIAN_POINT('',(0.,1.4501433254852));
#172=CARTESIAN_POINT('',(0.,1.51116043700962));
#173=CARTESIAN_POINT('',(0.,1.5707963267949));
#174=B_SPLINE_CURVE_WITH_KNOTS('',1,(#125,#126,#127,#128,#129,#130,#131,#132,#133,#134,#135,#136,#137,#138,#139,#140,#141,#142,#143,#144,#145,#146,#147,#148,#149,#150,#151,#152,#153,#154,#155,#156,#157,#158,#159,#160,#161,#162,#163,#164,#165,#166,#167,#168,#169,#170,#171,#172,#173),.UNSPECIFIED.,.F.,.U.,(2,1,1,1,1,1,1,1,1,1,1,1,1,1,1,1,1,1,1,1,1,1,1,1,1,1,1,1,1,1,1,1,1,1,1,1,1,1,1,1,1,1,1,1,1,1,1,1,2),(0.,0.0654498469497873,0.130899693899575,0.196349540849362,0.261799387799149,0.327249234748937,0.392699081698724,0.458148928648511,0.523598775598299,0.589048622548086,0.654498469497873,0.719948316447661,0.785398163397448,0.850848010347236,0.916297857297023,0.98174770424681,1.0471975511966,1.11264739814638,1.17809724509617,1.24354709204596,1.30899693899575,1.37444678594553,1.43989663289532,1.50534647984511,1.5707963267949,1.63624617374468,1.70169602069447,1.76714586764426,1.83259571459405,1.89804556154383,1.96349540849362,2.02894525544341,2.09439510239319,2.15984494934298,2.22529479629277,2.29074464324256,2.35619449019234,2.42164433714213,2.48709418409192,2.55254403104171,2.61799387799149,2.68344372494128,2.74889357189107,2.81434341884086,2.87979326579064,2.94524311274043,3.01069295969022,3.07614280664,3.14159265358979),.UNSPECIFIED.);
#175=DEFINITIONAL_REPRESENTATION('',(#174),#122);
#176=PCURVE('',#5,#175);
#177=SEAM_CURVE('',#71,(#124,#176),.PCURVE_S1.);
#178=CARTESIAN_POINT('',(0.,0.,-2.5));
#179=VERTEX_POINT('',#178);
#180=CARTESIAN_POINT('',(0.,0.,2.5));
#181=VERTEX_POINT('',#180);
#182=EDGE_CURVE('',#179,#181,#177,.T.);
#183=ORIENTED_EDGE('',*,*,#182,.T.);
#184=ORIENTED_EDGE('',*,*,#182,.F.);
#185=EDGE_LOOP('',(#183,#184));
#186=FACE_OUTER_BOUND('',#185,.T.);
#187=ADVANCED_FACE('',(#186),#5,.T.);
#188=CLOSED_SHELL('',(#187));
#189=MANIFOLD_SOLID_BREP('',#188);
#190=CARTESIAN_POINT('',(0.,0.,0.));
#191=DIRECTION('',(0.,0.,1.));
#192=DIRECTION('',(1.,0.,0.));
#193=AXIS2_PLACEMENT_3D('',#190,#191,#192);
#194=(LENGTH_UNIT()NAMED_UNIT(*)SI_UNIT(.MILLI.,.METRE.));
#195=(NAMED_UNIT(*)PLANE_ANGLE_UNIT()SI_UNIT($,.RADIAN.));
#196=(NAMED_UNIT(*)SI_UNIT($,.STERADIAN.)SOLID_ANGLE_UNIT());
#197=UNCERTAINTY_MEASURE_WITH_UNIT(LENGTH_MEASURE(0.025),#194,'distance_accuracy_value','');
#198=(GEOMETRIC_REPRESENTATION_CONTEXT(3)GLOBAL_UNCERTAINTY_ASSIGNED_CONTEXT((#197))GLOBAL_UNIT_ASSIGNED_CONTEXT((#194,#195,#196))REPRESENTATION_CONTEXT('',''));
#199=APPLICATION_CONTEXT('core data for automotive mechanical design processes');
#200=APPLICATION_PROTOCOL_DEFINITION('international standard','automotive_design',2000,#199);
#201=PRODUCT_CONTEXT('',#199,'mechanical');
#202=PRODUCT('sphere','sphere','',(#201));
#203=PRODUCT_DEFINITION_FORMATION('','',#202);
#204=PRODUCT_DEFINITION_CONTEXT('part definition',#199,'design');
#205=PRODUCT_DEFINITION('design','',#203,#204);
#206=PRODUCT_DEFINITION_SHAPE('','',#205);
#207=ADVANCED_BREP_SHAPE_REPRESENTATION('sphere',(#193,#189),#198);
#208=SHAPE_DEFINITION_REPRESENTATION(#206,#207);
ENDSEC;
END-ISO-10303-21;
