ISO-10303-21;
HEADER;
FILE_DESCRIPTION((''),'2;1');
FILE_NAME('','',(''),(''),'','','');
FILE_SCHEMA(('AUTOMOTIVE_DESIGN'));
ENDSEC;
DATA;
#1=CARTESIAN_POINT('',(0.,0.,0.));
#2=DIRECTION('',(0.,0.,1.));
#3=DIRECTION('',(1.,0.,0.));
#4=AXIS2_PLACEMENT_3D('',#1,#2,#3);
#5=CYLINDRICAL_SURFACE('',#4,1.5);
#6=CARTESIAN_POINT('',(1.5,0.,0.));
#7=CARTESIAN_POINT('',(1.5,1.5,0.));
#8=CARTESIAN_POINT('',(0.,1.5,0.));
#9=CARTESIAN_POINT('',(-1.5,1.5,0.));
#10=CARTESIAN_POINT('',(-1.5,0.,0.));
#11=CARTESIAN_POINT('',(-1.5,-1.5,0.));
#12=CARTESIAN_POINT('',(0.,-1.5,0.));
#13=CARTESIAN_POINT('',(1.5,-1.5,0.));
#14=CARTESIAN_POINT('',(1.5,0.,0.));
#15=(BOUNDED_CURVE()B_SPLINE_CURVE(2,(#6,#7,#8,#9,#10,#11,#12,#13,#14),.UNSPECIFIED.,.F.,.U.)B_SPLINE_CURVE_WITH_KNOTS((3,2,2,2,3),(0.,1.,2.,3.,4.),.UNSPECIFIED.)CURVE()GEOMETRIC_REPRESENTATION_ITEM()RATIONAL_B_SPLINE_CURVE((1.,0.707106781186548,1.,0.707106781186548,1.,0.707106781186548,1.,0.707106781186548,1.))REPRESENTATION_ITEM(''));
#16=CARTESIAN_POINT('',(0.,0.));
#17=CARTESIAN_POINT('',(0.120653001309692,0.));
#18=CARTESIAN_POINT('',(0.246542248853104,0.));
#19=CARTESIAN_POINT('',(0.37695902154121,0.));
#20=CARTESIAN_POINT('',(0.510990747297044,0.));
#21=CARTESIAN_POINT('',(0.64754569593762,0.));
#22=CARTESIAN_POINT('',(0.785398163397448,0.));
#23=CARTESIAN_POINT('',(0.923250630857277,0.));
#24=CARTESIAN_POINT('',(1.05980557949785,0.));
#25=CARTESIAN_POINT('',(1.19383730525369,0.));
#26=CARTESIAN_POINT('',(1.32425407794179,0.));
#27=CARTESIAN_POINT('',(1.4501433254852,0.));
#28=CARTESIAN_POINT('',(1.5707963267949,0.));
#29=CARTESIAN_POINT('',(1.69144932810459,0.));
#30=CARTESIAN_POINT('',(1.817338575648,0.));
#31=CARTESIAN_POINT('',(1.94775534833611,0.));
#32=CARTESIAN_POINT('',(2.08178707409194,0.));
#33=CARTESIAN_POINT('',(2.21834202273252,0.));
#34=CARTESIAN_POINT('',(2.35619449019234,0.));
#35=CARTESIAN_POINT('',(2.49404695765217,0.));
#36=CARTESIAN_POINT('',(2.63060190629275,0.));
#37=CARTESIAN_POINT('',(2.76463363204858,0.));
#38=CARTESIAN_POINT('',(2.89505040473669,0.));
#39=CARTESIAN_POINT('',(3.0209396522801,0.));
#40=CARTESIAN_POINT('',(3.14159265358979,0.));
#41=CARTESIAN_POINT('',(3.26224565489949,0.));
#42=CARTESIAN_POINT('',(3.3881349024429,0.));
#43=CARTESIAN_POINT('',(3.518551675131,0.));
#44=CARTESIAN_POINT('',(3.65258340088684,0.));
#45=CARTESIAN_POINT('',(3.78913834952741,0.));
#46=CARTESIAN_POINT('',(3.92699081698724,0.));
#47=CARTESIAN_POINT('',(4.06484328444707,0.));
#48=CARTESIAN_POINT('',(4.20139823308765,0.));
#49=CARTESIAN_POINT('',(4.33542995884348,0.));
#50=CARTESIAN_POINT('',(4.46584673153159,0.));
#51=CARTESIAN_POINT('',(4.591735979075,0.));
#52=CARTESIAN_POINT('',(4.71238898038469,0.));
#53=CARTESIAN_POINT('',(4.83304198169438,0.));
#54=CARTESIAN_POINT('',(4.95893122923779,0.));
#55=CARTESIAN_POINT('',(5.0893480019259,0.));
#56=CARTESIAN_POINT('',(5.22337972768173,0.));
#57=CARTESIAN_POINT('',(5.35993467632231,0.));
#58=CARTESIAN_POINT('',(5.49778714378214,0.));
#59=CARTESIAN_POINT('',(5.63563961124197,0.));
#60=CARTESIAN_POINT('',(5.77219455988254,0.));
#61=CARTESIAN_POINT('',(5.90622628563838,0.));
#62=CARTESIAN_POINT('',(6.03664305832648,0.));
#63=CARTESIAN_POINT('',(6.16253230586989,0.));
#64=CARTESIAN_POINT('',(6.28318530717959,0.));
#65=B_SPLINE_CURVE_WITH_KNOTS('',1,(#16,#17,#18,#19,#20,#21,#22,#23,#24,#25,#26,#27,#28,#29,#30,#31,#32,#33,#34,#35,#36,#37,#38,#39,#40,#41,#42,#43,#44,#45,#46,#47,#48,#49,#50,#51,#52,#53,#54,#55,#56,#57,#58,#59,#60,#61,#62,#63,#64),.UNSPECIFIED.,.F.,.U.,(2,1,1,1,1,1,1,1,1,1,1,1,1,1,1,1,1,1,1,1,1,1,1,1,1,1,1,1,1,1,1,1,1,1,1,1,1,1,1,1,1,1,1,1,1,1,1,1,2),(0.,0.130899693899575,0.261799387799149,0.392699081698724,0.523598775598299,0.654498469497873,0.785398163397448,0.916297857297023,1.0471975511966,1.17809724509617,1.30899693899575,1.43989663289532,1.5707963267949,1.70169602069447,1.83259571459405,1.96349540849362,2.0943951023932,2.22529479629277,2.35619449019234,2.48709418409192,2.61799387799149,2.74889357189107,2.87979326579064,3.01069295969022,3.14159265358979,3.27249234748937,3.40339204138894,3.53429173528852,3.66519142918809,3.79609112308767,3.92699081698724,4.05789051088682,4.18879020478639,4.31968989868597,4.45058959258554,4.58148928648511,4.71238898038469,4.84328867428426,4.97418836818384,5.10508806208341,5.23598775598299,5.36688744988256,5.49778714378214,5.62868683768171,5.75958653158129,5.89048622548086,6.02138591938044,6.15228561328001,6.28318530717959),.UNSPECIFIED.);
#66=(GEOMETRIC_REPRESENTATION_CONTEXT(2)PARAMETRIC_REPRESENTATION_CONTEXT()REPRESENTATION_CONTEXT('2D SPACE',''));
#67=DEFINITIONAL_REPRESENTATION('',(#65),#66);
#68=PCURVE('',#5,#67);
#69=CARTESIAN_POINT('',(-1.5,-1.5,0.));
#70=DIRECTION('',(0.,0.,1.));
#71=DIRECTION('',(1.,0.,0.));
#72=AXIS2_PLACEMENT_3D('',#69,#70,#71);
#73=PLANE('',#72);
#74=CARTESIAN_POINT('',(3.,1.5));
#75=CARTESIAN_POINT('',(2.98909537793875,1.68054073058857));
#76=CARTESIAN_POINT('',(2.9546431337345,1.86607834336255));
#77=CARTESIAN_POINT('',(2.89468245159365,2.05214206434281));
#78=CARTESIAN_POINT('',(2.80839062865408,2.2335625146163));
#79=CARTESIAN_POINT('',(2.69635006629699,2.4048461299421));
#80=CARTESIAN_POINT('',(2.56066017177982,2.56066017177982));
#81=CARTESIAN_POINT('',(2.4048461299421,2.69635006629699));
#82=CARTESIAN_POINT('',(2.2335625146163,2.80839062865408));
#83=CARTESIAN_POINT('',(2.05214206434281,2.89468245159365));
#84=CARTESIAN_POINT('',(1.86607834336255,2.9546431337345));
#85=CARTESIAN_POINT('',(1.68054073058857,2.98909537793875));
#86=CARTESIAN_POINT('',(1.5,3.));
#87=CARTESIAN_POINT('',(1.31945926941143,2.98909537793875));
#88=CARTESIAN_POINT('',(1.13392165663745,2.9546431337345));
#89=CARTESIAN_POINT('',(0.947857935657191,2.89468245159365));
#90=CARTESIAN_POINT('',(0.766437485383698,2.80839062865408));
#91=CARTESIAN_POINT('',(0.595153870057902,2.69635006629699));
#92=CARTESIAN_POINT('',(0.439339828220179,2.56066017177982));
#93=CARTESIAN_POINT('',(0.303649933703012,2.4048461299421));
#94=CARTESIAN_POINT('',(0.191609371345924,2.2335625146163));
#95=CARTESIAN_POINT('',(0.105317548406354,2.05214206434281));
#96=CARTESIAN_POINT('',(0.0453568662654982,1.86607834336255));
#97=CARTESIAN_POINT('',(0.0109046220612514,1.68054073058857));
#98=CARTESIAN_POINT('',(0.,1.5));
#99=CARTESIAN_POINT('',(0.0109046220612514,1.31945926941143));
#100=CARTESIAN_POINT('',(0.0453568662654977,1.13392165663745));
#101=CARTESIAN_POINT('',(0.105317548406354,0.947857935657191));
#102=CARTESIAN_POINT('',(0.191609371345924,0.766437485383697));
#103=CARTESIAN_POINT('',(0.303649933703011,0.595153870057903));
#104=CARTESIAN_POINT('',(0.439339828220179,0.439339828220179));
#105=CARTESIAN_POINT('',(0.595153870057903,0.303649933703011));
#106=CARTESIAN_POINT('',(0.766437485383697,0.191609371345925));
#107=CARTESIAN_POINT('',(0.947857935657191,0.105317548406354));
#108=CARTESIAN_POINT('',(1.13392165663745,0.045356866265498));
#109=CARTESIAN_POINT('',(1.31945926941143,0.0109046220612512));
#110=CARTESIAN_POINT('',(1.5,0.));
#111=CARTESIAN_POINT('',(1.68054073058857,0.0109046220612514));
#112=CARTESIAN_POINT('',(1.86607834336255,0.0453568662654977));
#113=CARTESIAN_POINT('',(2.05214206434281,0.105317548406354));
#114=CARTESIAN_POINT('',(2.2335625146163,0.191609371345924));
#115=CARTESIAN_POINT('',(2.4048461299421,0.303649933703011));
#116=CARTESIAN_POINT('',(2.56066017177982,0.439339828220179));
#117=CARTESIAN_POINT('',(2.69635006629699,0.595153870057903));
#118=CARTESIAN_POINT('',(2.80839062865408,0.766437485383697));
#119=CARTESIAN_POINT('',(2.89468245159365,0.947857935657191));
#120=CARTESIAN_POINT('',(2.9546431337345,1.13392165663745));
#121=CARTESIAN_POINT('',(2.98909537793875,1.31945926941143));
#122=CARTESIAN_POINT('',(3.,1.5));
#123=B_SPLINE_CURVE_WITH_KNOTS('',1,(#74,#75,#76,#77,#78,#79,#80,#81,#82,#83,#84,#85,#86,#87,#88,#89,#90,#91,#92,#93,#94,#95,#96,#97,#98,#99,#100,#101,#102,#103,#104,#105,#106,#107,#108,#109,#110,#111,#112,#113,#114,#115,#116,#117,#118,#119,#120,#121,#122),.UNSPECIFIED.,.F.,.U.,(2,1,1,1,1,1,1,1,1,1,1,1,1,1,1,1,1,1,1,1,1,1,1,1,1,1,1,1,1,1,1,1,1,1,1,1,1,1,1,1,1,1,1,1,1,1,1,1,2),(0.,0.196208493296007,0.392416986592013,0.58862547988802,0.784833973184026,0.981042466480033,1.17725095977604,1.37345945307205,1.56966794636805,1.76587643966406,1.96208493296007,2.15829342625607,2.35450191955208,2.55071041284809,2.74691890614409,2.9431273994401,3.1393358927361,3.33554438603211,3.53175287932812,3.72796137262412,3.92416986592013,4.12037835921614,4.31658685251214,4.51279534580815,4.70900383910416,4.90521233240016,5.10142082569617,5.29762931899218,5.49383781228818,5.69004630558419,5.8862547988802,6.0824632921762,6.27867178547221,6.47488027876822,6.67108877206422,6.86729726536023,7.06350575865624,7.25971425195224,7.45592274524825,7.65213123854426,7.84833973184026,8.04454822513627,8.24075671843227,8.43696521172828,8.63317370502429,8.82938219832029,9.0255906916163,9.22179918491231,9.41800767820831),.UNSPECIFIED.);
#124=DEFINITIONAL_REPRESENTATION('',(#123),#66);
#125=PCURVE('',#73,#124);
#126=SURFACE_CURVE('',#15,(#68,#125),.PCURVE_S1.);
#127=CARTESIAN_POINT('',(1.5,0.,0.));
#128=VERTEX_POINT('',#127);
#129=EDGE_CURVE('',#128,#128,#126,.T.);
#130=ORIENTED_EDGE('',*,*,#129,.T.);
#131=CARTESIAN_POINT('',(1.5,0.,0.));
#132=CARTESIAN_POINT('',(1.5,0.,6.));
#133=B_SPLINE_CURVE_WITH_KNOTS('',1,(#131,#132),.UNSPECIFIED.,.F.,.U.,(2,2),(0.,6.),.UNSPECIFIED.);
#134=CARTESIAN_POINT('',(6.28318530717959,0.));
#135=CARTESIAN_POINT('',(6.28318530717959,0.125));
#136=CARTESIAN_POINT('',(6.28318530717959,0.25));
#137=CARTESIAN_POINT('',(6.28318530717959,0.375));
#138=CARTESIAN_POINT('',(6.28318530717959,0.5));
#139=CARTESIAN_POINT('',(6.28318530717959,0.625));
#140=CARTESIAN_POINT('',(6.28318530717959,0.75));
#141=CARTESIAN_POINT('',(6.28318530717959,0.875));
#142=CARTESIAN_POINT('',(6.28318530717959,1.));
#143=CARTESIAN_POINT('',(6.28318530717959,1.125));
#144=CARTESIAN_POINT('',(6.28318530717959,1.25));
#145=CARTESIAN_POINT('',(6.28318530717959,1.375));
#146=CARTESIAN_POINT('',(6.28318530717959,1.5));
#147=CARTESIAN_POINT('',(6.28318530717959,1.625));
#148=CARTESIAN_POINT('',(6.28318530717959,1.75));
#149=CARTESIAN_POINT('',(6.28318530717959,1.875));
#150=CARTESIAN_POINT('',(6.28318530717959,2.));
#151=CARTESIAN_POINT('',(6.28318530717959,2.125));
#152=CARTESIAN_POINT('',(6.28318530717959,2.25));
#153=CARTESIAN_POINT('',(6.28318530717959,2.375));
#154=CARTESIAN_POINT('',(6.28318530717959,2.5));
#155=CARTESIAN_POINT('',(6.28318530717959,2.625));
#156=CARTESIAN_POINT('',(6.28318530717959,2.75));
#157=CARTESIAN_POINT('',(6.28318530717959,2.875));
#158=CARTESIAN_POINT('',(6.28318530717959,3.));
#159=CARTESIAN_POINT('',(6.28318530717959,3.125));
#160=CARTESIAN_POINT('',(6.28318530717959,3.25));
#161=CARTESIAN_POINT('',(6.28318530717959,3.375));
#162=CARTESIAN_POINT('',(6.28318530717959,3.5));
#163=CARTESIAN_POINT('',(6.28318530717959,3.625));
#164=CARTESIAN_POINT('',(6.28318530717959,3.75));
#165=CARTESIAN_POINT('',(6.28318530717959,3.875));
#166=CARTESIAN_POINT('',(6.28318530717959,4.));
#167=CARTESIAN_POINT('',(6.28318530717959,4.125));
#168=CARTESIAN_POINT('',(6.28318530717959,4.25));
#169=CARTESIAN_POINT('',(6.28318530717959,4.375));
#170=CARTESIAN_POINT('',(6.28318530717959,4.5));
#171=CARTESIAN_POINT('',(6.28318530717959,4.625));
#172=CARTESIAN_POINT('',(6.28318530717959,4.75));
#173=CARTESIAN_POINT('',(6.28318530717959,4.875));
#174=CARTESIAN_POINT('',(6.28318530717959,5.));
#175=CARTESIAN_POINT('',(6.28318530717959,5.125));
#176=CARTESIAN_POINT('',(6.28318530717959,5.25));
#177=CARTESIAN_POINT('',(6.28318530717959,5.375));
#178=CARTESIAN_POINT('',(6.28318530717959,5.5));
#179=CARTESIAN_POINT('',(6.28318530717959,5.625));
#180=CARTESIAN_POINT('',(6.28318530717959,5.75));
#181=CARTESIAN_POINT('',(6.28318530717959,5.875));
#182=CARTESIAN_POINT('',(6.28318530717959,6.));
#183=B_SPLINE_CURVE_WITH_KNOTS('',1,(#134,#135,#136,#137,#138,#139,#140,#141,#142,#143,#144,#145,#146,#147,#148,#149,#150,#151,#152,#153,#154,#155,#156,#157,#158,#159,#160,#161,#162,#163,#164,#165,#166,#167,#168,#169,#170,#171,#172,#173,#174,#175,#176,#177,#178,#179,#180,#181,#182),.UNSPECIFIED.,.F.,.U.,(2,1,1,1,1,1,1,1,1,1,1,1,1,1,1,1,1,1,1,1,1,1,1,1,1,1,1,1,1,1,1,1,1,1,1,1,1,1,1,1,1,1,1,1,1,1,1,1,2),(0.,0.125,0.25,0.375,0.5,0.625,0.75,0.875,1.,1.125,1.25,1.375,1.5,1.625,1.75,1.875,2.,2.125,2.25,2.375,2.5,2.625,2.75,2.875,3.,3.125,3.25,3.375,3.5,3.625,3.75,3.875,4.,4.125,4.25,4.375,4.5,4.625,4.75,4.875,5.,5.125,5.25,5.375,5.5,5.625,5.75,5.875,6.),.UNSPECIFIED.);
#184=DEFINITIONAL_REPRESENTATION('',(#183),#66);
#185=PCURVE('',#5,#184);
#186=CARTESIAN_POINT('',(0.,0.));
#187=CARTESIAN_POINT('',(0.,0.125));
#188=CARTESIAN_POINT('',(0.,0.25));
#189=CARTESIAN_POINT('',(0.,0.375));
#190=CARTESIAN_POINT('',(0.,0.5));
#191=CARTESIAN_POINT('',(0.,0.625));
#192=CARTESIAN_POINT('',(0.,0.75));
#193=CARTESIAN_POINT('',(0.,0.875));
#194=CARTESIAN_POINT('',(0.,1));
#195=CARTESIAN_POINT('',(0.,1.125));
#196=CARTESIAN_POINT('',(0.,1.25));
#197=CARTESIAN_POINT('',(0.,1.375));
#198=CARTESIAN_POINT('',(0.,1.5));
#199=CARTESIAN_POINT('',(0.,1.625));
#200=CARTESIAN_POINT('',(0.,1.75));
#201=CARTESIAN_POINT('',(0.,1.875));
#202=CARTESIAN_POINT('',(0.,2.));
#203=CARTESIAN_POINT('',(0.,2.125));
#204=CARTESIAN_POINT('',(0.,2.25));
#205=CARTESIAN_POINT('',(0.,2.375));
#206=CARTESIAN_POINT('',(0.,2.5));
#207=CARTESIAN_POINT('',(0.,2.625));
#208=CARTESIAN_POINT('',(0.,2.75));
#209=CARTESIAN_POINT('',(0.,2.875));
#210=CARTESIAN_POINT('',(0.,3.));
#211=CARTESIAN_POINT('',(0.,3.125));
#212=CARTESIAN_POINT('',(0.,3.25));
#213=CARTESIAN_POINT('',(0.,3.375));
#214=CARTESIAN_POINT('',(0.,3.5));
#215=CARTESIAN_POINT('',(0.,3.625));
#216=CARTESIAN_POINT('',(0.,3.75));
#217=CARTESIAN_POINT('',(0.,3.875));
#218=CARTESIAN_POINT('',(0.,4.));
#219=CARTESIAN_POINT('',(0.,4.125));
#220=CARTESIAN_POINT('',(0.,4.25));
#221=CARTESIAN_POINT('',(0.,4.375));
#222=CARTESIAN_POINT('',(0.,4.5));
#223=CARTESIAN_POINT('',(0.,4.625));
#224=CARTESIAN_POINT('',(0.,4.75));
#225=CARTESIAN_POINT('',(0.,4.875));
#226=CARTESIAN_POINT('',(0.,5.));
#227=CARTESIAN_POINT('',(0.,5.125));
#228=CARTESIAN_POINT('',(0.,5.25));
#229=CARTESIAN_POINT('',(0.,5.375));
#230=CARTESIAN_POINT('',(0.,5.5));
#231=CARTESIAN_POINT('',(0.,5.625));
#232=CARTESIAN_POINT('',(0.,5.75));
#233=CARTESIAN_POINT('',(0.,5.875));
#234=CARTESIAN_POINT('',(0.,6.));
#235=B_SPLINE_CURVE_WITH_KNOTS('',1,(#186,#187,#188,#189,#190,#191,#192,#193,#194,#195,#196,#197,#198,#199,#200,#201,#202,#203,#204,#205,#206,#207,#208,#209,#210,#211,#212,#213,#214,#215,#216,#217,#218,#219,#220,#221,#222,#223,#224,#225,#226,#227,#228,#229,#230,#231,#232,#233,#234),.UNSPECIFIED.,.F.,.U.,(2,1,1,1,1,1,1,1,1,1,1,1,1,1,1,1,1,1,1,1,1,1,1,1,1,1,1,1,1,1,1,1,1,1,1,1,1,1,1,1,1,1,1,1,1,1,1,1,2),(0.,0.125,0.25,0.375,0.5,0.625,0.75,0.875,1.,1.125,1.25,1.375,1.5,1.625,1.75,1.875,2.,2.125,2.25,2.375,2.5,2.625,2.75,2.875,3.,3.125,3.25,3.375,3.5,3.625,3.75,3.875,4.,4.125,4.25,4.375,4.5,4.625,4.75,4.875,5.,5.125,5.25,5.375,5.5,5.625,5.75,5.875,6.),.UNSPECIFIED.);
#236=DEFINITIONAL_REPRESENTATION('',(#235),#66);
#237=PCURVE('',#5,#236);
#238=SEAM_CURVE('',#133,(#185,#237),.PCURVE_S1.);
#239=CARTESIAN_POINT('',(1.5,0.,6.));
#240=VERTEX_POINT('',#239);
#241=EDGE_CURVE('',#128,#240,#238,.T.);
#242=ORIENTED_EDGE('',*,*,#241,.T.);
#243=CARTESIAN_POINT('',(1.5,0.,6.));
#244=CARTESIAN_POINT('',(1.5,1.5,6.));
#245=CARTESIAN_POINT('',(0.,1.5,6.));
#246=CARTESIAN_POINT('',(-1.5,1.5,6.));
#247=CARTESIAN_POINT('',(-1.5,0.,6.));
#248=CARTESIAN_POINT('',(-1.5,-1.5,6.));
#249=CARTESIAN_POINT('',(0.,-1.5,6.));
#250=CARTESIAN_POINT('',(1.5,-1.5,6.));
#251=CARTESIAN_POINT('',(1.5,0.,6.));
#252=(BOUNDED_CURVE()B_SPLINE_CURVE(2,(#243,#244,#245,#246,#247,#248,#249,#250,#251),.UNSPECIFIED.,.F.,.U.)B_SPLINE_CURVE_WITH_KNOTS((3,2,2,2,3),(0.,1.,2.,3.,4.),.UNSPECIFIED.)CURVE()GEOMETRIC_REPRESENTATION_ITEM()RATIONAL_B_SPLINE_CURVE((1.,0.707106781186548,1.,0.707106781186548,1.,0.707106781186548,1.,0.707106781186548,1.))REPRESENTATION_ITEM(''));
#253=CARTESIAN_POINT('',(0.,6.));
#254=CARTESIAN_POINT('',(0.120653001309692,6.));
#255=CARTESIAN_POINT('',(0.246542248853104,6.));
#256=CARTESIAN_POINT('',(0.376959021541211,6.));
#257=CARTESIAN_POINT('',(0.510990747297043,6));
#258=CARTESIAN_POINT('',(0.64754569593762,6));
#259=CARTESIAN_POINT('',(0.785398163397448,6));
#260=CARTESIAN_POINT('',(0.923250630857277,6));
#261=CARTESIAN_POINT('',(1.05980557949785,6));
#262=CARTESIAN_POINT('',(1.19383730525369,6.));
#263=CARTESIAN_POINT('',(1.32425407794179,6.));
#264=CARTESIAN_POINT('',(1.4501433254852,6.));
#265=CARTESIAN_POINT('',(1.5707963267949,6.));
#266=CARTESIAN_POINT('',(1.69144932810459,6.));
#267=CARTESIAN_POINT('',(1.817338575648,6.));
#268=CARTESIAN_POINT('',(1.94775534833611,6.));
#269=CARTESIAN_POINT('',(2.08178707409194,6));
#270=CARTESIAN_POINT('',(2.21834202273252,6));
#271=CARTESIAN_POINT('',(2.35619449019234,6));
#272=CARTESIAN_POINT('',(2.49404695765217,6));
#273=CARTESIAN_POINT('',(2.63060190629275,6));
#274=CARTESIAN_POINT('',(2.76463363204858,6.));
#275=CARTESIAN_POINT('',(2.89505040473669,6.));
#276=CARTESIAN_POINT('',(3.0209396522801,6.));
#277=CARTESIAN_POINT('',(3.14159265358979,6.));
#278=CARTESIAN_POINT('',(3.26224565489948,6));
#279=CARTESIAN_POINT('',(3.3881349024429,6));
#280=CARTESIAN_POINT('',(3.518551675131,6.));
#281=CARTESIAN_POINT('',(3.65258340088684,6));
#282=CARTESIAN_POINT('',(3.78913834952741,6));
#283=CARTESIAN_POINT('',(3.92699081698724,6));
#284=CARTESIAN_POINT('',(4.06484328444707,6.));
#285=CARTESIAN_POINT('',(4.20139823308765,6));
#286=CARTESIAN_POINT('',(4.33542995884348,6.));
#287=CARTESIAN_POINT('',(4.46584673153158,6));
#288=CARTESIAN_POINT('',(4.591735979075,6.));
#289=CARTESIAN_POINT('',(4.71238898038469,6.));
#290=CARTESIAN_POINT('',(4.83304198169438,6.));
#291=CARTESIAN_POINT('',(4.95893122923779,6.));
#292=CARTESIAN_POINT('',(5.0893480019259,6.));
#293=CARTESIAN_POINT('',(5.22337972768173,6));
#294=CARTESIAN_POINT('',(5.35993467632231,6));
#295=CARTESIAN_POINT('',(5.49778714378214,6));
#296=CARTESIAN_POINT('',(5.63563961124197,6));
#297=CARTESIAN_POINT('',(5.77219455988254,6));
#298=CARTESIAN_POINT('',(5.90622628563838,6.));
#299=CARTESIAN_POINT('',(6.03664305832648,6.));
#300=CARTESIAN_POINT('',(6.16253230586989,6.));
#301=CARTESIAN_POINT('',(6.28318530717959,6.));
#302=B_SPLINE_CURVE_WITH_KNOTS('',1,(#253,#254,#255,#256,#257,#258,#259,#260,#261,#262,#263,#264,#265,#266,#267,#268,#269,#270,#271,#272,#273,#274,#275,#276,#277,#278,#279,#280,#281,#282,#283,#284,#285,#286,#287,#288,#289,#290,#291,#292,#293,#294,#295,#296,#297,#298,#299,#300,#301),.UNSPECIFIED.,.F.,.U.,(2,1,1,1,1,1,1,1,1,1,1,1,1,1,1,1,1,1,1,1,1,1,1,1,1,1,1,1,1,1,1,1,1,1,1,1,1,1,1,1,1,1,1,1,1,1,1,1,2),(0.,0.130899693899575,0.26179938779915,0.392699081698725,0.523598775598299,0.654498469497874,0.785398163397448,0.916297857297024,1.0471975511966,1.17809724509617,1.30899693899575,1.43989663289532,1.5707963267949,1.70169602069447,1.83259571459405,1.96349540849362,2.0943951023932,2.22529479629277,2.35619449019235,2.48709418409192,2.61799387799149,2.74889357189107,2.87979326579064,3.01069295969022,3.14159265358979,3.27249234748937,3.40339204138894,3.53429173528852,3.66519142918809,3.79609112308767,3.92699081698724,4.05789051088682,4.18879020478639,4.31968989868597,4.45058959258554,4.58148928648512,4.71238898038469,4.84328867428426,4.97418836818384,5.10508806208341,5.23598775598299,5.36688744988256,5.49778714378214,5.62868683768171,5.75958653158129,5.89048622548086,6.02138591938044,6.15228561328001,6.28318530717959),.UNSPECIFIED.);
#303=DEFINITIONAL_REPRESENTATION('',(#302),#66);
#304=PCURVE('',#5,#303);
#305=CARTESIAN_POINT('',(-1.5,-1.5,6.));
#306=DIRECTION('',(0.,0.,1.));
#307=DIRECTION('',(1.,0.,0.));
#308=AXIS2_PLACEMENT_3D('',#305,#306,#307);
#309=PLANE('',#308);
#310=CARTESIAN_POINT('',(3.,1.5));
#311=CARTESIAN_POINT('',(2.98909537793875,1.68054073058857));
#312=CARTESIAN_POINT('',(2.9546431337345,1.86607834336255));
#313=CARTESIAN_POINT('',(2.89468245159365,2.05214206434281));
#314=CARTESIAN_POINT('',(2.80839062865408,2.2335625146163));
#315=CARTESIAN_POINT('',(2.69635006629699,2.4048461299421));
#316=CARTESIAN_POINT('',(2.56066017177982,2.56066017177982));
#317=CARTESIAN_POINT('',(2.4048461299421,2.69635006629699));
#318=CARTESIAN_POINT('',(2.2335625146163,2.80839062865408));
#319=CARTESIAN_POINT('',(2.05214206434281,2.89468245159365));
#320=CARTESIAN_POINT('',(1.86607834336255,2.9546431337345));
#321=CARTESIAN_POINT('',(1.68054073058857,2.98909537793875));
#322=CARTESIAN_POINT('',(1.5,3.));
#323=CARTESIAN_POINT('',(1.31945926941143,2.98909537793875));
#324=CARTESIAN_POINT('',(1.13392165663745,2.9546431337345));
#325=CARTESIAN_POINT('',(0.947857935657191,2.89468245159365));
#326=CARTESIAN_POINT('',(0.766437485383698,2.80839062865408));
#327=CARTESIAN_POINT('',(0.595153870057902,2.69635006629699));
#328=CARTESIAN_POINT('',(0.439339828220179,2.56066017177982));
#329=CARTESIAN_POINT('',(0.303649933703012,2.4048461299421));
#330=CARTESIAN_POINT('',(0.191609371345924,2.2335625146163));
#331=CARTESIAN_POINT('',(0.105317548406354,2.05214206434281));
#332=CARTESIAN_POINT('',(0.0453568662654982,1.86607834336255));
#333=CARTESIAN_POINT('',(0.0109046220612514,1.68054073058857));
#334=CARTESIAN_POINT('',(0.,1.5));
#335=CARTESIAN_POINT('',(0.0109046220612514,1.31945926941143));
#336=CARTESIAN_POINT('',(0.0453568662654977,1.13392165663745));
#337=CARTESIAN_POINT('',(0.105317548406354,0.947857935657191));
#338=CARTESIAN_POINT('',(0.191609371345924,0.766437485383697));
#339=CARTESIAN_POINT('',(0.303649933703011,0.595153870057903));
#340=CARTESIAN_POINT('',(0.439339828220179,0.439339828220179));
#341=CARTESIAN_POINT('',(0.595153870057903,0.303649933703011));
#342=CARTESIAN_POINT('',(0.766437485383697,0.191609371345925));
#343=CARTESIAN_POINT('',(0.947857935657191,0.105317548406354));
#344=CARTESIAN_POINT('',(1.13392165663745,0.045356866265498));
#345=CARTESIAN_POINT('',(1.31945926941143,0.0109046220612512));
#346=CARTESIAN_POINT('',(1.5,0.));
#347=CARTESIAN_POINT('',(1.68054073058857,0.0109046220612514));
#348=CARTESIAN_POINT('',(1.86607834336255,0.0453568662654977));
#349=CARTESIAN_POINT('',(2.05214206434281,0.105317548406354));
#350=CARTESIAN_POINT('',(2.2335625146163,0.191609371345924));
#351=CARTESIAN_POINT('',(2.4048461299421,0.303649933703011));
#352=CARTESIAN_POINT('',(2.56066017177982,0.439339828220179));
#353=CARTESIAN_POINT('',(2.69635006629699,0.595153870057903));
#354=CARTESIAN_POINT('',(2.80839062865408,0.766437485383697));
#355=CARTESIAN_POINT('',(2.89468245159365,0.947857935657191));
#356=CARTESIAN_POINT('',(2.9546431337345,1.13392165663745));
#357=CARTESIAN_POINT('',(2.98909537793875,1.31945926941143));
#358=CARTESIAN_POINT('',(3.,1.5));
#359=B_SPLINE_CURVE_WITH_KNOTS('',1,(#310,#311,#312,#313,#314,#315,#316,#317,#318,#319,#320,#321,#322,#323,#324,#325,#326,#327,#328,#329,#330,#331,#332,#333,#334,#335,#336,#337,#338,#339,#340,#341,#342,#343,#344,#345,#346,#347,#348,#349,#350,#351,#352,#353,#354,#355,#356,#357,#358),.UNSPECIFIED.,.F.,.U.,(2,1,1,1,1,1,1,1,1,1,1,1,1,1,1,1,1,1,1,1,1,1,1,1,1,1,1,1,1,1,1,1,1,1,1,1,1,1,1,1,1,1,1,1,1,1,1,1,2),(0.,0.196208493296007,0.392416986592013,0.58862547988802,0.784833973184026,0.981042466480033,1.17725095977604,1.37345945307205,1.56966794636805,1.76587643966406,1.96208493296007,2.15829342625607,2.35450191955208,2.55071041284809,2.74691890614409,2.9431273994401,3.1393358927361,3.33554438603211,3.53175287932812,3.72796137262412,3.92416986592013,4.12037835921614,4.31658685251214,4.51279534580815,4.70900383910416,4.90521233240016,5.10142082569617,5.29762931899218,5.49383781228818,5.69004630558419,5.8862547988802,6.0824632921762,6.27867178547221,6.47488027876822,6.67108877206422,6.86729726536023,7.06350575865624,7.25971425195224,7.45592274524825,7.65213123854426,7.84833973184026,8.04454822513627,8.24075671843227,8.43696521172828,8.63317370502429,8.82938219832029,9.0255906916163,9.22179918491231,9.41800767820831),.UNSPECIFIED.);
#360=DEFINITIONAL_REPRESENTATION('',(#359),#66);
#361=PCURVE('',#309,#360);
#362=SURFACE_CURVE('',#252,(#304,#361),.PCURVE_S1.);
#363=EDGE_CURVE('',#240,#240,#362,.T.);
#364=ORIENTED_EDGE('',*,*,#363,.F.);
#365=ORIENTED_EDGE('',*,*,#241,.F.);
#366=EDGE_LOOP('',(#130,#242,#364,#365));
#367=FACE_OUTER_BOUND('',#366,.T.);
#368=ADVANCED_FACE('',(#367),#5,.T.);
#369=ORIENTED_EDGE('',*,*,#129,.T.);
#370=EDGE_LOOP('',(#369));
#371=FACE_OUTER_BOUND('',#370,.T.);
#372=ADVANCED_FACE('',(#371),#73,.F.);
#373=ORIENTED_EDGE('',*,*,#363,.T.);
#374=EDGE_LOOP('',(#373));
#375=FACE_OUTER_BOUND('',#374,.T.);
#376=ADVANCED_FACE('',(#375),#309,.T.);
#377=CLOSED_SHELL('',(#368,#372,#376));
#378=MANIFOLD_SOLID_BREP('',#377);
#379=CARTESIAN_POINT('',(0.,0.,0.));
#380=DIRECTION('',(0.,0.,1.));
#381=DIRECTION('',(1.,0.,0.));
#382=AXIS2_PLACEMENT_3D('',#379,#380,#381);
#383=(LENGTH_UNIT()NAMED_UNIT(*)SI_UNIT(.MILLI.,.METRE.));
#384=(NAMED_UNIT(*)PLANE_ANGLE_UNIT()SI_UNIT($,.RADIAN.));
#385=(NAMED_UNIT(*)SI_UNIT($,.STERADIAN.)SOLID_ANGLE_UNIT());
#386=UNCERTAINTY_MEASURE_WITH_UNIT(LENGTH_MEASURE(0.03),#383,'distance_accuracy_value','');
#387=(GEOMETRIC_REPRESENTATION_CONTEXT(3)GLOBAL_UNCERTAINTY_ASSIGNED_CONTEXT((#386))GLOBAL_UNIT_ASSIGNED_CONTEXT((#383,#384,#385))REPRESENTATION_CONTEXT('',''));
#388=APPLICATION_CONTEXT('core data for automotive mechanical design processes');
#389=APPLICATION_PROTOCOL_DEFINITION('international standard','automotive_design',2000,#388);
#390=PRODUCT_CONTEXT('',#388,'mechanical');
#391=PRODUCT('cylinder','cylinder','',(#390));
#392=PRODUCT_DEFINITION_FORMATION('','',#391);
#393=PRODUCT_DEFINITION_CONTEXT('part definition',#388,'design');
#394=PRODUCT_DEFINITION('design','',#392,#393);
#395=PRODUCT_DEFINITION_SHAPE('','',#394);
#396=ADVANCED_BREP_SHAPE_REPRESENTATION('cylinder',(#382,#378),#387);
#397=SHAPE_DEFINITION_REPRESENTATION(#395,#396);
ENDSEC;
END-ISO-10303-21;
