ISO-10303-21;
HEADER;
FILE_DESCRIPTION(('Open CASCADE Model'),'2;1');
FILE_NAME('Open CASCADE Shape Model','2026-07-11T18:32:27',('Author'),(
    'Open CASCADE'),'Open CASCADE STEP processor 8.0','Open CASCADE 8.0'
  ,'Unknown');
FILE_SCHEMA(('AUTOMOTIVE_DESIGN { 1 0 10303 214 1 1 1 1 }'));
ENDSEC;
DATA;
#1 = APPLICATION_PROTOCOL_DEFINITION('international standard',
  'automotive_design',2000,#2);
#2 = APPLICATION_CONTEXT(
  'core data for automotive mechanical design processes');
#3 = SHAPE_DEFINITION_REPRESENTATION(#4,#10);
#4 = PRODUCT_DEFINITION_SHAPE('','',#5);
#5 = PRODUCT_DEFINITION('design','',#6,#9);
#6 = PRODUCT_DEFINITION_FORMATION('','',#7);
#7 = PRODUCT('Open CASCADE STEP translator 8.0 1',
  'Open CASCADE STEP translator 8.0 1','',(#8));
#8 = PRODUCT_CONTEXT('',#2,'mechanical');
#9 = PRODUCT_DEFINITION_CONTEXT('part definition',#2,'design');
#10 = MANIFOLD_SURFACE_SHAPE_REPRESENTATION('',(#11,#15),#675);
#11 = AXIS2_PLACEMENT_3D('',#12,#13,#14);
#12 = CARTESIAN_POINT('',(0.,0.,0.));
#13 = DIRECTION('',(0.,0.,1.));
#14 = DIRECTION('',(1.,0.,-0.));
#15 = SHELL_BASED_SURFACE_MODEL('',(#16));
#16 = OPEN_SHELL('',(#17,#117,#177,#296,#372,#452,#608,#635,#642,#671));
#17 = ADVANCED_FACE('',(#18),#33,.T.);
#18 = FACE_BOUND('',#19,.T.);
#19 = EDGE_LOOP('',(#20,#56));
#20 = ORIENTED_EDGE('',*,*,#21,.T.);
#21 = EDGE_CURVE('',#22,#24,#26,.T.);
#22 = VERTEX_POINT('',#23);
#23 = CARTESIAN_POINT('',(1.,0.6,0.3));
#24 = VERTEX_POINT('',#25);
#25 = CARTESIAN_POINT('',(1.,0.6,0.9));
#26 = SURFACE_CURVE('',#27,(#32,#44),.PCURVE_S1.);
#27 = CIRCLE('',#28,0.5);
#28 = AXIS2_PLACEMENT_3D('',#29,#30,#31);
#29 = CARTESIAN_POINT('',(0.6,0.6,0.6));
#30 = DIRECTION('',(-2.449212707645E-16,-1.,0.));
#31 = DIRECTION('',(1.,-2.449212707645E-16,0.));
#32 = PCURVE('',#33,#38);
#33 = SPHERICAL_SURFACE('',#34,0.5);
#34 = AXIS2_PLACEMENT_3D('',#35,#36,#37);
#35 = CARTESIAN_POINT('',(0.6,0.6,0.6));
#36 = DIRECTION('',(0.,0.,1.));
#37 = DIRECTION('',(1.,0.,0.));
#38 = DEFINITIONAL_REPRESENTATION('',(#39),#43);
#39 = LINE('',#40,#41);
#40 = CARTESIAN_POINT('',(6.28318530718,-6.28318530718));
#41 = VECTOR('',#42,1.);
#42 = DIRECTION('',(0.,1.));
#43 = ( GEOMETRIC_REPRESENTATION_CONTEXT(2) 
PARAMETRIC_REPRESENTATION_CONTEXT() REPRESENTATION_CONTEXT('2D SPACE',''
  ) );
#44 = PCURVE('',#45,#50);
#45 = SPHERICAL_SURFACE('',#46,0.5);
#46 = AXIS2_PLACEMENT_3D('',#47,#48,#49);
#47 = CARTESIAN_POINT('',(0.6,0.6,0.6));
#48 = DIRECTION('',(0.,0.,1.));
#49 = DIRECTION('',(1.,0.,0.));
#50 = DEFINITIONAL_REPRESENTATION('',(#51),#55);
#51 = LINE('',#52,#53);
#52 = CARTESIAN_POINT('',(0.,-6.28318530718));
#53 = VECTOR('',#54,1.);
#54 = DIRECTION('',(0.,1.));
#55 = ( GEOMETRIC_REPRESENTATION_CONTEXT(2) 
PARAMETRIC_REPRESENTATION_CONTEXT() REPRESENTATION_CONTEXT('2D SPACE',''
  ) );
#56 = ORIENTED_EDGE('',*,*,#57,.T.);
#57 = EDGE_CURVE('',#24,#22,#58,.T.);
#58 = SURFACE_CURVE('',#59,(#64,#105),.PCURVE_S1.);
#59 = CIRCLE('',#60,0.3);
#60 = AXIS2_PLACEMENT_3D('',#61,#62,#63);
#61 = CARTESIAN_POINT('',(1.,0.6,0.6));
#62 = DIRECTION('',(1.,0.,-0.));
#63 = DIRECTION('',(0.,0.,1.));
#64 = PCURVE('',#33,#65);
#65 = DEFINITIONAL_REPRESENTATION('',(#66),#104);
#66 = B_SPLINE_CURVE_WITH_KNOTS('',8,(#67,#68,#69,#70,#71,#72,#73,#74,
    #75,#76,#77,#78,#79,#80,#81,#82,#83,#84,#85,#86,#87,#88,#89,#90,#91,
    #92,#93,#94,#95,#96,#97,#98,#99,#100,#101,#102,#103),.UNSPECIFIED.,
  .F.,.F.,(9,7,7,7,7,9),(0.,0.392699081699,1.079922474671,2.110757564131
    ,2.62617510886,3.14159265359),.UNSPECIFIED.);
#67 = CARTESIAN_POINT('',(6.28318530718,0.643501108793));
#68 = CARTESIAN_POINT('',(6.246369767544,0.643501108756));
#69 = CARTESIAN_POINT('',(6.209554228287,0.64143576088));
#70 = CARTESIAN_POINT('',(6.173025943392,0.637305073641));
#71 = CARTESIAN_POINT('',(6.137072137533,0.631137543299));
#72 = CARTESIAN_POINT('',(6.101959485218,0.62299033609));
#73 = CARTESIAN_POINT('',(6.067912787726,0.61294444297));
#74 = CARTESIAN_POINT('',(6.035110247284,0.601096974287));
#75 = CARTESIAN_POINT('',(5.948692894188,0.563856569208));
#76 = CARTESIAN_POINT('',(5.897920270436,0.534968767586));
#77 = CARTESIAN_POINT('',(5.85208577021,0.501465090146));
#78 = CARTESIAN_POINT('',(5.811490690121,0.464013974746));
#79 = CARTESIAN_POINT('',(5.776062524033,0.423267041737));
#80 = CARTESIAN_POINT('',(5.745619523729,0.379803362868));
#81 = CARTESIAN_POINT('',(5.719936669969,0.334142530242));
#82 = CARTESIAN_POINT('',(5.667118093741,0.215665411728));
#83 = CARTESIAN_POINT('',(5.645676525485,0.140686548725));
#84 = CARTESIAN_POINT('',(5.633791861054,6.339377351932E-02));
#85 = CARTESIAN_POINT('',(5.630859828673,-1.489902374206E-02));
#86 = CARTESIAN_POINT('',(5.636758901396,-9.302272539287E-02));
#87 = CARTESIAN_POINT('',(5.651704805507,-0.169797754931));
#88 = CARTESIAN_POINT('',(5.676396121057,-0.243862722885));
#89 = CARTESIAN_POINT('',(5.729107497332,-0.3484317284));
#90 = CARTESIAN_POINT('',(5.749290363331,-0.382200019719));
#91 = CARTESIAN_POINT('',(5.772173622926,-0.414675153364));
#92 = CARTESIAN_POINT('',(5.797845906343,-0.445634771963));
#93 = CARTESIAN_POINT('',(5.826380677414,-0.474837357097));
#94 = CARTESIAN_POINT('',(5.857814942696,-0.50202184496));
#95 = CARTESIAN_POINT('',(5.892104283591,-0.526915822548));
#96 = CARTESIAN_POINT('',(5.966080667993,-0.571594743273));
#97 = CARTESIAN_POINT('',(6.005767698621,-0.591379692379));
#98 = CARTESIAN_POINT('',(6.047997552051,-0.608346027536));
#99 = CARTESIAN_POINT('',(6.092501692932,-0.622238305802));
#100 = CARTESIAN_POINT('',(6.13887353863,-0.632827519391));
#101 = CARTESIAN_POINT('',(6.186544527492,-0.639943216378));
#102 = CARTESIAN_POINT('',(6.234864911642,-0.643501108745));
#103 = CARTESIAN_POINT('',(6.28318530718,-0.643501108793));
#104 = ( GEOMETRIC_REPRESENTATION_CONTEXT(2) 
PARAMETRIC_REPRESENTATION_CONTEXT() REPRESENTATION_CONTEXT('2D SPACE',''
  ) );
#105 = PCURVE('',#106,#111);
#106 = PLANE('',#107);
#107 = AXIS2_PLACEMENT_3D('',#108,#109,#110);
#108 = CARTESIAN_POINT('',(1.,0.,0.));
#109 = DIRECTION('',(1.,0.,0.));
#110 = DIRECTION('',(0.,0.,1.));
#111 = DEFINITIONAL_REPRESENTATION('',(#112),#116);
#112 = CIRCLE('',#113,0.3);
#113 = AXIS2_PLACEMENT_2D('',#114,#115);
#114 = CARTESIAN_POINT('',(0.6,-0.6));
#115 = DIRECTION('',(1.,0.));
#116 = ( GEOMETRIC_REPRESENTATION_CONTEXT(2) 
PARAMETRIC_REPRESENTATION_CONTEXT() REPRESENTATION_CONTEXT('2D SPACE',''
  ) );
#117 = ADVANCED_FACE('',(#118),#45,.T.);
#118 = FACE_BOUND('',#119,.T.);
#119 = EDGE_LOOP('',(#120,#121));
#120 = ORIENTED_EDGE('',*,*,#21,.F.);
#121 = ORIENTED_EDGE('',*,*,#122,.T.);
#122 = EDGE_CURVE('',#22,#24,#123,.T.);
#123 = SURFACE_CURVE('',#124,(#129,#170),.PCURVE_S1.);
#124 = CIRCLE('',#125,0.3);
#125 = AXIS2_PLACEMENT_3D('',#126,#127,#128);
#126 = CARTESIAN_POINT('',(1.,0.6,0.6));
#127 = DIRECTION('',(1.,0.,-0.));
#128 = DIRECTION('',(0.,0.,1.));
#129 = PCURVE('',#45,#130);
#130 = DEFINITIONAL_REPRESENTATION('',(#131),#169);
#131 = B_SPLINE_CURVE_WITH_KNOTS('',8,(#132,#133,#134,#135,#136,#137,
    #138,#139,#140,#141,#142,#143,#144,#145,#146,#147,#148,#149,#150,
    #151,#152,#153,#154,#155,#156,#157,#158,#159,#160,#161,#162,#163,
    #164,#165,#166,#167,#168),.UNSPECIFIED.,.F.,.F.,(9,7,7,7,7,9),(
    3.14159265359,3.534291735289,4.221515128261,5.25235021772,
    5.76776776245,6.28318530718),.UNSPECIFIED.);
#132 = CARTESIAN_POINT('',(-5.397666658312E-16,-0.643501108793));
#133 = CARTESIAN_POINT('',(3.681553963582E-02,-0.643501108756));
#134 = CARTESIAN_POINT('',(7.363107889303E-02,-0.641435760879));
#135 = CARTESIAN_POINT('',(0.110159363787,-0.637305073645));
#136 = CARTESIAN_POINT('',(0.146113169648,-0.631137543292));
#137 = CARTESIAN_POINT('',(0.18122582196,-0.622990336093));
#138 = CARTESIAN_POINT('',(0.215272519454,-0.612944442969));
#139 = CARTESIAN_POINT('',(0.248075059895,-0.601096974287));
#140 = CARTESIAN_POINT('',(0.334492412992,-0.563856569208));
#141 = CARTESIAN_POINT('',(0.385265036743,-0.534968767585));
#142 = CARTESIAN_POINT('',(0.43109953697,-0.501465090148));
#143 = CARTESIAN_POINT('',(0.471694617061,-0.464013974743));
#144 = CARTESIAN_POINT('',(0.507122783145,-0.423267041738));
#145 = CARTESIAN_POINT('',(0.537565783451,-0.379803362867));
#146 = CARTESIAN_POINT('',(0.56324863721,-0.334142530242));
#147 = CARTESIAN_POINT('',(0.616067213438,-0.215665411728));
#148 = CARTESIAN_POINT('',(0.637508781696,-0.140686548725));
#149 = CARTESIAN_POINT('',(0.64939344612,-6.339377351927E-02));
#150 = CARTESIAN_POINT('',(0.652325478514,1.489902374195E-02));
#151 = CARTESIAN_POINT('',(0.64642640578,9.302272539301E-02));
#152 = CARTESIAN_POINT('',(0.631480501674,0.169797754931));
#153 = CARTESIAN_POINT('',(0.606789186122,0.243862722885));
#154 = CARTESIAN_POINT('',(0.554077809848,0.3484317284));
#155 = CARTESIAN_POINT('',(0.533894943849,0.382200019719));
#156 = CARTESIAN_POINT('',(0.51101168425,0.414675153366));
#157 = CARTESIAN_POINT('',(0.485339400843,0.445634771961));
#158 = CARTESIAN_POINT('',(0.456804629762,0.474837357098));
#159 = CARTESIAN_POINT('',(0.425370364484,0.502021844959));
#160 = CARTESIAN_POINT('',(0.391081023589,0.526915822548));
#161 = CARTESIAN_POINT('',(0.317104639187,0.571594743273));
#162 = CARTESIAN_POINT('',(0.277417608559,0.591379692378));
#163 = CARTESIAN_POINT('',(0.235187755128,0.608346027538));
#164 = CARTESIAN_POINT('',(0.19068361425,0.6222383058));
#165 = CARTESIAN_POINT('',(0.144311768549,0.632827519392));
#166 = CARTESIAN_POINT('',(9.664077968753E-02,0.639943216378));
#167 = CARTESIAN_POINT('',(4.832039553764E-02,0.643501108745));
#168 = CARTESIAN_POINT('',(-3.881005941106E-16,0.643501108793));
#169 = ( GEOMETRIC_REPRESENTATION_CONTEXT(2) 
PARAMETRIC_REPRESENTATION_CONTEXT() REPRESENTATION_CONTEXT('2D SPACE',''
  ) );
#170 = PCURVE('',#106,#171);
#171 = DEFINITIONAL_REPRESENTATION('',(#172),#176);
#172 = CIRCLE('',#173,0.3);
#173 = AXIS2_PLACEMENT_2D('',#174,#175);
#174 = CARTESIAN_POINT('',(0.6,-0.6));
#175 = DIRECTION('',(1.,0.));
#176 = ( GEOMETRIC_REPRESENTATION_CONTEXT(2) 
PARAMETRIC_REPRESENTATION_CONTEXT() REPRESENTATION_CONTEXT('2D SPACE',''
  ) );
#177 = ADVANCED_FACE('',(#178,#292),#106,.T.);
#178 = FACE_BOUND('',#179,.T.);
#179 = EDGE_LOOP('',(#180,#210,#238,#266));
#180 = ORIENTED_EDGE('',*,*,#181,.F.);
#181 = EDGE_CURVE('',#182,#184,#186,.T.);
#182 = VERTEX_POINT('',#183);
#183 = CARTESIAN_POINT('',(1.,0.,0.));
#184 = VERTEX_POINT('',#185);
#185 = CARTESIAN_POINT('',(1.,0.,1.));
#186 = SURFACE_CURVE('',#187,(#191,#198),.PCURVE_S1.);
#187 = LINE('',#188,#189);
#188 = CARTESIAN_POINT('',(1.,0.,0.));
#189 = VECTOR('',#190,1.);
#190 = DIRECTION('',(0.,0.,1.));
#191 = PCURVE('',#106,#192);
#192 = DEFINITIONAL_REPRESENTATION('',(#193),#197);
#193 = LINE('',#194,#195);
#194 = CARTESIAN_POINT('',(0.,0.));
#195 = VECTOR('',#196,1.);
#196 = DIRECTION('',(1.,0.));
#197 = ( GEOMETRIC_REPRESENTATION_CONTEXT(2) 
PARAMETRIC_REPRESENTATION_CONTEXT() REPRESENTATION_CONTEXT('2D SPACE',''
  ) );
#198 = PCURVE('',#199,#204);
#199 = PLANE('',#200);
#200 = AXIS2_PLACEMENT_3D('',#201,#202,#203);
#201 = CARTESIAN_POINT('',(0.,0.,0.));
#202 = DIRECTION('',(0.,1.,0.));
#203 = DIRECTION('',(0.,-0.,1.));
#204 = DEFINITIONAL_REPRESENTATION('',(#205),#209);
#205 = LINE('',#206,#207);
#206 = CARTESIAN_POINT('',(0.,1.));
#207 = VECTOR('',#208,1.);
#208 = DIRECTION('',(1.,0.));
#209 = ( GEOMETRIC_REPRESENTATION_CONTEXT(2) 
PARAMETRIC_REPRESENTATION_CONTEXT() REPRESENTATION_CONTEXT('2D SPACE',''
  ) );
#210 = ORIENTED_EDGE('',*,*,#211,.T.);
#211 = EDGE_CURVE('',#182,#212,#214,.T.);
#212 = VERTEX_POINT('',#213);
#213 = CARTESIAN_POINT('',(1.,1.,0.));
#214 = SURFACE_CURVE('',#215,(#219,#226),.PCURVE_S1.);
#215 = LINE('',#216,#217);
#216 = CARTESIAN_POINT('',(1.,0.,0.));
#217 = VECTOR('',#218,1.);
#218 = DIRECTION('',(0.,1.,0.));
#219 = PCURVE('',#106,#220);
#220 = DEFINITIONAL_REPRESENTATION('',(#221),#225);
#221 = LINE('',#222,#223);
#222 = CARTESIAN_POINT('',(0.,0.));
#223 = VECTOR('',#224,1.);
#224 = DIRECTION('',(0.,-1.));
#225 = ( GEOMETRIC_REPRESENTATION_CONTEXT(2) 
PARAMETRIC_REPRESENTATION_CONTEXT() REPRESENTATION_CONTEXT('2D SPACE',''
  ) );
#226 = PCURVE('',#227,#232);
#227 = PLANE('',#228);
#228 = AXIS2_PLACEMENT_3D('',#229,#230,#231);
#229 = CARTESIAN_POINT('',(0.,0.,0.));
#230 = DIRECTION('',(0.,0.,1.));
#231 = DIRECTION('',(1.,0.,-0.));
#232 = DEFINITIONAL_REPRESENTATION('',(#233),#237);
#233 = LINE('',#234,#235);
#234 = CARTESIAN_POINT('',(1.,0.));
#235 = VECTOR('',#236,1.);
#236 = DIRECTION('',(0.,1.));
#237 = ( GEOMETRIC_REPRESENTATION_CONTEXT(2) 
PARAMETRIC_REPRESENTATION_CONTEXT() REPRESENTATION_CONTEXT('2D SPACE',''
  ) );
#238 = ORIENTED_EDGE('',*,*,#239,.T.);
#239 = EDGE_CURVE('',#212,#240,#242,.T.);
#240 = VERTEX_POINT('',#241);
#241 = CARTESIAN_POINT('',(1.,1.,1.));
#242 = SURFACE_CURVE('',#243,(#247,#254),.PCURVE_S1.);
#243 = LINE('',#244,#245);
#244 = CARTESIAN_POINT('',(1.,1.,0.));
#245 = VECTOR('',#246,1.);
#246 = DIRECTION('',(0.,0.,1.));
#247 = PCURVE('',#106,#248);
#248 = DEFINITIONAL_REPRESENTATION('',(#249),#253);
#249 = LINE('',#250,#251);
#250 = CARTESIAN_POINT('',(0.,-1.));
#251 = VECTOR('',#252,1.);
#252 = DIRECTION('',(1.,0.));
#253 = ( GEOMETRIC_REPRESENTATION_CONTEXT(2) 
PARAMETRIC_REPRESENTATION_CONTEXT() REPRESENTATION_CONTEXT('2D SPACE',''
  ) );
#254 = PCURVE('',#255,#260);
#255 = PLANE('',#256);
#256 = AXIS2_PLACEMENT_3D('',#257,#258,#259);
#257 = CARTESIAN_POINT('',(0.,1.,0.));
#258 = DIRECTION('',(0.,1.,0.));
#259 = DIRECTION('',(0.,-0.,1.));
#260 = DEFINITIONAL_REPRESENTATION('',(#261),#265);
#261 = LINE('',#262,#263);
#262 = CARTESIAN_POINT('',(0.,1.));
#263 = VECTOR('',#264,1.);
#264 = DIRECTION('',(1.,0.));
#265 = ( GEOMETRIC_REPRESENTATION_CONTEXT(2) 
PARAMETRIC_REPRESENTATION_CONTEXT() REPRESENTATION_CONTEXT('2D SPACE',''
  ) );
#266 = ORIENTED_EDGE('',*,*,#267,.F.);
#267 = EDGE_CURVE('',#184,#240,#268,.T.);
#268 = SURFACE_CURVE('',#269,(#273,#280),.PCURVE_S1.);
#269 = LINE('',#270,#271);
#270 = CARTESIAN_POINT('',(1.,0.,1.));
#271 = VECTOR('',#272,1.);
#272 = DIRECTION('',(0.,1.,0.));
#273 = PCURVE('',#106,#274);
#274 = DEFINITIONAL_REPRESENTATION('',(#275),#279);
#275 = LINE('',#276,#277);
#276 = CARTESIAN_POINT('',(1.,0.));
#277 = VECTOR('',#278,1.);
#278 = DIRECTION('',(0.,-1.));
#279 = ( GEOMETRIC_REPRESENTATION_CONTEXT(2) 
PARAMETRIC_REPRESENTATION_CONTEXT() REPRESENTATION_CONTEXT('2D SPACE',''
  ) );
#280 = PCURVE('',#281,#286);
#281 = PLANE('',#282);
#282 = AXIS2_PLACEMENT_3D('',#283,#284,#285);
#283 = CARTESIAN_POINT('',(0.,0.,1.));
#284 = DIRECTION('',(0.,0.,1.));
#285 = DIRECTION('',(1.,0.,-0.));
#286 = DEFINITIONAL_REPRESENTATION('',(#287),#291);
#287 = LINE('',#288,#289);
#288 = CARTESIAN_POINT('',(1.,0.));
#289 = VECTOR('',#290,1.);
#290 = DIRECTION('',(0.,1.));
#291 = ( GEOMETRIC_REPRESENTATION_CONTEXT(2) 
PARAMETRIC_REPRESENTATION_CONTEXT() REPRESENTATION_CONTEXT('2D SPACE',''
  ) );
#292 = FACE_BOUND('',#293,.T.);
#293 = EDGE_LOOP('',(#294,#295));
#294 = ORIENTED_EDGE('',*,*,#57,.F.);
#295 = ORIENTED_EDGE('',*,*,#122,.F.);
#296 = ADVANCED_FACE('',(#297),#199,.F.);
#297 = FACE_BOUND('',#298,.F.);
#298 = EDGE_LOOP('',(#299,#322,#350,#371));
#299 = ORIENTED_EDGE('',*,*,#300,.F.);
#300 = EDGE_CURVE('',#301,#182,#303,.T.);
#301 = VERTEX_POINT('',#302);
#302 = CARTESIAN_POINT('',(0.,0.,0.));
#303 = SURFACE_CURVE('',#304,(#308,#315),.PCURVE_S1.);
#304 = LINE('',#305,#306);
#305 = CARTESIAN_POINT('',(0.,0.,0.));
#306 = VECTOR('',#307,1.);
#307 = DIRECTION('',(1.,0.,0.));
#308 = PCURVE('',#199,#309);
#309 = DEFINITIONAL_REPRESENTATION('',(#310),#314);
#310 = LINE('',#311,#312);
#311 = CARTESIAN_POINT('',(0.,0.));
#312 = VECTOR('',#313,1.);
#313 = DIRECTION('',(0.,1.));
#314 = ( GEOMETRIC_REPRESENTATION_CONTEXT(2) 
PARAMETRIC_REPRESENTATION_CONTEXT() REPRESENTATION_CONTEXT('2D SPACE',''
  ) );
#315 = PCURVE('',#227,#316);
#316 = DEFINITIONAL_REPRESENTATION('',(#317),#321);
#317 = LINE('',#318,#319);
#318 = CARTESIAN_POINT('',(0.,0.));
#319 = VECTOR('',#320,1.);
#320 = DIRECTION('',(1.,0.));
#321 = ( GEOMETRIC_REPRESENTATION_CONTEXT(2) 
PARAMETRIC_REPRESENTATION_CONTEXT() REPRESENTATION_CONTEXT('2D SPACE',''
  ) );
#322 = ORIENTED_EDGE('',*,*,#323,.T.);
#323 = EDGE_CURVE('',#301,#324,#326,.T.);
#324 = VERTEX_POINT('',#325);
#325 = CARTESIAN_POINT('',(0.,0.,1.));
#326 = SURFACE_CURVE('',#327,(#331,#338),.PCURVE_S1.);
#327 = LINE('',#328,#329);
#328 = CARTESIAN_POINT('',(0.,0.,0.));
#329 = VECTOR('',#330,1.);
#330 = DIRECTION('',(0.,0.,1.));
#331 = PCURVE('',#199,#332);
#332 = DEFINITIONAL_REPRESENTATION('',(#333),#337);
#333 = LINE('',#334,#335);
#334 = CARTESIAN_POINT('',(0.,0.));
#335 = VECTOR('',#336,1.);
#336 = DIRECTION('',(1.,0.));
#337 = ( GEOMETRIC_REPRESENTATION_CONTEXT(2) 
PARAMETRIC_REPRESENTATION_CONTEXT() REPRESENTATION_CONTEXT('2D SPACE',''
  ) );
#338 = PCURVE('',#339,#344);
#339 = PLANE('',#340);
#340 = AXIS2_PLACEMENT_3D('',#341,#342,#343);
#341 = CARTESIAN_POINT('',(0.,0.,0.));
#342 = DIRECTION('',(1.,0.,0.));
#343 = DIRECTION('',(0.,0.,1.));
#344 = DEFINITIONAL_REPRESENTATION('',(#345),#349);
#345 = LINE('',#346,#347);
#346 = CARTESIAN_POINT('',(0.,0.));
#347 = VECTOR('',#348,1.);
#348 = DIRECTION('',(1.,0.));
#349 = ( GEOMETRIC_REPRESENTATION_CONTEXT(2) 
PARAMETRIC_REPRESENTATION_CONTEXT() REPRESENTATION_CONTEXT('2D SPACE',''
  ) );
#350 = ORIENTED_EDGE('',*,*,#351,.T.);
#351 = EDGE_CURVE('',#324,#184,#352,.T.);
#352 = SURFACE_CURVE('',#353,(#357,#364),.PCURVE_S1.);
#353 = LINE('',#354,#355);
#354 = CARTESIAN_POINT('',(0.,0.,1.));
#355 = VECTOR('',#356,1.);
#356 = DIRECTION('',(1.,0.,0.));
#357 = PCURVE('',#199,#358);
#358 = DEFINITIONAL_REPRESENTATION('',(#359),#363);
#359 = LINE('',#360,#361);
#360 = CARTESIAN_POINT('',(1.,0.));
#361 = VECTOR('',#362,1.);
#362 = DIRECTION('',(0.,1.));
#363 = ( GEOMETRIC_REPRESENTATION_CONTEXT(2) 
PARAMETRIC_REPRESENTATION_CONTEXT() REPRESENTATION_CONTEXT('2D SPACE',''
  ) );
#364 = PCURVE('',#281,#365);
#365 = DEFINITIONAL_REPRESENTATION('',(#366),#370);
#366 = LINE('',#367,#368);
#367 = CARTESIAN_POINT('',(0.,0.));
#368 = VECTOR('',#369,1.);
#369 = DIRECTION('',(1.,0.));
#370 = ( GEOMETRIC_REPRESENTATION_CONTEXT(2) 
PARAMETRIC_REPRESENTATION_CONTEXT() REPRESENTATION_CONTEXT('2D SPACE',''
  ) );
#371 = ORIENTED_EDGE('',*,*,#181,.F.);
#372 = ADVANCED_FACE('',(#373,#421),#281,.T.);
#373 = FACE_BOUND('',#374,.T.);
#374 = EDGE_LOOP('',(#375,#398,#399,#400));
#375 = ORIENTED_EDGE('',*,*,#376,.F.);
#376 = EDGE_CURVE('',#324,#377,#379,.T.);
#377 = VERTEX_POINT('',#378);
#378 = CARTESIAN_POINT('',(0.,1.,1.));
#379 = SURFACE_CURVE('',#380,(#384,#391),.PCURVE_S1.);
#380 = LINE('',#381,#382);
#381 = CARTESIAN_POINT('',(0.,0.,1.));
#382 = VECTOR('',#383,1.);
#383 = DIRECTION('',(0.,1.,0.));
#384 = PCURVE('',#281,#385);
#385 = DEFINITIONAL_REPRESENTATION('',(#386),#390);
#386 = LINE('',#387,#388);
#387 = CARTESIAN_POINT('',(0.,0.));
#388 = VECTOR('',#389,1.);
#389 = DIRECTION('',(0.,1.));
#390 = ( GEOMETRIC_REPRESENTATION_CONTEXT(2) 
PARAMETRIC_REPRESENTATION_CONTEXT() REPRESENTATION_CONTEXT('2D SPACE',''
  ) );
#391 = PCURVE('',#339,#392);
#392 = DEFINITIONAL_REPRESENTATION('',(#393),#397);
#393 = LINE('',#394,#395);
#394 = CARTESIAN_POINT('',(1.,0.));
#395 = VECTOR('',#396,1.);
#396 = DIRECTION('',(0.,-1.));
#397 = ( GEOMETRIC_REPRESENTATION_CONTEXT(2) 
PARAMETRIC_REPRESENTATION_CONTEXT() REPRESENTATION_CONTEXT('2D SPACE',''
  ) );
#398 = ORIENTED_EDGE('',*,*,#351,.T.);
#399 = ORIENTED_EDGE('',*,*,#267,.T.);
#400 = ORIENTED_EDGE('',*,*,#401,.F.);
#401 = EDGE_CURVE('',#377,#240,#402,.T.);
#402 = SURFACE_CURVE('',#403,(#407,#414),.PCURVE_S1.);
#403 = LINE('',#404,#405);
#404 = CARTESIAN_POINT('',(0.,1.,1.));
#405 = VECTOR('',#406,1.);
#406 = DIRECTION('',(1.,0.,0.));
#407 = PCURVE('',#281,#408);
#408 = DEFINITIONAL_REPRESENTATION('',(#409),#413);
#409 = LINE('',#410,#411);
#410 = CARTESIAN_POINT('',(0.,1.));
#411 = VECTOR('',#412,1.);
#412 = DIRECTION('',(1.,0.));
#413 = ( GEOMETRIC_REPRESENTATION_CONTEXT(2) 
PARAMETRIC_REPRESENTATION_CONTEXT() REPRESENTATION_CONTEXT('2D SPACE',''
  ) );
#414 = PCURVE('',#255,#415);
#415 = DEFINITIONAL_REPRESENTATION('',(#416),#420);
#416 = LINE('',#417,#418);
#417 = CARTESIAN_POINT('',(1.,0.));
#418 = VECTOR('',#419,1.);
#419 = DIRECTION('',(0.,1.));
#420 = ( GEOMETRIC_REPRESENTATION_CONTEXT(2) 
PARAMETRIC_REPRESENTATION_CONTEXT() REPRESENTATION_CONTEXT('2D SPACE',''
  ) );
#421 = FACE_BOUND('',#422,.T.);
#422 = EDGE_LOOP('',(#423));
#423 = ORIENTED_EDGE('',*,*,#424,.F.);
#424 = EDGE_CURVE('',#425,#425,#427,.T.);
#425 = VERTEX_POINT('',#426);
#426 = CARTESIAN_POINT('',(0.9,0.6,1.));
#427 = SURFACE_CURVE('',#428,(#433,#440),.PCURVE_S1.);
#428 = CIRCLE('',#429,0.3);
#429 = AXIS2_PLACEMENT_3D('',#430,#431,#432);
#430 = CARTESIAN_POINT('',(0.6,0.6,1.));
#431 = DIRECTION('',(0.,0.,1.));
#432 = DIRECTION('',(0.,-1.,0.));
#433 = PCURVE('',#281,#434);
#434 = DEFINITIONAL_REPRESENTATION('',(#435),#439);
#435 = CIRCLE('',#436,0.3);
#436 = AXIS2_PLACEMENT_2D('',#437,#438);
#437 = CARTESIAN_POINT('',(0.6,0.6));
#438 = DIRECTION('',(0.,-1.));
#439 = ( GEOMETRIC_REPRESENTATION_CONTEXT(2) 
PARAMETRIC_REPRESENTATION_CONTEXT() REPRESENTATION_CONTEXT('2D SPACE',''
  ) );
#440 = PCURVE('',#441,#446);
#441 = SPHERICAL_SURFACE('',#442,0.5);
#442 = AXIS2_PLACEMENT_3D('',#443,#444,#445);
#443 = CARTESIAN_POINT('',(0.6,0.6,0.6));
#444 = DIRECTION('',(0.,0.,1.));
#445 = DIRECTION('',(1.,0.,0.));
#446 = DEFINITIONAL_REPRESENTATION('',(#447),#451);
#447 = LINE('',#448,#449);
#448 = CARTESIAN_POINT('',(-1.570796326795,0.927295218002));
#449 = VECTOR('',#450,1.);
#450 = DIRECTION('',(1.,0.));
#451 = ( GEOMETRIC_REPRESENTATION_CONTEXT(2) 
PARAMETRIC_REPRESENTATION_CONTEXT() REPRESENTATION_CONTEXT('2D SPACE',''
  ) );
#452 = ADVANCED_FACE('',(#453,#501),#255,.T.);
#453 = FACE_BOUND('',#454,.T.);
#454 = EDGE_LOOP('',(#455,#478,#499,#500));
#455 = ORIENTED_EDGE('',*,*,#456,.F.);
#456 = EDGE_CURVE('',#457,#212,#459,.T.);
#457 = VERTEX_POINT('',#458);
#458 = CARTESIAN_POINT('',(0.,1.,0.));
#459 = SURFACE_CURVE('',#460,(#464,#471),.PCURVE_S1.);
#460 = LINE('',#461,#462);
#461 = CARTESIAN_POINT('',(0.,1.,0.));
#462 = VECTOR('',#463,1.);
#463 = DIRECTION('',(1.,0.,0.));
#464 = PCURVE('',#255,#465);
#465 = DEFINITIONAL_REPRESENTATION('',(#466),#470);
#466 = LINE('',#467,#468);
#467 = CARTESIAN_POINT('',(0.,0.));
#468 = VECTOR('',#469,1.);
#469 = DIRECTION('',(0.,1.));
#470 = ( GEOMETRIC_REPRESENTATION_CONTEXT(2) 
PARAMETRIC_REPRESENTATION_CONTEXT() REPRESENTATION_CONTEXT('2D SPACE',''
  ) );
#471 = PCURVE('',#227,#472);
#472 = DEFINITIONAL_REPRESENTATION('',(#473),#477);
#473 = LINE('',#474,#475);
#474 = CARTESIAN_POINT('',(0.,1.));
#475 = VECTOR('',#476,1.);
#476 = DIRECTION('',(1.,0.));
#477 = ( GEOMETRIC_REPRESENTATION_CONTEXT(2) 
PARAMETRIC_REPRESENTATION_CONTEXT() REPRESENTATION_CONTEXT('2D SPACE',''
  ) );
#478 = ORIENTED_EDGE('',*,*,#479,.T.);
#479 = EDGE_CURVE('',#457,#377,#480,.T.);
#480 = SURFACE_CURVE('',#481,(#485,#492),.PCURVE_S1.);
#481 = LINE('',#482,#483);
#482 = CARTESIAN_POINT('',(0.,1.,0.));
#483 = VECTOR('',#484,1.);
#484 = DIRECTION('',(0.,0.,1.));
#485 = PCURVE('',#255,#486);
#486 = DEFINITIONAL_REPRESENTATION('',(#487),#491);
#487 = LINE('',#488,#489);
#488 = CARTESIAN_POINT('',(0.,0.));
#489 = VECTOR('',#490,1.);
#490 = DIRECTION('',(1.,0.));
#491 = ( GEOMETRIC_REPRESENTATION_CONTEXT(2) 
PARAMETRIC_REPRESENTATION_CONTEXT() REPRESENTATION_CONTEXT('2D SPACE',''
  ) );
#492 = PCURVE('',#339,#493);
#493 = DEFINITIONAL_REPRESENTATION('',(#494),#498);
#494 = LINE('',#495,#496);
#495 = CARTESIAN_POINT('',(0.,-1.));
#496 = VECTOR('',#497,1.);
#497 = DIRECTION('',(1.,0.));
#498 = ( GEOMETRIC_REPRESENTATION_CONTEXT(2) 
PARAMETRIC_REPRESENTATION_CONTEXT() REPRESENTATION_CONTEXT('2D SPACE',''
  ) );
#499 = ORIENTED_EDGE('',*,*,#401,.T.);
#500 = ORIENTED_EDGE('',*,*,#239,.F.);
#501 = FACE_BOUND('',#502,.T.);
#502 = EDGE_LOOP('',(#503));
#503 = ORIENTED_EDGE('',*,*,#504,.F.);
#504 = EDGE_CURVE('',#505,#505,#507,.T.);
#505 = VERTEX_POINT('',#506);
#506 = CARTESIAN_POINT('',(0.6,1.,0.9));
#507 = SURFACE_CURVE('',#508,(#513,#520),.PCURVE_S1.);
#508 = CIRCLE('',#509,0.3);
#509 = AXIS2_PLACEMENT_3D('',#510,#511,#512);
#510 = CARTESIAN_POINT('',(0.6,1.,0.6));
#511 = DIRECTION('',(0.,1.,0.));
#512 = DIRECTION('',(0.,-0.,1.));
#513 = PCURVE('',#255,#514);
#514 = DEFINITIONAL_REPRESENTATION('',(#515),#519);
#515 = CIRCLE('',#516,0.3);
#516 = AXIS2_PLACEMENT_2D('',#517,#518);
#517 = CARTESIAN_POINT('',(0.6,0.6));
#518 = DIRECTION('',(1.,0.));
#519 = ( GEOMETRIC_REPRESENTATION_CONTEXT(2) 
PARAMETRIC_REPRESENTATION_CONTEXT() REPRESENTATION_CONTEXT('2D SPACE',''
  ) );
#520 = PCURVE('',#521,#526);
#521 = SPHERICAL_SURFACE('',#522,0.5);
#522 = AXIS2_PLACEMENT_3D('',#523,#524,#525);
#523 = CARTESIAN_POINT('',(0.6,0.6,0.6));
#524 = DIRECTION('',(0.,0.,1.));
#525 = DIRECTION('',(1.,0.,0.));
#526 = DEFINITIONAL_REPRESENTATION('',(#527),#607);
#527 = B_SPLINE_CURVE_WITH_KNOTS('',8,(#528,#529,#530,#531,#532,#533,
    #534,#535,#536,#537,#538,#539,#540,#541,#542,#543,#544,#545,#546,
    #547,#548,#549,#550,#551,#552,#553,#554,#555,#556,#557,#558,#559,
    #560,#561,#562,#563,#564,#565,#566,#567,#568,#569,#570,#571,#572,
    #573,#574,#575,#576,#577,#578,#579,#580,#581,#582,#583,#584,#585,
    #586,#587,#588,#589,#590,#591,#592,#593,#594,#595,#596,#597,#598,
    #599,#600,#601,#602,#603,#604,#605,#606),.UNSPECIFIED.,.T.,.F.,(9,7,
    7,7,7,7,7,7,7,7,7,9),(0.,0.392699081699,1.129009859884,
    1.773281790796,2.337019730344,2.830290427448,3.261902287415,
    3.639562664885,4.300468325459,5.291826816319,5.787506061749,
    6.28318530718),.UNSPECIFIED.);
#528 = CARTESIAN_POINT('',(1.570796326795,0.643501108793));
#529 = CARTESIAN_POINT('',(1.533980787147,0.643501108756));
#530 = CARTESIAN_POINT('',(1.497165247877,0.641435760877));
#531 = CARTESIAN_POINT('',(1.460636962972,0.637305073642));
#532 = CARTESIAN_POINT('',(1.424683157096,0.631137543283));
#533 = CARTESIAN_POINT('',(1.389570504779,0.622990336083));
#534 = CARTESIAN_POINT('',(1.355523807275,0.612944442949));
#535 = CARTESIAN_POINT('',(1.322721266827,0.60109697426));
#536 = CARTESIAN_POINT('',(1.232375852206,0.562163823473));
#537 = CARTESIAN_POINT('',(1.178299548414,0.530815482908));
#538 = CARTESIAN_POINT('',(1.129951163559,0.494215185082));
#539 = CARTESIAN_POINT('',(1.087663497057,0.453194011872));
#540 = CARTESIAN_POINT('',(1.051284426162,0.408548534991));
#541 = CARTESIAN_POINT('',(1.020563379005,0.360972510537));
#542 = CARTESIAN_POINT('',(0.995213487016,0.31108321864));
#543 = CARTESIAN_POINT('',(0.957302055625,0.214240005819));
#544 = CARTESIAN_POINT('',(0.943537979621,0.167698720443));
#545 = CARTESIAN_POINT('',(0.933539905181,0.12018032534));
#546 = CARTESIAN_POINT('',(0.927169784765,7.20189312012E-02));
#547 = CARTESIAN_POINT('',(0.924344241511,2.352301612493E-02));
#548 = CARTESIAN_POINT('',(0.925037619092,-2.500921378707E-02));
#549 = CARTESIAN_POINT('',(0.92928524766,-7.327593405379E-02));
#550 = CARTESIAN_POINT('',(0.944076788255,-0.162678897827));
#551 = CARTESIAN_POINT('',(0.953767299394,-0.203952285312));
#552 = CARTESIAN_POINT('',(0.966303815691,-0.244563557089));
#553 = CARTESIAN_POINT('',(0.981774968514,-0.284288232021));
#554 = CARTESIAN_POINT('',(1.000294383691,-0.322884274394));
#555 = CARTESIAN_POINT('',(1.021991652205,-0.360085766528));
#556 = CARTESIAN_POINT('',(1.046988500473,-0.395597058213));
#557 = CARTESIAN_POINT('',(1.100171386824,-0.458412700091));
#558 = CARTESIAN_POINT('',(1.127568199363,-0.486188051956));
#559 = CARTESIAN_POINT('',(1.157588619227,-0.512210828242));
#560 = CARTESIAN_POINT('',(1.190246455024,-0.536253030259));
#561 = CARTESIAN_POINT('',(1.225501435304,-0.558076152907));
#562 = CARTESIAN_POINT('',(1.263226913931,-0.577438319371));
#563 = CARTESIAN_POINT('',(1.30317544904,-0.594115011922));
#564 = CARTESIAN_POINT('',(1.381578077836,-0.619999250593));
#565 = CARTESIAN_POINT('',(1.419594780772,-0.629879866873));
#566 = CARTESIAN_POINT('',(1.458801133978,-0.637436959314));
#567 = CARTESIAN_POINT('',(1.498893845889,-0.642568141377));
#568 = CARTESIAN_POINT('',(1.539509551858,-0.64520362139));
#569 = CARTESIAN_POINT('',(1.580248853526,-0.645317338042));
#570 = CARTESIAN_POINT('',(1.620720844059,-0.642927571219));
#571 = CARTESIAN_POINT('',(1.695436303853,-0.633858438721));
#572 = CARTESIAN_POINT('',(1.729825967317,-0.627752613607));
#573 = CARTESIAN_POINT('',(1.763499352098,-0.619811007447));
#574 = CARTESIAN_POINT('',(1.796238080391,-0.610093747066));
#575 = CARTESIAN_POINT('',(1.827858466092,-0.598680315563));
#576 = CARTESIAN_POINT('',(1.858219276421,-0.585663396873));
#577 = CARTESIAN_POINT('',(1.887218162893,-0.571143047666));
#578 = CARTESIAN_POINT('',(1.963030094452,-0.527361538066));
#579 = CARTESIAN_POINT('',(2.006891926519,-0.495212481421));
#580 = CARTESIAN_POINT('',(2.046001412714,-0.459328404298));
#581 = CARTESIAN_POINT('',(2.080302647095,-0.420292884556));
#582 = CARTESIAN_POINT('',(2.109949719822,-0.378646109723));
#583 = CARTESIAN_POINT('',(2.13513991051,-0.334867373706));
#584 = CARTESIAN_POINT('',(2.156075493696,-0.289386486469));
#585 = CARTESIAN_POINT('',(2.198197222948,-0.172406723373));
#586 = CARTESIAN_POINT('',(2.214274855414,-9.926901224121E-02));
#587 = CARTESIAN_POINT('',(2.221724562127,-2.450270588801E-02));
#588 = CARTESIAN_POINT('',(2.220949763197,5.07683948361E-02));
#589 = CARTESIAN_POINT('',(2.211956474983,0.125502552285));
#590 = CARTESIAN_POINT('',(2.194453365983,0.198625688969));
#591 = CARTESIAN_POINT('',(2.167757259476,0.268877228052));
#592 = CARTESIAN_POINT('',(2.112992320278,0.367684980803));
#593 = CARTESIAN_POINT('',(2.092283870386,0.399525994372));
#594 = CARTESIAN_POINT('',(2.069044354666,0.430083713084));
#595 = CARTESIAN_POINT('',(2.043199829428,0.459154490598));
#596 = CARTESIAN_POINT('',(2.014694680597,0.486518418145));
#597 = CARTESIAN_POINT('',(1.983511586347,0.511939905669));
#598 = CARTESIAN_POINT('',(1.949709557369,0.535176020933));
#599 = CARTESIAN_POINT('',(1.877184278403,0.576811190838));
#600 = CARTESIAN_POINT('',(1.838461036783,0.595210249775));
#601 = CARTESIAN_POINT('',(1.79743538529,0.610957551888));
#602 = CARTESIAN_POINT('',(1.754365309804,0.623829825865));
#603 = CARTESIAN_POINT('',(1.709628469224,0.633629360156));
#604 = CARTESIAN_POINT('',(1.663736179955,0.640210504676));
#605 = CARTESIAN_POINT('',(1.617266256789,0.643501108747));
#606 = CARTESIAN_POINT('',(1.570796326795,0.643501108793));
#607 = ( GEOMETRIC_REPRESENTATION_CONTEXT(2) 
PARAMETRIC_REPRESENTATION_CONTEXT() REPRESENTATION_CONTEXT('2D SPACE',''
  ) );
#608 = ADVANCED_FACE('',(#609),#227,.F.);
#609 = FACE_BOUND('',#610,.F.);
#610 = EDGE_LOOP('',(#611,#632,#633,#634));
#611 = ORIENTED_EDGE('',*,*,#612,.F.);
#612 = EDGE_CURVE('',#301,#457,#613,.T.);
#613 = SURFACE_CURVE('',#614,(#618,#625),.PCURVE_S1.);
#614 = LINE('',#615,#616);
#615 = CARTESIAN_POINT('',(0.,0.,0.));
#616 = VECTOR('',#617,1.);
#617 = DIRECTION('',(0.,1.,0.));
#618 = PCURVE('',#227,#619);
#619 = DEFINITIONAL_REPRESENTATION('',(#620),#624);
#620 = LINE('',#621,#622);
#621 = CARTESIAN_POINT('',(0.,0.));
#622 = VECTOR('',#623,1.);
#623 = DIRECTION('',(0.,1.));
#624 = ( GEOMETRIC_REPRESENTATION_CONTEXT(2) 
PARAMETRIC_REPRESENTATION_CONTEXT() REPRESENTATION_CONTEXT('2D SPACE',''
  ) );
#625 = PCURVE('',#339,#626);
#626 = DEFINITIONAL_REPRESENTATION('',(#627),#631);
#627 = LINE('',#628,#629);
#628 = CARTESIAN_POINT('',(0.,0.));
#629 = VECTOR('',#630,1.);
#630 = DIRECTION('',(0.,-1.));
#631 = ( GEOMETRIC_REPRESENTATION_CONTEXT(2) 
PARAMETRIC_REPRESENTATION_CONTEXT() REPRESENTATION_CONTEXT('2D SPACE',''
  ) );
#632 = ORIENTED_EDGE('',*,*,#300,.T.);
#633 = ORIENTED_EDGE('',*,*,#211,.T.);
#634 = ORIENTED_EDGE('',*,*,#456,.F.);
#635 = ADVANCED_FACE('',(#636),#339,.F.);
#636 = FACE_BOUND('',#637,.F.);
#637 = EDGE_LOOP('',(#638,#639,#640,#641));
#638 = ORIENTED_EDGE('',*,*,#323,.F.);
#639 = ORIENTED_EDGE('',*,*,#612,.T.);
#640 = ORIENTED_EDGE('',*,*,#479,.T.);
#641 = ORIENTED_EDGE('',*,*,#376,.F.);
#642 = ADVANCED_FACE('',(#643),#441,.T.);
#643 = FACE_BOUND('',#644,.T.);
#644 = EDGE_LOOP('',(#645,#669,#670));
#645 = ORIENTED_EDGE('',*,*,#646,.T.);
#646 = EDGE_CURVE('',#425,#647,#649,.T.);
#647 = VERTEX_POINT('',#648);
#648 = CARTESIAN_POINT('',(0.6,0.6,1.1));
#649 = SEAM_CURVE('',#650,(#655,#662),.PCURVE_S1.);
#650 = CIRCLE('',#651,0.5);
#651 = AXIS2_PLACEMENT_3D('',#652,#653,#654);
#652 = CARTESIAN_POINT('',(0.6,0.6,0.6));
#653 = DIRECTION('',(-2.449212707645E-16,-1.,0.));
#654 = DIRECTION('',(1.,-2.449212707645E-16,0.));
#655 = PCURVE('',#441,#656);
#656 = DEFINITIONAL_REPRESENTATION('',(#657),#661);
#657 = LINE('',#658,#659);
#658 = CARTESIAN_POINT('',(6.28318530718,-6.28318530718));
#659 = VECTOR('',#660,1.);
#660 = DIRECTION('',(0.,1.));
#661 = ( GEOMETRIC_REPRESENTATION_CONTEXT(2) 
PARAMETRIC_REPRESENTATION_CONTEXT() REPRESENTATION_CONTEXT('2D SPACE',''
  ) );
#662 = PCURVE('',#441,#663);
#663 = DEFINITIONAL_REPRESENTATION('',(#664),#668);
#664 = LINE('',#665,#666);
#665 = CARTESIAN_POINT('',(0.,-6.28318530718));
#666 = VECTOR('',#667,1.);
#667 = DIRECTION('',(0.,1.));
#668 = ( GEOMETRIC_REPRESENTATION_CONTEXT(2) 
PARAMETRIC_REPRESENTATION_CONTEXT() REPRESENTATION_CONTEXT('2D SPACE',''
  ) );
#669 = ORIENTED_EDGE('',*,*,#646,.F.);
#670 = ORIENTED_EDGE('',*,*,#424,.T.);
#671 = ADVANCED_FACE('',(#672),#521,.T.);
#672 = FACE_BOUND('',#673,.T.);
#673 = EDGE_LOOP('',(#674));
#674 = ORIENTED_EDGE('',*,*,#504,.T.);
#675 = ( GEOMETRIC_REPRESENTATION_CONTEXT(3) 
GLOBAL_UNCERTAINTY_ASSIGNED_CONTEXT((#679)) GLOBAL_UNIT_ASSIGNED_CONTEXT
((#676,#677,#678)) REPRESENTATION_CONTEXT('Context #1',
  '3D Context with UNIT and UNCERTAINTY') );
#676 = ( LENGTH_UNIT() NAMED_UNIT(*) SI_UNIT(.MILLI.,.METRE.) );
#677 = ( NAMED_UNIT(*) PLANE_ANGLE_UNIT() SI_UNIT($,.RADIAN.) );
#678 = ( NAMED_UNIT(*) SI_UNIT($,.STERADIAN.) SOLID_ANGLE_UNIT() );
#679 = UNCERTAINTY_MEASURE_WITH_UNIT(LENGTH_MEASURE(1.E-07),#676,
  'distance_accuracy_value','confusion accuracy');
#680 = PRODUCT_RELATED_PRODUCT_CATEGORY('part',$,(#7));
ENDSEC;
END-ISO-10303-21;
